<?xml version="1.0" encoding="utf-8" standalone="no"?>
<!DOCTYPE svg PUBLIC "-//W3C//DTD SVG 1.1//EN"
  "http://www.w3.org/Graphics/SVG/1.1/DTD/svg11.dtd">
<svg xmlns:xlink="http://www.w3.org/1999/xlink" width="286.464063pt" height="218.998125pt" viewBox="0 0 286.464063 218.998125" xmlns="http://www.w3.org/2000/svg" version="1.1">
 <metadata>
  <rdf:RDF xmlns:dc="http://purl.org/dc/elements/1.1/" xmlns:cc="http://creativecommons.org/ns#" xmlns:rdf="http://www.w3.org/1999/02/22-rdf-syntax-ns#">
   <cc:Work>
    <dc:type rdf:resource="http://purl.org/dc/dcmitype/StillImage"/>
    <dc:date>2024-12-19T17:56:05.223836</dc:date>
    <dc:format>image/svg+xml</dc:format>
    <dc:creator>
     <cc:Agent>
      <dc:title>Matplotlib v3.7.5, https://matplotlib.org/</dc:title>
     </cc:Agent>
    </dc:creator>
   </cc:Work>
  </rdf:RDF>
 </metadata>
 <defs>
  <style type="text/css">*{stroke-linejoin: round; stroke-linecap: butt}</style>
 </defs>
 <g id="figure_1">
  <g id="patch_1">
   <path d="M 0 218.998125 
L 286.464063 218.998125 
L 286.464063 0 
L 0 0 
z
" style="fill: #ffffff"/>
  </g>
  <g id="axes_1">
   <g id="patch_2">
    <path d="M 38.482813 195.12 
L 276.082812 195.12 
L 276.082812 28.8 
L 38.482813 28.8 
z
" style="fill: #ffffff"/>
   </g>
   <g id="PathCollection_1">
    <defs>
     <path id="m468a57434a" d="M 0 3 
C 0.795609 3 1.55874 2.683901 2.12132 2.12132 
C 2.683901 1.55874 3 0.795609 3 0 
C 3 -0.795609 2.683901 -1.55874 2.12132 -2.12132 
C 1.55874 -2.683901 0.795609 -3 0 -3 
C -0.795609 -3 -1.55874 -2.683901 -2.12132 -2.12132 
C -2.683901 -1.55874 -3 -0.795609 -3 0 
C -3 0.795609 -2.683901 1.55874 -2.12132 2.12132 
C -1.55874 2.683901 -0.795609 3 0 3 
z
" style="stroke: #ff0000; stroke-opacity: 0.3"/>
    </defs>
    <g clip-path="url(#p6a53085055)">
     <use xlink:href="#m468a57434a" x="156.558466" y="104.028649" style="fill: #ff0000; fill-opacity: 0.3; stroke: #ff0000; stroke-opacity: 0.3"/>
     <use xlink:href="#m468a57434a" x="77.41675" y="100.105336" style="fill: #ff0000; fill-opacity: 0.3; stroke: #ff0000; stroke-opacity: 0.3"/>
     <use xlink:href="#m468a57434a" x="182.166467" y="73.141991" style="fill: #ff0000; fill-opacity: 0.3; stroke: #ff0000; stroke-opacity: 0.3"/>
     <use xlink:href="#m468a57434a" x="110.226628" y="92.870527" style="fill: #ff0000; fill-opacity: 0.3; stroke: #ff0000; stroke-opacity: 0.3"/>
     <use xlink:href="#m468a57434a" x="151.949788" y="70.23739" style="fill: #ff0000; fill-opacity: 0.3; stroke: #ff0000; stroke-opacity: 0.3"/>
     <use xlink:href="#m468a57434a" x="181.137994" y="109.804098" style="fill: #ff0000; fill-opacity: 0.3; stroke: #ff0000; stroke-opacity: 0.3"/>
     <use xlink:href="#m468a57434a" x="88.873925" y="106.444691" style="fill: #ff0000; fill-opacity: 0.3; stroke: #ff0000; stroke-opacity: 0.3"/>
     <use xlink:href="#m468a57434a" x="129.41248" y="87.394709" style="fill: #ff0000; fill-opacity: 0.3; stroke: #ff0000; stroke-opacity: 0.3"/>
     <use xlink:href="#m468a57434a" x="137.074994" y="59.370601" style="fill: #ff0000; fill-opacity: 0.3; stroke: #ff0000; stroke-opacity: 0.3"/>
     <use xlink:href="#m468a57434a" x="124.90705" y="69.96087" style="fill: #ff0000; fill-opacity: 0.3; stroke: #ff0000; stroke-opacity: 0.3"/>
     <use xlink:href="#m468a57434a" x="180.139356" y="102.631453" style="fill: #ff0000; fill-opacity: 0.3; stroke: #ff0000; stroke-opacity: 0.3"/>
     <use xlink:href="#m468a57434a" x="162.677693" y="84.465998" style="fill: #ff0000; fill-opacity: 0.3; stroke: #ff0000; stroke-opacity: 0.3"/>
     <use xlink:href="#m468a57434a" x="75.467265" y="105.599779" style="fill: #ff0000; fill-opacity: 0.3; stroke: #ff0000; stroke-opacity: 0.3"/>
     <use xlink:href="#m468a57434a" x="106.427801" y="94.376531" style="fill: #ff0000; fill-opacity: 0.3; stroke: #ff0000; stroke-opacity: 0.3"/>
     <use xlink:href="#m468a57434a" x="159.86362" y="76.665839" style="fill: #ff0000; fill-opacity: 0.3; stroke: #ff0000; stroke-opacity: 0.3"/>
     <use xlink:href="#m468a57434a" x="174.647299" y="139.833408" style="fill: #ff0000; fill-opacity: 0.3; stroke: #ff0000; stroke-opacity: 0.3"/>
     <use xlink:href="#m468a57434a" x="176.277453" y="114.98843" style="fill: #ff0000; fill-opacity: 0.3; stroke: #ff0000; stroke-opacity: 0.3"/>
     <use xlink:href="#m468a57434a" x="125.783087" y="79.682481" style="fill: #ff0000; fill-opacity: 0.3; stroke: #ff0000; stroke-opacity: 0.3"/>
     <use xlink:href="#m468a57434a" x="194.80006" y="86.638519" style="fill: #ff0000; fill-opacity: 0.3; stroke: #ff0000; stroke-opacity: 0.3"/>
     <use xlink:href="#m468a57434a" x="180.811617" y="130.854246" style="fill: #ff0000; fill-opacity: 0.3; stroke: #ff0000; stroke-opacity: 0.3"/>
     <use xlink:href="#m468a57434a" x="94.931717" y="115.687342" style="fill: #ff0000; fill-opacity: 0.3; stroke: #ff0000; stroke-opacity: 0.3"/>
     <use xlink:href="#m468a57434a" x="117.164942" y="95.483733" style="fill: #ff0000; fill-opacity: 0.3; stroke: #ff0000; stroke-opacity: 0.3"/>
     <use xlink:href="#m468a57434a" x="150.299075" y="96.06283" style="fill: #ff0000; fill-opacity: 0.3; stroke: #ff0000; stroke-opacity: 0.3"/>
     <use xlink:href="#m468a57434a" x="105.205842" y="85.631179" style="fill: #ff0000; fill-opacity: 0.3; stroke: #ff0000; stroke-opacity: 0.3"/>
     <use xlink:href="#m468a57434a" x="84.739915" y="126.670205" style="fill: #ff0000; fill-opacity: 0.3; stroke: #ff0000; stroke-opacity: 0.3"/>
     <use xlink:href="#m468a57434a" x="95.556285" y="89.325001" style="fill: #ff0000; fill-opacity: 0.3; stroke: #ff0000; stroke-opacity: 0.3"/>
     <use xlink:href="#m468a57434a" x="87.440166" y="102.961179" style="fill: #ff0000; fill-opacity: 0.3; stroke: #ff0000; stroke-opacity: 0.3"/>
     <use xlink:href="#m468a57434a" x="152.791791" y="65.679358" style="fill: #ff0000; fill-opacity: 0.3; stroke: #ff0000; stroke-opacity: 0.3"/>
     <use xlink:href="#m468a57434a" x="101.635985" y="94.086473" style="fill: #ff0000; fill-opacity: 0.3; stroke: #ff0000; stroke-opacity: 0.3"/>
     <use xlink:href="#m468a57434a" x="147.509629" y="97.307422" style="fill: #ff0000; fill-opacity: 0.3; stroke: #ff0000; stroke-opacity: 0.3"/>
    </g>
   </g>
   <g id="PathCollection_2">
    <defs>
     <path id="mbbe9ab2c0f" d="M 0 3 
C 0.795609 3 1.55874 2.683901 2.12132 2.12132 
C 2.683901 1.55874 3 0.795609 3 0 
C 3 -0.795609 2.683901 -1.55874 2.12132 -2.12132 
C 1.55874 -2.683901 0.795609 -3 0 -3 
C -0.795609 -3 -1.55874 -2.683901 -2.12132 -2.12132 
C -2.683901 -1.55874 -3 -0.795609 -3 0 
C -3 0.795609 -2.683901 1.55874 -2.12132 2.12132 
C -1.55874 2.683901 -0.795609 3 0 3 
z
" style="stroke: #0000ff; stroke-opacity: 0.3"/>
    </defs>
    <g clip-path="url(#p6a53085055)">
     <use xlink:href="#mbbe9ab2c0f" x="153.950498" y="141.713129" style="fill: #0000ff; fill-opacity: 0.3; stroke: #0000ff; stroke-opacity: 0.3"/>
     <use xlink:href="#mbbe9ab2c0f" x="183.908528" y="139.511993" style="fill: #0000ff; fill-opacity: 0.3; stroke: #0000ff; stroke-opacity: 0.3"/>
     <use xlink:href="#mbbe9ab2c0f" x="205.753936" y="133.453538" style="fill: #0000ff; fill-opacity: 0.3; stroke: #0000ff; stroke-opacity: 0.3"/>
     <use xlink:href="#mbbe9ab2c0f" x="213.025843" y="139.233099" style="fill: #0000ff; fill-opacity: 0.3; stroke: #0000ff; stroke-opacity: 0.3"/>
     <use xlink:href="#mbbe9ab2c0f" x="144.351677" y="111.815785" style="fill: #0000ff; fill-opacity: 0.3; stroke: #0000ff; stroke-opacity: 0.3"/>
     <use xlink:href="#mbbe9ab2c0f" x="141.959598" y="127.012289" style="fill: #0000ff; fill-opacity: 0.3; stroke: #0000ff; stroke-opacity: 0.3"/>
     <use xlink:href="#mbbe9ab2c0f" x="125.461931" y="110.09845" style="fill: #0000ff; fill-opacity: 0.3; stroke: #0000ff; stroke-opacity: 0.3"/>
     <use xlink:href="#mbbe9ab2c0f" x="154.321817" y="140.699732" style="fill: #0000ff; fill-opacity: 0.3; stroke: #0000ff; stroke-opacity: 0.3"/>
     <use xlink:href="#mbbe9ab2c0f" x="175.736055" y="161.193152" style="fill: #0000ff; fill-opacity: 0.3; stroke: #0000ff; stroke-opacity: 0.3"/>
     <use xlink:href="#mbbe9ab2c0f" x="205.258221" y="122.851045" style="fill: #0000ff; fill-opacity: 0.3; stroke: #0000ff; stroke-opacity: 0.3"/>
     <use xlink:href="#mbbe9ab2c0f" x="143.04589" y="116.489274" style="fill: #0000ff; fill-opacity: 0.3; stroke: #0000ff; stroke-opacity: 0.3"/>
     <use xlink:href="#mbbe9ab2c0f" x="231.567411" y="99.380402" style="fill: #0000ff; fill-opacity: 0.3; stroke: #0000ff; stroke-opacity: 0.3"/>
     <use xlink:href="#mbbe9ab2c0f" x="196.684874" y="128.013526" style="fill: #0000ff; fill-opacity: 0.3; stroke: #0000ff; stroke-opacity: 0.3"/>
     <use xlink:href="#mbbe9ab2c0f" x="218.680798" y="156.114815" style="fill: #0000ff; fill-opacity: 0.3; stroke: #0000ff; stroke-opacity: 0.3"/>
     <use xlink:href="#mbbe9ab2c0f" x="132.565691" y="121.412121" style="fill: #0000ff; fill-opacity: 0.3; stroke: #0000ff; stroke-opacity: 0.3"/>
     <use xlink:href="#mbbe9ab2c0f" x="193.653448" y="122.761351" style="fill: #0000ff; fill-opacity: 0.3; stroke: #0000ff; stroke-opacity: 0.3"/>
     <use xlink:href="#mbbe9ab2c0f" x="161.96521" y="115.384102" style="fill: #0000ff; fill-opacity: 0.3; stroke: #0000ff; stroke-opacity: 0.3"/>
     <use xlink:href="#mbbe9ab2c0f" x="160.52565" y="119.643936" style="fill: #0000ff; fill-opacity: 0.3; stroke: #0000ff; stroke-opacity: 0.3"/>
     <use xlink:href="#mbbe9ab2c0f" x="127.710344" y="96.754572" style="fill: #0000ff; fill-opacity: 0.3; stroke: #0000ff; stroke-opacity: 0.3"/>
     <use xlink:href="#mbbe9ab2c0f" x="224.492631" y="104.388007" style="fill: #0000ff; fill-opacity: 0.3; stroke: #0000ff; stroke-opacity: 0.3"/>
     <use xlink:href="#mbbe9ab2c0f" x="173.086262" y="145.943922" style="fill: #0000ff; fill-opacity: 0.3; stroke: #0000ff; stroke-opacity: 0.3"/>
     <use xlink:href="#mbbe9ab2c0f" x="167.138501" y="134.54106" style="fill: #0000ff; fill-opacity: 0.3; stroke: #0000ff; stroke-opacity: 0.3"/>
     <use xlink:href="#mbbe9ab2c0f" x="158.823514" y="127.852981" style="fill: #0000ff; fill-opacity: 0.3; stroke: #0000ff; stroke-opacity: 0.3"/>
     <use xlink:href="#mbbe9ab2c0f" x="220.036746" y="114.890058" style="fill: #0000ff; fill-opacity: 0.3; stroke: #0000ff; stroke-opacity: 0.3"/>
     <use xlink:href="#mbbe9ab2c0f" x="182.165271" y="143.434687" style="fill: #0000ff; fill-opacity: 0.3; stroke: #0000ff; stroke-opacity: 0.3"/>
     <use xlink:href="#mbbe9ab2c0f" x="171.464437" y="142.421152" style="fill: #0000ff; fill-opacity: 0.3; stroke: #0000ff; stroke-opacity: 0.3"/>
     <use xlink:href="#mbbe9ab2c0f" x="132.396494" y="121.552407" style="fill: #0000ff; fill-opacity: 0.3; stroke: #0000ff; stroke-opacity: 0.3"/>
     <use xlink:href="#mbbe9ab2c0f" x="203.481965" y="146.450378" style="fill: #0000ff; fill-opacity: 0.3; stroke: #0000ff; stroke-opacity: 0.3"/>
     <use xlink:href="#mbbe9ab2c0f" x="228.339934" y="129.520676" style="fill: #0000ff; fill-opacity: 0.3; stroke: #0000ff; stroke-opacity: 0.3"/>
     <use xlink:href="#mbbe9ab2c0f" x="189.312222" y="137.790685" style="fill: #0000ff; fill-opacity: 0.3; stroke: #0000ff; stroke-opacity: 0.3"/>
     <use xlink:href="#mbbe9ab2c0f" x="160.158747" y="110.155886" style="fill: #0000ff; fill-opacity: 0.3; stroke: #0000ff; stroke-opacity: 0.3"/>
     <use xlink:href="#mbbe9ab2c0f" x="175.29923" y="151.503215" style="fill: #0000ff; fill-opacity: 0.3; stroke: #0000ff; stroke-opacity: 0.3"/>
     <use xlink:href="#mbbe9ab2c0f" x="146.002403" y="116.588945" style="fill: #0000ff; fill-opacity: 0.3; stroke: #0000ff; stroke-opacity: 0.3"/>
     <use xlink:href="#mbbe9ab2c0f" x="201.528967" y="146.643121" style="fill: #0000ff; fill-opacity: 0.3; stroke: #0000ff; stroke-opacity: 0.3"/>
     <use xlink:href="#mbbe9ab2c0f" x="201.209165" y="148.963322" style="fill: #0000ff; fill-opacity: 0.3; stroke: #0000ff; stroke-opacity: 0.3"/>
     <use xlink:href="#mbbe9ab2c0f" x="233.275683" y="133.447738" style="fill: #0000ff; fill-opacity: 0.3; stroke: #0000ff; stroke-opacity: 0.3"/>
     <use xlink:href="#mbbe9ab2c0f" x="143.814989" y="143.804761" style="fill: #0000ff; fill-opacity: 0.3; stroke: #0000ff; stroke-opacity: 0.3"/>
     <use xlink:href="#mbbe9ab2c0f" x="213.662755" y="111.116642" style="fill: #0000ff; fill-opacity: 0.3; stroke: #0000ff; stroke-opacity: 0.3"/>
     <use xlink:href="#mbbe9ab2c0f" x="177.403272" y="145.049692" style="fill: #0000ff; fill-opacity: 0.3; stroke: #0000ff; stroke-opacity: 0.3"/>
     <use xlink:href="#mbbe9ab2c0f" x="228.73628" y="127.613045" style="fill: #0000ff; fill-opacity: 0.3; stroke: #0000ff; stroke-opacity: 0.3"/>
     <use xlink:href="#mbbe9ab2c0f" x="236.109227" y="113.775574" style="fill: #0000ff; fill-opacity: 0.3; stroke: #0000ff; stroke-opacity: 0.3"/>
     <use xlink:href="#mbbe9ab2c0f" x="210.35448" y="120.54881" style="fill: #0000ff; fill-opacity: 0.3; stroke: #0000ff; stroke-opacity: 0.3"/>
     <use xlink:href="#mbbe9ab2c0f" x="128.753014" y="122.886278" style="fill: #0000ff; fill-opacity: 0.3; stroke: #0000ff; stroke-opacity: 0.3"/>
     <use xlink:href="#mbbe9ab2c0f" x="186.445844" y="146.42657" style="fill: #0000ff; fill-opacity: 0.3; stroke: #0000ff; stroke-opacity: 0.3"/>
     <use xlink:href="#mbbe9ab2c0f" x="150.11415" y="151.856186" style="fill: #0000ff; fill-opacity: 0.3; stroke: #0000ff; stroke-opacity: 0.3"/>
     <use xlink:href="#mbbe9ab2c0f" x="154.742245" y="150.213754" style="fill: #0000ff; fill-opacity: 0.3; stroke: #0000ff; stroke-opacity: 0.3"/>
     <use xlink:href="#mbbe9ab2c0f" x="196.869035" y="139.147943" style="fill: #0000ff; fill-opacity: 0.3; stroke: #0000ff; stroke-opacity: 0.3"/>
     <use xlink:href="#mbbe9ab2c0f" x="214.785378" y="109.825139" style="fill: #0000ff; fill-opacity: 0.3; stroke: #0000ff; stroke-opacity: 0.3"/>
     <use xlink:href="#mbbe9ab2c0f" x="124.639456" y="115.203348" style="fill: #0000ff; fill-opacity: 0.3; stroke: #0000ff; stroke-opacity: 0.3"/>
     <use xlink:href="#mbbe9ab2c0f" x="142.380988" y="104.187969" style="fill: #0000ff; fill-opacity: 0.3; stroke: #0000ff; stroke-opacity: 0.3"/>
     <use xlink:href="#mbbe9ab2c0f" x="142.119142" y="134.039923" style="fill: #0000ff; fill-opacity: 0.3; stroke: #0000ff; stroke-opacity: 0.3"/>
     <use xlink:href="#mbbe9ab2c0f" x="236.148171" y="110.105171" style="fill: #0000ff; fill-opacity: 0.3; stroke: #0000ff; stroke-opacity: 0.3"/>
     <use xlink:href="#mbbe9ab2c0f" x="217.090485" y="152.33003" style="fill: #0000ff; fill-opacity: 0.3; stroke: #0000ff; stroke-opacity: 0.3"/>
     <use xlink:href="#mbbe9ab2c0f" x="136.565523" y="107.028495" style="fill: #0000ff; fill-opacity: 0.3; stroke: #0000ff; stroke-opacity: 0.3"/>
     <use xlink:href="#mbbe9ab2c0f" x="155.181987" y="138.380074" style="fill: #0000ff; fill-opacity: 0.3; stroke: #0000ff; stroke-opacity: 0.3"/>
     <use xlink:href="#mbbe9ab2c0f" x="165.303994" y="151.013427" style="fill: #0000ff; fill-opacity: 0.3; stroke: #0000ff; stroke-opacity: 0.3"/>
     <use xlink:href="#mbbe9ab2c0f" x="133.957954" y="103.984768" style="fill: #0000ff; fill-opacity: 0.3; stroke: #0000ff; stroke-opacity: 0.3"/>
     <use xlink:href="#mbbe9ab2c0f" x="163.70575" y="150.166275" style="fill: #0000ff; fill-opacity: 0.3; stroke: #0000ff; stroke-opacity: 0.3"/>
     <use xlink:href="#mbbe9ab2c0f" x="129.140721" y="97.011711" style="fill: #0000ff; fill-opacity: 0.3; stroke: #0000ff; stroke-opacity: 0.3"/>
     <use xlink:href="#mbbe9ab2c0f" x="174.650839" y="146.276822" style="fill: #0000ff; fill-opacity: 0.3; stroke: #0000ff; stroke-opacity: 0.3"/>
     <use xlink:href="#mbbe9ab2c0f" x="151.411269" y="133.786571" style="fill: #0000ff; fill-opacity: 0.3; stroke: #0000ff; stroke-opacity: 0.3"/>
     <use xlink:href="#mbbe9ab2c0f" x="204.144493" y="140.155811" style="fill: #0000ff; fill-opacity: 0.3; stroke: #0000ff; stroke-opacity: 0.3"/>
     <use xlink:href="#mbbe9ab2c0f" x="207.484906" y="130.459764" style="fill: #0000ff; fill-opacity: 0.3; stroke: #0000ff; stroke-opacity: 0.3"/>
     <use xlink:href="#mbbe9ab2c0f" x="128.45913" y="99.139765" style="fill: #0000ff; fill-opacity: 0.3; stroke: #0000ff; stroke-opacity: 0.3"/>
     <use xlink:href="#mbbe9ab2c0f" x="208.320897" y="120.830478" style="fill: #0000ff; fill-opacity: 0.3; stroke: #0000ff; stroke-opacity: 0.3"/>
     <use xlink:href="#mbbe9ab2c0f" x="199.203632" y="139.023621" style="fill: #0000ff; fill-opacity: 0.3; stroke: #0000ff; stroke-opacity: 0.3"/>
     <use xlink:href="#mbbe9ab2c0f" x="138.964842" y="142.955425" style="fill: #0000ff; fill-opacity: 0.3; stroke: #0000ff; stroke-opacity: 0.3"/>
     <use xlink:href="#mbbe9ab2c0f" x="227.409538" y="121.504168" style="fill: #0000ff; fill-opacity: 0.3; stroke: #0000ff; stroke-opacity: 0.3"/>
     <use xlink:href="#mbbe9ab2c0f" x="177.078557" y="161.387436" style="fill: #0000ff; fill-opacity: 0.3; stroke: #0000ff; stroke-opacity: 0.3"/>
     <use xlink:href="#mbbe9ab2c0f" x="233.41934" y="108.566194" style="fill: #0000ff; fill-opacity: 0.3; stroke: #0000ff; stroke-opacity: 0.3"/>
     <use xlink:href="#mbbe9ab2c0f" x="229.911935" y="103.114897" style="fill: #0000ff; fill-opacity: 0.3; stroke: #0000ff; stroke-opacity: 0.3"/>
     <use xlink:href="#mbbe9ab2c0f" x="186.861246" y="140.991123" style="fill: #0000ff; fill-opacity: 0.3; stroke: #0000ff; stroke-opacity: 0.3"/>
     <use xlink:href="#mbbe9ab2c0f" x="158.604465" y="158.13393" style="fill: #0000ff; fill-opacity: 0.3; stroke: #0000ff; stroke-opacity: 0.3"/>
     <use xlink:href="#mbbe9ab2c0f" x="166.752517" y="141.792973" style="fill: #0000ff; fill-opacity: 0.3; stroke: #0000ff; stroke-opacity: 0.3"/>
     <use xlink:href="#mbbe9ab2c0f" x="221.727867" y="111.048756" style="fill: #0000ff; fill-opacity: 0.3; stroke: #0000ff; stroke-opacity: 0.3"/>
     <use xlink:href="#mbbe9ab2c0f" x="151.437145" y="144.466334" style="fill: #0000ff; fill-opacity: 0.3; stroke: #0000ff; stroke-opacity: 0.3"/>
     <use xlink:href="#mbbe9ab2c0f" x="182.255915" y="146.610175" style="fill: #0000ff; fill-opacity: 0.3; stroke: #0000ff; stroke-opacity: 0.3"/>
     <use xlink:href="#mbbe9ab2c0f" x="138.482925" y="136.899878" style="fill: #0000ff; fill-opacity: 0.3; stroke: #0000ff; stroke-opacity: 0.3"/>
     <use xlink:href="#mbbe9ab2c0f" x="201.892896" y="143.838729" style="fill: #0000ff; fill-opacity: 0.3; stroke: #0000ff; stroke-opacity: 0.3"/>
     <use xlink:href="#mbbe9ab2c0f" x="219.989701" y="118.62345" style="fill: #0000ff; fill-opacity: 0.3; stroke: #0000ff; stroke-opacity: 0.3"/>
     <use xlink:href="#mbbe9ab2c0f" x="144.210012" y="124.287521" style="fill: #0000ff; fill-opacity: 0.3; stroke: #0000ff; stroke-opacity: 0.3"/>
     <use xlink:href="#mbbe9ab2c0f" x="209.239263" y="81.966771" style="fill: #0000ff; fill-opacity: 0.3; stroke: #0000ff; stroke-opacity: 0.3"/>
     <use xlink:href="#mbbe9ab2c0f" x="134.397128" y="103.77221" style="fill: #0000ff; fill-opacity: 0.3; stroke: #0000ff; stroke-opacity: 0.3"/>
     <use xlink:href="#mbbe9ab2c0f" x="205.584553" y="121.391492" style="fill: #0000ff; fill-opacity: 0.3; stroke: #0000ff; stroke-opacity: 0.3"/>
     <use xlink:href="#mbbe9ab2c0f" x="162.662177" y="136.871172" style="fill: #0000ff; fill-opacity: 0.3; stroke: #0000ff; stroke-opacity: 0.3"/>
     <use xlink:href="#mbbe9ab2c0f" x="141.144862" y="125.451755" style="fill: #0000ff; fill-opacity: 0.3; stroke: #0000ff; stroke-opacity: 0.3"/>
     <use xlink:href="#mbbe9ab2c0f" x="217.980537" y="125.075536" style="fill: #0000ff; fill-opacity: 0.3; stroke: #0000ff; stroke-opacity: 0.3"/>
     <use xlink:href="#mbbe9ab2c0f" x="215.602072" y="155.95617" style="fill: #0000ff; fill-opacity: 0.3; stroke: #0000ff; stroke-opacity: 0.3"/>
     <use xlink:href="#mbbe9ab2c0f" x="165.64109" y="134.651939" style="fill: #0000ff; fill-opacity: 0.3; stroke: #0000ff; stroke-opacity: 0.3"/>
     <use xlink:href="#mbbe9ab2c0f" x="193.174855" y="140.720094" style="fill: #0000ff; fill-opacity: 0.3; stroke: #0000ff; stroke-opacity: 0.3"/>
     <use xlink:href="#mbbe9ab2c0f" x="130.585197" y="105.556208" style="fill: #0000ff; fill-opacity: 0.3; stroke: #0000ff; stroke-opacity: 0.3"/>
     <use xlink:href="#mbbe9ab2c0f" x="210.863042" y="106.09605" style="fill: #0000ff; fill-opacity: 0.3; stroke: #0000ff; stroke-opacity: 0.3"/>
     <use xlink:href="#mbbe9ab2c0f" x="192.643149" y="151.685885" style="fill: #0000ff; fill-opacity: 0.3; stroke: #0000ff; stroke-opacity: 0.3"/>
     <use xlink:href="#mbbe9ab2c0f" x="219.8792" y="136.504384" style="fill: #0000ff; fill-opacity: 0.3; stroke: #0000ff; stroke-opacity: 0.3"/>
     <use xlink:href="#mbbe9ab2c0f" x="227.076939" y="94.354186" style="fill: #0000ff; fill-opacity: 0.3; stroke: #0000ff; stroke-opacity: 0.3"/>
     <use xlink:href="#mbbe9ab2c0f" x="216.994712" y="116.01758" style="fill: #0000ff; fill-opacity: 0.3; stroke: #0000ff; stroke-opacity: 0.3"/>
     <use xlink:href="#mbbe9ab2c0f" x="159.025794" y="143.013559" style="fill: #0000ff; fill-opacity: 0.3; stroke: #0000ff; stroke-opacity: 0.3"/>
     <use xlink:href="#mbbe9ab2c0f" x="158.199694" y="144.69324" style="fill: #0000ff; fill-opacity: 0.3; stroke: #0000ff; stroke-opacity: 0.3"/>
     <use xlink:href="#mbbe9ab2c0f" x="224.573159" y="118.761229" style="fill: #0000ff; fill-opacity: 0.3; stroke: #0000ff; stroke-opacity: 0.3"/>
     <use xlink:href="#mbbe9ab2c0f" x="133.432321" y="132.216635" style="fill: #0000ff; fill-opacity: 0.3; stroke: #0000ff; stroke-opacity: 0.3"/>
    </g>
   </g>
   <g id="patch_3">
    <path d="M 156.558466 120.159757 
C 160.836486 120.159757 164.939865 118.460081 167.964882 115.435065 
C 170.989899 112.410048 172.689574 108.306669 172.689574 104.028649 
C 172.689574 99.750629 170.989899 95.64725 167.964882 92.622233 
C 164.939865 89.597216 160.836486 87.897541 156.558466 87.897541 
C 152.280447 87.897541 148.177068 89.597216 145.152051 92.622233 
C 142.127034 95.64725 140.427359 99.750629 140.427359 104.028649 
C 140.427359 108.306669 142.127034 112.410048 145.152051 115.435065 
C 148.177068 118.460081 152.280447 120.159757 156.558466 120.159757 
L 156.558466 120.159757 
z
" clip-path="url(#p6a53085055)" style="fill: none; opacity: 0.3; stroke: #ff0000; stroke-linejoin: miter"/>
   </g>
   <g id="patch_4">
    <path d="M 77.41675 116.236444 
C 81.69477 116.236444 85.798149 114.536769 88.823165 111.511752 
C 91.848182 108.486735 93.547857 104.383356 93.547857 100.105336 
C 93.547857 95.827317 91.848182 91.723937 88.823165 88.698921 
C 85.798149 85.673904 81.69477 83.974229 77.41675 83.974229 
C 73.13873 83.974229 69.035351 85.673904 66.010334 88.698921 
C 62.985317 91.723937 61.285642 95.827317 61.285642 100.105336 
C 61.285642 104.383356 62.985317 108.486735 66.010334 111.511752 
C 69.035351 114.536769 73.13873 116.236444 77.41675 116.236444 
L 77.41675 116.236444 
z
" clip-path="url(#p6a53085055)" style="fill: none; opacity: 0.3; stroke: #ff0000; stroke-linejoin: miter"/>
   </g>
   <g id="patch_5">
    <path d="M 182.166467 89.273099 
C 186.444487 89.273099 190.547866 87.573423 193.572883 84.548407 
C 196.5979 81.52339 198.297575 77.420011 198.297575 73.141991 
C 198.297575 68.863971 196.5979 64.760592 193.572883 61.735575 
C 190.547866 58.710558 186.444487 57.010883 182.166467 57.010883 
C 177.888447 57.010883 173.785068 58.710558 170.760051 61.735575 
C 167.735035 64.760592 166.035359 68.863971 166.035359 73.141991 
C 166.035359 77.420011 167.735035 81.52339 170.760051 84.548407 
C 173.785068 87.573423 177.888447 89.273099 182.166467 89.273099 
L 182.166467 89.273099 
z
" clip-path="url(#p6a53085055)" style="fill: none; opacity: 0.3; stroke: #ff0000; stroke-linejoin: miter"/>
   </g>
   <g id="patch_6">
    <path d="M 110.226628 109.001635 
C 114.504648 109.001635 118.608027 107.30196 121.633043 104.276943 
C 124.65806 101.251926 126.357736 97.148547 126.357736 92.870527 
C 126.357736 88.592508 124.65806 84.489128 121.633043 81.464112 
C 118.608027 78.439095 114.504648 76.73942 110.226628 76.73942 
C 105.948608 76.73942 101.845229 78.439095 98.820212 81.464112 
C 95.795195 84.489128 94.09552 88.592508 94.09552 92.870527 
C 94.09552 97.148547 95.795195 101.251926 98.820212 104.276943 
C 101.845229 107.30196 105.948608 109.001635 110.226628 109.001635 
L 110.226628 109.001635 
z
" clip-path="url(#p6a53085055)" style="fill: none; opacity: 0.3; stroke: #ff0000; stroke-linejoin: miter"/>
   </g>
   <g id="patch_7">
    <path d="M 151.949788 86.368497 
C 156.227808 86.368497 160.331187 84.668822 163.356204 81.643805 
C 166.38122 78.618789 168.080896 74.515409 168.080896 70.23739 
C 168.080896 65.95937 166.38122 61.855991 163.356204 58.830974 
C 160.331187 55.805957 156.227808 54.106282 151.949788 54.106282 
C 147.671768 54.106282 143.568389 55.805957 140.543372 58.830974 
C 137.518355 61.855991 135.81868 65.95937 135.81868 70.23739 
C 135.81868 74.515409 137.518355 78.618789 140.543372 81.643805 
C 143.568389 84.668822 147.671768 86.368497 151.949788 86.368497 
L 151.949788 86.368497 
z
" clip-path="url(#p6a53085055)" style="fill: none; opacity: 0.3; stroke: #ff0000; stroke-linejoin: miter"/>
   </g>
   <g id="patch_8">
    <path d="M 181.137994 125.935206 
C 185.416014 125.935206 189.519393 124.23553 192.54441 121.210513 
C 195.569426 118.185497 197.269102 114.082118 197.269102 109.804098 
C 197.269102 105.526078 195.569426 101.422699 192.54441 98.397682 
C 189.519393 95.372665 185.416014 93.67299 181.137994 93.67299 
C 176.859974 93.67299 172.756595 95.372665 169.731578 98.397682 
C 166.706561 101.422699 165.006886 105.526078 165.006886 109.804098 
C 165.006886 114.082118 166.706561 118.185497 169.731578 121.210513 
C 172.756595 124.23553 176.859974 125.935206 181.137994 125.935206 
L 181.137994 125.935206 
z
" clip-path="url(#p6a53085055)" style="fill: none; opacity: 0.3; stroke: #ff0000; stroke-linejoin: miter"/>
   </g>
   <g id="patch_9">
    <path d="M 88.873925 122.575799 
C 93.151944 122.575799 97.255324 120.876124 100.28034 117.851107 
C 103.305357 114.82609 105.005032 110.722711 105.005032 106.444691 
C 105.005032 102.166671 103.305357 98.063292 100.28034 95.038276 
C 97.255324 92.013259 93.151944 90.313583 88.873925 90.313583 
C 84.595905 90.313583 80.492526 92.013259 77.467509 95.038276 
C 74.442492 98.063292 72.742817 102.166671 72.742817 106.444691 
C 72.742817 110.722711 74.442492 114.82609 77.467509 117.851107 
C 80.492526 120.876124 84.595905 122.575799 88.873925 122.575799 
L 88.873925 122.575799 
z
" clip-path="url(#p6a53085055)" style="fill: none; opacity: 0.3; stroke: #ff0000; stroke-linejoin: miter"/>
   </g>
   <g id="patch_10">
    <path d="M 129.41248 103.525817 
C 133.6905 103.525817 137.793879 101.826141 140.818896 98.801124 
C 143.843913 95.776108 145.543588 91.672729 145.543588 87.394709 
C 145.543588 83.116689 143.843913 79.01331 140.818896 75.988293 
C 137.793879 72.963276 133.6905 71.263601 129.41248 71.263601 
C 125.13446 71.263601 121.031081 72.963276 118.006065 75.988293 
C 114.981048 79.01331 113.281372 83.116689 113.281372 87.394709 
C 113.281372 91.672729 114.981048 95.776108 118.006065 98.801124 
C 121.031081 101.826141 125.13446 103.525817 129.41248 103.525817 
L 129.41248 103.525817 
z
" clip-path="url(#p6a53085055)" style="fill: none; opacity: 0.3; stroke: #ff0000; stroke-linejoin: miter"/>
   </g>
   <g id="patch_11">
    <path d="M 137.074994 75.501709 
C 141.353013 75.501709 145.456393 73.802034 148.481409 70.777017 
C 151.506426 67.752 153.206101 63.648621 153.206101 59.370601 
C 153.206101 55.092581 151.506426 50.989202 148.481409 47.964185 
C 145.456393 44.939169 141.353013 43.239493 137.074994 43.239493 
C 132.796974 43.239493 128.693595 44.939169 125.668578 47.964185 
C 122.643561 50.989202 120.943886 55.092581 120.943886 59.370601 
C 120.943886 63.648621 122.643561 67.752 125.668578 70.777017 
C 128.693595 73.802034 132.796974 75.501709 137.074994 75.501709 
L 137.074994 75.501709 
z
" clip-path="url(#p6a53085055)" style="fill: none; opacity: 0.3; stroke: #ff0000; stroke-linejoin: miter"/>
   </g>
   <g id="patch_12">
    <path d="M 124.90705 86.091978 
C 129.18507 86.091978 133.288449 84.392303 136.313466 81.367286 
C 139.338483 78.342269 141.038158 74.23889 141.038158 69.96087 
C 141.038158 65.68285 139.338483 61.579471 136.313466 58.554454 
C 133.288449 55.529438 129.18507 53.829762 124.90705 53.829762 
C 120.629031 53.829762 116.525652 55.529438 113.500635 58.554454 
C 110.475618 61.579471 108.775943 65.68285 108.775943 69.96087 
C 108.775943 74.23889 110.475618 78.342269 113.500635 81.367286 
C 116.525652 84.392303 120.629031 86.091978 124.90705 86.091978 
L 124.90705 86.091978 
z
" clip-path="url(#p6a53085055)" style="fill: none; opacity: 0.3; stroke: #ff0000; stroke-linejoin: miter"/>
   </g>
   <g id="patch_13">
    <path d="M 180.139356 118.76256 
C 184.417376 118.76256 188.520755 117.062885 191.545772 114.037868 
C 194.570789 111.012851 196.270464 106.909472 196.270464 102.631453 
C 196.270464 98.353433 194.570789 94.250054 191.545772 91.225037 
C 188.520755 88.20002 184.417376 86.500345 180.139356 86.500345 
C 175.861336 86.500345 171.757957 88.20002 168.73294 91.225037 
C 165.707924 94.250054 164.008248 98.353433 164.008248 102.631453 
C 164.008248 106.909472 165.707924 111.012851 168.73294 114.037868 
C 171.757957 117.062885 175.861336 118.76256 180.139356 118.76256 
L 180.139356 118.76256 
z
" clip-path="url(#p6a53085055)" style="fill: none; opacity: 0.3; stroke: #ff0000; stroke-linejoin: miter"/>
   </g>
   <g id="patch_14">
    <path d="M 162.677693 100.597106 
C 166.955712 100.597106 171.059091 98.897431 174.084108 95.872414 
C 177.109125 92.847397 178.8088 88.744018 178.8088 84.465998 
C 178.8088 80.187979 177.109125 76.0846 174.084108 73.059583 
C 171.059091 70.034566 166.955712 68.334891 162.677693 68.334891 
C 158.399673 68.334891 154.296294 70.034566 151.271277 73.059583 
C 148.24626 76.0846 146.546585 80.187979 146.546585 84.465998 
C 146.546585 88.744018 148.24626 92.847397 151.271277 95.872414 
C 154.296294 98.897431 158.399673 100.597106 162.677693 100.597106 
L 162.677693 100.597106 
z
" clip-path="url(#p6a53085055)" style="fill: none; opacity: 0.3; stroke: #ff0000; stroke-linejoin: miter"/>
   </g>
   <g id="patch_15">
    <path d="M 75.467265 121.730887 
C 79.745284 121.730887 83.848663 120.031211 86.87368 117.006195 
C 89.898697 113.981178 91.598372 109.877799 91.598372 105.599779 
C 91.598372 101.321759 89.898697 97.21838 86.87368 94.193363 
C 83.848663 91.168346 79.745284 89.468671 75.467265 89.468671 
C 71.189245 89.468671 67.085866 91.168346 64.060849 94.193363 
C 61.035832 97.21838 59.336157 101.321759 59.336157 105.599779 
C 59.336157 109.877799 61.035832 113.981178 64.060849 117.006195 
C 67.085866 120.031211 71.189245 121.730887 75.467265 121.730887 
L 75.467265 121.730887 
z
" clip-path="url(#p6a53085055)" style="fill: none; opacity: 0.3; stroke: #ff0000; stroke-linejoin: miter"/>
   </g>
   <g id="patch_16">
    <path d="M 106.427801 110.507639 
C 110.70582 110.507639 114.8092 108.807963 117.834216 105.782946 
C 120.859233 102.75793 122.558908 98.654551 122.558908 94.376531 
C 122.558908 90.098511 120.859233 85.995132 117.834216 82.970115 
C 114.8092 79.945098 110.70582 78.245423 106.427801 78.245423 
C 102.149781 78.245423 98.046402 79.945098 95.021385 82.970115 
C 91.996368 85.995132 90.296693 90.098511 90.296693 94.376531 
C 90.296693 98.654551 91.996368 102.75793 95.021385 105.782946 
C 98.046402 108.807963 102.149781 110.507639 106.427801 110.507639 
L 106.427801 110.507639 
z
" clip-path="url(#p6a53085055)" style="fill: none; opacity: 0.3; stroke: #ff0000; stroke-linejoin: miter"/>
   </g>
   <g id="patch_17">
    <path d="M 159.86362 92.796946 
C 164.14164 92.796946 168.245019 91.097271 171.270036 88.072254 
C 174.295052 85.047238 175.994728 80.943858 175.994728 76.665839 
C 175.994728 72.387819 174.295052 68.28444 171.270036 65.259423 
C 168.245019 62.234406 164.14164 60.534731 159.86362 60.534731 
C 155.5856 60.534731 151.482221 62.234406 148.457204 65.259423 
C 145.432187 68.28444 143.732512 72.387819 143.732512 76.665839 
C 143.732512 80.943858 145.432187 85.047238 148.457204 88.072254 
C 151.482221 91.097271 155.5856 92.796946 159.86362 92.796946 
L 159.86362 92.796946 
z
" clip-path="url(#p6a53085055)" style="fill: none; opacity: 0.3; stroke: #ff0000; stroke-linejoin: miter"/>
   </g>
   <g id="patch_18">
    <path d="M 174.647299 155.964516 
C 178.925319 155.964516 183.028698 154.26484 186.053715 151.239824 
C 189.078731 148.214807 190.778407 144.111428 190.778407 139.833408 
C 190.778407 135.555388 189.078731 131.452009 186.053715 128.426992 
C 183.028698 125.401975 178.925319 123.7023 174.647299 123.7023 
C 170.369279 123.7023 166.2659 125.401975 163.240883 128.426992 
C 160.215866 131.452009 158.516191 135.555388 158.516191 139.833408 
C 158.516191 144.111428 160.215866 148.214807 163.240883 151.239824 
C 166.2659 154.26484 170.369279 155.964516 174.647299 155.964516 
L 174.647299 155.964516 
z
" clip-path="url(#p6a53085055)" style="fill: none; opacity: 0.3; stroke: #ff0000; stroke-linejoin: miter"/>
   </g>
   <g id="patch_19">
    <path d="M 176.277453 131.119538 
C 180.555472 131.119538 184.658851 129.419863 187.683868 126.394846 
C 190.708885 123.369829 192.40856 119.26645 192.40856 114.98843 
C 192.40856 110.710411 190.708885 106.607032 187.683868 103.582015 
C 184.658851 100.556998 180.555472 98.857323 176.277453 98.857323 
C 171.999433 98.857323 167.896054 100.556998 164.871037 103.582015 
C 161.84602 106.607032 160.146345 110.710411 160.146345 114.98843 
C 160.146345 119.26645 161.84602 123.369829 164.871037 126.394846 
C 167.896054 129.419863 171.999433 131.119538 176.277453 131.119538 
L 176.277453 131.119538 
z
" clip-path="url(#p6a53085055)" style="fill: none; opacity: 0.3; stroke: #ff0000; stroke-linejoin: miter"/>
   </g>
   <g id="patch_20">
    <path d="M 125.783087 95.813588 
C 130.061107 95.813588 134.164486 94.113913 137.189503 91.088896 
C 140.21452 88.06388 141.914195 83.9605 141.914195 79.682481 
C 141.914195 75.404461 140.21452 71.301082 137.189503 68.276065 
C 134.164486 65.251048 130.061107 63.551373 125.783087 63.551373 
C 121.505067 63.551373 117.401688 65.251048 114.376672 68.276065 
C 111.351655 71.301082 109.651979 75.404461 109.651979 79.682481 
C 109.651979 83.9605 111.351655 88.06388 114.376672 91.088896 
C 117.401688 94.113913 121.505067 95.813588 125.783087 95.813588 
L 125.783087 95.813588 
z
" clip-path="url(#p6a53085055)" style="fill: none; opacity: 0.3; stroke: #ff0000; stroke-linejoin: miter"/>
   </g>
   <g id="patch_21">
    <path d="M 194.80006 102.769627 
C 199.07808 102.769627 203.181459 101.069952 206.206476 98.044935 
C 209.231492 95.019918 210.931168 90.916539 210.931168 86.638519 
C 210.931168 82.360499 209.231492 78.25712 206.206476 75.232103 
C 203.181459 72.207087 199.07808 70.507411 194.80006 70.507411 
C 190.52204 70.507411 186.418661 72.207087 183.393644 75.232103 
C 180.368627 78.25712 178.668952 82.360499 178.668952 86.638519 
C 178.668952 90.916539 180.368627 95.019918 183.393644 98.044935 
C 186.418661 101.069952 190.52204 102.769627 194.80006 102.769627 
L 194.80006 102.769627 
z
" clip-path="url(#p6a53085055)" style="fill: none; opacity: 0.3; stroke: #ff0000; stroke-linejoin: miter"/>
   </g>
   <g id="patch_22">
    <path d="M 180.811617 146.985354 
C 185.089637 146.985354 189.193016 145.285678 192.218033 142.260661 
C 195.24305 139.235645 196.942725 135.132266 196.942725 130.854246 
C 196.942725 126.576226 195.24305 122.472847 192.218033 119.44783 
C 189.193016 116.422813 185.089637 114.723138 180.811617 114.723138 
C 176.533597 114.723138 172.430218 116.422813 169.405201 119.44783 
C 166.380185 122.472847 164.680509 126.576226 164.680509 130.854246 
C 164.680509 135.132266 166.380185 139.235645 169.405201 142.260661 
C 172.430218 145.285678 176.533597 146.985354 180.811617 146.985354 
L 180.811617 146.985354 
z
" clip-path="url(#p6a53085055)" style="fill: none; opacity: 0.3; stroke: #ff0000; stroke-linejoin: miter"/>
   </g>
   <g id="patch_23">
    <path d="M 94.931717 131.81845 
C 99.209737 131.81845 103.313116 130.118775 106.338133 127.093758 
C 109.36315 124.068741 111.062825 119.965362 111.062825 115.687342 
C 111.062825 111.409323 109.36315 107.305943 106.338133 104.280927 
C 103.313116 101.25591 99.209737 99.556235 94.931717 99.556235 
C 90.653697 99.556235 86.550318 101.25591 83.525301 104.280927 
C 80.500285 107.305943 78.800609 111.409323 78.800609 115.687342 
C 78.800609 119.965362 80.500285 124.068741 83.525301 127.093758 
C 86.550318 130.118775 90.653697 131.81845 94.931717 131.81845 
L 94.931717 131.81845 
z
" clip-path="url(#p6a53085055)" style="fill: none; opacity: 0.3; stroke: #ff0000; stroke-linejoin: miter"/>
   </g>
   <g id="patch_24">
    <path d="M 117.164942 111.614841 
C 121.442962 111.614841 125.546341 109.915166 128.571358 106.890149 
C 131.596375 103.865132 133.29605 99.761753 133.29605 95.483733 
C 133.29605 91.205713 131.596375 87.102334 128.571358 84.077318 
C 125.546341 81.052301 121.442962 79.352625 117.164942 79.352625 
C 112.886922 79.352625 108.783543 81.052301 105.758527 84.077318 
C 102.73351 87.102334 101.033835 91.205713 101.033835 95.483733 
C 101.033835 99.761753 102.73351 103.865132 105.758527 106.890149 
C 108.783543 109.915166 112.886922 111.614841 117.164942 111.614841 
L 117.164942 111.614841 
z
" clip-path="url(#p6a53085055)" style="fill: none; opacity: 0.3; stroke: #ff0000; stroke-linejoin: miter"/>
   </g>
   <g id="patch_25">
    <path d="M 150.299075 112.193938 
C 154.577094 112.193938 158.680473 110.494262 161.70549 107.469246 
C 164.730507 104.444229 166.430182 100.34085 166.430182 96.06283 
C 166.430182 91.78481 164.730507 87.681431 161.70549 84.656414 
C 158.680473 81.631397 154.577094 79.931722 150.299075 79.931722 
C 146.021055 79.931722 141.917676 81.631397 138.892659 84.656414 
C 135.867642 87.681431 134.167967 91.78481 134.167967 96.06283 
C 134.167967 100.34085 135.867642 104.444229 138.892659 107.469246 
C 141.917676 110.494262 146.021055 112.193938 150.299075 112.193938 
L 150.299075 112.193938 
z
" clip-path="url(#p6a53085055)" style="fill: none; opacity: 0.3; stroke: #ff0000; stroke-linejoin: miter"/>
   </g>
   <g id="patch_26">
    <path d="M 105.205842 101.762287 
C 109.483862 101.762287 113.587241 100.062611 116.612258 97.037595 
C 119.637274 94.012578 121.33695 89.909199 121.33695 85.631179 
C 121.33695 81.353159 119.637274 77.24978 116.612258 74.224763 
C 113.587241 71.199746 109.483862 69.500071 105.205842 69.500071 
C 100.927822 69.500071 96.824443 71.199746 93.799426 74.224763 
C 90.774409 77.24978 89.074734 81.353159 89.074734 85.631179 
C 89.074734 89.909199 90.774409 94.012578 93.799426 97.037595 
C 96.824443 100.062611 100.927822 101.762287 105.205842 101.762287 
L 105.205842 101.762287 
z
" clip-path="url(#p6a53085055)" style="fill: none; opacity: 0.3; stroke: #ff0000; stroke-linejoin: miter"/>
   </g>
   <g id="patch_27">
    <path d="M 84.739915 142.801312 
C 89.017935 142.801312 93.121314 141.101637 96.146331 138.07662 
C 99.171348 135.051603 100.871023 130.948224 100.871023 126.670205 
C 100.871023 122.392185 99.171348 118.288806 96.146331 115.263789 
C 93.121314 112.238772 89.017935 110.539097 84.739915 110.539097 
C 80.461896 110.539097 76.358517 112.238772 73.3335 115.263789 
C 70.308483 118.288806 68.608808 122.392185 68.608808 126.670205 
C 68.608808 130.948224 70.308483 135.051603 73.3335 138.07662 
C 76.358517 141.101637 80.461896 142.801312 84.739915 142.801312 
L 84.739915 142.801312 
z
" clip-path="url(#p6a53085055)" style="fill: none; opacity: 0.3; stroke: #ff0000; stroke-linejoin: miter"/>
   </g>
   <g id="patch_28">
    <path d="M 95.556285 105.456109 
C 99.834305 105.456109 103.937684 103.756434 106.9627 100.731417 
C 109.987717 97.7064 111.687393 93.603021 111.687393 89.325001 
C 111.687393 85.046982 109.987717 80.943603 106.9627 77.918586 
C 103.937684 74.893569 99.834305 73.193894 95.556285 73.193894 
C 91.278265 73.193894 87.174886 74.893569 84.149869 77.918586 
C 81.124852 80.943603 79.425177 85.046982 79.425177 89.325001 
C 79.425177 93.603021 81.124852 97.7064 84.149869 100.731417 
C 87.174886 103.756434 91.278265 105.456109 95.556285 105.456109 
L 95.556285 105.456109 
z
" clip-path="url(#p6a53085055)" style="fill: none; opacity: 0.3; stroke: #ff0000; stroke-linejoin: miter"/>
   </g>
   <g id="patch_29">
    <path d="M 87.440166 119.092286 
C 91.718186 119.092286 95.821565 117.392611 98.846582 114.367594 
C 101.871599 111.342578 103.571274 107.239199 103.571274 102.961179 
C 103.571274 98.683159 101.871599 94.57978 98.846582 91.554763 
C 95.821565 88.529746 91.718186 86.830071 87.440166 86.830071 
C 83.162147 86.830071 79.058767 88.529746 76.033751 91.554763 
C 73.008734 94.57978 71.309059 98.683159 71.309059 102.961179 
C 71.309059 107.239199 73.008734 111.342578 76.033751 114.367594 
C 79.058767 117.392611 83.162147 119.092286 87.440166 119.092286 
L 87.440166 119.092286 
z
" clip-path="url(#p6a53085055)" style="fill: none; opacity: 0.3; stroke: #ff0000; stroke-linejoin: miter"/>
   </g>
   <g id="patch_30">
    <path d="M 152.791791 81.810466 
C 157.069811 81.810466 161.17319 80.11079 164.198207 77.085773 
C 167.223223 74.060757 168.922899 69.957378 168.922899 65.679358 
C 168.922899 61.401338 167.223223 57.297959 164.198207 54.272942 
C 161.17319 51.247925 157.069811 49.54825 152.791791 49.54825 
C 148.513771 49.54825 144.410392 51.247925 141.385375 54.272942 
C 138.360358 57.297959 136.660683 61.401338 136.660683 65.679358 
C 136.660683 69.957378 138.360358 74.060757 141.385375 77.085773 
C 144.410392 80.11079 148.513771 81.810466 152.791791 81.810466 
L 152.791791 81.810466 
z
" clip-path="url(#p6a53085055)" style="fill: none; opacity: 0.3; stroke: #ff0000; stroke-linejoin: miter"/>
   </g>
   <g id="patch_31">
    <path d="M 101.635985 110.217581 
C 105.914005 110.217581 110.017384 108.517905 113.042401 105.492888 
C 116.067418 102.467872 117.767093 98.364493 117.767093 94.086473 
C 117.767093 89.808453 116.067418 85.705074 113.042401 82.680057 
C 110.017384 79.65504 105.914005 77.955365 101.635985 77.955365 
C 97.357965 77.955365 93.254586 79.65504 90.229569 82.680057 
C 87.204553 85.705074 85.504877 89.808453 85.504877 94.086473 
C 85.504877 98.364493 87.204553 102.467872 90.229569 105.492888 
C 93.254586 108.517905 97.357965 110.217581 101.635985 110.217581 
L 101.635985 110.217581 
z
" clip-path="url(#p6a53085055)" style="fill: none; opacity: 0.3; stroke: #ff0000; stroke-linejoin: miter"/>
   </g>
   <g id="patch_32">
    <path d="M 147.509629 113.43853 
C 151.787649 113.43853 155.891028 111.738854 158.916045 108.713838 
C 161.941062 105.688821 163.640737 101.585442 163.640737 97.307422 
C 163.640737 93.029402 161.941062 88.926023 158.916045 85.901006 
C 155.891028 82.875989 151.787649 81.176314 147.509629 81.176314 
C 143.23161 81.176314 139.12823 82.875989 136.103214 85.901006 
C 133.078197 88.926023 131.378522 93.029402 131.378522 97.307422 
C 131.378522 101.585442 133.078197 105.688821 136.103214 108.713838 
C 139.12823 111.738854 143.23161 113.43853 147.509629 113.43853 
L 147.509629 113.43853 
z
" clip-path="url(#p6a53085055)" style="fill: none; opacity: 0.3; stroke: #ff0000; stroke-linejoin: miter"/>
   </g>
   <g id="matplotlib.axis_1">
    <g id="xtick_1">
     <g id="line2d_1">
      <defs>
       <path id="m72bead7216" d="M 0 0 
L 0 3.5 
" style="stroke: #000000; stroke-width: 0.8"/>
      </defs>
      <g>
       <use xlink:href="#m72bead7216" x="38.482812" y="195.12" style="stroke: #000000; stroke-width: 0.8"/>
      </g>
     </g>
     <g id="text_1">
      <!-- −2 -->
      <g transform="translate(31.111719 209.718438) scale(0.1 -0.1)">
       <defs>
        <path id="DejaVuSans-2212" d="M 678 2272 
L 4684 2272 
L 4684 1741 
L 678 1741 
L 678 2272 
z
" transform="scale(0.015625)"/>
        <path id="DejaVuSans-32" d="M 1228 531 
L 3431 531 
L 3431 0 
L 469 0 
L 469 531 
Q 828 903 1448 1529 
Q 2069 2156 2228 2338 
Q 2531 2678 2651 2914 
Q 2772 3150 2772 3378 
Q 2772 3750 2511 3984 
Q 2250 4219 1831 4219 
Q 1534 4219 1204 4116 
Q 875 4013 500 3803 
L 500 4441 
Q 881 4594 1212 4672 
Q 1544 4750 1819 4750 
Q 2544 4750 2975 4387 
Q 3406 4025 3406 3419 
Q 3406 3131 3298 2873 
Q 3191 2616 2906 2266 
Q 2828 2175 2409 1742 
Q 1991 1309 1228 531 
z
" transform="scale(0.015625)"/>
       </defs>
       <use xlink:href="#DejaVuSans-2212"/>
       <use xlink:href="#DejaVuSans-32" x="83.789062"/>
      </g>
     </g>
    </g>
    <g id="xtick_2">
     <g id="line2d_2">
      <g>
       <use xlink:href="#m72bead7216" x="86.002812" y="195.12" style="stroke: #000000; stroke-width: 0.8"/>
      </g>
     </g>
     <g id="text_2">
      <!-- −1 -->
      <g transform="translate(78.631719 209.718438) scale(0.1 -0.1)">
       <defs>
        <path id="DejaVuSans-31" d="M 794 531 
L 1825 531 
L 1825 4091 
L 703 3866 
L 703 4441 
L 1819 4666 
L 2450 4666 
L 2450 531 
L 3481 531 
L 3481 0 
L 794 0 
L 794 531 
z
" transform="scale(0.015625)"/>
       </defs>
       <use xlink:href="#DejaVuSans-2212"/>
       <use xlink:href="#DejaVuSans-31" x="83.789062"/>
      </g>
     </g>
    </g>
    <g id="xtick_3">
     <g id="line2d_3">
      <g>
       <use xlink:href="#m72bead7216" x="133.522812" y="195.12" style="stroke: #000000; stroke-width: 0.8"/>
      </g>
     </g>
     <g id="text_3">
      <!-- 0 -->
      <g transform="translate(130.341562 209.718438) scale(0.1 -0.1)">
       <defs>
        <path id="DejaVuSans-30" d="M 2034 4250 
Q 1547 4250 1301 3770 
Q 1056 3291 1056 2328 
Q 1056 1369 1301 889 
Q 1547 409 2034 409 
Q 2525 409 2770 889 
Q 3016 1369 3016 2328 
Q 3016 3291 2770 3770 
Q 2525 4250 2034 4250 
z
M 2034 4750 
Q 2819 4750 3233 4129 
Q 3647 3509 3647 2328 
Q 3647 1150 3233 529 
Q 2819 -91 2034 -91 
Q 1250 -91 836 529 
Q 422 1150 422 2328 
Q 422 3509 836 4129 
Q 1250 4750 2034 4750 
z
" transform="scale(0.015625)"/>
       </defs>
       <use xlink:href="#DejaVuSans-30"/>
      </g>
     </g>
    </g>
    <g id="xtick_4">
     <g id="line2d_4">
      <g>
       <use xlink:href="#m72bead7216" x="181.042812" y="195.12" style="stroke: #000000; stroke-width: 0.8"/>
      </g>
     </g>
     <g id="text_4">
      <!-- 1 -->
      <g transform="translate(177.861562 209.718438) scale(0.1 -0.1)">
       <use xlink:href="#DejaVuSans-31"/>
      </g>
     </g>
    </g>
    <g id="xtick_5">
     <g id="line2d_5">
      <g>
       <use xlink:href="#m72bead7216" x="228.562812" y="195.12" style="stroke: #000000; stroke-width: 0.8"/>
      </g>
     </g>
     <g id="text_5">
      <!-- 2 -->
      <g transform="translate(225.381562 209.718438) scale(0.1 -0.1)">
       <use xlink:href="#DejaVuSans-32"/>
      </g>
     </g>
    </g>
    <g id="xtick_6">
     <g id="line2d_6">
      <g>
       <use xlink:href="#m72bead7216" x="276.082812" y="195.12" style="stroke: #000000; stroke-width: 0.8"/>
      </g>
     </g>
     <g id="text_6">
      <!-- 3 -->
      <g transform="translate(272.901563 209.718438) scale(0.1 -0.1)">
       <defs>
        <path id="DejaVuSans-33" d="M 2597 2516 
Q 3050 2419 3304 2112 
Q 3559 1806 3559 1356 
Q 3559 666 3084 287 
Q 2609 -91 1734 -91 
Q 1441 -91 1130 -33 
Q 819 25 488 141 
L 488 750 
Q 750 597 1062 519 
Q 1375 441 1716 441 
Q 2309 441 2620 675 
Q 2931 909 2931 1356 
Q 2931 1769 2642 2001 
Q 2353 2234 1838 2234 
L 1294 2234 
L 1294 2753 
L 1863 2753 
Q 2328 2753 2575 2939 
Q 2822 3125 2822 3475 
Q 2822 3834 2567 4026 
Q 2313 4219 1838 4219 
Q 1578 4219 1281 4162 
Q 984 4106 628 3988 
L 628 4550 
Q 988 4650 1302 4700 
Q 1616 4750 1894 4750 
Q 2613 4750 3031 4423 
Q 3450 4097 3450 3541 
Q 3450 3153 3228 2886 
Q 3006 2619 2597 2516 
z
" transform="scale(0.015625)"/>
       </defs>
       <use xlink:href="#DejaVuSans-33"/>
      </g>
     </g>
    </g>
   </g>
   <g id="matplotlib.axis_2">
    <g id="ytick_1">
     <g id="line2d_7">
      <defs>
       <path id="m19d37ab93b" d="M 0 0 
L -3.5 0 
" style="stroke: #000000; stroke-width: 0.8"/>
      </defs>
      <g>
       <use xlink:href="#m19d37ab93b" x="38.482813" y="195.12" style="stroke: #000000; stroke-width: 0.8"/>
      </g>
     </g>
     <g id="text_7">
      <!-- −1.5 -->
      <g transform="translate(7.2 198.919219) scale(0.1 -0.1)">
       <defs>
        <path id="DejaVuSans-2e" d="M 684 794 
L 1344 794 
L 1344 0 
L 684 0 
L 684 794 
z
" transform="scale(0.015625)"/>
        <path id="DejaVuSans-35" d="M 691 4666 
L 3169 4666 
L 3169 4134 
L 1269 4134 
L 1269 2991 
Q 1406 3038 1543 3061 
Q 1681 3084 1819 3084 
Q 2600 3084 3056 2656 
Q 3513 2228 3513 1497 
Q 3513 744 3044 326 
Q 2575 -91 1722 -91 
Q 1428 -91 1123 -41 
Q 819 9 494 109 
L 494 744 
Q 775 591 1075 516 
Q 1375 441 1709 441 
Q 2250 441 2565 725 
Q 2881 1009 2881 1497 
Q 2881 1984 2565 2268 
Q 2250 2553 1709 2553 
Q 1456 2553 1204 2497 
Q 953 2441 691 2322 
L 691 4666 
z
" transform="scale(0.015625)"/>
       </defs>
       <use xlink:href="#DejaVuSans-2212"/>
       <use xlink:href="#DejaVuSans-31" x="83.789062"/>
       <use xlink:href="#DejaVuSans-2e" x="147.412109"/>
       <use xlink:href="#DejaVuSans-35" x="179.199219"/>
      </g>
     </g>
    </g>
    <g id="ytick_2">
     <g id="line2d_8">
      <g>
       <use xlink:href="#m19d37ab93b" x="38.482813" y="171.36" style="stroke: #000000; stroke-width: 0.8"/>
      </g>
     </g>
     <g id="text_8">
      <!-- −1.0 -->
      <g transform="translate(7.2 175.159219) scale(0.1 -0.1)">
       <use xlink:href="#DejaVuSans-2212"/>
       <use xlink:href="#DejaVuSans-31" x="83.789062"/>
       <use xlink:href="#DejaVuSans-2e" x="147.412109"/>
       <use xlink:href="#DejaVuSans-30" x="179.199219"/>
      </g>
     </g>
    </g>
    <g id="ytick_3">
     <g id="line2d_9">
      <g>
       <use xlink:href="#m19d37ab93b" x="38.482813" y="147.6" style="stroke: #000000; stroke-width: 0.8"/>
      </g>
     </g>
     <g id="text_9">
      <!-- −0.5 -->
      <g transform="translate(7.2 151.399219) scale(0.1 -0.1)">
       <use xlink:href="#DejaVuSans-2212"/>
       <use xlink:href="#DejaVuSans-30" x="83.789062"/>
       <use xlink:href="#DejaVuSans-2e" x="147.412109"/>
       <use xlink:href="#DejaVuSans-35" x="179.199219"/>
      </g>
     </g>
    </g>
    <g id="ytick_4">
     <g id="line2d_10">
      <g>
       <use xlink:href="#m19d37ab93b" x="38.482813" y="123.84" style="stroke: #000000; stroke-width: 0.8"/>
      </g>
     </g>
     <g id="text_10">
      <!-- 0.0 -->
      <g transform="translate(15.579688 127.639219) scale(0.1 -0.1)">
       <use xlink:href="#DejaVuSans-30"/>
       <use xlink:href="#DejaVuSans-2e" x="63.623047"/>
       <use xlink:href="#DejaVuSans-30" x="95.410156"/>
      </g>
     </g>
    </g>
    <g id="ytick_5">
     <g id="line2d_11">
      <g>
       <use xlink:href="#m19d37ab93b" x="38.482813" y="100.08" style="stroke: #000000; stroke-width: 0.8"/>
      </g>
     </g>
     <g id="text_11">
      <!-- 0.5 -->
      <g transform="translate(15.579688 103.879219) scale(0.1 -0.1)">
       <use xlink:href="#DejaVuSans-30"/>
       <use xlink:href="#DejaVuSans-2e" x="63.623047"/>
       <use xlink:href="#DejaVuSans-35" x="95.410156"/>
      </g>
     </g>
    </g>
    <g id="ytick_6">
     <g id="line2d_12">
      <g>
       <use xlink:href="#m19d37ab93b" x="38.482813" y="76.32" style="stroke: #000000; stroke-width: 0.8"/>
      </g>
     </g>
     <g id="text_12">
      <!-- 1.0 -->
      <g transform="translate(15.579688 80.119219) scale(0.1 -0.1)">
       <use xlink:href="#DejaVuSans-31"/>
       <use xlink:href="#DejaVuSans-2e" x="63.623047"/>
       <use xlink:href="#DejaVuSans-30" x="95.410156"/>
      </g>
     </g>
    </g>
    <g id="ytick_7">
     <g id="line2d_13">
      <g>
       <use xlink:href="#m19d37ab93b" x="38.482813" y="52.56" style="stroke: #000000; stroke-width: 0.8"/>
      </g>
     </g>
     <g id="text_13">
      <!-- 1.5 -->
      <g transform="translate(15.579688 56.359219) scale(0.1 -0.1)">
       <use xlink:href="#DejaVuSans-31"/>
       <use xlink:href="#DejaVuSans-2e" x="63.623047"/>
       <use xlink:href="#DejaVuSans-35" x="95.410156"/>
      </g>
     </g>
    </g>
    <g id="ytick_8">
     <g id="line2d_14">
      <g>
       <use xlink:href="#m19d37ab93b" x="38.482813" y="28.8" style="stroke: #000000; stroke-width: 0.8"/>
      </g>
     </g>
     <g id="text_14">
      <!-- 2.0 -->
      <g transform="translate(15.579688 32.599219) scale(0.1 -0.1)">
       <use xlink:href="#DejaVuSans-32"/>
       <use xlink:href="#DejaVuSans-2e" x="63.623047"/>
       <use xlink:href="#DejaVuSans-30" x="95.410156"/>
      </g>
     </g>
    </g>
   </g>
   <g id="patch_33">
    <path d="M 38.482813 195.12 
L 38.482813 28.8 
" style="fill: none; stroke: #000000; stroke-width: 0.8; stroke-linejoin: miter; stroke-linecap: square"/>
   </g>
   <g id="patch_34">
    <path d="M 276.082812 195.12 
L 276.082812 28.8 
" style="fill: none; stroke: #000000; stroke-width: 0.8; stroke-linejoin: miter; stroke-linecap: square"/>
   </g>
   <g id="patch_35">
    <path d="M 38.482812 195.12 
L 276.082812 195.12 
" style="fill: none; stroke: #000000; stroke-width: 0.8; stroke-linejoin: miter; stroke-linecap: square"/>
   </g>
   <g id="patch_36">
    <path d="M 38.482812 28.8 
L 276.082812 28.8 
" style="fill: none; stroke: #000000; stroke-width: 0.8; stroke-linejoin: miter; stroke-linecap: square"/>
   </g>
  </g>
  <g id="text_15">
   <!-- Unsafe-Only -->
   <g transform="translate(115.909063 16.318125) scale(0.12 -0.12)">
    <defs>
     <path id="DejaVuSans-55" d="M 556 4666 
L 1191 4666 
L 1191 1831 
Q 1191 1081 1462 751 
Q 1734 422 2344 422 
Q 2950 422 3222 751 
Q 3494 1081 3494 1831 
L 3494 4666 
L 4128 4666 
L 4128 1753 
Q 4128 841 3676 375 
Q 3225 -91 2344 -91 
Q 1459 -91 1007 375 
Q 556 841 556 1753 
L 556 4666 
z
" transform="scale(0.015625)"/>
     <path id="DejaVuSans-6e" d="M 3513 2113 
L 3513 0 
L 2938 0 
L 2938 2094 
Q 2938 2591 2744 2837 
Q 2550 3084 2163 3084 
Q 1697 3084 1428 2787 
Q 1159 2491 1159 1978 
L 1159 0 
L 581 0 
L 581 3500 
L 1159 3500 
L 1159 2956 
Q 1366 3272 1645 3428 
Q 1925 3584 2291 3584 
Q 2894 3584 3203 3211 
Q 3513 2838 3513 2113 
z
" transform="scale(0.015625)"/>
     <path id="DejaVuSans-73" d="M 2834 3397 
L 2834 2853 
Q 2591 2978 2328 3040 
Q 2066 3103 1784 3103 
Q 1356 3103 1142 2972 
Q 928 2841 928 2578 
Q 928 2378 1081 2264 
Q 1234 2150 1697 2047 
L 1894 2003 
Q 2506 1872 2764 1633 
Q 3022 1394 3022 966 
Q 3022 478 2636 193 
Q 2250 -91 1575 -91 
Q 1294 -91 989 -36 
Q 684 19 347 128 
L 347 722 
Q 666 556 975 473 
Q 1284 391 1588 391 
Q 1994 391 2212 530 
Q 2431 669 2431 922 
Q 2431 1156 2273 1281 
Q 2116 1406 1581 1522 
L 1381 1569 
Q 847 1681 609 1914 
Q 372 2147 372 2553 
Q 372 3047 722 3315 
Q 1072 3584 1716 3584 
Q 2034 3584 2315 3537 
Q 2597 3491 2834 3397 
z
" transform="scale(0.015625)"/>
     <path id="DejaVuSans-61" d="M 2194 1759 
Q 1497 1759 1228 1600 
Q 959 1441 959 1056 
Q 959 750 1161 570 
Q 1363 391 1709 391 
Q 2188 391 2477 730 
Q 2766 1069 2766 1631 
L 2766 1759 
L 2194 1759 
z
M 3341 1997 
L 3341 0 
L 2766 0 
L 2766 531 
Q 2569 213 2275 61 
Q 1981 -91 1556 -91 
Q 1019 -91 701 211 
Q 384 513 384 1019 
Q 384 1609 779 1909 
Q 1175 2209 1959 2209 
L 2766 2209 
L 2766 2266 
Q 2766 2663 2505 2880 
Q 2244 3097 1772 3097 
Q 1472 3097 1187 3025 
Q 903 2953 641 2809 
L 641 3341 
Q 956 3463 1253 3523 
Q 1550 3584 1831 3584 
Q 2591 3584 2966 3190 
Q 3341 2797 3341 1997 
z
" transform="scale(0.015625)"/>
     <path id="DejaVuSans-66" d="M 2375 4863 
L 2375 4384 
L 1825 4384 
Q 1516 4384 1395 4259 
Q 1275 4134 1275 3809 
L 1275 3500 
L 2222 3500 
L 2222 3053 
L 1275 3053 
L 1275 0 
L 697 0 
L 697 3053 
L 147 3053 
L 147 3500 
L 697 3500 
L 697 3744 
Q 697 4328 969 4595 
Q 1241 4863 1831 4863 
L 2375 4863 
z
" transform="scale(0.015625)"/>
     <path id="DejaVuSans-65" d="M 3597 1894 
L 3597 1613 
L 953 1613 
Q 991 1019 1311 708 
Q 1631 397 2203 397 
Q 2534 397 2845 478 
Q 3156 559 3463 722 
L 3463 178 
Q 3153 47 2828 -22 
Q 2503 -91 2169 -91 
Q 1331 -91 842 396 
Q 353 884 353 1716 
Q 353 2575 817 3079 
Q 1281 3584 2069 3584 
Q 2775 3584 3186 3129 
Q 3597 2675 3597 1894 
z
M 3022 2063 
Q 3016 2534 2758 2815 
Q 2500 3097 2075 3097 
Q 1594 3097 1305 2825 
Q 1016 2553 972 2059 
L 3022 2063 
z
" transform="scale(0.015625)"/>
     <path id="DejaVuSans-2d" d="M 313 2009 
L 1997 2009 
L 1997 1497 
L 313 1497 
L 313 2009 
z
" transform="scale(0.015625)"/>
     <path id="DejaVuSans-4f" d="M 2522 4238 
Q 1834 4238 1429 3725 
Q 1025 3213 1025 2328 
Q 1025 1447 1429 934 
Q 1834 422 2522 422 
Q 3209 422 3611 934 
Q 4013 1447 4013 2328 
Q 4013 3213 3611 3725 
Q 3209 4238 2522 4238 
z
M 2522 4750 
Q 3503 4750 4090 4092 
Q 4678 3434 4678 2328 
Q 4678 1225 4090 567 
Q 3503 -91 2522 -91 
Q 1538 -91 948 565 
Q 359 1222 359 2328 
Q 359 3434 948 4092 
Q 1538 4750 2522 4750 
z
" transform="scale(0.015625)"/>
     <path id="DejaVuSans-6c" d="M 603 4863 
L 1178 4863 
L 1178 0 
L 603 0 
L 603 4863 
z
" transform="scale(0.015625)"/>
     <path id="DejaVuSans-79" d="M 2059 -325 
Q 1816 -950 1584 -1140 
Q 1353 -1331 966 -1331 
L 506 -1331 
L 506 -850 
L 844 -850 
Q 1081 -850 1212 -737 
Q 1344 -625 1503 -206 
L 1606 56 
L 191 3500 
L 800 3500 
L 1894 763 
L 2988 3500 
L 3597 3500 
L 2059 -325 
z
" transform="scale(0.015625)"/>
    </defs>
    <use xlink:href="#DejaVuSans-55"/>
    <use xlink:href="#DejaVuSans-6e" x="73.193359"/>
    <use xlink:href="#DejaVuSans-73" x="136.572266"/>
    <use xlink:href="#DejaVuSans-61" x="188.671875"/>
    <use xlink:href="#DejaVuSans-66" x="249.951172"/>
    <use xlink:href="#DejaVuSans-65" x="285.15625"/>
    <use xlink:href="#DejaVuSans-2d" x="346.679688"/>
    <use xlink:href="#DejaVuSans-4f" x="385.513672"/>
    <use xlink:href="#DejaVuSans-6e" x="464.224609"/>
    <use xlink:href="#DejaVuSans-6c" x="527.603516"/>
    <use xlink:href="#DejaVuSans-79" x="555.386719"/>
   </g>
  </g>
 </g>
 <defs>
  <clipPath id="p6a53085055">
   <rect x="38.482813" y="28.8" width="237.6" height="166.32"/>
  </clipPath>
 </defs>
</svg>
