<?xml version="1.0" encoding="utf-8" standalone="no"?>
<!DOCTYPE svg PUBLIC "-//W3C//DTD SVG 1.1//EN"
  "http://www.w3.org/Graphics/SVG/1.1/DTD/svg11.dtd">
<svg xmlns:xlink="http://www.w3.org/1999/xlink" width="326.803125pt" height="232.67625pt" viewBox="0 0 326.803125 232.67625" xmlns="http://www.w3.org/2000/svg" version="1.1">
 <metadata>
  <rdf:RDF xmlns:dc="http://purl.org/dc/elements/1.1/" xmlns:cc="http://creativecommons.org/ns#" xmlns:rdf="http://www.w3.org/1999/02/22-rdf-syntax-ns#">
   <cc:Work>
    <dc:type rdf:resource="http://purl.org/dc/dcmitype/StillImage"/>
    <dc:date>2024-12-19T17:56:06.629712</dc:date>
    <dc:format>image/svg+xml</dc:format>
    <dc:creator>
     <cc:Agent>
      <dc:title>Matplotlib v3.7.5, https://matplotlib.org/</dc:title>
     </cc:Agent>
    </dc:creator>
   </cc:Work>
  </rdf:RDF>
 </metadata>
 <defs>
  <style type="text/css">*{stroke-linejoin: round; stroke-linecap: butt}</style>
 </defs>
 <g id="figure_1">
  <g id="patch_1">
   <path d="M 0 232.67625 
L 326.803125 232.67625 
L 326.803125 0 
L 0 0 
z
" style="fill: #ffffff"/>
  </g>
  <g id="axes_1">
   <g id="patch_2">
    <path d="M 40.603125 195.12 
L 319.603125 195.12 
L 319.603125 28.8 
L 40.603125 28.8 
z
" style="fill: #ffffff"/>
   </g>
   <g id="patch_3">
    <path d="M 53.284943 195.12 
L 56.49553 195.12 
L 56.49553 195.12 
L 53.284943 195.12 
z
" clip-path="url(#p25879c16be)" style="fill: #1f77b4; opacity: 0.7"/>
   </g>
   <g id="patch_4">
    <path d="M 56.49553 195.12 
L 59.706117 195.12 
L 59.706117 195.12 
L 56.49553 195.12 
z
" clip-path="url(#p25879c16be)" style="fill: #1f77b4; opacity: 0.7"/>
   </g>
   <g id="patch_5">
    <path d="M 59.706117 195.12 
L 62.916704 195.12 
L 62.916704 195.12 
L 59.706117 195.12 
z
" clip-path="url(#p25879c16be)" style="fill: #1f77b4; opacity: 0.7"/>
   </g>
   <g id="patch_6">
    <path d="M 62.916704 195.12 
L 66.127291 195.12 
L 66.127291 195.12 
L 62.916704 195.12 
z
" clip-path="url(#p25879c16be)" style="fill: #1f77b4; opacity: 0.7"/>
   </g>
   <g id="patch_7">
    <path d="M 66.127291 195.12 
L 69.337878 195.12 
L 69.337878 195.12 
L 66.127291 195.12 
z
" clip-path="url(#p25879c16be)" style="fill: #1f77b4; opacity: 0.7"/>
   </g>
   <g id="patch_8">
    <path d="M 69.337878 195.12 
L 72.548464 195.12 
L 72.548464 195.12 
L 69.337878 195.12 
z
" clip-path="url(#p25879c16be)" style="fill: #1f77b4; opacity: 0.7"/>
   </g>
   <g id="patch_9">
    <path d="M 72.548464 195.12 
L 75.759051 195.12 
L 75.759051 195.12 
L 72.548464 195.12 
z
" clip-path="url(#p25879c16be)" style="fill: #1f77b4; opacity: 0.7"/>
   </g>
   <g id="patch_10">
    <path d="M 75.759051 195.12 
L 78.969638 195.12 
L 78.969638 195.12 
L 75.759051 195.12 
z
" clip-path="url(#p25879c16be)" style="fill: #1f77b4; opacity: 0.7"/>
   </g>
   <g id="patch_11">
    <path d="M 78.969638 195.12 
L 82.180225 195.12 
L 82.180225 195.12 
L 78.969638 195.12 
z
" clip-path="url(#p25879c16be)" style="fill: #1f77b4; opacity: 0.7"/>
   </g>
   <g id="patch_12">
    <path d="M 82.180225 195.12 
L 85.390812 195.12 
L 85.390812 195.12 
L 82.180225 195.12 
z
" clip-path="url(#p25879c16be)" style="fill: #1f77b4; opacity: 0.7"/>
   </g>
   <g id="patch_13">
    <path d="M 85.390812 195.12 
L 88.601399 195.12 
L 88.601399 195.12 
L 85.390812 195.12 
z
" clip-path="url(#p25879c16be)" style="fill: #1f77b4; opacity: 0.7"/>
   </g>
   <g id="patch_14">
    <path d="M 88.601399 195.12 
L 91.811986 195.12 
L 91.811986 195.12 
L 88.601399 195.12 
z
" clip-path="url(#p25879c16be)" style="fill: #1f77b4; opacity: 0.7"/>
   </g>
   <g id="patch_15">
    <path d="M 91.811986 195.12 
L 95.022573 195.12 
L 95.022573 195.12 
L 91.811986 195.12 
z
" clip-path="url(#p25879c16be)" style="fill: #1f77b4; opacity: 0.7"/>
   </g>
   <g id="patch_16">
    <path d="M 95.022573 195.12 
L 98.23316 195.12 
L 98.23316 195.12 
L 95.022573 195.12 
z
" clip-path="url(#p25879c16be)" style="fill: #1f77b4; opacity: 0.7"/>
   </g>
   <g id="patch_17">
    <path d="M 98.23316 195.12 
L 101.443746 195.12 
L 101.443746 195.12 
L 98.23316 195.12 
z
" clip-path="url(#p25879c16be)" style="fill: #1f77b4; opacity: 0.7"/>
   </g>
   <g id="patch_18">
    <path d="M 101.443746 195.12 
L 104.654333 195.12 
L 104.654333 195.12 
L 101.443746 195.12 
z
" clip-path="url(#p25879c16be)" style="fill: #1f77b4; opacity: 0.7"/>
   </g>
   <g id="patch_19">
    <path d="M 104.654333 195.12 
L 107.86492 195.12 
L 107.86492 195.12 
L 104.654333 195.12 
z
" clip-path="url(#p25879c16be)" style="fill: #1f77b4; opacity: 0.7"/>
   </g>
   <g id="patch_20">
    <path d="M 107.86492 195.12 
L 111.075507 195.12 
L 111.075507 195.12 
L 107.86492 195.12 
z
" clip-path="url(#p25879c16be)" style="fill: #1f77b4; opacity: 0.7"/>
   </g>
   <g id="patch_21">
    <path d="M 111.075507 195.12 
L 114.286094 195.12 
L 114.286094 195.12 
L 111.075507 195.12 
z
" clip-path="url(#p25879c16be)" style="fill: #1f77b4; opacity: 0.7"/>
   </g>
   <g id="patch_22">
    <path d="M 114.286094 195.12 
L 117.496681 195.12 
L 117.496681 195.12 
L 114.286094 195.12 
z
" clip-path="url(#p25879c16be)" style="fill: #1f77b4; opacity: 0.7"/>
   </g>
   <g id="patch_23">
    <path d="M 117.496681 195.12 
L 120.707268 195.12 
L 120.707268 195.12 
L 117.496681 195.12 
z
" clip-path="url(#p25879c16be)" style="fill: #1f77b4; opacity: 0.7"/>
   </g>
   <g id="patch_24">
    <path d="M 120.707268 195.12 
L 123.917855 195.12 
L 123.917855 195.12 
L 120.707268 195.12 
z
" clip-path="url(#p25879c16be)" style="fill: #1f77b4; opacity: 0.7"/>
   </g>
   <g id="patch_25">
    <path d="M 123.917855 195.12 
L 127.128441 195.12 
L 127.128441 195.12 
L 123.917855 195.12 
z
" clip-path="url(#p25879c16be)" style="fill: #1f77b4; opacity: 0.7"/>
   </g>
   <g id="patch_26">
    <path d="M 127.128441 195.12 
L 130.339028 195.12 
L 130.339028 195.12 
L 127.128441 195.12 
z
" clip-path="url(#p25879c16be)" style="fill: #1f77b4; opacity: 0.7"/>
   </g>
   <g id="patch_27">
    <path d="M 130.339028 195.12 
L 133.549615 195.12 
L 133.549615 195.12 
L 130.339028 195.12 
z
" clip-path="url(#p25879c16be)" style="fill: #1f77b4; opacity: 0.7"/>
   </g>
   <g id="patch_28">
    <path d="M 133.549615 195.12 
L 136.760202 195.12 
L 136.760202 195.12 
L 133.549615 195.12 
z
" clip-path="url(#p25879c16be)" style="fill: #1f77b4; opacity: 0.7"/>
   </g>
   <g id="patch_29">
    <path d="M 136.760202 195.12 
L 139.970789 195.12 
L 139.970789 195.12 
L 136.760202 195.12 
z
" clip-path="url(#p25879c16be)" style="fill: #1f77b4; opacity: 0.7"/>
   </g>
   <g id="patch_30">
    <path d="M 139.970789 195.12 
L 143.181376 195.12 
L 143.181376 195.12 
L 139.970789 195.12 
z
" clip-path="url(#p25879c16be)" style="fill: #1f77b4; opacity: 0.7"/>
   </g>
   <g id="patch_31">
    <path d="M 143.181376 195.12 
L 146.391963 195.12 
L 146.391963 195.12 
L 143.181376 195.12 
z
" clip-path="url(#p25879c16be)" style="fill: #1f77b4; opacity: 0.7"/>
   </g>
   <g id="patch_32">
    <path d="M 146.391963 195.12 
L 149.60255 195.12 
L 149.60255 195.12 
L 146.391963 195.12 
z
" clip-path="url(#p25879c16be)" style="fill: #1f77b4; opacity: 0.7"/>
   </g>
   <g id="patch_33">
    <path d="M 149.60255 195.12 
L 152.813137 195.12 
L 152.813137 195.12 
L 149.60255 195.12 
z
" clip-path="url(#p25879c16be)" style="fill: #1f77b4; opacity: 0.7"/>
   </g>
   <g id="patch_34">
    <path d="M 152.813137 195.12 
L 156.023723 195.12 
L 156.023723 195.12 
L 152.813137 195.12 
z
" clip-path="url(#p25879c16be)" style="fill: #1f77b4; opacity: 0.7"/>
   </g>
   <g id="patch_35">
    <path d="M 156.023723 195.12 
L 159.23431 195.12 
L 159.23431 195.12 
L 156.023723 195.12 
z
" clip-path="url(#p25879c16be)" style="fill: #1f77b4; opacity: 0.7"/>
   </g>
   <g id="patch_36">
    <path d="M 159.23431 195.12 
L 162.444897 195.12 
L 162.444897 195.12 
L 159.23431 195.12 
z
" clip-path="url(#p25879c16be)" style="fill: #1f77b4; opacity: 0.7"/>
   </g>
   <g id="patch_37">
    <path d="M 162.444897 195.12 
L 165.655484 195.12 
L 165.655484 195.12 
L 162.444897 195.12 
z
" clip-path="url(#p25879c16be)" style="fill: #1f77b4; opacity: 0.7"/>
   </g>
   <g id="patch_38">
    <path d="M 165.655484 195.12 
L 168.866071 195.12 
L 168.866071 195.12 
L 165.655484 195.12 
z
" clip-path="url(#p25879c16be)" style="fill: #1f77b4; opacity: 0.7"/>
   </g>
   <g id="patch_39">
    <path d="M 168.866071 195.12 
L 172.076658 195.12 
L 172.076658 195.12 
L 168.866071 195.12 
z
" clip-path="url(#p25879c16be)" style="fill: #1f77b4; opacity: 0.7"/>
   </g>
   <g id="patch_40">
    <path d="M 172.076658 195.12 
L 175.287245 195.12 
L 175.287245 195.12 
L 172.076658 195.12 
z
" clip-path="url(#p25879c16be)" style="fill: #1f77b4; opacity: 0.7"/>
   </g>
   <g id="patch_41">
    <path d="M 175.287245 195.12 
L 178.497832 195.12 
L 178.497832 195.12 
L 175.287245 195.12 
z
" clip-path="url(#p25879c16be)" style="fill: #1f77b4; opacity: 0.7"/>
   </g>
   <g id="patch_42">
    <path d="M 178.497832 195.12 
L 181.708418 195.12 
L 181.708418 195.12 
L 178.497832 195.12 
z
" clip-path="url(#p25879c16be)" style="fill: #1f77b4; opacity: 0.7"/>
   </g>
   <g id="patch_43">
    <path d="M 181.708418 195.12 
L 184.919005 195.12 
L 184.919005 195.12 
L 181.708418 195.12 
z
" clip-path="url(#p25879c16be)" style="fill: #1f77b4; opacity: 0.7"/>
   </g>
   <g id="patch_44">
    <path d="M 184.919005 195.12 
L 188.129592 195.12 
L 188.129592 195.12 
L 184.919005 195.12 
z
" clip-path="url(#p25879c16be)" style="fill: #1f77b4; opacity: 0.7"/>
   </g>
   <g id="patch_45">
    <path d="M 188.129592 195.12 
L 191.340179 195.12 
L 191.340179 195.12 
L 188.129592 195.12 
z
" clip-path="url(#p25879c16be)" style="fill: #1f77b4; opacity: 0.7"/>
   </g>
   <g id="patch_46">
    <path d="M 191.340179 195.12 
L 194.550766 195.12 
L 194.550766 195.12 
L 191.340179 195.12 
z
" clip-path="url(#p25879c16be)" style="fill: #1f77b4; opacity: 0.7"/>
   </g>
   <g id="patch_47">
    <path d="M 194.550766 195.12 
L 197.761353 195.12 
L 197.761353 195.12 
L 194.550766 195.12 
z
" clip-path="url(#p25879c16be)" style="fill: #1f77b4; opacity: 0.7"/>
   </g>
   <g id="patch_48">
    <path d="M 197.761353 195.12 
L 200.97194 195.12 
L 200.97194 195.12 
L 197.761353 195.12 
z
" clip-path="url(#p25879c16be)" style="fill: #1f77b4; opacity: 0.7"/>
   </g>
   <g id="patch_49">
    <path d="M 200.97194 195.12 
L 204.182527 195.12 
L 204.182527 195.12 
L 200.97194 195.12 
z
" clip-path="url(#p25879c16be)" style="fill: #1f77b4; opacity: 0.7"/>
   </g>
   <g id="patch_50">
    <path d="M 204.182527 195.12 
L 207.393113 195.12 
L 207.393113 195.12 
L 204.182527 195.12 
z
" clip-path="url(#p25879c16be)" style="fill: #1f77b4; opacity: 0.7"/>
   </g>
   <g id="patch_51">
    <path d="M 207.393113 195.12 
L 210.6037 195.12 
L 210.6037 195.12 
L 207.393113 195.12 
z
" clip-path="url(#p25879c16be)" style="fill: #1f77b4; opacity: 0.7"/>
   </g>
   <g id="patch_52">
    <path d="M 210.6037 195.12 
L 213.814287 195.12 
L 213.814287 195.12 
L 210.6037 195.12 
z
" clip-path="url(#p25879c16be)" style="fill: #1f77b4; opacity: 0.7"/>
   </g>
   <g id="patch_53">
    <path d="M 213.814287 195.12 
L 217.024874 195.12 
L 217.024874 195.12 
L 213.814287 195.12 
z
" clip-path="url(#p25879c16be)" style="fill: #1f77b4; opacity: 0.7"/>
   </g>
   <g id="patch_54">
    <path d="M 217.024874 195.12 
L 220.235461 195.12 
L 220.235461 195.12 
L 217.024874 195.12 
z
" clip-path="url(#p25879c16be)" style="fill: #1f77b4; opacity: 0.7"/>
   </g>
   <g id="patch_55">
    <path d="M 220.235461 195.12 
L 223.446048 195.12 
L 223.446048 195.12 
L 220.235461 195.12 
z
" clip-path="url(#p25879c16be)" style="fill: #1f77b4; opacity: 0.7"/>
   </g>
   <g id="patch_56">
    <path d="M 223.446048 195.12 
L 226.656635 195.12 
L 226.656635 195.12 
L 223.446048 195.12 
z
" clip-path="url(#p25879c16be)" style="fill: #1f77b4; opacity: 0.7"/>
   </g>
   <g id="patch_57">
    <path d="M 226.656635 195.12 
L 229.867222 195.12 
L 229.867222 195.12 
L 226.656635 195.12 
z
" clip-path="url(#p25879c16be)" style="fill: #1f77b4; opacity: 0.7"/>
   </g>
   <g id="patch_58">
    <path d="M 229.867222 195.12 
L 233.077809 195.12 
L 233.077809 195.12 
L 229.867222 195.12 
z
" clip-path="url(#p25879c16be)" style="fill: #1f77b4; opacity: 0.7"/>
   </g>
   <g id="patch_59">
    <path d="M 233.077809 195.12 
L 236.288395 195.12 
L 236.288395 192.565161 
L 233.077809 192.565161 
z
" clip-path="url(#p25879c16be)" style="fill: #1f77b4; opacity: 0.7"/>
   </g>
   <g id="patch_60">
    <path d="M 236.288395 195.12 
L 239.498982 195.12 
L 239.498982 193.842581 
L 236.288395 193.842581 
z
" clip-path="url(#p25879c16be)" style="fill: #1f77b4; opacity: 0.7"/>
   </g>
   <g id="patch_61">
    <path d="M 239.498982 195.12 
L 242.709569 195.12 
L 242.709569 191.287742 
L 239.498982 191.287742 
z
" clip-path="url(#p25879c16be)" style="fill: #1f77b4; opacity: 0.7"/>
   </g>
   <g id="patch_62">
    <path d="M 242.709569 195.12 
L 245.920156 195.12 
L 245.920156 193.842581 
L 242.709569 193.842581 
z
" clip-path="url(#p25879c16be)" style="fill: #1f77b4; opacity: 0.7"/>
   </g>
   <g id="patch_63">
    <path d="M 245.920156 195.12 
L 249.130743 195.12 
L 249.130743 188.732903 
L 245.920156 188.732903 
z
" clip-path="url(#p25879c16be)" style="fill: #1f77b4; opacity: 0.7"/>
   </g>
   <g id="patch_64">
    <path d="M 249.130743 195.12 
L 252.34133 195.12 
L 252.34133 184.900645 
L 249.130743 184.900645 
z
" clip-path="url(#p25879c16be)" style="fill: #1f77b4; opacity: 0.7"/>
   </g>
   <g id="patch_65">
    <path d="M 252.34133 195.12 
L 255.551917 195.12 
L 255.551917 184.900645 
L 252.34133 184.900645 
z
" clip-path="url(#p25879c16be)" style="fill: #1f77b4; opacity: 0.7"/>
   </g>
   <g id="patch_66">
    <path d="M 255.551917 195.12 
L 258.762504 195.12 
L 258.762504 174.68129 
L 255.551917 174.68129 
z
" clip-path="url(#p25879c16be)" style="fill: #1f77b4; opacity: 0.7"/>
   </g>
   <g id="patch_67">
    <path d="M 258.762504 195.12 
L 261.97309 195.12 
L 261.97309 184.900645 
L 258.762504 184.900645 
z
" clip-path="url(#p25879c16be)" style="fill: #1f77b4; opacity: 0.7"/>
   </g>
   <g id="patch_68">
    <path d="M 261.97309 195.12 
L 265.183677 195.12 
L 265.183677 174.68129 
L 261.97309 174.68129 
z
" clip-path="url(#p25879c16be)" style="fill: #1f77b4; opacity: 0.7"/>
   </g>
   <g id="patch_69">
    <path d="M 265.183677 195.12 
L 268.394264 195.12 
L 268.394264 179.790968 
L 265.183677 179.790968 
z
" clip-path="url(#p25879c16be)" style="fill: #1f77b4; opacity: 0.7"/>
   </g>
   <g id="patch_70">
    <path d="M 268.394264 195.12 
L 271.604851 195.12 
L 271.604851 177.236129 
L 268.394264 177.236129 
z
" clip-path="url(#p25879c16be)" style="fill: #1f77b4; opacity: 0.7"/>
   </g>
   <g id="patch_71">
    <path d="M 271.604851 195.12 
L 274.815438 195.12 
L 274.815438 151.687742 
L 271.604851 151.687742 
z
" clip-path="url(#p25879c16be)" style="fill: #1f77b4; opacity: 0.7"/>
   </g>
   <g id="patch_72">
    <path d="M 274.815438 195.12 
L 278.026025 195.12 
L 278.026025 142.745806 
L 274.815438 142.745806 
z
" clip-path="url(#p25879c16be)" style="fill: #1f77b4; opacity: 0.7"/>
   </g>
   <g id="patch_73">
    <path d="M 278.026025 195.12 
L 281.236612 195.12 
L 281.236612 132.526452 
L 278.026025 132.526452 
z
" clip-path="url(#p25879c16be)" style="fill: #1f77b4; opacity: 0.7"/>
   </g>
   <g id="patch_74">
    <path d="M 281.236612 195.12 
L 284.447199 195.12 
L 284.447199 126.139355 
L 281.236612 126.139355 
z
" clip-path="url(#p25879c16be)" style="fill: #1f77b4; opacity: 0.7"/>
   </g>
   <g id="patch_75">
    <path d="M 284.447199 195.12 
L 287.657786 195.12 
L 287.657786 100.590968 
L 284.447199 100.590968 
z
" clip-path="url(#p25879c16be)" style="fill: #1f77b4; opacity: 0.7"/>
   </g>
   <g id="patch_76">
    <path d="M 287.657786 195.12 
L 290.868372 195.12 
L 290.868372 43.107097 
L 287.657786 43.107097 
z
" clip-path="url(#p25879c16be)" style="fill: #1f77b4; opacity: 0.7"/>
   </g>
   <g id="patch_77">
    <path d="M 290.868372 195.12 
L 294.078959 195.12 
L 294.078959 55.88129 
L 290.868372 55.88129 
z
" clip-path="url(#p25879c16be)" style="fill: #1f77b4; opacity: 0.7"/>
   </g>
   <g id="patch_78">
    <path d="M 294.078959 195.12 
L 297.289546 195.12 
L 297.289546 36.72 
L 294.078959 36.72 
z
" clip-path="url(#p25879c16be)" style="fill: #1f77b4; opacity: 0.7"/>
   </g>
   <g id="patch_79">
    <path d="M 297.289546 195.12 
L 300.500133 195.12 
L 300.500133 50.771613 
L 297.289546 50.771613 
z
" clip-path="url(#p25879c16be)" style="fill: #1f77b4; opacity: 0.7"/>
   </g>
   <g id="patch_80">
    <path d="M 300.500133 195.12 
L 303.71072 195.12 
L 303.71072 41.829677 
L 300.500133 41.829677 
z
" clip-path="url(#p25879c16be)" style="fill: #1f77b4; opacity: 0.7"/>
   </g>
   <g id="patch_81">
    <path d="M 303.71072 195.12 
L 306.921307 195.12 
L 306.921307 106.978065 
L 303.71072 106.978065 
z
" clip-path="url(#p25879c16be)" style="fill: #1f77b4; opacity: 0.7"/>
   </g>
   <g id="matplotlib.axis_1">
    <g id="xtick_1">
     <g id="line2d_1">
      <defs>
       <path id="m7797c56757" d="M 0 0 
L 0 3.5 
" style="stroke: #000000; stroke-width: 0.8"/>
      </defs>
      <g>
       <use xlink:href="#m7797c56757" x="53.284943" y="195.12" style="stroke: #000000; stroke-width: 0.8"/>
      </g>
     </g>
     <g id="text_1">
      <!-- 0.0 -->
      <g transform="translate(45.333381 209.718437) scale(0.1 -0.1)">
       <defs>
        <path id="DejaVuSans-30" d="M 2034 4250 
Q 1547 4250 1301 3770 
Q 1056 3291 1056 2328 
Q 1056 1369 1301 889 
Q 1547 409 2034 409 
Q 2525 409 2770 889 
Q 3016 1369 3016 2328 
Q 3016 3291 2770 3770 
Q 2525 4250 2034 4250 
z
M 2034 4750 
Q 2819 4750 3233 4129 
Q 3647 3509 3647 2328 
Q 3647 1150 3233 529 
Q 2819 -91 2034 -91 
Q 1250 -91 836 529 
Q 422 1150 422 2328 
Q 422 3509 836 4129 
Q 1250 4750 2034 4750 
z
" transform="scale(0.015625)"/>
        <path id="DejaVuSans-2e" d="M 684 794 
L 1344 794 
L 1344 0 
L 684 0 
L 684 794 
z
" transform="scale(0.015625)"/>
       </defs>
       <use xlink:href="#DejaVuSans-30"/>
       <use xlink:href="#DejaVuSans-2e" x="63.623047"/>
       <use xlink:href="#DejaVuSans-30" x="95.410156"/>
      </g>
     </g>
    </g>
    <g id="xtick_2">
     <g id="line2d_2">
      <g>
       <use xlink:href="#m7797c56757" x="104.012216" y="195.12" style="stroke: #000000; stroke-width: 0.8"/>
      </g>
     </g>
     <g id="text_2">
      <!-- 0.2 -->
      <g transform="translate(96.060653 209.718437) scale(0.1 -0.1)">
       <defs>
        <path id="DejaVuSans-32" d="M 1228 531 
L 3431 531 
L 3431 0 
L 469 0 
L 469 531 
Q 828 903 1448 1529 
Q 2069 2156 2228 2338 
Q 2531 2678 2651 2914 
Q 2772 3150 2772 3378 
Q 2772 3750 2511 3984 
Q 2250 4219 1831 4219 
Q 1534 4219 1204 4116 
Q 875 4013 500 3803 
L 500 4441 
Q 881 4594 1212 4672 
Q 1544 4750 1819 4750 
Q 2544 4750 2975 4387 
Q 3406 4025 3406 3419 
Q 3406 3131 3298 2873 
Q 3191 2616 2906 2266 
Q 2828 2175 2409 1742 
Q 1991 1309 1228 531 
z
" transform="scale(0.015625)"/>
       </defs>
       <use xlink:href="#DejaVuSans-30"/>
       <use xlink:href="#DejaVuSans-2e" x="63.623047"/>
       <use xlink:href="#DejaVuSans-32" x="95.410156"/>
      </g>
     </g>
    </g>
    <g id="xtick_3">
     <g id="line2d_3">
      <g>
       <use xlink:href="#m7797c56757" x="154.739489" y="195.12" style="stroke: #000000; stroke-width: 0.8"/>
      </g>
     </g>
     <g id="text_3">
      <!-- 0.4 -->
      <g transform="translate(146.787926 209.718437) scale(0.1 -0.1)">
       <defs>
        <path id="DejaVuSans-34" d="M 2419 4116 
L 825 1625 
L 2419 1625 
L 2419 4116 
z
M 2253 4666 
L 3047 4666 
L 3047 1625 
L 3713 1625 
L 3713 1100 
L 3047 1100 
L 3047 0 
L 2419 0 
L 2419 1100 
L 313 1100 
L 313 1709 
L 2253 4666 
z
" transform="scale(0.015625)"/>
       </defs>
       <use xlink:href="#DejaVuSans-30"/>
       <use xlink:href="#DejaVuSans-2e" x="63.623047"/>
       <use xlink:href="#DejaVuSans-34" x="95.410156"/>
      </g>
     </g>
    </g>
    <g id="xtick_4">
     <g id="line2d_4">
      <g>
       <use xlink:href="#m7797c56757" x="205.466761" y="195.12" style="stroke: #000000; stroke-width: 0.8"/>
      </g>
     </g>
     <g id="text_4">
      <!-- 0.6 -->
      <g transform="translate(197.515199 209.718437) scale(0.1 -0.1)">
       <defs>
        <path id="DejaVuSans-36" d="M 2113 2584 
Q 1688 2584 1439 2293 
Q 1191 2003 1191 1497 
Q 1191 994 1439 701 
Q 1688 409 2113 409 
Q 2538 409 2786 701 
Q 3034 994 3034 1497 
Q 3034 2003 2786 2293 
Q 2538 2584 2113 2584 
z
M 3366 4563 
L 3366 3988 
Q 3128 4100 2886 4159 
Q 2644 4219 2406 4219 
Q 1781 4219 1451 3797 
Q 1122 3375 1075 2522 
Q 1259 2794 1537 2939 
Q 1816 3084 2150 3084 
Q 2853 3084 3261 2657 
Q 3669 2231 3669 1497 
Q 3669 778 3244 343 
Q 2819 -91 2113 -91 
Q 1303 -91 875 529 
Q 447 1150 447 2328 
Q 447 3434 972 4092 
Q 1497 4750 2381 4750 
Q 2619 4750 2861 4703 
Q 3103 4656 3366 4563 
z
" transform="scale(0.015625)"/>
       </defs>
       <use xlink:href="#DejaVuSans-30"/>
       <use xlink:href="#DejaVuSans-2e" x="63.623047"/>
       <use xlink:href="#DejaVuSans-36" x="95.410156"/>
      </g>
     </g>
    </g>
    <g id="xtick_5">
     <g id="line2d_5">
      <g>
       <use xlink:href="#m7797c56757" x="256.194034" y="195.12" style="stroke: #000000; stroke-width: 0.8"/>
      </g>
     </g>
     <g id="text_5">
      <!-- 0.8 -->
      <g transform="translate(248.242472 209.718437) scale(0.1 -0.1)">
       <defs>
        <path id="DejaVuSans-38" d="M 2034 2216 
Q 1584 2216 1326 1975 
Q 1069 1734 1069 1313 
Q 1069 891 1326 650 
Q 1584 409 2034 409 
Q 2484 409 2743 651 
Q 3003 894 3003 1313 
Q 3003 1734 2745 1975 
Q 2488 2216 2034 2216 
z
M 1403 2484 
Q 997 2584 770 2862 
Q 544 3141 544 3541 
Q 544 4100 942 4425 
Q 1341 4750 2034 4750 
Q 2731 4750 3128 4425 
Q 3525 4100 3525 3541 
Q 3525 3141 3298 2862 
Q 3072 2584 2669 2484 
Q 3125 2378 3379 2068 
Q 3634 1759 3634 1313 
Q 3634 634 3220 271 
Q 2806 -91 2034 -91 
Q 1263 -91 848 271 
Q 434 634 434 1313 
Q 434 1759 690 2068 
Q 947 2378 1403 2484 
z
M 1172 3481 
Q 1172 3119 1398 2916 
Q 1625 2713 2034 2713 
Q 2441 2713 2670 2916 
Q 2900 3119 2900 3481 
Q 2900 3844 2670 4047 
Q 2441 4250 2034 4250 
Q 1625 4250 1398 4047 
Q 1172 3844 1172 3481 
z
" transform="scale(0.015625)"/>
       </defs>
       <use xlink:href="#DejaVuSans-30"/>
       <use xlink:href="#DejaVuSans-2e" x="63.623047"/>
       <use xlink:href="#DejaVuSans-38" x="95.410156"/>
      </g>
     </g>
    </g>
    <g id="xtick_6">
     <g id="line2d_6">
      <g>
       <use xlink:href="#m7797c56757" x="306.921307" y="195.12" style="stroke: #000000; stroke-width: 0.8"/>
      </g>
     </g>
     <g id="text_6">
      <!-- 1.0 -->
      <g transform="translate(298.969744 209.718437) scale(0.1 -0.1)">
       <defs>
        <path id="DejaVuSans-31" d="M 794 531 
L 1825 531 
L 1825 4091 
L 703 3866 
L 703 4441 
L 1819 4666 
L 2450 4666 
L 2450 531 
L 3481 531 
L 3481 0 
L 794 0 
L 794 531 
z
" transform="scale(0.015625)"/>
       </defs>
       <use xlink:href="#DejaVuSans-31"/>
       <use xlink:href="#DejaVuSans-2e" x="63.623047"/>
       <use xlink:href="#DejaVuSans-30" x="95.410156"/>
      </g>
     </g>
    </g>
    <g id="text_7">
     <!-- Coverage -->
     <g transform="translate(156.146094 223.396563) scale(0.1 -0.1)">
      <defs>
       <path id="DejaVuSans-43" d="M 4122 4306 
L 4122 3641 
Q 3803 3938 3442 4084 
Q 3081 4231 2675 4231 
Q 1875 4231 1450 3742 
Q 1025 3253 1025 2328 
Q 1025 1406 1450 917 
Q 1875 428 2675 428 
Q 3081 428 3442 575 
Q 3803 722 4122 1019 
L 4122 359 
Q 3791 134 3420 21 
Q 3050 -91 2638 -91 
Q 1578 -91 968 557 
Q 359 1206 359 2328 
Q 359 3453 968 4101 
Q 1578 4750 2638 4750 
Q 3056 4750 3426 4639 
Q 3797 4528 4122 4306 
z
" transform="scale(0.015625)"/>
       <path id="DejaVuSans-6f" d="M 1959 3097 
Q 1497 3097 1228 2736 
Q 959 2375 959 1747 
Q 959 1119 1226 758 
Q 1494 397 1959 397 
Q 2419 397 2687 759 
Q 2956 1122 2956 1747 
Q 2956 2369 2687 2733 
Q 2419 3097 1959 3097 
z
M 1959 3584 
Q 2709 3584 3137 3096 
Q 3566 2609 3566 1747 
Q 3566 888 3137 398 
Q 2709 -91 1959 -91 
Q 1206 -91 779 398 
Q 353 888 353 1747 
Q 353 2609 779 3096 
Q 1206 3584 1959 3584 
z
" transform="scale(0.015625)"/>
       <path id="DejaVuSans-76" d="M 191 3500 
L 800 3500 
L 1894 563 
L 2988 3500 
L 3597 3500 
L 2284 0 
L 1503 0 
L 191 3500 
z
" transform="scale(0.015625)"/>
       <path id="DejaVuSans-65" d="M 3597 1894 
L 3597 1613 
L 953 1613 
Q 991 1019 1311 708 
Q 1631 397 2203 397 
Q 2534 397 2845 478 
Q 3156 559 3463 722 
L 3463 178 
Q 3153 47 2828 -22 
Q 2503 -91 2169 -91 
Q 1331 -91 842 396 
Q 353 884 353 1716 
Q 353 2575 817 3079 
Q 1281 3584 2069 3584 
Q 2775 3584 3186 3129 
Q 3597 2675 3597 1894 
z
M 3022 2063 
Q 3016 2534 2758 2815 
Q 2500 3097 2075 3097 
Q 1594 3097 1305 2825 
Q 1016 2553 972 2059 
L 3022 2063 
z
" transform="scale(0.015625)"/>
       <path id="DejaVuSans-72" d="M 2631 2963 
Q 2534 3019 2420 3045 
Q 2306 3072 2169 3072 
Q 1681 3072 1420 2755 
Q 1159 2438 1159 1844 
L 1159 0 
L 581 0 
L 581 3500 
L 1159 3500 
L 1159 2956 
Q 1341 3275 1631 3429 
Q 1922 3584 2338 3584 
Q 2397 3584 2469 3576 
Q 2541 3569 2628 3553 
L 2631 2963 
z
" transform="scale(0.015625)"/>
       <path id="DejaVuSans-61" d="M 2194 1759 
Q 1497 1759 1228 1600 
Q 959 1441 959 1056 
Q 959 750 1161 570 
Q 1363 391 1709 391 
Q 2188 391 2477 730 
Q 2766 1069 2766 1631 
L 2766 1759 
L 2194 1759 
z
M 3341 1997 
L 3341 0 
L 2766 0 
L 2766 531 
Q 2569 213 2275 61 
Q 1981 -91 1556 -91 
Q 1019 -91 701 211 
Q 384 513 384 1019 
Q 384 1609 779 1909 
Q 1175 2209 1959 2209 
L 2766 2209 
L 2766 2266 
Q 2766 2663 2505 2880 
Q 2244 3097 1772 3097 
Q 1472 3097 1187 3025 
Q 903 2953 641 2809 
L 641 3341 
Q 956 3463 1253 3523 
Q 1550 3584 1831 3584 
Q 2591 3584 2966 3190 
Q 3341 2797 3341 1997 
z
" transform="scale(0.015625)"/>
       <path id="DejaVuSans-67" d="M 2906 1791 
Q 2906 2416 2648 2759 
Q 2391 3103 1925 3103 
Q 1463 3103 1205 2759 
Q 947 2416 947 1791 
Q 947 1169 1205 825 
Q 1463 481 1925 481 
Q 2391 481 2648 825 
Q 2906 1169 2906 1791 
z
M 3481 434 
Q 3481 -459 3084 -895 
Q 2688 -1331 1869 -1331 
Q 1566 -1331 1297 -1286 
Q 1028 -1241 775 -1147 
L 775 -588 
Q 1028 -725 1275 -790 
Q 1522 -856 1778 -856 
Q 2344 -856 2625 -561 
Q 2906 -266 2906 331 
L 2906 616 
Q 2728 306 2450 153 
Q 2172 0 1784 0 
Q 1141 0 747 490 
Q 353 981 353 1791 
Q 353 2603 747 3093 
Q 1141 3584 1784 3584 
Q 2172 3584 2450 3431 
Q 2728 3278 2906 2969 
L 2906 3500 
L 3481 3500 
L 3481 434 
z
" transform="scale(0.015625)"/>
      </defs>
      <use xlink:href="#DejaVuSans-43"/>
      <use xlink:href="#DejaVuSans-6f" x="69.824219"/>
      <use xlink:href="#DejaVuSans-76" x="131.005859"/>
      <use xlink:href="#DejaVuSans-65" x="190.185547"/>
      <use xlink:href="#DejaVuSans-72" x="251.708984"/>
      <use xlink:href="#DejaVuSans-61" x="292.822266"/>
      <use xlink:href="#DejaVuSans-67" x="354.101562"/>
      <use xlink:href="#DejaVuSans-65" x="417.578125"/>
     </g>
    </g>
   </g>
   <g id="matplotlib.axis_2">
    <g id="ytick_1">
     <g id="line2d_7">
      <defs>
       <path id="m442d9cc052" d="M 0 0 
L -3.5 0 
" style="stroke: #000000; stroke-width: 0.8"/>
      </defs>
      <g>
       <use xlink:href="#m442d9cc052" x="40.603125" y="195.12" style="stroke: #000000; stroke-width: 0.8"/>
      </g>
     </g>
     <g id="text_8">
      <!-- 0 -->
      <g transform="translate(27.240625 198.919219) scale(0.1 -0.1)">
       <use xlink:href="#DejaVuSans-30"/>
      </g>
     </g>
    </g>
    <g id="ytick_2">
     <g id="line2d_8">
      <g>
       <use xlink:href="#m442d9cc052" x="40.603125" y="162.780269" style="stroke: #000000; stroke-width: 0.8"/>
      </g>
     </g>
     <g id="text_9">
      <!-- 2 -->
      <g transform="translate(27.240625 166.579488) scale(0.1 -0.1)">
       <use xlink:href="#DejaVuSans-32"/>
      </g>
     </g>
    </g>
    <g id="ytick_3">
     <g id="line2d_9">
      <g>
       <use xlink:href="#m442d9cc052" x="40.603125" y="130.440539" style="stroke: #000000; stroke-width: 0.8"/>
      </g>
     </g>
     <g id="text_10">
      <!-- 4 -->
      <g transform="translate(27.240625 134.239758) scale(0.1 -0.1)">
       <use xlink:href="#DejaVuSans-34"/>
      </g>
     </g>
    </g>
    <g id="ytick_4">
     <g id="line2d_10">
      <g>
       <use xlink:href="#m442d9cc052" x="40.603125" y="98.100808" style="stroke: #000000; stroke-width: 0.8"/>
      </g>
     </g>
     <g id="text_11">
      <!-- 6 -->
      <g transform="translate(27.240625 101.900027) scale(0.1 -0.1)">
       <use xlink:href="#DejaVuSans-36"/>
      </g>
     </g>
    </g>
    <g id="ytick_5">
     <g id="line2d_11">
      <g>
       <use xlink:href="#m442d9cc052" x="40.603125" y="65.761078" style="stroke: #000000; stroke-width: 0.8"/>
      </g>
     </g>
     <g id="text_12">
      <!-- 8 -->
      <g transform="translate(27.240625 69.560297) scale(0.1 -0.1)">
       <use xlink:href="#DejaVuSans-38"/>
      </g>
     </g>
    </g>
    <g id="ytick_6">
     <g id="line2d_12">
      <g>
       <use xlink:href="#m442d9cc052" x="40.603125" y="33.421347" style="stroke: #000000; stroke-width: 0.8"/>
      </g>
     </g>
     <g id="text_13">
      <!-- 10 -->
      <g transform="translate(20.878125 37.220566) scale(0.1 -0.1)">
       <use xlink:href="#DejaVuSans-31"/>
       <use xlink:href="#DejaVuSans-30" x="63.623047"/>
      </g>
     </g>
    </g>
    <g id="text_14">
     <!-- Empirical Density -->
     <g transform="translate(14.798438 155.7975) rotate(-90) scale(0.1 -0.1)">
      <defs>
       <path id="DejaVuSans-45" d="M 628 4666 
L 3578 4666 
L 3578 4134 
L 1259 4134 
L 1259 2753 
L 3481 2753 
L 3481 2222 
L 1259 2222 
L 1259 531 
L 3634 531 
L 3634 0 
L 628 0 
L 628 4666 
z
" transform="scale(0.015625)"/>
       <path id="DejaVuSans-6d" d="M 3328 2828 
Q 3544 3216 3844 3400 
Q 4144 3584 4550 3584 
Q 5097 3584 5394 3201 
Q 5691 2819 5691 2113 
L 5691 0 
L 5113 0 
L 5113 2094 
Q 5113 2597 4934 2840 
Q 4756 3084 4391 3084 
Q 3944 3084 3684 2787 
Q 3425 2491 3425 1978 
L 3425 0 
L 2847 0 
L 2847 2094 
Q 2847 2600 2669 2842 
Q 2491 3084 2119 3084 
Q 1678 3084 1418 2786 
Q 1159 2488 1159 1978 
L 1159 0 
L 581 0 
L 581 3500 
L 1159 3500 
L 1159 2956 
Q 1356 3278 1631 3431 
Q 1906 3584 2284 3584 
Q 2666 3584 2933 3390 
Q 3200 3197 3328 2828 
z
" transform="scale(0.015625)"/>
       <path id="DejaVuSans-70" d="M 1159 525 
L 1159 -1331 
L 581 -1331 
L 581 3500 
L 1159 3500 
L 1159 2969 
Q 1341 3281 1617 3432 
Q 1894 3584 2278 3584 
Q 2916 3584 3314 3078 
Q 3713 2572 3713 1747 
Q 3713 922 3314 415 
Q 2916 -91 2278 -91 
Q 1894 -91 1617 61 
Q 1341 213 1159 525 
z
M 3116 1747 
Q 3116 2381 2855 2742 
Q 2594 3103 2138 3103 
Q 1681 3103 1420 2742 
Q 1159 2381 1159 1747 
Q 1159 1113 1420 752 
Q 1681 391 2138 391 
Q 2594 391 2855 752 
Q 3116 1113 3116 1747 
z
" transform="scale(0.015625)"/>
       <path id="DejaVuSans-69" d="M 603 3500 
L 1178 3500 
L 1178 0 
L 603 0 
L 603 3500 
z
M 603 4863 
L 1178 4863 
L 1178 4134 
L 603 4134 
L 603 4863 
z
" transform="scale(0.015625)"/>
       <path id="DejaVuSans-63" d="M 3122 3366 
L 3122 2828 
Q 2878 2963 2633 3030 
Q 2388 3097 2138 3097 
Q 1578 3097 1268 2742 
Q 959 2388 959 1747 
Q 959 1106 1268 751 
Q 1578 397 2138 397 
Q 2388 397 2633 464 
Q 2878 531 3122 666 
L 3122 134 
Q 2881 22 2623 -34 
Q 2366 -91 2075 -91 
Q 1284 -91 818 406 
Q 353 903 353 1747 
Q 353 2603 823 3093 
Q 1294 3584 2113 3584 
Q 2378 3584 2631 3529 
Q 2884 3475 3122 3366 
z
" transform="scale(0.015625)"/>
       <path id="DejaVuSans-6c" d="M 603 4863 
L 1178 4863 
L 1178 0 
L 603 0 
L 603 4863 
z
" transform="scale(0.015625)"/>
       <path id="DejaVuSans-20" transform="scale(0.015625)"/>
       <path id="DejaVuSans-44" d="M 1259 4147 
L 1259 519 
L 2022 519 
Q 2988 519 3436 956 
Q 3884 1394 3884 2338 
Q 3884 3275 3436 3711 
Q 2988 4147 2022 4147 
L 1259 4147 
z
M 628 4666 
L 1925 4666 
Q 3281 4666 3915 4102 
Q 4550 3538 4550 2338 
Q 4550 1131 3912 565 
Q 3275 0 1925 0 
L 628 0 
L 628 4666 
z
" transform="scale(0.015625)"/>
       <path id="DejaVuSans-6e" d="M 3513 2113 
L 3513 0 
L 2938 0 
L 2938 2094 
Q 2938 2591 2744 2837 
Q 2550 3084 2163 3084 
Q 1697 3084 1428 2787 
Q 1159 2491 1159 1978 
L 1159 0 
L 581 0 
L 581 3500 
L 1159 3500 
L 1159 2956 
Q 1366 3272 1645 3428 
Q 1925 3584 2291 3584 
Q 2894 3584 3203 3211 
Q 3513 2838 3513 2113 
z
" transform="scale(0.015625)"/>
       <path id="DejaVuSans-73" d="M 2834 3397 
L 2834 2853 
Q 2591 2978 2328 3040 
Q 2066 3103 1784 3103 
Q 1356 3103 1142 2972 
Q 928 2841 928 2578 
Q 928 2378 1081 2264 
Q 1234 2150 1697 2047 
L 1894 2003 
Q 2506 1872 2764 1633 
Q 3022 1394 3022 966 
Q 3022 478 2636 193 
Q 2250 -91 1575 -91 
Q 1294 -91 989 -36 
Q 684 19 347 128 
L 347 722 
Q 666 556 975 473 
Q 1284 391 1588 391 
Q 1994 391 2212 530 
Q 2431 669 2431 922 
Q 2431 1156 2273 1281 
Q 2116 1406 1581 1522 
L 1381 1569 
Q 847 1681 609 1914 
Q 372 2147 372 2553 
Q 372 3047 722 3315 
Q 1072 3584 1716 3584 
Q 2034 3584 2315 3537 
Q 2597 3491 2834 3397 
z
" transform="scale(0.015625)"/>
       <path id="DejaVuSans-74" d="M 1172 4494 
L 1172 3500 
L 2356 3500 
L 2356 3053 
L 1172 3053 
L 1172 1153 
Q 1172 725 1289 603 
Q 1406 481 1766 481 
L 2356 481 
L 2356 0 
L 1766 0 
Q 1100 0 847 248 
Q 594 497 594 1153 
L 594 3053 
L 172 3053 
L 172 3500 
L 594 3500 
L 594 4494 
L 1172 4494 
z
" transform="scale(0.015625)"/>
       <path id="DejaVuSans-79" d="M 2059 -325 
Q 1816 -950 1584 -1140 
Q 1353 -1331 966 -1331 
L 506 -1331 
L 506 -850 
L 844 -850 
Q 1081 -850 1212 -737 
Q 1344 -625 1503 -206 
L 1606 56 
L 191 3500 
L 800 3500 
L 1894 763 
L 2988 3500 
L 3597 3500 
L 2059 -325 
z
" transform="scale(0.015625)"/>
      </defs>
      <use xlink:href="#DejaVuSans-45"/>
      <use xlink:href="#DejaVuSans-6d" x="63.183594"/>
      <use xlink:href="#DejaVuSans-70" x="160.595703"/>
      <use xlink:href="#DejaVuSans-69" x="224.072266"/>
      <use xlink:href="#DejaVuSans-72" x="251.855469"/>
      <use xlink:href="#DejaVuSans-69" x="292.96875"/>
      <use xlink:href="#DejaVuSans-63" x="320.751953"/>
      <use xlink:href="#DejaVuSans-61" x="375.732422"/>
      <use xlink:href="#DejaVuSans-6c" x="437.011719"/>
      <use xlink:href="#DejaVuSans-20" x="464.794922"/>
      <use xlink:href="#DejaVuSans-44" x="496.582031"/>
      <use xlink:href="#DejaVuSans-65" x="573.583984"/>
      <use xlink:href="#DejaVuSans-6e" x="635.107422"/>
      <use xlink:href="#DejaVuSans-73" x="698.486328"/>
      <use xlink:href="#DejaVuSans-69" x="750.585938"/>
      <use xlink:href="#DejaVuSans-74" x="778.369141"/>
      <use xlink:href="#DejaVuSans-79" x="817.578125"/>
     </g>
    </g>
   </g>
   <g id="line2d_13">
    <path d="M 281.55767 195.12 
L 281.55767 28.8 
" clip-path="url(#p25879c16be)" style="fill: none; stroke-dasharray: 5.55,2.4; stroke-dashoffset: 0; stroke: #ff0000; stroke-width: 1.5"/>
   </g>
   <g id="line2d_14">
    <path d="M 289.217742 195.12 
L 289.217742 28.8 
" clip-path="url(#p25879c16be)" style="fill: none; stroke-dasharray: 5.55,2.4; stroke-dashoffset: 0; stroke: #008000; stroke-width: 1.5"/>
   </g>
   <g id="line2d_15">
    <path d="M 297.921307 195.12 
L 297.921307 28.8 
" clip-path="url(#p25879c16be)" style="fill: none; stroke-dasharray: 5.55,2.4; stroke-dashoffset: 0; stroke: #0000ff; stroke-width: 1.5"/>
   </g>
   <g id="patch_82">
    <path d="M 40.603125 195.12 
L 40.603125 28.8 
" style="fill: none; stroke: #000000; stroke-width: 0.8; stroke-linejoin: miter; stroke-linecap: square"/>
   </g>
   <g id="patch_83">
    <path d="M 319.603125 195.12 
L 319.603125 28.8 
" style="fill: none; stroke: #000000; stroke-width: 0.8; stroke-linejoin: miter; stroke-linecap: square"/>
   </g>
   <g id="patch_84">
    <path d="M 40.603125 195.12 
L 319.603125 195.12 
" style="fill: none; stroke: #000000; stroke-width: 0.8; stroke-linejoin: miter; stroke-linecap: square"/>
   </g>
   <g id="patch_85">
    <path d="M 40.603125 28.8 
L 319.603125 28.8 
" style="fill: none; stroke: #000000; stroke-width: 0.8; stroke-linejoin: miter; stroke-linecap: square"/>
   </g>
   <g id="legend_1">
    <g id="patch_86">
     <path d="M 47.603125 80.834375 
L 143.203125 80.834375 
Q 145.203125 80.834375 145.203125 78.834375 
L 145.203125 35.8 
Q 145.203125 33.8 143.203125 33.8 
L 47.603125 33.8 
Q 45.603125 33.8 45.603125 35.8 
L 45.603125 78.834375 
Q 45.603125 80.834375 47.603125 80.834375 
z
" style="fill: #ffffff; opacity: 0.8; stroke: #cccccc; stroke-linejoin: miter"/>
    </g>
    <g id="line2d_16">
     <path d="M 49.603125 41.898438 
L 59.603125 41.898438 
L 69.603125 41.898438 
" style="fill: none; stroke-dasharray: 5.55,2.4; stroke-dashoffset: 0; stroke: #ff0000; stroke-width: 1.5"/>
    </g>
    <g id="text_15">
     <!-- 1-$\epsilon$ -->
     <g transform="translate(77.603125 45.398438) scale(0.1 -0.1)">
      <defs>
       <path id="DejaVuSans-2d" d="M 313 2009 
L 1997 2009 
L 1997 1497 
L 313 1497 
L 313 2009 
z
" transform="scale(0.015625)"/>
       <path id="DejaVuSans-Oblique-3b5" d="M 1263 1888 
Q 925 1963 778 2166 
Q 669 2309 669 2503 
Q 669 3034 1175 3344 
Q 1575 3588 2188 3588 
Q 2425 3588 2684 3550 
Q 2944 3513 3234 3438 
L 3134 2916 
Q 2847 3006 2606 3047 
Q 2359 3088 2138 3088 
Q 1766 3088 1522 2944 
Q 1228 2772 1228 2522 
Q 1228 2356 1381 2241 
Q 1563 2103 1925 2103 
L 2409 2103 
L 2319 1628 
L 1856 1628 
Q 1425 1628 1172 1469 
Q 828 1253 828 916 
Q 828 703 1013 563 
Q 1244 388 1716 388 
Q 2006 388 2284 444 
Q 2563 503 2806 619 
L 2700 84 
Q 2403 -3 2131 -47 
Q 1859 -91 1609 -91 
Q 866 -91 516 194 
Q 250 413 250 781 
Q 250 1278 600 1584 
Q 859 1813 1263 1888 
z
" transform="scale(0.015625)"/>
      </defs>
      <use xlink:href="#DejaVuSans-31" transform="translate(0 0.09375)"/>
      <use xlink:href="#DejaVuSans-2d" transform="translate(63.623047 0.09375)"/>
      <use xlink:href="#DejaVuSans-Oblique-3b5" transform="translate(99.707031 0.09375)"/>
     </g>
    </g>
    <g id="line2d_17">
     <path d="M 49.603125 56.576562 
L 59.603125 56.576562 
L 69.603125 56.576562 
" style="fill: none; stroke-dasharray: 5.55,2.4; stroke-dashoffset: 0; stroke: #008000; stroke-width: 1.5"/>
    </g>
    <g id="text_16">
     <!-- $\Pr(x \in C(\epsilon))$ -->
     <g transform="translate(77.603125 60.076562) scale(0.1 -0.1)">
      <defs>
       <path id="DejaVuSans-50" d="M 1259 4147 
L 1259 2394 
L 2053 2394 
Q 2494 2394 2734 2622 
Q 2975 2850 2975 3272 
Q 2975 3691 2734 3919 
Q 2494 4147 2053 4147 
L 1259 4147 
z
M 628 4666 
L 2053 4666 
Q 2838 4666 3239 4311 
Q 3641 3956 3641 3272 
Q 3641 2581 3239 2228 
Q 2838 1875 2053 1875 
L 1259 1875 
L 1259 0 
L 628 0 
L 628 4666 
z
" transform="scale(0.015625)"/>
       <path id="DejaVuSans-28" d="M 1984 4856 
Q 1566 4138 1362 3434 
Q 1159 2731 1159 2009 
Q 1159 1288 1364 580 
Q 1569 -128 1984 -844 
L 1484 -844 
Q 1016 -109 783 600 
Q 550 1309 550 2009 
Q 550 2706 781 3412 
Q 1013 4119 1484 4856 
L 1984 4856 
z
" transform="scale(0.015625)"/>
       <path id="DejaVuSans-Oblique-78" d="M 3841 3500 
L 2234 1784 
L 3219 0 
L 2559 0 
L 1819 1388 
L 531 0 
L -166 0 
L 1556 1844 
L 641 3500 
L 1300 3500 
L 1972 2234 
L 3144 3500 
L 3841 3500 
z
" transform="scale(0.015625)"/>
       <path id="DejaVuSans-2208" d="M 1072 1959 
Q 1094 1728 1291 1353 
Q 1522 919 1959 675 
Q 2388 438 2850 434 
L 5028 434 
L 5028 -63 
L 2850 -63 
Q 2250 -63 1695 246 
Q 1141 556 844 1106 
Q 547 1656 547 2241 
Q 547 2819 844 3369 
Q 1141 3919 1695 4231 
Q 2250 4544 2850 4544 
L 5028 4544 
L 5028 4047 
L 2850 4047 
Q 2388 4044 1959 3803 
Q 1525 3556 1291 3125 
Q 1091 2750 1063 2459 
L 5028 2459 
L 5028 1959 
L 1072 1959 
z
" transform="scale(0.015625)"/>
       <path id="DejaVuSans-Oblique-43" d="M 4447 4306 
L 4319 3641 
Q 4019 3944 3683 4091 
Q 3347 4238 2956 4238 
Q 2422 4238 2017 3981 
Q 1613 3725 1319 3200 
Q 1131 2863 1032 2486 
Q 934 2109 934 1728 
Q 934 1091 1264 756 
Q 1594 422 2222 422 
Q 2656 422 3056 561 
Q 3456 700 3834 978 
L 3688 231 
Q 3316 72 2936 -9 
Q 2556 -91 2175 -91 
Q 1278 -91 773 396 
Q 269 884 269 1753 
Q 269 2309 461 2846 
Q 653 3384 1013 3828 
Q 1394 4300 1883 4525 
Q 2372 4750 3022 4750 
Q 3422 4750 3780 4639 
Q 4138 4528 4447 4306 
z
" transform="scale(0.015625)"/>
       <path id="DejaVuSans-29" d="M 513 4856 
L 1013 4856 
Q 1481 4119 1714 3412 
Q 1947 2706 1947 2009 
Q 1947 1309 1714 600 
Q 1481 -109 1013 -844 
L 513 -844 
Q 928 -128 1133 580 
Q 1338 1288 1338 2009 
Q 1338 2731 1133 3434 
Q 928 4138 513 4856 
z
" transform="scale(0.015625)"/>
      </defs>
      <use xlink:href="#DejaVuSans-50" transform="translate(0 0.125)"/>
      <use xlink:href="#DejaVuSans-72" transform="translate(60.302734 0.125)"/>
      <use xlink:href="#DejaVuSans-28" transform="translate(101.416016 0.125)"/>
      <use xlink:href="#DejaVuSans-Oblique-78" transform="translate(140.429688 0.125)"/>
      <use xlink:href="#DejaVuSans-2208" transform="translate(219.091797 0.125)"/>
      <use xlink:href="#DejaVuSans-Oblique-43" transform="translate(325.683594 0.125)"/>
      <use xlink:href="#DejaVuSans-28" transform="translate(395.507812 0.125)"/>
      <use xlink:href="#DejaVuSans-Oblique-3b5" transform="translate(434.521484 0.125)"/>
      <use xlink:href="#DejaVuSans-29" transform="translate(488.574219 0.125)"/>
      <use xlink:href="#DejaVuSans-29" transform="translate(527.587891 0.125)"/>
     </g>
    </g>
    <g id="line2d_18">
     <path d="M 49.603125 71.254688 
L 59.603125 71.254688 
L 69.603125 71.254688 
" style="fill: none; stroke-dasharray: 5.55,2.4; stroke-dashoffset: 0; stroke: #0000ff; stroke-width: 1.5"/>
    </g>
    <g id="text_17">
     <!-- 1-$\epsilon$+2/(N+1) -->
     <g transform="translate(77.603125 74.754688) scale(0.1 -0.1)">
      <defs>
       <path id="DejaVuSans-2b" d="M 2944 4013 
L 2944 2272 
L 4684 2272 
L 4684 1741 
L 2944 1741 
L 2944 0 
L 2419 0 
L 2419 1741 
L 678 1741 
L 678 2272 
L 2419 2272 
L 2419 4013 
L 2944 4013 
z
" transform="scale(0.015625)"/>
       <path id="DejaVuSans-2f" d="M 1625 4666 
L 2156 4666 
L 531 -594 
L 0 -594 
L 1625 4666 
z
" transform="scale(0.015625)"/>
       <path id="DejaVuSans-4e" d="M 628 4666 
L 1478 4666 
L 3547 763 
L 3547 4666 
L 4159 4666 
L 4159 0 
L 3309 0 
L 1241 3903 
L 1241 0 
L 628 0 
L 628 4666 
z
" transform="scale(0.015625)"/>
      </defs>
      <use xlink:href="#DejaVuSans-31" transform="translate(0 0.125)"/>
      <use xlink:href="#DejaVuSans-2d" transform="translate(63.623047 0.125)"/>
      <use xlink:href="#DejaVuSans-Oblique-3b5" transform="translate(99.707031 0.125)"/>
      <use xlink:href="#DejaVuSans-2b" transform="translate(153.759766 0.125)"/>
      <use xlink:href="#DejaVuSans-32" transform="translate(237.548828 0.125)"/>
      <use xlink:href="#DejaVuSans-2f" transform="translate(301.171875 0.125)"/>
      <use xlink:href="#DejaVuSans-28" transform="translate(334.863281 0.125)"/>
      <use xlink:href="#DejaVuSans-4e" transform="translate(373.876953 0.125)"/>
      <use xlink:href="#DejaVuSans-2b" transform="translate(448.681641 0.125)"/>
      <use xlink:href="#DejaVuSans-31" transform="translate(532.470703 0.125)"/>
      <use xlink:href="#DejaVuSans-29" transform="translate(596.09375 0.125)"/>
     </g>
    </g>
   </g>
  </g>
  <g id="text_18">
   <!-- Unsafe-Only -->
   <g transform="translate(138.729375 16.318125) scale(0.12 -0.12)">
    <defs>
     <path id="DejaVuSans-55" d="M 556 4666 
L 1191 4666 
L 1191 1831 
Q 1191 1081 1462 751 
Q 1734 422 2344 422 
Q 2950 422 3222 751 
Q 3494 1081 3494 1831 
L 3494 4666 
L 4128 4666 
L 4128 1753 
Q 4128 841 3676 375 
Q 3225 -91 2344 -91 
Q 1459 -91 1007 375 
Q 556 841 556 1753 
L 556 4666 
z
" transform="scale(0.015625)"/>
     <path id="DejaVuSans-66" d="M 2375 4863 
L 2375 4384 
L 1825 4384 
Q 1516 4384 1395 4259 
Q 1275 4134 1275 3809 
L 1275 3500 
L 2222 3500 
L 2222 3053 
L 1275 3053 
L 1275 0 
L 697 0 
L 697 3053 
L 147 3053 
L 147 3500 
L 697 3500 
L 697 3744 
Q 697 4328 969 4595 
Q 1241 4863 1831 4863 
L 2375 4863 
z
" transform="scale(0.015625)"/>
     <path id="DejaVuSans-4f" d="M 2522 4238 
Q 1834 4238 1429 3725 
Q 1025 3213 1025 2328 
Q 1025 1447 1429 934 
Q 1834 422 2522 422 
Q 3209 422 3611 934 
Q 4013 1447 4013 2328 
Q 4013 3213 3611 3725 
Q 3209 4238 2522 4238 
z
M 2522 4750 
Q 3503 4750 4090 4092 
Q 4678 3434 4678 2328 
Q 4678 1225 4090 567 
Q 3503 -91 2522 -91 
Q 1538 -91 948 565 
Q 359 1222 359 2328 
Q 359 3434 948 4092 
Q 1538 4750 2522 4750 
z
" transform="scale(0.015625)"/>
    </defs>
    <use xlink:href="#DejaVuSans-55"/>
    <use xlink:href="#DejaVuSans-6e" x="73.193359"/>
    <use xlink:href="#DejaVuSans-73" x="136.572266"/>
    <use xlink:href="#DejaVuSans-61" x="188.671875"/>
    <use xlink:href="#DejaVuSans-66" x="249.951172"/>
    <use xlink:href="#DejaVuSans-65" x="285.15625"/>
    <use xlink:href="#DejaVuSans-2d" x="346.679688"/>
    <use xlink:href="#DejaVuSans-4f" x="385.513672"/>
    <use xlink:href="#DejaVuSans-6e" x="464.224609"/>
    <use xlink:href="#DejaVuSans-6c" x="527.603516"/>
    <use xlink:href="#DejaVuSans-79" x="555.386719"/>
   </g>
  </g>
 </g>
 <defs>
  <clipPath id="p25879c16be">
   <rect x="40.603125" y="28.8" width="279" height="166.32"/>
  </clipPath>
 </defs>
</svg>
