<?xml version="1.0" encoding="utf-8" standalone="no"?>
<!DOCTYPE svg PUBLIC "-//W3C//DTD SVG 1.1//EN"
  "http://www.w3.org/Graphics/SVG/1.1/DTD/svg11.dtd">
<svg xmlns:xlink="http://www.w3.org/1999/xlink" width="286.464063pt" height="218.998125pt" viewBox="0 0 286.464063 218.998125" xmlns="http://www.w3.org/2000/svg" version="1.1">
 <metadata>
  <rdf:RDF xmlns:dc="http://purl.org/dc/elements/1.1/" xmlns:cc="http://creativecommons.org/ns#" xmlns:rdf="http://www.w3.org/1999/02/22-rdf-syntax-ns#">
   <cc:Work>
    <dc:type rdf:resource="http://purl.org/dc/dcmitype/StillImage"/>
    <dc:date>2024-12-19T17:56:05.452226</dc:date>
    <dc:format>image/svg+xml</dc:format>
    <dc:creator>
     <cc:Agent>
      <dc:title>Matplotlib v3.7.5, https://matplotlib.org/</dc:title>
     </cc:Agent>
    </dc:creator>
   </cc:Work>
  </rdf:RDF>
 </metadata>
 <defs>
  <style type="text/css">*{stroke-linejoin: round; stroke-linecap: butt}</style>
 </defs>
 <g id="figure_1">
  <g id="patch_1">
   <path d="M 0 218.998125 
L 286.464063 218.998125 
L 286.464063 0 
L 0 0 
z
" style="fill: #ffffff"/>
  </g>
  <g id="axes_1">
   <g id="patch_2">
    <path d="M 38.482813 195.12 
L 276.082812 195.12 
L 276.082812 28.8 
L 38.482813 28.8 
z
" style="fill: #ffffff"/>
   </g>
   <g id="PathCollection_1">
    <defs>
     <path id="m66a1254e70" d="M 0 3 
C 0.795609 3 1.55874 2.683901 2.12132 2.12132 
C 2.683901 1.55874 3 0.795609 3 0 
C 3 -0.795609 2.683901 -1.55874 2.12132 -2.12132 
C 1.55874 -2.683901 0.795609 -3 0 -3 
C -0.795609 -3 -1.55874 -2.683901 -2.12132 -2.12132 
C -2.683901 -1.55874 -3 -0.795609 -3 0 
C -3 0.795609 -2.683901 1.55874 -2.12132 2.12132 
C -1.55874 2.683901 -0.795609 3 0 3 
z
" style="stroke: #ff0000; stroke-opacity: 0.3"/>
    </defs>
    <g clip-path="url(#pdce9e53b23)">
     <use xlink:href="#m66a1254e70" x="156.558466" y="104.028649" style="fill: #ff0000; fill-opacity: 0.3; stroke: #ff0000; stroke-opacity: 0.3"/>
     <use xlink:href="#m66a1254e70" x="77.41675" y="100.105336" style="fill: #ff0000; fill-opacity: 0.3; stroke: #ff0000; stroke-opacity: 0.3"/>
     <use xlink:href="#m66a1254e70" x="182.166467" y="73.141991" style="fill: #ff0000; fill-opacity: 0.3; stroke: #ff0000; stroke-opacity: 0.3"/>
     <use xlink:href="#m66a1254e70" x="110.226628" y="92.870527" style="fill: #ff0000; fill-opacity: 0.3; stroke: #ff0000; stroke-opacity: 0.3"/>
     <use xlink:href="#m66a1254e70" x="151.949788" y="70.23739" style="fill: #ff0000; fill-opacity: 0.3; stroke: #ff0000; stroke-opacity: 0.3"/>
     <use xlink:href="#m66a1254e70" x="181.137994" y="109.804098" style="fill: #ff0000; fill-opacity: 0.3; stroke: #ff0000; stroke-opacity: 0.3"/>
     <use xlink:href="#m66a1254e70" x="88.873925" y="106.444691" style="fill: #ff0000; fill-opacity: 0.3; stroke: #ff0000; stroke-opacity: 0.3"/>
     <use xlink:href="#m66a1254e70" x="129.41248" y="87.394709" style="fill: #ff0000; fill-opacity: 0.3; stroke: #ff0000; stroke-opacity: 0.3"/>
     <use xlink:href="#m66a1254e70" x="137.074994" y="59.370601" style="fill: #ff0000; fill-opacity: 0.3; stroke: #ff0000; stroke-opacity: 0.3"/>
     <use xlink:href="#m66a1254e70" x="124.90705" y="69.96087" style="fill: #ff0000; fill-opacity: 0.3; stroke: #ff0000; stroke-opacity: 0.3"/>
     <use xlink:href="#m66a1254e70" x="180.139356" y="102.631453" style="fill: #ff0000; fill-opacity: 0.3; stroke: #ff0000; stroke-opacity: 0.3"/>
     <use xlink:href="#m66a1254e70" x="162.677693" y="84.465998" style="fill: #ff0000; fill-opacity: 0.3; stroke: #ff0000; stroke-opacity: 0.3"/>
     <use xlink:href="#m66a1254e70" x="75.467265" y="105.599779" style="fill: #ff0000; fill-opacity: 0.3; stroke: #ff0000; stroke-opacity: 0.3"/>
     <use xlink:href="#m66a1254e70" x="106.427801" y="94.376531" style="fill: #ff0000; fill-opacity: 0.3; stroke: #ff0000; stroke-opacity: 0.3"/>
     <use xlink:href="#m66a1254e70" x="159.86362" y="76.665839" style="fill: #ff0000; fill-opacity: 0.3; stroke: #ff0000; stroke-opacity: 0.3"/>
     <use xlink:href="#m66a1254e70" x="174.647299" y="139.833408" style="fill: #ff0000; fill-opacity: 0.3; stroke: #ff0000; stroke-opacity: 0.3"/>
     <use xlink:href="#m66a1254e70" x="176.277453" y="114.98843" style="fill: #ff0000; fill-opacity: 0.3; stroke: #ff0000; stroke-opacity: 0.3"/>
     <use xlink:href="#m66a1254e70" x="125.783087" y="79.682481" style="fill: #ff0000; fill-opacity: 0.3; stroke: #ff0000; stroke-opacity: 0.3"/>
     <use xlink:href="#m66a1254e70" x="194.80006" y="86.638519" style="fill: #ff0000; fill-opacity: 0.3; stroke: #ff0000; stroke-opacity: 0.3"/>
     <use xlink:href="#m66a1254e70" x="180.811617" y="130.854246" style="fill: #ff0000; fill-opacity: 0.3; stroke: #ff0000; stroke-opacity: 0.3"/>
     <use xlink:href="#m66a1254e70" x="94.931717" y="115.687342" style="fill: #ff0000; fill-opacity: 0.3; stroke: #ff0000; stroke-opacity: 0.3"/>
     <use xlink:href="#m66a1254e70" x="117.164942" y="95.483733" style="fill: #ff0000; fill-opacity: 0.3; stroke: #ff0000; stroke-opacity: 0.3"/>
     <use xlink:href="#m66a1254e70" x="150.299075" y="96.06283" style="fill: #ff0000; fill-opacity: 0.3; stroke: #ff0000; stroke-opacity: 0.3"/>
     <use xlink:href="#m66a1254e70" x="105.205842" y="85.631179" style="fill: #ff0000; fill-opacity: 0.3; stroke: #ff0000; stroke-opacity: 0.3"/>
     <use xlink:href="#m66a1254e70" x="84.739915" y="126.670205" style="fill: #ff0000; fill-opacity: 0.3; stroke: #ff0000; stroke-opacity: 0.3"/>
     <use xlink:href="#m66a1254e70" x="95.556285" y="89.325001" style="fill: #ff0000; fill-opacity: 0.3; stroke: #ff0000; stroke-opacity: 0.3"/>
     <use xlink:href="#m66a1254e70" x="87.440166" y="102.961179" style="fill: #ff0000; fill-opacity: 0.3; stroke: #ff0000; stroke-opacity: 0.3"/>
     <use xlink:href="#m66a1254e70" x="152.791791" y="65.679358" style="fill: #ff0000; fill-opacity: 0.3; stroke: #ff0000; stroke-opacity: 0.3"/>
     <use xlink:href="#m66a1254e70" x="101.635985" y="94.086473" style="fill: #ff0000; fill-opacity: 0.3; stroke: #ff0000; stroke-opacity: 0.3"/>
     <use xlink:href="#m66a1254e70" x="147.509629" y="97.307422" style="fill: #ff0000; fill-opacity: 0.3; stroke: #ff0000; stroke-opacity: 0.3"/>
    </g>
   </g>
   <g id="PathCollection_2">
    <defs>
     <path id="mf5c158b56b" d="M 0 3 
C 0.795609 3 1.55874 2.683901 2.12132 2.12132 
C 2.683901 1.55874 3 0.795609 3 0 
C 3 -0.795609 2.683901 -1.55874 2.12132 -2.12132 
C 1.55874 -2.683901 0.795609 -3 0 -3 
C -0.795609 -3 -1.55874 -2.683901 -2.12132 -2.12132 
C -2.683901 -1.55874 -3 -0.795609 -3 0 
C -3 0.795609 -2.683901 1.55874 -2.12132 2.12132 
C -1.55874 2.683901 -0.795609 3 0 3 
z
" style="stroke: #0000ff; stroke-opacity: 0.3"/>
    </defs>
    <g clip-path="url(#pdce9e53b23)">
     <use xlink:href="#mf5c158b56b" x="153.950498" y="141.713129" style="fill: #0000ff; fill-opacity: 0.3; stroke: #0000ff; stroke-opacity: 0.3"/>
     <use xlink:href="#mf5c158b56b" x="183.908528" y="139.511993" style="fill: #0000ff; fill-opacity: 0.3; stroke: #0000ff; stroke-opacity: 0.3"/>
     <use xlink:href="#mf5c158b56b" x="205.753936" y="133.453538" style="fill: #0000ff; fill-opacity: 0.3; stroke: #0000ff; stroke-opacity: 0.3"/>
     <use xlink:href="#mf5c158b56b" x="213.025843" y="139.233099" style="fill: #0000ff; fill-opacity: 0.3; stroke: #0000ff; stroke-opacity: 0.3"/>
     <use xlink:href="#mf5c158b56b" x="144.351677" y="111.815785" style="fill: #0000ff; fill-opacity: 0.3; stroke: #0000ff; stroke-opacity: 0.3"/>
     <use xlink:href="#mf5c158b56b" x="141.959598" y="127.012289" style="fill: #0000ff; fill-opacity: 0.3; stroke: #0000ff; stroke-opacity: 0.3"/>
     <use xlink:href="#mf5c158b56b" x="125.461931" y="110.09845" style="fill: #0000ff; fill-opacity: 0.3; stroke: #0000ff; stroke-opacity: 0.3"/>
     <use xlink:href="#mf5c158b56b" x="154.321817" y="140.699732" style="fill: #0000ff; fill-opacity: 0.3; stroke: #0000ff; stroke-opacity: 0.3"/>
     <use xlink:href="#mf5c158b56b" x="175.736055" y="161.193152" style="fill: #0000ff; fill-opacity: 0.3; stroke: #0000ff; stroke-opacity: 0.3"/>
     <use xlink:href="#mf5c158b56b" x="205.258221" y="122.851045" style="fill: #0000ff; fill-opacity: 0.3; stroke: #0000ff; stroke-opacity: 0.3"/>
     <use xlink:href="#mf5c158b56b" x="143.04589" y="116.489274" style="fill: #0000ff; fill-opacity: 0.3; stroke: #0000ff; stroke-opacity: 0.3"/>
     <use xlink:href="#mf5c158b56b" x="231.567411" y="99.380402" style="fill: #0000ff; fill-opacity: 0.3; stroke: #0000ff; stroke-opacity: 0.3"/>
     <use xlink:href="#mf5c158b56b" x="196.684874" y="128.013526" style="fill: #0000ff; fill-opacity: 0.3; stroke: #0000ff; stroke-opacity: 0.3"/>
     <use xlink:href="#mf5c158b56b" x="218.680798" y="156.114815" style="fill: #0000ff; fill-opacity: 0.3; stroke: #0000ff; stroke-opacity: 0.3"/>
     <use xlink:href="#mf5c158b56b" x="132.565691" y="121.412121" style="fill: #0000ff; fill-opacity: 0.3; stroke: #0000ff; stroke-opacity: 0.3"/>
     <use xlink:href="#mf5c158b56b" x="193.653448" y="122.761351" style="fill: #0000ff; fill-opacity: 0.3; stroke: #0000ff; stroke-opacity: 0.3"/>
     <use xlink:href="#mf5c158b56b" x="161.96521" y="115.384102" style="fill: #0000ff; fill-opacity: 0.3; stroke: #0000ff; stroke-opacity: 0.3"/>
     <use xlink:href="#mf5c158b56b" x="160.52565" y="119.643936" style="fill: #0000ff; fill-opacity: 0.3; stroke: #0000ff; stroke-opacity: 0.3"/>
     <use xlink:href="#mf5c158b56b" x="127.710344" y="96.754572" style="fill: #0000ff; fill-opacity: 0.3; stroke: #0000ff; stroke-opacity: 0.3"/>
     <use xlink:href="#mf5c158b56b" x="224.492631" y="104.388007" style="fill: #0000ff; fill-opacity: 0.3; stroke: #0000ff; stroke-opacity: 0.3"/>
     <use xlink:href="#mf5c158b56b" x="173.086262" y="145.943922" style="fill: #0000ff; fill-opacity: 0.3; stroke: #0000ff; stroke-opacity: 0.3"/>
     <use xlink:href="#mf5c158b56b" x="167.138501" y="134.54106" style="fill: #0000ff; fill-opacity: 0.3; stroke: #0000ff; stroke-opacity: 0.3"/>
     <use xlink:href="#mf5c158b56b" x="158.823514" y="127.852981" style="fill: #0000ff; fill-opacity: 0.3; stroke: #0000ff; stroke-opacity: 0.3"/>
     <use xlink:href="#mf5c158b56b" x="220.036746" y="114.890058" style="fill: #0000ff; fill-opacity: 0.3; stroke: #0000ff; stroke-opacity: 0.3"/>
     <use xlink:href="#mf5c158b56b" x="182.165271" y="143.434687" style="fill: #0000ff; fill-opacity: 0.3; stroke: #0000ff; stroke-opacity: 0.3"/>
     <use xlink:href="#mf5c158b56b" x="171.464437" y="142.421152" style="fill: #0000ff; fill-opacity: 0.3; stroke: #0000ff; stroke-opacity: 0.3"/>
     <use xlink:href="#mf5c158b56b" x="132.396494" y="121.552407" style="fill: #0000ff; fill-opacity: 0.3; stroke: #0000ff; stroke-opacity: 0.3"/>
     <use xlink:href="#mf5c158b56b" x="203.481965" y="146.450378" style="fill: #0000ff; fill-opacity: 0.3; stroke: #0000ff; stroke-opacity: 0.3"/>
     <use xlink:href="#mf5c158b56b" x="228.339934" y="129.520676" style="fill: #0000ff; fill-opacity: 0.3; stroke: #0000ff; stroke-opacity: 0.3"/>
     <use xlink:href="#mf5c158b56b" x="189.312222" y="137.790685" style="fill: #0000ff; fill-opacity: 0.3; stroke: #0000ff; stroke-opacity: 0.3"/>
     <use xlink:href="#mf5c158b56b" x="160.158747" y="110.155886" style="fill: #0000ff; fill-opacity: 0.3; stroke: #0000ff; stroke-opacity: 0.3"/>
     <use xlink:href="#mf5c158b56b" x="175.29923" y="151.503215" style="fill: #0000ff; fill-opacity: 0.3; stroke: #0000ff; stroke-opacity: 0.3"/>
     <use xlink:href="#mf5c158b56b" x="146.002403" y="116.588945" style="fill: #0000ff; fill-opacity: 0.3; stroke: #0000ff; stroke-opacity: 0.3"/>
     <use xlink:href="#mf5c158b56b" x="201.528967" y="146.643121" style="fill: #0000ff; fill-opacity: 0.3; stroke: #0000ff; stroke-opacity: 0.3"/>
     <use xlink:href="#mf5c158b56b" x="201.209165" y="148.963322" style="fill: #0000ff; fill-opacity: 0.3; stroke: #0000ff; stroke-opacity: 0.3"/>
     <use xlink:href="#mf5c158b56b" x="233.275683" y="133.447738" style="fill: #0000ff; fill-opacity: 0.3; stroke: #0000ff; stroke-opacity: 0.3"/>
     <use xlink:href="#mf5c158b56b" x="143.814989" y="143.804761" style="fill: #0000ff; fill-opacity: 0.3; stroke: #0000ff; stroke-opacity: 0.3"/>
     <use xlink:href="#mf5c158b56b" x="213.662755" y="111.116642" style="fill: #0000ff; fill-opacity: 0.3; stroke: #0000ff; stroke-opacity: 0.3"/>
     <use xlink:href="#mf5c158b56b" x="177.403272" y="145.049692" style="fill: #0000ff; fill-opacity: 0.3; stroke: #0000ff; stroke-opacity: 0.3"/>
     <use xlink:href="#mf5c158b56b" x="228.73628" y="127.613045" style="fill: #0000ff; fill-opacity: 0.3; stroke: #0000ff; stroke-opacity: 0.3"/>
     <use xlink:href="#mf5c158b56b" x="236.109227" y="113.775574" style="fill: #0000ff; fill-opacity: 0.3; stroke: #0000ff; stroke-opacity: 0.3"/>
     <use xlink:href="#mf5c158b56b" x="210.35448" y="120.54881" style="fill: #0000ff; fill-opacity: 0.3; stroke: #0000ff; stroke-opacity: 0.3"/>
     <use xlink:href="#mf5c158b56b" x="128.753014" y="122.886278" style="fill: #0000ff; fill-opacity: 0.3; stroke: #0000ff; stroke-opacity: 0.3"/>
     <use xlink:href="#mf5c158b56b" x="186.445844" y="146.42657" style="fill: #0000ff; fill-opacity: 0.3; stroke: #0000ff; stroke-opacity: 0.3"/>
     <use xlink:href="#mf5c158b56b" x="150.11415" y="151.856186" style="fill: #0000ff; fill-opacity: 0.3; stroke: #0000ff; stroke-opacity: 0.3"/>
     <use xlink:href="#mf5c158b56b" x="154.742245" y="150.213754" style="fill: #0000ff; fill-opacity: 0.3; stroke: #0000ff; stroke-opacity: 0.3"/>
     <use xlink:href="#mf5c158b56b" x="196.869035" y="139.147943" style="fill: #0000ff; fill-opacity: 0.3; stroke: #0000ff; stroke-opacity: 0.3"/>
     <use xlink:href="#mf5c158b56b" x="214.785378" y="109.825139" style="fill: #0000ff; fill-opacity: 0.3; stroke: #0000ff; stroke-opacity: 0.3"/>
     <use xlink:href="#mf5c158b56b" x="124.639456" y="115.203348" style="fill: #0000ff; fill-opacity: 0.3; stroke: #0000ff; stroke-opacity: 0.3"/>
     <use xlink:href="#mf5c158b56b" x="142.380988" y="104.187969" style="fill: #0000ff; fill-opacity: 0.3; stroke: #0000ff; stroke-opacity: 0.3"/>
     <use xlink:href="#mf5c158b56b" x="142.119142" y="134.039923" style="fill: #0000ff; fill-opacity: 0.3; stroke: #0000ff; stroke-opacity: 0.3"/>
     <use xlink:href="#mf5c158b56b" x="236.148171" y="110.105171" style="fill: #0000ff; fill-opacity: 0.3; stroke: #0000ff; stroke-opacity: 0.3"/>
     <use xlink:href="#mf5c158b56b" x="217.090485" y="152.33003" style="fill: #0000ff; fill-opacity: 0.3; stroke: #0000ff; stroke-opacity: 0.3"/>
     <use xlink:href="#mf5c158b56b" x="136.565523" y="107.028495" style="fill: #0000ff; fill-opacity: 0.3; stroke: #0000ff; stroke-opacity: 0.3"/>
     <use xlink:href="#mf5c158b56b" x="155.181987" y="138.380074" style="fill: #0000ff; fill-opacity: 0.3; stroke: #0000ff; stroke-opacity: 0.3"/>
     <use xlink:href="#mf5c158b56b" x="165.303994" y="151.013427" style="fill: #0000ff; fill-opacity: 0.3; stroke: #0000ff; stroke-opacity: 0.3"/>
     <use xlink:href="#mf5c158b56b" x="133.957954" y="103.984768" style="fill: #0000ff; fill-opacity: 0.3; stroke: #0000ff; stroke-opacity: 0.3"/>
     <use xlink:href="#mf5c158b56b" x="163.70575" y="150.166275" style="fill: #0000ff; fill-opacity: 0.3; stroke: #0000ff; stroke-opacity: 0.3"/>
     <use xlink:href="#mf5c158b56b" x="129.140721" y="97.011711" style="fill: #0000ff; fill-opacity: 0.3; stroke: #0000ff; stroke-opacity: 0.3"/>
     <use xlink:href="#mf5c158b56b" x="174.650839" y="146.276822" style="fill: #0000ff; fill-opacity: 0.3; stroke: #0000ff; stroke-opacity: 0.3"/>
     <use xlink:href="#mf5c158b56b" x="151.411269" y="133.786571" style="fill: #0000ff; fill-opacity: 0.3; stroke: #0000ff; stroke-opacity: 0.3"/>
     <use xlink:href="#mf5c158b56b" x="204.144493" y="140.155811" style="fill: #0000ff; fill-opacity: 0.3; stroke: #0000ff; stroke-opacity: 0.3"/>
     <use xlink:href="#mf5c158b56b" x="207.484906" y="130.459764" style="fill: #0000ff; fill-opacity: 0.3; stroke: #0000ff; stroke-opacity: 0.3"/>
     <use xlink:href="#mf5c158b56b" x="128.45913" y="99.139765" style="fill: #0000ff; fill-opacity: 0.3; stroke: #0000ff; stroke-opacity: 0.3"/>
     <use xlink:href="#mf5c158b56b" x="208.320897" y="120.830478" style="fill: #0000ff; fill-opacity: 0.3; stroke: #0000ff; stroke-opacity: 0.3"/>
     <use xlink:href="#mf5c158b56b" x="199.203632" y="139.023621" style="fill: #0000ff; fill-opacity: 0.3; stroke: #0000ff; stroke-opacity: 0.3"/>
     <use xlink:href="#mf5c158b56b" x="138.964842" y="142.955425" style="fill: #0000ff; fill-opacity: 0.3; stroke: #0000ff; stroke-opacity: 0.3"/>
     <use xlink:href="#mf5c158b56b" x="227.409538" y="121.504168" style="fill: #0000ff; fill-opacity: 0.3; stroke: #0000ff; stroke-opacity: 0.3"/>
     <use xlink:href="#mf5c158b56b" x="177.078557" y="161.387436" style="fill: #0000ff; fill-opacity: 0.3; stroke: #0000ff; stroke-opacity: 0.3"/>
     <use xlink:href="#mf5c158b56b" x="233.41934" y="108.566194" style="fill: #0000ff; fill-opacity: 0.3; stroke: #0000ff; stroke-opacity: 0.3"/>
     <use xlink:href="#mf5c158b56b" x="229.911935" y="103.114897" style="fill: #0000ff; fill-opacity: 0.3; stroke: #0000ff; stroke-opacity: 0.3"/>
     <use xlink:href="#mf5c158b56b" x="186.861246" y="140.991123" style="fill: #0000ff; fill-opacity: 0.3; stroke: #0000ff; stroke-opacity: 0.3"/>
     <use xlink:href="#mf5c158b56b" x="158.604465" y="158.13393" style="fill: #0000ff; fill-opacity: 0.3; stroke: #0000ff; stroke-opacity: 0.3"/>
     <use xlink:href="#mf5c158b56b" x="166.752517" y="141.792973" style="fill: #0000ff; fill-opacity: 0.3; stroke: #0000ff; stroke-opacity: 0.3"/>
     <use xlink:href="#mf5c158b56b" x="221.727867" y="111.048756" style="fill: #0000ff; fill-opacity: 0.3; stroke: #0000ff; stroke-opacity: 0.3"/>
     <use xlink:href="#mf5c158b56b" x="151.437145" y="144.466334" style="fill: #0000ff; fill-opacity: 0.3; stroke: #0000ff; stroke-opacity: 0.3"/>
     <use xlink:href="#mf5c158b56b" x="182.255915" y="146.610175" style="fill: #0000ff; fill-opacity: 0.3; stroke: #0000ff; stroke-opacity: 0.3"/>
     <use xlink:href="#mf5c158b56b" x="138.482925" y="136.899878" style="fill: #0000ff; fill-opacity: 0.3; stroke: #0000ff; stroke-opacity: 0.3"/>
     <use xlink:href="#mf5c158b56b" x="201.892896" y="143.838729" style="fill: #0000ff; fill-opacity: 0.3; stroke: #0000ff; stroke-opacity: 0.3"/>
     <use xlink:href="#mf5c158b56b" x="219.989701" y="118.62345" style="fill: #0000ff; fill-opacity: 0.3; stroke: #0000ff; stroke-opacity: 0.3"/>
     <use xlink:href="#mf5c158b56b" x="144.210012" y="124.287521" style="fill: #0000ff; fill-opacity: 0.3; stroke: #0000ff; stroke-opacity: 0.3"/>
     <use xlink:href="#mf5c158b56b" x="209.239263" y="81.966771" style="fill: #0000ff; fill-opacity: 0.3; stroke: #0000ff; stroke-opacity: 0.3"/>
     <use xlink:href="#mf5c158b56b" x="134.397128" y="103.77221" style="fill: #0000ff; fill-opacity: 0.3; stroke: #0000ff; stroke-opacity: 0.3"/>
     <use xlink:href="#mf5c158b56b" x="205.584553" y="121.391492" style="fill: #0000ff; fill-opacity: 0.3; stroke: #0000ff; stroke-opacity: 0.3"/>
     <use xlink:href="#mf5c158b56b" x="162.662177" y="136.871172" style="fill: #0000ff; fill-opacity: 0.3; stroke: #0000ff; stroke-opacity: 0.3"/>
     <use xlink:href="#mf5c158b56b" x="141.144862" y="125.451755" style="fill: #0000ff; fill-opacity: 0.3; stroke: #0000ff; stroke-opacity: 0.3"/>
     <use xlink:href="#mf5c158b56b" x="217.980537" y="125.075536" style="fill: #0000ff; fill-opacity: 0.3; stroke: #0000ff; stroke-opacity: 0.3"/>
     <use xlink:href="#mf5c158b56b" x="215.602072" y="155.95617" style="fill: #0000ff; fill-opacity: 0.3; stroke: #0000ff; stroke-opacity: 0.3"/>
     <use xlink:href="#mf5c158b56b" x="165.64109" y="134.651939" style="fill: #0000ff; fill-opacity: 0.3; stroke: #0000ff; stroke-opacity: 0.3"/>
     <use xlink:href="#mf5c158b56b" x="193.174855" y="140.720094" style="fill: #0000ff; fill-opacity: 0.3; stroke: #0000ff; stroke-opacity: 0.3"/>
     <use xlink:href="#mf5c158b56b" x="130.585197" y="105.556208" style="fill: #0000ff; fill-opacity: 0.3; stroke: #0000ff; stroke-opacity: 0.3"/>
     <use xlink:href="#mf5c158b56b" x="210.863042" y="106.09605" style="fill: #0000ff; fill-opacity: 0.3; stroke: #0000ff; stroke-opacity: 0.3"/>
     <use xlink:href="#mf5c158b56b" x="192.643149" y="151.685885" style="fill: #0000ff; fill-opacity: 0.3; stroke: #0000ff; stroke-opacity: 0.3"/>
     <use xlink:href="#mf5c158b56b" x="219.8792" y="136.504384" style="fill: #0000ff; fill-opacity: 0.3; stroke: #0000ff; stroke-opacity: 0.3"/>
     <use xlink:href="#mf5c158b56b" x="227.076939" y="94.354186" style="fill: #0000ff; fill-opacity: 0.3; stroke: #0000ff; stroke-opacity: 0.3"/>
     <use xlink:href="#mf5c158b56b" x="216.994712" y="116.01758" style="fill: #0000ff; fill-opacity: 0.3; stroke: #0000ff; stroke-opacity: 0.3"/>
     <use xlink:href="#mf5c158b56b" x="159.025794" y="143.013559" style="fill: #0000ff; fill-opacity: 0.3; stroke: #0000ff; stroke-opacity: 0.3"/>
     <use xlink:href="#mf5c158b56b" x="158.199694" y="144.69324" style="fill: #0000ff; fill-opacity: 0.3; stroke: #0000ff; stroke-opacity: 0.3"/>
     <use xlink:href="#mf5c158b56b" x="224.573159" y="118.761229" style="fill: #0000ff; fill-opacity: 0.3; stroke: #0000ff; stroke-opacity: 0.3"/>
     <use xlink:href="#mf5c158b56b" x="133.432321" y="132.216635" style="fill: #0000ff; fill-opacity: 0.3; stroke: #0000ff; stroke-opacity: 0.3"/>
    </g>
   </g>
   <g id="patch_3">
    <path d="M 147.662557 106.891923 
L 151.033982 112.176829 
L 153.466151 114.220899 
L 184.537102 95.964036 
L 184.545333 95.747824 
L 158.833381 34.35114 
L 147.351535 79.214917 
z
" clip-path="url(#pdce9e53b23)" style="fill: #ff0000; opacity: 0.1; stroke: #ff0000; stroke-linejoin: miter"/>
   </g>
   <g id="patch_4">
    <path d="M 57.38082 195.12 
L 75.757286 168.724805 
L 86.556072 149.887194 
L 91.998683 137.62241 
L 101.210597 108.809908 
L 103.151611 99.477846 
L 98.442764 28.8 
L 38.482812 28.8 
L 38.482812 195.12 
z
" clip-path="url(#pdce9e53b23)" style="fill: #ff0000; opacity: 0.1; stroke: #ff0000; stroke-linejoin: miter"/>
   </g>
   <g id="patch_5">
    <path d="M 137.572433 46.00214 
L 150.176794 74.002286 
L 158.726664 84.958961 
L 183.269014 99.55135 
L 187.012262 98.684781 
L 190.874027 95.321935 
L 212.55784 28.8 
L 130.113457 28.8 
z
" clip-path="url(#pdce9e53b23)" style="fill: #ff0000; opacity: 0.1; stroke: #ff0000; stroke-linejoin: miter"/>
   </g>
   <g id="patch_6">
    <path d="M 109.721076 110.181072 
L 118.597064 102.3317 
L 119.13904 100.7555 
L 135.124107 28.8 
L 38.482812 28.8 
L 38.482812 156.155778 
z
" clip-path="url(#pdce9e53b23)" style="fill: #ff0000; opacity: 0.1; stroke: #ff0000; stroke-linejoin: miter"/>
   </g>
   <g id="patch_7">
    <path d="M 131.950316 77.276008 
L 143.205532 86.864336 
L 156.800739 90.696077 
L 178.996021 86.131773 
L 190.734063 28.8 
L 78.919101 28.8 
z
" clip-path="url(#pdce9e53b23)" style="fill: #ff0000; opacity: 0.1; stroke: #ff0000; stroke-linejoin: miter"/>
   </g>
   <g id="patch_8">
    <path d="M 169.40442 109.887497 
L 172.756136 121.403925 
L 173.436477 122.829093 
L 178.827522 125.88007 
L 179.618555 125.806299 
L 197.009398 109.008426 
L 195.265216 95.02643 
L 168.705639 68.215026 
z
" clip-path="url(#pdce9e53b23)" style="fill: #ff0000; opacity: 0.1; stroke: #ff0000; stroke-linejoin: miter"/>
   </g>
   <g id="patch_9">
    <path d="M 63.111387 195.12 
L 86.315258 163.28544 
L 97.132505 144.582962 
L 102.269456 132.123282 
L 107.721789 109.858957 
L 108.665687 100.406956 
L 90.798954 28.8 
L 38.482812 28.8 
L 38.482812 195.12 
z
" clip-path="url(#pdce9e53b23)" style="fill: #ff0000; opacity: 0.1; stroke: #ff0000; stroke-linejoin: miter"/>
   </g>
   <g id="patch_10">
    <path d="M 128.782132 94.8995 
L 138.48054 95.17356 
L 138.85357 95.060025 
L 161.103953 77.877283 
L 168.509563 67.873633 
L 165.852694 28.8 
L 38.482812 28.8 
L 38.482812 78.478134 
z
" clip-path="url(#pdce9e53b23)" style="fill: #ff0000; opacity: 0.1; stroke: #ff0000; stroke-linejoin: miter"/>
   </g>
   <g id="patch_11">
    <path d="M 131.71413 78.589827 
L 146.052245 81.612121 
L 160.421259 79.910952 
L 172.317494 74.503682 
L 186.62829 28.8 
L 38.482812 28.8 
L 38.482812 55.235469 
z
" clip-path="url(#pdce9e53b23)" style="fill: #ff0000; opacity: 0.1; stroke: #ff0000; stroke-linejoin: miter"/>
   </g>
   <g id="patch_12">
    <path d="M 56.562596 91.627702 
L 130.765959 83.864168 
L 146.135382 81.458732 
L 162.748951 72.977018 
L 168.529131 67.907704 
L 174.096674 28.8 
L 38.482812 28.8 
L 38.482812 91.877645 
z
" clip-path="url(#pdce9e53b23)" style="fill: #ff0000; opacity: 0.1; stroke: #ff0000; stroke-linejoin: miter"/>
   </g>
   <g id="patch_13">
    <path d="M 159.690871 82.086696 
L 170.073257 109.656399 
L 177.528139 120.280552 
L 195.949246 107.913648 
L 197.418833 94.881502 
L 160.415325 42.773337 
L 158.708696 58.260841 
z
" clip-path="url(#pdce9e53b23)" style="fill: #ff0000; opacity: 0.1; stroke: #ff0000; stroke-linejoin: miter"/>
   </g>
   <g id="patch_14">
    <path d="M 134.594158 62.569242 
L 143.487796 86.343555 
L 154.468325 97.644077 
L 182.936301 100.43542 
L 186.172599 97.817694 
L 187.181378 95.570431 
L 183.597425 28.8 
L 122.726634 28.8 
z
" clip-path="url(#pdce9e53b23)" style="fill: #ff0000; opacity: 0.1; stroke: #ff0000; stroke-linejoin: miter"/>
   </g>
   <g id="patch_15">
    <path d="M 65.949929 195.12 
L 83.966262 164.49562 
L 91.906398 147.203929 
L 95.648748 135.66811 
L 100.903936 108.760501 
L 101.760312 99.243416 
L 89.83363 28.8 
L 38.482812 28.8 
L 38.482812 195.12 
z
" clip-path="url(#pdce9e53b23)" style="fill: #ff0000; opacity: 0.1; stroke: #ff0000; stroke-linejoin: miter"/>
   </g>
   <g id="patch_16">
    <path d="M 59.548327 154.996824 
L 110.631751 110.327795 
L 117.487149 102.028139 
L 117.662049 101.219174 
L 125.753929 28.8 
L 38.482812 28.8 
L 38.482812 171.49266 
z
" clip-path="url(#pdce9e53b23)" style="fill: #ff0000; opacity: 0.1; stroke: #ff0000; stroke-linejoin: miter"/>
   </g>
   <g id="patch_17">
    <path d="M 133.09696 70.897629 
L 143.414903 86.478043 
L 155.615128 94.227881 
L 183.504816 93.982107 
L 190.502719 28.8 
L 106.79519 28.8 
z
" clip-path="url(#pdce9e53b23)" style="fill: #ff0000; opacity: 0.1; stroke: #ff0000; stroke-linejoin: miter"/>
   </g>
   <g id="patch_18">
    <path d="M 168.623149 145.747472 
L 168.692055 145.832226 
L 173.657811 147.100814 
L 176.667231 147.099161 
L 179.985161 145.346164 
L 180.222967 145.079168 
L 182.140966 141.075184 
L 181.652112 126.989349 
L 177.70586 122.596027 
L 166.738873 138.156018 
z
" clip-path="url(#pdce9e53b23)" style="fill: #ff0000; opacity: 0.1; stroke: #ff0000; stroke-linejoin: miter"/>
   </g>
   <g id="patch_19">
    <path d="M 167.42225 119.601402 
L 168.963099 124.814831 
L 177.904481 128.994057 
L 182.591198 127.535676 
L 192.816168 104.678243 
L 190.418429 95.352594 
L 176.060497 81.020685 
L 167.174999 110.657811 
z
" clip-path="url(#pdce9e53b23)" style="fill: #ff0000; opacity: 0.1; stroke: #ff0000; stroke-linejoin: miter"/>
   </g>
   <g id="patch_20">
    <path d="M 78.029821 95.244881 
L 129.770068 89.40396 
L 143.24403 86.793306 
L 162.48594 73.760499 
L 168.193057 67.32256 
L 169.247463 28.8 
L 38.482812 28.8 
L 38.482812 94.827312 
z
" clip-path="url(#pdce9e53b23)" style="fill: #ff0000; opacity: 0.1; stroke: #ff0000; stroke-linejoin: miter"/>
   </g>
   <g id="patch_21">
    <path d="M 156.821003 61.743655 
L 161.663932 76.20917 
L 181.215266 105.008479 
L 193.513999 105.398866 
L 207.038097 94.234174 
L 185.867125 28.8 
L 151.616399 28.8 
z
" clip-path="url(#pdce9e53b23)" style="fill: #ff0000; opacity: 0.1; stroke: #ff0000; stroke-linejoin: miter"/>
   </g>
   <g id="patch_22">
    <path d="M 173.070355 136.4121 
L 176.462073 139.152936 
L 178.199779 139.570162 
L 178.64625 139.522122 
L 186.044742 136.875651 
L 190.700905 131.169524 
L 190.181335 128.26629 
L 179.583898 111.450243 
L 171.704971 121.048697 
L 169.838492 124.426243 
z
" clip-path="url(#pdce9e53b23)" style="fill: #ff0000; opacity: 0.1; stroke: #ff0000; stroke-linejoin: miter"/>
   </g>
   <g id="patch_23">
    <path d="M 76.793567 195.12 
L 101.282726 155.574343 
L 108.435229 138.914485 
L 110.859736 127.523915 
L 110.579443 110.319367 
L 108.768023 100.424199 
L 67.398245 28.8 
L 38.482812 28.8 
L 38.482812 195.12 
z
" clip-path="url(#pdce9e53b23)" style="fill: #ff0000; opacity: 0.1; stroke: #ff0000; stroke-linejoin: miter"/>
   </g>
   <g id="patch_24">
    <path d="M 111.058318 110.396521 
L 123.096469 103.562287 
L 124.555483 99.055111 
L 133.022009 28.8 
L 38.482812 28.8 
L 38.482812 137.905508 
z
" clip-path="url(#pdce9e53b23)" style="fill: #ff0000; opacity: 0.1; stroke: #ff0000; stroke-linejoin: miter"/>
   </g>
   <g id="patch_25">
    <path d="M 136.491371 52.015707 
L 138.428666 95.213893 
L 138.805121 95.990397 
L 149.503625 106.416273 
L 151.869145 107.309355 
L 179.897102 87.700659 
L 165.810497 28.8 
L 135.780429 28.8 
z
" clip-path="url(#pdce9e53b23)" style="fill: #ff0000; opacity: 0.1; stroke: #ff0000; stroke-linejoin: miter"/>
   </g>
   <g id="patch_26">
    <path d="M 103.04341 109.105201 
L 112.724013 101.090774 
L 136.211757 53.571102 
L 147.989896 28.8 
L 38.482812 28.8 
L 38.482812 151.531772 
z
" clip-path="url(#pdce9e53b23)" style="fill: #ff0000; opacity: 0.1; stroke: #ff0000; stroke-linejoin: miter"/>
   </g>
   <g id="patch_27">
    <path d="M 94.221166 195.12 
L 106.979192 152.639579 
L 108.549088 138.857383 
L 107.719278 129.205365 
L 101.889183 108.919238 
L 97.671236 98.554416 
L 49.108829 28.8 
L 38.482812 28.8 
L 38.482812 195.12 
z
" clip-path="url(#pdce9e53b23)" style="fill: #ff0000; opacity: 0.1; stroke: #ff0000; stroke-linejoin: miter"/>
   </g>
   <g id="patch_28">
    <path d="M 50.289563 168.075365 
L 68.188731 150.37062 
L 104.673247 109.367792 
L 110.663865 100.743644 
L 127.287283 28.8 
L 38.482812 28.8 
L 38.482812 178.501475 
z
" clip-path="url(#pdce9e53b23)" style="fill: #ff0000; opacity: 0.1; stroke: #ff0000; stroke-linejoin: miter"/>
   </g>
   <g id="patch_29">
    <path d="M 57.69535 195.12 
L 79.800638 166.641709 
L 92.286062 147.013522 
L 98.492192 134.145687 
L 106.54716 109.669707 
L 108.297565 100.344928 
L 97.270764 28.8 
L 38.482812 28.8 
L 38.482812 195.12 
z
" clip-path="url(#pdce9e53b23)" style="fill: #ff0000; opacity: 0.1; stroke: #ff0000; stroke-linejoin: miter"/>
   </g>
   <g id="patch_30">
    <path d="M 132.251738 75.5993 
L 144.358142 84.737758 
L 157.599222 88.317484 
L 178.283612 84.891386 
L 194.46828 28.8 
L 74.268709 28.8 
z
" clip-path="url(#pdce9e53b23)" style="fill: #ff0000; opacity: 0.1; stroke: #ff0000; stroke-linejoin: miter"/>
   </g>
   <g id="patch_31">
    <path d="M 55.80834 165.30762 
L 76.264464 146.04675 
L 109.25727 110.106346 
L 115.052427 101.483107 
L 122.489839 28.8 
L 38.482812 28.8 
L 38.482812 179.755192 
z
" clip-path="url(#pdce9e53b23)" style="fill: #ff0000; opacity: 0.1; stroke: #ff0000; stroke-linejoin: miter"/>
   </g>
   <g id="patch_32">
    <path d="M 138.606175 99.810773 
L 147.992003 106.806809 
L 151.90583 107.658709 
L 177.109118 82.846456 
L 163.677841 28.8 
L 138.19874 28.8 
L 137.745253 45.040806 
L 136.918644 96.387962 
z
" clip-path="url(#pdce9e53b23)" style="fill: #ff0000; opacity: 0.1; stroke: #ff0000; stroke-linejoin: miter"/>
   </g>
   <g id="matplotlib.axis_1">
    <g id="xtick_1">
     <g id="line2d_1">
      <defs>
       <path id="mf2fede0837" d="M 0 0 
L 0 3.5 
" style="stroke: #000000; stroke-width: 0.8"/>
      </defs>
      <g>
       <use xlink:href="#mf2fede0837" x="38.482812" y="195.12" style="stroke: #000000; stroke-width: 0.8"/>
      </g>
     </g>
     <g id="text_1">
      <!-- −2 -->
      <g transform="translate(31.111719 209.718438) scale(0.1 -0.1)">
       <defs>
        <path id="DejaVuSans-2212" d="M 678 2272 
L 4684 2272 
L 4684 1741 
L 678 1741 
L 678 2272 
z
" transform="scale(0.015625)"/>
        <path id="DejaVuSans-32" d="M 1228 531 
L 3431 531 
L 3431 0 
L 469 0 
L 469 531 
Q 828 903 1448 1529 
Q 2069 2156 2228 2338 
Q 2531 2678 2651 2914 
Q 2772 3150 2772 3378 
Q 2772 3750 2511 3984 
Q 2250 4219 1831 4219 
Q 1534 4219 1204 4116 
Q 875 4013 500 3803 
L 500 4441 
Q 881 4594 1212 4672 
Q 1544 4750 1819 4750 
Q 2544 4750 2975 4387 
Q 3406 4025 3406 3419 
Q 3406 3131 3298 2873 
Q 3191 2616 2906 2266 
Q 2828 2175 2409 1742 
Q 1991 1309 1228 531 
z
" transform="scale(0.015625)"/>
       </defs>
       <use xlink:href="#DejaVuSans-2212"/>
       <use xlink:href="#DejaVuSans-32" x="83.789062"/>
      </g>
     </g>
    </g>
    <g id="xtick_2">
     <g id="line2d_2">
      <g>
       <use xlink:href="#mf2fede0837" x="86.002812" y="195.12" style="stroke: #000000; stroke-width: 0.8"/>
      </g>
     </g>
     <g id="text_2">
      <!-- −1 -->
      <g transform="translate(78.631719 209.718438) scale(0.1 -0.1)">
       <defs>
        <path id="DejaVuSans-31" d="M 794 531 
L 1825 531 
L 1825 4091 
L 703 3866 
L 703 4441 
L 1819 4666 
L 2450 4666 
L 2450 531 
L 3481 531 
L 3481 0 
L 794 0 
L 794 531 
z
" transform="scale(0.015625)"/>
       </defs>
       <use xlink:href="#DejaVuSans-2212"/>
       <use xlink:href="#DejaVuSans-31" x="83.789062"/>
      </g>
     </g>
    </g>
    <g id="xtick_3">
     <g id="line2d_3">
      <g>
       <use xlink:href="#mf2fede0837" x="133.522812" y="195.12" style="stroke: #000000; stroke-width: 0.8"/>
      </g>
     </g>
     <g id="text_3">
      <!-- 0 -->
      <g transform="translate(130.341562 209.718438) scale(0.1 -0.1)">
       <defs>
        <path id="DejaVuSans-30" d="M 2034 4250 
Q 1547 4250 1301 3770 
Q 1056 3291 1056 2328 
Q 1056 1369 1301 889 
Q 1547 409 2034 409 
Q 2525 409 2770 889 
Q 3016 1369 3016 2328 
Q 3016 3291 2770 3770 
Q 2525 4250 2034 4250 
z
M 2034 4750 
Q 2819 4750 3233 4129 
Q 3647 3509 3647 2328 
Q 3647 1150 3233 529 
Q 2819 -91 2034 -91 
Q 1250 -91 836 529 
Q 422 1150 422 2328 
Q 422 3509 836 4129 
Q 1250 4750 2034 4750 
z
" transform="scale(0.015625)"/>
       </defs>
       <use xlink:href="#DejaVuSans-30"/>
      </g>
     </g>
    </g>
    <g id="xtick_4">
     <g id="line2d_4">
      <g>
       <use xlink:href="#mf2fede0837" x="181.042812" y="195.12" style="stroke: #000000; stroke-width: 0.8"/>
      </g>
     </g>
     <g id="text_4">
      <!-- 1 -->
      <g transform="translate(177.861562 209.718438) scale(0.1 -0.1)">
       <use xlink:href="#DejaVuSans-31"/>
      </g>
     </g>
    </g>
    <g id="xtick_5">
     <g id="line2d_5">
      <g>
       <use xlink:href="#mf2fede0837" x="228.562812" y="195.12" style="stroke: #000000; stroke-width: 0.8"/>
      </g>
     </g>
     <g id="text_5">
      <!-- 2 -->
      <g transform="translate(225.381562 209.718438) scale(0.1 -0.1)">
       <use xlink:href="#DejaVuSans-32"/>
      </g>
     </g>
    </g>
    <g id="xtick_6">
     <g id="line2d_6">
      <g>
       <use xlink:href="#mf2fede0837" x="276.082812" y="195.12" style="stroke: #000000; stroke-width: 0.8"/>
      </g>
     </g>
     <g id="text_6">
      <!-- 3 -->
      <g transform="translate(272.901563 209.718438) scale(0.1 -0.1)">
       <defs>
        <path id="DejaVuSans-33" d="M 2597 2516 
Q 3050 2419 3304 2112 
Q 3559 1806 3559 1356 
Q 3559 666 3084 287 
Q 2609 -91 1734 -91 
Q 1441 -91 1130 -33 
Q 819 25 488 141 
L 488 750 
Q 750 597 1062 519 
Q 1375 441 1716 441 
Q 2309 441 2620 675 
Q 2931 909 2931 1356 
Q 2931 1769 2642 2001 
Q 2353 2234 1838 2234 
L 1294 2234 
L 1294 2753 
L 1863 2753 
Q 2328 2753 2575 2939 
Q 2822 3125 2822 3475 
Q 2822 3834 2567 4026 
Q 2313 4219 1838 4219 
Q 1578 4219 1281 4162 
Q 984 4106 628 3988 
L 628 4550 
Q 988 4650 1302 4700 
Q 1616 4750 1894 4750 
Q 2613 4750 3031 4423 
Q 3450 4097 3450 3541 
Q 3450 3153 3228 2886 
Q 3006 2619 2597 2516 
z
" transform="scale(0.015625)"/>
       </defs>
       <use xlink:href="#DejaVuSans-33"/>
      </g>
     </g>
    </g>
   </g>
   <g id="matplotlib.axis_2">
    <g id="ytick_1">
     <g id="line2d_7">
      <defs>
       <path id="m68d23499ef" d="M 0 0 
L -3.5 0 
" style="stroke: #000000; stroke-width: 0.8"/>
      </defs>
      <g>
       <use xlink:href="#m68d23499ef" x="38.482813" y="195.12" style="stroke: #000000; stroke-width: 0.8"/>
      </g>
     </g>
     <g id="text_7">
      <!-- −1.5 -->
      <g transform="translate(7.2 198.919219) scale(0.1 -0.1)">
       <defs>
        <path id="DejaVuSans-2e" d="M 684 794 
L 1344 794 
L 1344 0 
L 684 0 
L 684 794 
z
" transform="scale(0.015625)"/>
        <path id="DejaVuSans-35" d="M 691 4666 
L 3169 4666 
L 3169 4134 
L 1269 4134 
L 1269 2991 
Q 1406 3038 1543 3061 
Q 1681 3084 1819 3084 
Q 2600 3084 3056 2656 
Q 3513 2228 3513 1497 
Q 3513 744 3044 326 
Q 2575 -91 1722 -91 
Q 1428 -91 1123 -41 
Q 819 9 494 109 
L 494 744 
Q 775 591 1075 516 
Q 1375 441 1709 441 
Q 2250 441 2565 725 
Q 2881 1009 2881 1497 
Q 2881 1984 2565 2268 
Q 2250 2553 1709 2553 
Q 1456 2553 1204 2497 
Q 953 2441 691 2322 
L 691 4666 
z
" transform="scale(0.015625)"/>
       </defs>
       <use xlink:href="#DejaVuSans-2212"/>
       <use xlink:href="#DejaVuSans-31" x="83.789062"/>
       <use xlink:href="#DejaVuSans-2e" x="147.412109"/>
       <use xlink:href="#DejaVuSans-35" x="179.199219"/>
      </g>
     </g>
    </g>
    <g id="ytick_2">
     <g id="line2d_8">
      <g>
       <use xlink:href="#m68d23499ef" x="38.482813" y="171.36" style="stroke: #000000; stroke-width: 0.8"/>
      </g>
     </g>
     <g id="text_8">
      <!-- −1.0 -->
      <g transform="translate(7.2 175.159219) scale(0.1 -0.1)">
       <use xlink:href="#DejaVuSans-2212"/>
       <use xlink:href="#DejaVuSans-31" x="83.789062"/>
       <use xlink:href="#DejaVuSans-2e" x="147.412109"/>
       <use xlink:href="#DejaVuSans-30" x="179.199219"/>
      </g>
     </g>
    </g>
    <g id="ytick_3">
     <g id="line2d_9">
      <g>
       <use xlink:href="#m68d23499ef" x="38.482813" y="147.6" style="stroke: #000000; stroke-width: 0.8"/>
      </g>
     </g>
     <g id="text_9">
      <!-- −0.5 -->
      <g transform="translate(7.2 151.399219) scale(0.1 -0.1)">
       <use xlink:href="#DejaVuSans-2212"/>
       <use xlink:href="#DejaVuSans-30" x="83.789062"/>
       <use xlink:href="#DejaVuSans-2e" x="147.412109"/>
       <use xlink:href="#DejaVuSans-35" x="179.199219"/>
      </g>
     </g>
    </g>
    <g id="ytick_4">
     <g id="line2d_10">
      <g>
       <use xlink:href="#m68d23499ef" x="38.482813" y="123.84" style="stroke: #000000; stroke-width: 0.8"/>
      </g>
     </g>
     <g id="text_10">
      <!-- 0.0 -->
      <g transform="translate(15.579688 127.639219) scale(0.1 -0.1)">
       <use xlink:href="#DejaVuSans-30"/>
       <use xlink:href="#DejaVuSans-2e" x="63.623047"/>
       <use xlink:href="#DejaVuSans-30" x="95.410156"/>
      </g>
     </g>
    </g>
    <g id="ytick_5">
     <g id="line2d_11">
      <g>
       <use xlink:href="#m68d23499ef" x="38.482813" y="100.08" style="stroke: #000000; stroke-width: 0.8"/>
      </g>
     </g>
     <g id="text_11">
      <!-- 0.5 -->
      <g transform="translate(15.579688 103.879219) scale(0.1 -0.1)">
       <use xlink:href="#DejaVuSans-30"/>
       <use xlink:href="#DejaVuSans-2e" x="63.623047"/>
       <use xlink:href="#DejaVuSans-35" x="95.410156"/>
      </g>
     </g>
    </g>
    <g id="ytick_6">
     <g id="line2d_12">
      <g>
       <use xlink:href="#m68d23499ef" x="38.482813" y="76.32" style="stroke: #000000; stroke-width: 0.8"/>
      </g>
     </g>
     <g id="text_12">
      <!-- 1.0 -->
      <g transform="translate(15.579688 80.119219) scale(0.1 -0.1)">
       <use xlink:href="#DejaVuSans-31"/>
       <use xlink:href="#DejaVuSans-2e" x="63.623047"/>
       <use xlink:href="#DejaVuSans-30" x="95.410156"/>
      </g>
     </g>
    </g>
    <g id="ytick_7">
     <g id="line2d_13">
      <g>
       <use xlink:href="#m68d23499ef" x="38.482813" y="52.56" style="stroke: #000000; stroke-width: 0.8"/>
      </g>
     </g>
     <g id="text_13">
      <!-- 1.5 -->
      <g transform="translate(15.579688 56.359219) scale(0.1 -0.1)">
       <use xlink:href="#DejaVuSans-31"/>
       <use xlink:href="#DejaVuSans-2e" x="63.623047"/>
       <use xlink:href="#DejaVuSans-35" x="95.410156"/>
      </g>
     </g>
    </g>
    <g id="ytick_8">
     <g id="line2d_14">
      <g>
       <use xlink:href="#m68d23499ef" x="38.482813" y="28.8" style="stroke: #000000; stroke-width: 0.8"/>
      </g>
     </g>
     <g id="text_14">
      <!-- 2.0 -->
      <g transform="translate(15.579688 32.599219) scale(0.1 -0.1)">
       <use xlink:href="#DejaVuSans-32"/>
       <use xlink:href="#DejaVuSans-2e" x="63.623047"/>
       <use xlink:href="#DejaVuSans-30" x="95.410156"/>
      </g>
     </g>
    </g>
   </g>
   <g id="patch_33">
    <path d="M 38.482813 195.12 
L 38.482813 28.8 
" style="fill: none; stroke: #000000; stroke-width: 0.8; stroke-linejoin: miter; stroke-linecap: square"/>
   </g>
   <g id="patch_34">
    <path d="M 276.082812 195.12 
L 276.082812 28.8 
" style="fill: none; stroke: #000000; stroke-width: 0.8; stroke-linejoin: miter; stroke-linecap: square"/>
   </g>
   <g id="patch_35">
    <path d="M 38.482812 195.12 
L 276.082812 195.12 
" style="fill: none; stroke: #000000; stroke-width: 0.8; stroke-linejoin: miter; stroke-linecap: square"/>
   </g>
   <g id="patch_36">
    <path d="M 38.482812 28.8 
L 276.082812 28.8 
" style="fill: none; stroke: #000000; stroke-width: 0.8; stroke-linejoin: miter; stroke-linecap: square"/>
   </g>
  </g>
  <g id="text_15">
   <!-- Unsafe-Safe -->
   <g transform="translate(116.527813 16.318125) scale(0.12 -0.12)">
    <defs>
     <path id="DejaVuSans-55" d="M 556 4666 
L 1191 4666 
L 1191 1831 
Q 1191 1081 1462 751 
Q 1734 422 2344 422 
Q 2950 422 3222 751 
Q 3494 1081 3494 1831 
L 3494 4666 
L 4128 4666 
L 4128 1753 
Q 4128 841 3676 375 
Q 3225 -91 2344 -91 
Q 1459 -91 1007 375 
Q 556 841 556 1753 
L 556 4666 
z
" transform="scale(0.015625)"/>
     <path id="DejaVuSans-6e" d="M 3513 2113 
L 3513 0 
L 2938 0 
L 2938 2094 
Q 2938 2591 2744 2837 
Q 2550 3084 2163 3084 
Q 1697 3084 1428 2787 
Q 1159 2491 1159 1978 
L 1159 0 
L 581 0 
L 581 3500 
L 1159 3500 
L 1159 2956 
Q 1366 3272 1645 3428 
Q 1925 3584 2291 3584 
Q 2894 3584 3203 3211 
Q 3513 2838 3513 2113 
z
" transform="scale(0.015625)"/>
     <path id="DejaVuSans-73" d="M 2834 3397 
L 2834 2853 
Q 2591 2978 2328 3040 
Q 2066 3103 1784 3103 
Q 1356 3103 1142 2972 
Q 928 2841 928 2578 
Q 928 2378 1081 2264 
Q 1234 2150 1697 2047 
L 1894 2003 
Q 2506 1872 2764 1633 
Q 3022 1394 3022 966 
Q 3022 478 2636 193 
Q 2250 -91 1575 -91 
Q 1294 -91 989 -36 
Q 684 19 347 128 
L 347 722 
Q 666 556 975 473 
Q 1284 391 1588 391 
Q 1994 391 2212 530 
Q 2431 669 2431 922 
Q 2431 1156 2273 1281 
Q 2116 1406 1581 1522 
L 1381 1569 
Q 847 1681 609 1914 
Q 372 2147 372 2553 
Q 372 3047 722 3315 
Q 1072 3584 1716 3584 
Q 2034 3584 2315 3537 
Q 2597 3491 2834 3397 
z
" transform="scale(0.015625)"/>
     <path id="DejaVuSans-61" d="M 2194 1759 
Q 1497 1759 1228 1600 
Q 959 1441 959 1056 
Q 959 750 1161 570 
Q 1363 391 1709 391 
Q 2188 391 2477 730 
Q 2766 1069 2766 1631 
L 2766 1759 
L 2194 1759 
z
M 3341 1997 
L 3341 0 
L 2766 0 
L 2766 531 
Q 2569 213 2275 61 
Q 1981 -91 1556 -91 
Q 1019 -91 701 211 
Q 384 513 384 1019 
Q 384 1609 779 1909 
Q 1175 2209 1959 2209 
L 2766 2209 
L 2766 2266 
Q 2766 2663 2505 2880 
Q 2244 3097 1772 3097 
Q 1472 3097 1187 3025 
Q 903 2953 641 2809 
L 641 3341 
Q 956 3463 1253 3523 
Q 1550 3584 1831 3584 
Q 2591 3584 2966 3190 
Q 3341 2797 3341 1997 
z
" transform="scale(0.015625)"/>
     <path id="DejaVuSans-66" d="M 2375 4863 
L 2375 4384 
L 1825 4384 
Q 1516 4384 1395 4259 
Q 1275 4134 1275 3809 
L 1275 3500 
L 2222 3500 
L 2222 3053 
L 1275 3053 
L 1275 0 
L 697 0 
L 697 3053 
L 147 3053 
L 147 3500 
L 697 3500 
L 697 3744 
Q 697 4328 969 4595 
Q 1241 4863 1831 4863 
L 2375 4863 
z
" transform="scale(0.015625)"/>
     <path id="DejaVuSans-65" d="M 3597 1894 
L 3597 1613 
L 953 1613 
Q 991 1019 1311 708 
Q 1631 397 2203 397 
Q 2534 397 2845 478 
Q 3156 559 3463 722 
L 3463 178 
Q 3153 47 2828 -22 
Q 2503 -91 2169 -91 
Q 1331 -91 842 396 
Q 353 884 353 1716 
Q 353 2575 817 3079 
Q 1281 3584 2069 3584 
Q 2775 3584 3186 3129 
Q 3597 2675 3597 1894 
z
M 3022 2063 
Q 3016 2534 2758 2815 
Q 2500 3097 2075 3097 
Q 1594 3097 1305 2825 
Q 1016 2553 972 2059 
L 3022 2063 
z
" transform="scale(0.015625)"/>
     <path id="DejaVuSans-2d" d="M 313 2009 
L 1997 2009 
L 1997 1497 
L 313 1497 
L 313 2009 
z
" transform="scale(0.015625)"/>
     <path id="DejaVuSans-53" d="M 3425 4513 
L 3425 3897 
Q 3066 4069 2747 4153 
Q 2428 4238 2131 4238 
Q 1616 4238 1336 4038 
Q 1056 3838 1056 3469 
Q 1056 3159 1242 3001 
Q 1428 2844 1947 2747 
L 2328 2669 
Q 3034 2534 3370 2195 
Q 3706 1856 3706 1288 
Q 3706 609 3251 259 
Q 2797 -91 1919 -91 
Q 1588 -91 1214 -16 
Q 841 59 441 206 
L 441 856 
Q 825 641 1194 531 
Q 1563 422 1919 422 
Q 2459 422 2753 634 
Q 3047 847 3047 1241 
Q 3047 1584 2836 1778 
Q 2625 1972 2144 2069 
L 1759 2144 
Q 1053 2284 737 2584 
Q 422 2884 422 3419 
Q 422 4038 858 4394 
Q 1294 4750 2059 4750 
Q 2388 4750 2728 4690 
Q 3069 4631 3425 4513 
z
" transform="scale(0.015625)"/>
    </defs>
    <use xlink:href="#DejaVuSans-55"/>
    <use xlink:href="#DejaVuSans-6e" x="73.193359"/>
    <use xlink:href="#DejaVuSans-73" x="136.572266"/>
    <use xlink:href="#DejaVuSans-61" x="188.671875"/>
    <use xlink:href="#DejaVuSans-66" x="249.951172"/>
    <use xlink:href="#DejaVuSans-65" x="285.15625"/>
    <use xlink:href="#DejaVuSans-2d" x="346.679688"/>
    <use xlink:href="#DejaVuSans-53" x="382.763672"/>
    <use xlink:href="#DejaVuSans-61" x="446.240234"/>
    <use xlink:href="#DejaVuSans-66" x="507.519531"/>
    <use xlink:href="#DejaVuSans-65" x="542.724609"/>
   </g>
  </g>
 </g>
 <defs>
  <clipPath id="pdce9e53b23">
   <rect x="38.482813" y="28.8" width="237.6" height="166.32"/>
  </clipPath>
 </defs>
</svg>
