<?xml version="1.0" encoding="utf-8" standalone="no"?>
<!DOCTYPE svg PUBLIC "-//W3C//DTD SVG 1.1//EN"
  "http://www.w3.org/Graphics/SVG/1.1/DTD/svg11.dtd">
<svg xmlns:xlink="http://www.w3.org/1999/xlink" width="286.464063pt" height="201.197344pt" viewBox="0 0 286.464063 201.197344" xmlns="http://www.w3.org/2000/svg" version="1.1">
 <metadata>
  <rdf:RDF xmlns:dc="http://purl.org/dc/elements/1.1/" xmlns:cc="http://creativecommons.org/ns#" xmlns:rdf="http://www.w3.org/1999/02/22-rdf-syntax-ns#">
   <cc:Work>
    <dc:type rdf:resource="http://purl.org/dc/dcmitype/StillImage"/>
    <dc:date>2024-11-18T14:28:32.724509</dc:date>
    <dc:format>image/svg+xml</dc:format>
    <dc:creator>
     <cc:Agent>
      <dc:title>Matplotlib v3.8.4, https://matplotlib.org/</dc:title>
     </cc:Agent>
    </dc:creator>
   </cc:Work>
  </rdf:RDF>
 </metadata>
 <defs>
  <style type="text/css">*{stroke-linejoin: round; stroke-linecap: butt}</style>
 </defs>
 <g id="figure_1">
  <g id="patch_1">
   <path d="M 0 201.197344 
L 286.464063 201.197344 
L 286.464063 0 
L 0 0 
z
" style="fill: #ffffff"/>
  </g>
  <g id="axes_1">
   <g id="patch_2">
    <path d="M 38.482813 177.319219 
L 276.082812 177.319219 
L 276.082812 10.999219 
L 38.482813 10.999219 
z
" style="fill: #ffffff"/>
   </g>
   <g id="PathCollection_1">
    <defs>
     <path id="m51f90dc3dd" d="M 0 3 
C 0.795609 3 1.55874 2.683901 2.12132 2.12132 
C 2.683901 1.55874 3 0.795609 3 0 
C 3 -0.795609 2.683901 -1.55874 2.12132 -2.12132 
C 1.55874 -2.683901 0.795609 -3 0 -3 
C -0.795609 -3 -1.55874 -2.683901 -2.12132 -2.12132 
C -2.683901 -1.55874 -3 -0.795609 -3 0 
C -3 0.795609 -2.683901 1.55874 -2.12132 2.12132 
C -1.55874 2.683901 -0.795609 3 0 3 
z
" style="stroke: #ff0000; stroke-opacity: 0.3"/>
    </defs>
    <g clip-path="url(#pd8500dc030)">
     <use xlink:href="#m51f90dc3dd" x="156.558466" y="86.227868" style="fill: #ff0000; fill-opacity: 0.3; stroke: #ff0000; stroke-opacity: 0.3"/>
     <use xlink:href="#m51f90dc3dd" x="77.41675" y="82.304555" style="fill: #ff0000; fill-opacity: 0.3; stroke: #ff0000; stroke-opacity: 0.3"/>
     <use xlink:href="#m51f90dc3dd" x="182.166467" y="55.34121" style="fill: #ff0000; fill-opacity: 0.3; stroke: #ff0000; stroke-opacity: 0.3"/>
     <use xlink:href="#m51f90dc3dd" x="110.226628" y="75.069746" style="fill: #ff0000; fill-opacity: 0.3; stroke: #ff0000; stroke-opacity: 0.3"/>
     <use xlink:href="#m51f90dc3dd" x="151.949788" y="52.436608" style="fill: #ff0000; fill-opacity: 0.3; stroke: #ff0000; stroke-opacity: 0.3"/>
     <use xlink:href="#m51f90dc3dd" x="181.137994" y="92.003317" style="fill: #ff0000; fill-opacity: 0.3; stroke: #ff0000; stroke-opacity: 0.3"/>
     <use xlink:href="#m51f90dc3dd" x="88.873925" y="88.64391" style="fill: #ff0000; fill-opacity: 0.3; stroke: #ff0000; stroke-opacity: 0.3"/>
     <use xlink:href="#m51f90dc3dd" x="129.41248" y="69.593928" style="fill: #ff0000; fill-opacity: 0.3; stroke: #ff0000; stroke-opacity: 0.3"/>
     <use xlink:href="#m51f90dc3dd" x="137.074994" y="41.56982" style="fill: #ff0000; fill-opacity: 0.3; stroke: #ff0000; stroke-opacity: 0.3"/>
     <use xlink:href="#m51f90dc3dd" x="124.90705" y="52.160089" style="fill: #ff0000; fill-opacity: 0.3; stroke: #ff0000; stroke-opacity: 0.3"/>
     <use xlink:href="#m51f90dc3dd" x="180.139356" y="84.830671" style="fill: #ff0000; fill-opacity: 0.3; stroke: #ff0000; stroke-opacity: 0.3"/>
     <use xlink:href="#m51f90dc3dd" x="162.677693" y="66.665217" style="fill: #ff0000; fill-opacity: 0.3; stroke: #ff0000; stroke-opacity: 0.3"/>
     <use xlink:href="#m51f90dc3dd" x="75.467265" y="87.798998" style="fill: #ff0000; fill-opacity: 0.3; stroke: #ff0000; stroke-opacity: 0.3"/>
     <use xlink:href="#m51f90dc3dd" x="106.427801" y="76.57575" style="fill: #ff0000; fill-opacity: 0.3; stroke: #ff0000; stroke-opacity: 0.3"/>
     <use xlink:href="#m51f90dc3dd" x="159.86362" y="58.865057" style="fill: #ff0000; fill-opacity: 0.3; stroke: #ff0000; stroke-opacity: 0.3"/>
     <use xlink:href="#m51f90dc3dd" x="174.647299" y="122.032627" style="fill: #ff0000; fill-opacity: 0.3; stroke: #ff0000; stroke-opacity: 0.3"/>
     <use xlink:href="#m51f90dc3dd" x="176.277453" y="97.187649" style="fill: #ff0000; fill-opacity: 0.3; stroke: #ff0000; stroke-opacity: 0.3"/>
     <use xlink:href="#m51f90dc3dd" x="125.783087" y="61.881699" style="fill: #ff0000; fill-opacity: 0.3; stroke: #ff0000; stroke-opacity: 0.3"/>
     <use xlink:href="#m51f90dc3dd" x="194.80006" y="68.837738" style="fill: #ff0000; fill-opacity: 0.3; stroke: #ff0000; stroke-opacity: 0.3"/>
     <use xlink:href="#m51f90dc3dd" x="180.811617" y="113.053465" style="fill: #ff0000; fill-opacity: 0.3; stroke: #ff0000; stroke-opacity: 0.3"/>
     <use xlink:href="#m51f90dc3dd" x="94.931717" y="97.886561" style="fill: #ff0000; fill-opacity: 0.3; stroke: #ff0000; stroke-opacity: 0.3"/>
     <use xlink:href="#m51f90dc3dd" x="117.164942" y="77.682952" style="fill: #ff0000; fill-opacity: 0.3; stroke: #ff0000; stroke-opacity: 0.3"/>
     <use xlink:href="#m51f90dc3dd" x="150.299075" y="78.262049" style="fill: #ff0000; fill-opacity: 0.3; stroke: #ff0000; stroke-opacity: 0.3"/>
     <use xlink:href="#m51f90dc3dd" x="105.205842" y="67.830398" style="fill: #ff0000; fill-opacity: 0.3; stroke: #ff0000; stroke-opacity: 0.3"/>
     <use xlink:href="#m51f90dc3dd" x="84.739915" y="108.869423" style="fill: #ff0000; fill-opacity: 0.3; stroke: #ff0000; stroke-opacity: 0.3"/>
     <use xlink:href="#m51f90dc3dd" x="95.556285" y="71.52422" style="fill: #ff0000; fill-opacity: 0.3; stroke: #ff0000; stroke-opacity: 0.3"/>
     <use xlink:href="#m51f90dc3dd" x="87.440166" y="85.160397" style="fill: #ff0000; fill-opacity: 0.3; stroke: #ff0000; stroke-opacity: 0.3"/>
     <use xlink:href="#m51f90dc3dd" x="152.791791" y="47.878577" style="fill: #ff0000; fill-opacity: 0.3; stroke: #ff0000; stroke-opacity: 0.3"/>
     <use xlink:href="#m51f90dc3dd" x="101.635985" y="76.285692" style="fill: #ff0000; fill-opacity: 0.3; stroke: #ff0000; stroke-opacity: 0.3"/>
     <use xlink:href="#m51f90dc3dd" x="147.509629" y="79.506641" style="fill: #ff0000; fill-opacity: 0.3; stroke: #ff0000; stroke-opacity: 0.3"/>
    </g>
   </g>
   <g id="PathCollection_2">
    <defs>
     <path id="me322a6c236" d="M 0 3 
C 0.795609 3 1.55874 2.683901 2.12132 2.12132 
C 2.683901 1.55874 3 0.795609 3 0 
C 3 -0.795609 2.683901 -1.55874 2.12132 -2.12132 
C 1.55874 -2.683901 0.795609 -3 0 -3 
C -0.795609 -3 -1.55874 -2.683901 -2.12132 -2.12132 
C -2.683901 -1.55874 -3 -0.795609 -3 0 
C -3 0.795609 -2.683901 1.55874 -2.12132 2.12132 
C -1.55874 2.683901 -0.795609 3 0 3 
z
" style="stroke: #0000ff; stroke-opacity: 0.3"/>
    </defs>
    <g clip-path="url(#pd8500dc030)">
     <use xlink:href="#me322a6c236" x="153.950498" y="123.912347" style="fill: #0000ff; fill-opacity: 0.3; stroke: #0000ff; stroke-opacity: 0.3"/>
     <use xlink:href="#me322a6c236" x="183.908528" y="121.711212" style="fill: #0000ff; fill-opacity: 0.3; stroke: #0000ff; stroke-opacity: 0.3"/>
     <use xlink:href="#me322a6c236" x="205.753936" y="115.652757" style="fill: #0000ff; fill-opacity: 0.3; stroke: #0000ff; stroke-opacity: 0.3"/>
     <use xlink:href="#me322a6c236" x="213.025843" y="121.432318" style="fill: #0000ff; fill-opacity: 0.3; stroke: #0000ff; stroke-opacity: 0.3"/>
     <use xlink:href="#me322a6c236" x="144.351677" y="94.015003" style="fill: #0000ff; fill-opacity: 0.3; stroke: #0000ff; stroke-opacity: 0.3"/>
     <use xlink:href="#me322a6c236" x="141.959598" y="109.211508" style="fill: #0000ff; fill-opacity: 0.3; stroke: #0000ff; stroke-opacity: 0.3"/>
     <use xlink:href="#me322a6c236" x="125.461931" y="92.297669" style="fill: #0000ff; fill-opacity: 0.3; stroke: #0000ff; stroke-opacity: 0.3"/>
     <use xlink:href="#me322a6c236" x="154.321817" y="122.898951" style="fill: #0000ff; fill-opacity: 0.3; stroke: #0000ff; stroke-opacity: 0.3"/>
     <use xlink:href="#me322a6c236" x="175.736055" y="143.392371" style="fill: #0000ff; fill-opacity: 0.3; stroke: #0000ff; stroke-opacity: 0.3"/>
     <use xlink:href="#me322a6c236" x="205.258221" y="105.050264" style="fill: #0000ff; fill-opacity: 0.3; stroke: #0000ff; stroke-opacity: 0.3"/>
     <use xlink:href="#me322a6c236" x="143.04589" y="98.688493" style="fill: #0000ff; fill-opacity: 0.3; stroke: #0000ff; stroke-opacity: 0.3"/>
     <use xlink:href="#me322a6c236" x="231.567411" y="81.579621" style="fill: #0000ff; fill-opacity: 0.3; stroke: #0000ff; stroke-opacity: 0.3"/>
     <use xlink:href="#me322a6c236" x="196.684874" y="110.212744" style="fill: #0000ff; fill-opacity: 0.3; stroke: #0000ff; stroke-opacity: 0.3"/>
     <use xlink:href="#me322a6c236" x="218.680798" y="138.314033" style="fill: #0000ff; fill-opacity: 0.3; stroke: #0000ff; stroke-opacity: 0.3"/>
     <use xlink:href="#me322a6c236" x="132.565691" y="103.61134" style="fill: #0000ff; fill-opacity: 0.3; stroke: #0000ff; stroke-opacity: 0.3"/>
     <use xlink:href="#me322a6c236" x="193.653448" y="104.96057" style="fill: #0000ff; fill-opacity: 0.3; stroke: #0000ff; stroke-opacity: 0.3"/>
     <use xlink:href="#me322a6c236" x="161.96521" y="97.583321" style="fill: #0000ff; fill-opacity: 0.3; stroke: #0000ff; stroke-opacity: 0.3"/>
     <use xlink:href="#me322a6c236" x="160.52565" y="101.843155" style="fill: #0000ff; fill-opacity: 0.3; stroke: #0000ff; stroke-opacity: 0.3"/>
     <use xlink:href="#me322a6c236" x="127.710344" y="78.953791" style="fill: #0000ff; fill-opacity: 0.3; stroke: #0000ff; stroke-opacity: 0.3"/>
     <use xlink:href="#me322a6c236" x="224.492631" y="86.587226" style="fill: #0000ff; fill-opacity: 0.3; stroke: #0000ff; stroke-opacity: 0.3"/>
     <use xlink:href="#me322a6c236" x="173.086262" y="128.143141" style="fill: #0000ff; fill-opacity: 0.3; stroke: #0000ff; stroke-opacity: 0.3"/>
     <use xlink:href="#me322a6c236" x="167.138501" y="116.740279" style="fill: #0000ff; fill-opacity: 0.3; stroke: #0000ff; stroke-opacity: 0.3"/>
     <use xlink:href="#me322a6c236" x="158.823514" y="110.0522" style="fill: #0000ff; fill-opacity: 0.3; stroke: #0000ff; stroke-opacity: 0.3"/>
     <use xlink:href="#me322a6c236" x="220.036746" y="97.089277" style="fill: #0000ff; fill-opacity: 0.3; stroke: #0000ff; stroke-opacity: 0.3"/>
     <use xlink:href="#me322a6c236" x="182.165271" y="125.633905" style="fill: #0000ff; fill-opacity: 0.3; stroke: #0000ff; stroke-opacity: 0.3"/>
     <use xlink:href="#me322a6c236" x="171.464437" y="124.62037" style="fill: #0000ff; fill-opacity: 0.3; stroke: #0000ff; stroke-opacity: 0.3"/>
     <use xlink:href="#me322a6c236" x="132.396494" y="103.751625" style="fill: #0000ff; fill-opacity: 0.3; stroke: #0000ff; stroke-opacity: 0.3"/>
     <use xlink:href="#me322a6c236" x="203.481965" y="128.649596" style="fill: #0000ff; fill-opacity: 0.3; stroke: #0000ff; stroke-opacity: 0.3"/>
     <use xlink:href="#me322a6c236" x="228.339934" y="111.719894" style="fill: #0000ff; fill-opacity: 0.3; stroke: #0000ff; stroke-opacity: 0.3"/>
     <use xlink:href="#me322a6c236" x="189.312222" y="119.989904" style="fill: #0000ff; fill-opacity: 0.3; stroke: #0000ff; stroke-opacity: 0.3"/>
     <use xlink:href="#me322a6c236" x="160.158747" y="92.355105" style="fill: #0000ff; fill-opacity: 0.3; stroke: #0000ff; stroke-opacity: 0.3"/>
     <use xlink:href="#me322a6c236" x="175.29923" y="133.702434" style="fill: #0000ff; fill-opacity: 0.3; stroke: #0000ff; stroke-opacity: 0.3"/>
     <use xlink:href="#me322a6c236" x="146.002403" y="98.788164" style="fill: #0000ff; fill-opacity: 0.3; stroke: #0000ff; stroke-opacity: 0.3"/>
     <use xlink:href="#me322a6c236" x="201.528967" y="128.84234" style="fill: #0000ff; fill-opacity: 0.3; stroke: #0000ff; stroke-opacity: 0.3"/>
     <use xlink:href="#me322a6c236" x="201.209165" y="131.162541" style="fill: #0000ff; fill-opacity: 0.3; stroke: #0000ff; stroke-opacity: 0.3"/>
     <use xlink:href="#me322a6c236" x="233.275683" y="115.646957" style="fill: #0000ff; fill-opacity: 0.3; stroke: #0000ff; stroke-opacity: 0.3"/>
     <use xlink:href="#me322a6c236" x="143.814989" y="126.00398" style="fill: #0000ff; fill-opacity: 0.3; stroke: #0000ff; stroke-opacity: 0.3"/>
     <use xlink:href="#me322a6c236" x="213.662755" y="93.315861" style="fill: #0000ff; fill-opacity: 0.3; stroke: #0000ff; stroke-opacity: 0.3"/>
     <use xlink:href="#me322a6c236" x="177.403272" y="127.248911" style="fill: #0000ff; fill-opacity: 0.3; stroke: #0000ff; stroke-opacity: 0.3"/>
     <use xlink:href="#me322a6c236" x="228.73628" y="109.812263" style="fill: #0000ff; fill-opacity: 0.3; stroke: #0000ff; stroke-opacity: 0.3"/>
     <use xlink:href="#me322a6c236" x="236.109227" y="95.974792" style="fill: #0000ff; fill-opacity: 0.3; stroke: #0000ff; stroke-opacity: 0.3"/>
     <use xlink:href="#me322a6c236" x="210.35448" y="102.748029" style="fill: #0000ff; fill-opacity: 0.3; stroke: #0000ff; stroke-opacity: 0.3"/>
     <use xlink:href="#me322a6c236" x="128.753014" y="105.085497" style="fill: #0000ff; fill-opacity: 0.3; stroke: #0000ff; stroke-opacity: 0.3"/>
     <use xlink:href="#me322a6c236" x="186.445844" y="128.625789" style="fill: #0000ff; fill-opacity: 0.3; stroke: #0000ff; stroke-opacity: 0.3"/>
     <use xlink:href="#me322a6c236" x="150.11415" y="134.055405" style="fill: #0000ff; fill-opacity: 0.3; stroke: #0000ff; stroke-opacity: 0.3"/>
     <use xlink:href="#me322a6c236" x="154.742245" y="132.412973" style="fill: #0000ff; fill-opacity: 0.3; stroke: #0000ff; stroke-opacity: 0.3"/>
     <use xlink:href="#me322a6c236" x="196.869035" y="121.347161" style="fill: #0000ff; fill-opacity: 0.3; stroke: #0000ff; stroke-opacity: 0.3"/>
     <use xlink:href="#me322a6c236" x="214.785378" y="92.024358" style="fill: #0000ff; fill-opacity: 0.3; stroke: #0000ff; stroke-opacity: 0.3"/>
     <use xlink:href="#me322a6c236" x="124.639456" y="97.402567" style="fill: #0000ff; fill-opacity: 0.3; stroke: #0000ff; stroke-opacity: 0.3"/>
     <use xlink:href="#me322a6c236" x="142.380988" y="86.387188" style="fill: #0000ff; fill-opacity: 0.3; stroke: #0000ff; stroke-opacity: 0.3"/>
     <use xlink:href="#me322a6c236" x="142.119142" y="116.239141" style="fill: #0000ff; fill-opacity: 0.3; stroke: #0000ff; stroke-opacity: 0.3"/>
     <use xlink:href="#me322a6c236" x="236.148171" y="92.304389" style="fill: #0000ff; fill-opacity: 0.3; stroke: #0000ff; stroke-opacity: 0.3"/>
     <use xlink:href="#me322a6c236" x="217.090485" y="134.529249" style="fill: #0000ff; fill-opacity: 0.3; stroke: #0000ff; stroke-opacity: 0.3"/>
     <use xlink:href="#me322a6c236" x="136.565523" y="89.227713" style="fill: #0000ff; fill-opacity: 0.3; stroke: #0000ff; stroke-opacity: 0.3"/>
     <use xlink:href="#me322a6c236" x="155.181987" y="120.579293" style="fill: #0000ff; fill-opacity: 0.3; stroke: #0000ff; stroke-opacity: 0.3"/>
     <use xlink:href="#me322a6c236" x="165.303994" y="133.212646" style="fill: #0000ff; fill-opacity: 0.3; stroke: #0000ff; stroke-opacity: 0.3"/>
     <use xlink:href="#me322a6c236" x="133.957954" y="86.183987" style="fill: #0000ff; fill-opacity: 0.3; stroke: #0000ff; stroke-opacity: 0.3"/>
     <use xlink:href="#me322a6c236" x="163.70575" y="132.365494" style="fill: #0000ff; fill-opacity: 0.3; stroke: #0000ff; stroke-opacity: 0.3"/>
     <use xlink:href="#me322a6c236" x="129.140721" y="79.21093" style="fill: #0000ff; fill-opacity: 0.3; stroke: #0000ff; stroke-opacity: 0.3"/>
     <use xlink:href="#me322a6c236" x="174.650839" y="128.476041" style="fill: #0000ff; fill-opacity: 0.3; stroke: #0000ff; stroke-opacity: 0.3"/>
     <use xlink:href="#me322a6c236" x="151.411269" y="115.98579" style="fill: #0000ff; fill-opacity: 0.3; stroke: #0000ff; stroke-opacity: 0.3"/>
     <use xlink:href="#me322a6c236" x="204.144493" y="122.35503" style="fill: #0000ff; fill-opacity: 0.3; stroke: #0000ff; stroke-opacity: 0.3"/>
     <use xlink:href="#me322a6c236" x="207.484906" y="112.658983" style="fill: #0000ff; fill-opacity: 0.3; stroke: #0000ff; stroke-opacity: 0.3"/>
     <use xlink:href="#me322a6c236" x="128.45913" y="81.338984" style="fill: #0000ff; fill-opacity: 0.3; stroke: #0000ff; stroke-opacity: 0.3"/>
     <use xlink:href="#me322a6c236" x="208.320897" y="103.029697" style="fill: #0000ff; fill-opacity: 0.3; stroke: #0000ff; stroke-opacity: 0.3"/>
     <use xlink:href="#me322a6c236" x="199.203632" y="121.222839" style="fill: #0000ff; fill-opacity: 0.3; stroke: #0000ff; stroke-opacity: 0.3"/>
     <use xlink:href="#me322a6c236" x="138.964842" y="125.154644" style="fill: #0000ff; fill-opacity: 0.3; stroke: #0000ff; stroke-opacity: 0.3"/>
     <use xlink:href="#me322a6c236" x="227.409538" y="103.703387" style="fill: #0000ff; fill-opacity: 0.3; stroke: #0000ff; stroke-opacity: 0.3"/>
     <use xlink:href="#me322a6c236" x="177.078557" y="143.586655" style="fill: #0000ff; fill-opacity: 0.3; stroke: #0000ff; stroke-opacity: 0.3"/>
     <use xlink:href="#me322a6c236" x="233.41934" y="90.765412" style="fill: #0000ff; fill-opacity: 0.3; stroke: #0000ff; stroke-opacity: 0.3"/>
     <use xlink:href="#me322a6c236" x="229.911935" y="85.314116" style="fill: #0000ff; fill-opacity: 0.3; stroke: #0000ff; stroke-opacity: 0.3"/>
     <use xlink:href="#me322a6c236" x="186.861246" y="123.190341" style="fill: #0000ff; fill-opacity: 0.3; stroke: #0000ff; stroke-opacity: 0.3"/>
     <use xlink:href="#me322a6c236" x="158.604465" y="140.333149" style="fill: #0000ff; fill-opacity: 0.3; stroke: #0000ff; stroke-opacity: 0.3"/>
     <use xlink:href="#me322a6c236" x="166.752517" y="123.992192" style="fill: #0000ff; fill-opacity: 0.3; stroke: #0000ff; stroke-opacity: 0.3"/>
     <use xlink:href="#me322a6c236" x="221.727867" y="93.247975" style="fill: #0000ff; fill-opacity: 0.3; stroke: #0000ff; stroke-opacity: 0.3"/>
     <use xlink:href="#me322a6c236" x="151.437145" y="126.665553" style="fill: #0000ff; fill-opacity: 0.3; stroke: #0000ff; stroke-opacity: 0.3"/>
     <use xlink:href="#me322a6c236" x="182.255915" y="128.809394" style="fill: #0000ff; fill-opacity: 0.3; stroke: #0000ff; stroke-opacity: 0.3"/>
     <use xlink:href="#me322a6c236" x="138.482925" y="119.099097" style="fill: #0000ff; fill-opacity: 0.3; stroke: #0000ff; stroke-opacity: 0.3"/>
     <use xlink:href="#me322a6c236" x="201.892896" y="126.037948" style="fill: #0000ff; fill-opacity: 0.3; stroke: #0000ff; stroke-opacity: 0.3"/>
     <use xlink:href="#me322a6c236" x="219.989701" y="100.822669" style="fill: #0000ff; fill-opacity: 0.3; stroke: #0000ff; stroke-opacity: 0.3"/>
     <use xlink:href="#me322a6c236" x="144.210012" y="106.486739" style="fill: #0000ff; fill-opacity: 0.3; stroke: #0000ff; stroke-opacity: 0.3"/>
     <use xlink:href="#me322a6c236" x="209.239263" y="64.16599" style="fill: #0000ff; fill-opacity: 0.3; stroke: #0000ff; stroke-opacity: 0.3"/>
     <use xlink:href="#me322a6c236" x="134.397128" y="85.971428" style="fill: #0000ff; fill-opacity: 0.3; stroke: #0000ff; stroke-opacity: 0.3"/>
     <use xlink:href="#me322a6c236" x="205.584553" y="103.590711" style="fill: #0000ff; fill-opacity: 0.3; stroke: #0000ff; stroke-opacity: 0.3"/>
     <use xlink:href="#me322a6c236" x="162.662177" y="119.070391" style="fill: #0000ff; fill-opacity: 0.3; stroke: #0000ff; stroke-opacity: 0.3"/>
     <use xlink:href="#me322a6c236" x="141.144862" y="107.650974" style="fill: #0000ff; fill-opacity: 0.3; stroke: #0000ff; stroke-opacity: 0.3"/>
     <use xlink:href="#me322a6c236" x="217.980537" y="107.274755" style="fill: #0000ff; fill-opacity: 0.3; stroke: #0000ff; stroke-opacity: 0.3"/>
     <use xlink:href="#me322a6c236" x="215.602072" y="138.155389" style="fill: #0000ff; fill-opacity: 0.3; stroke: #0000ff; stroke-opacity: 0.3"/>
     <use xlink:href="#me322a6c236" x="165.64109" y="116.851158" style="fill: #0000ff; fill-opacity: 0.3; stroke: #0000ff; stroke-opacity: 0.3"/>
     <use xlink:href="#me322a6c236" x="193.174855" y="122.919313" style="fill: #0000ff; fill-opacity: 0.3; stroke: #0000ff; stroke-opacity: 0.3"/>
     <use xlink:href="#me322a6c236" x="130.585197" y="87.755427" style="fill: #0000ff; fill-opacity: 0.3; stroke: #0000ff; stroke-opacity: 0.3"/>
     <use xlink:href="#me322a6c236" x="210.863042" y="88.295269" style="fill: #0000ff; fill-opacity: 0.3; stroke: #0000ff; stroke-opacity: 0.3"/>
     <use xlink:href="#me322a6c236" x="192.643149" y="133.885103" style="fill: #0000ff; fill-opacity: 0.3; stroke: #0000ff; stroke-opacity: 0.3"/>
     <use xlink:href="#me322a6c236" x="219.8792" y="118.703603" style="fill: #0000ff; fill-opacity: 0.3; stroke: #0000ff; stroke-opacity: 0.3"/>
     <use xlink:href="#me322a6c236" x="227.076939" y="76.553405" style="fill: #0000ff; fill-opacity: 0.3; stroke: #0000ff; stroke-opacity: 0.3"/>
     <use xlink:href="#me322a6c236" x="216.994712" y="98.216799" style="fill: #0000ff; fill-opacity: 0.3; stroke: #0000ff; stroke-opacity: 0.3"/>
     <use xlink:href="#me322a6c236" x="159.025794" y="125.212777" style="fill: #0000ff; fill-opacity: 0.3; stroke: #0000ff; stroke-opacity: 0.3"/>
     <use xlink:href="#me322a6c236" x="158.199694" y="126.892458" style="fill: #0000ff; fill-opacity: 0.3; stroke: #0000ff; stroke-opacity: 0.3"/>
     <use xlink:href="#me322a6c236" x="224.573159" y="100.960448" style="fill: #0000ff; fill-opacity: 0.3; stroke: #0000ff; stroke-opacity: 0.3"/>
     <use xlink:href="#me322a6c236" x="133.432321" y="114.415854" style="fill: #0000ff; fill-opacity: 0.3; stroke: #0000ff; stroke-opacity: 0.3"/>
    </g>
   </g>
   <g id="patch_3">
    <path d="M 147.662557 89.091142 
L 151.033982 94.376048 
L 153.466151 96.420118 
L 184.537102 78.163255 
L 184.545333 77.947043 
L 158.833381 16.550358 
L 147.351535 61.414136 
z
" clip-path="url(#pd8500dc030)" style="fill: #ff0000; opacity: 0.1; stroke: #ff0000; stroke-linejoin: miter"/>
   </g>
   <g id="patch_4">
    <path d="M 57.38082 177.319219 
L 75.757286 150.924024 
L 86.556072 132.086413 
L 91.998683 119.821629 
L 101.210597 91.009127 
L 103.151611 81.677065 
L 98.442764 10.999219 
L 38.482812 10.999219 
L 38.482812 177.319219 
z
" clip-path="url(#pd8500dc030)" style="fill: #ff0000; opacity: 0.1; stroke: #ff0000; stroke-linejoin: miter"/>
   </g>
   <g id="patch_5">
    <path d="M 137.572433 28.201359 
L 150.176794 56.201505 
L 158.726664 67.158179 
L 183.269014 81.750569 
L 187.012262 80.883999 
L 190.874027 77.521153 
L 212.55784 10.999219 
L 130.113457 10.999219 
z
" clip-path="url(#pd8500dc030)" style="fill: #ff0000; opacity: 0.1; stroke: #ff0000; stroke-linejoin: miter"/>
   </g>
   <g id="patch_6">
    <path d="M 109.721076 92.380291 
L 118.597064 84.530919 
L 119.13904 82.954719 
L 135.124107 10.999219 
L 38.482812 10.999219 
L 38.482812 138.354996 
z
" clip-path="url(#pd8500dc030)" style="fill: #ff0000; opacity: 0.1; stroke: #ff0000; stroke-linejoin: miter"/>
   </g>
   <g id="patch_7">
    <path d="M 131.950316 59.475227 
L 143.205532 69.063554 
L 156.800739 72.895295 
L 178.996021 68.330992 
L 190.734063 10.999219 
L 78.919101 10.999219 
z
" clip-path="url(#pd8500dc030)" style="fill: #ff0000; opacity: 0.1; stroke: #ff0000; stroke-linejoin: miter"/>
   </g>
   <g id="patch_8">
    <path d="M 169.40442 92.086716 
L 172.756136 103.603144 
L 173.436477 105.028312 
L 178.827522 108.079289 
L 179.618555 108.005518 
L 197.009398 91.207645 
L 195.265216 77.225648 
L 168.705639 50.414244 
z
" clip-path="url(#pd8500dc030)" style="fill: #ff0000; opacity: 0.1; stroke: #ff0000; stroke-linejoin: miter"/>
   </g>
   <g id="patch_9">
    <path d="M 63.111387 177.319219 
L 86.315258 145.484658 
L 97.132505 126.782181 
L 102.269456 114.322501 
L 107.721789 92.058176 
L 108.665687 82.606174 
L 90.798954 10.999219 
L 38.482812 10.999219 
L 38.482812 177.319219 
z
" clip-path="url(#pd8500dc030)" style="fill: #ff0000; opacity: 0.1; stroke: #ff0000; stroke-linejoin: miter"/>
   </g>
   <g id="patch_10">
    <path d="M 128.782132 77.098719 
L 138.48054 77.372779 
L 138.85357 77.259244 
L 161.103953 60.076502 
L 168.509563 50.072852 
L 165.852694 10.999219 
L 38.482812 10.999219 
L 38.482812 60.677353 
z
" clip-path="url(#pd8500dc030)" style="fill: #ff0000; opacity: 0.1; stroke: #ff0000; stroke-linejoin: miter"/>
   </g>
   <g id="patch_11">
    <path d="M 131.71413 60.789045 
L 146.052245 63.81134 
L 160.421259 62.110171 
L 172.317494 56.702901 
L 186.62829 10.999219 
L 38.482812 10.999219 
L 38.482812 37.434688 
z
" clip-path="url(#pd8500dc030)" style="fill: #ff0000; opacity: 0.1; stroke: #ff0000; stroke-linejoin: miter"/>
   </g>
   <g id="patch_12">
    <path d="M 56.562596 73.826921 
L 130.765959 66.063387 
L 146.135382 63.657951 
L 162.748951 55.176237 
L 168.529131 50.106923 
L 174.096674 10.999219 
L 38.482812 10.999219 
L 38.482812 74.076864 
z
" clip-path="url(#pd8500dc030)" style="fill: #ff0000; opacity: 0.1; stroke: #ff0000; stroke-linejoin: miter"/>
   </g>
   <g id="patch_13">
    <path d="M 159.690871 64.285915 
L 170.073257 91.855618 
L 177.528139 102.479771 
L 195.949246 90.112867 
L 197.418833 77.080721 
L 160.415325 24.972556 
L 158.708696 40.46006 
z
" clip-path="url(#pd8500dc030)" style="fill: #ff0000; opacity: 0.1; stroke: #ff0000; stroke-linejoin: miter"/>
   </g>
   <g id="patch_14">
    <path d="M 134.594158 44.768461 
L 143.487796 68.542774 
L 154.468325 79.843296 
L 182.936301 82.634639 
L 186.172599 80.016912 
L 187.181378 77.76965 
L 183.597425 10.999219 
L 122.726634 10.999219 
z
" clip-path="url(#pd8500dc030)" style="fill: #ff0000; opacity: 0.1; stroke: #ff0000; stroke-linejoin: miter"/>
   </g>
   <g id="patch_15">
    <path d="M 65.949929 177.319219 
L 83.966262 146.694838 
L 91.906398 129.403148 
L 95.648748 117.867328 
L 100.903936 90.959719 
L 101.760312 81.442634 
L 89.83363 10.999219 
L 38.482812 10.999219 
L 38.482812 177.319219 
z
" clip-path="url(#pd8500dc030)" style="fill: #ff0000; opacity: 0.1; stroke: #ff0000; stroke-linejoin: miter"/>
   </g>
   <g id="patch_16">
    <path d="M 59.548327 137.196043 
L 110.631751 92.527014 
L 117.487149 84.227357 
L 117.662049 83.418392 
L 125.753929 10.999219 
L 38.482812 10.999219 
L 38.482812 153.691878 
z
" clip-path="url(#pd8500dc030)" style="fill: #ff0000; opacity: 0.1; stroke: #ff0000; stroke-linejoin: miter"/>
   </g>
   <g id="patch_17">
    <path d="M 133.09696 53.096848 
L 143.414903 68.677262 
L 155.615128 76.4271 
L 183.504816 76.181326 
L 190.502719 10.999219 
L 106.79519 10.999219 
z
" clip-path="url(#pd8500dc030)" style="fill: #ff0000; opacity: 0.1; stroke: #ff0000; stroke-linejoin: miter"/>
   </g>
   <g id="patch_18">
    <path d="M 168.623149 127.946691 
L 168.692055 128.031444 
L 173.657811 129.300033 
L 176.667231 129.298379 
L 179.985161 127.545383 
L 180.222967 127.278386 
L 182.140966 123.274403 
L 181.652112 109.188568 
L 177.70586 104.795245 
L 166.738873 120.355237 
z
" clip-path="url(#pd8500dc030)" style="fill: #ff0000; opacity: 0.1; stroke: #ff0000; stroke-linejoin: miter"/>
   </g>
   <g id="patch_19">
    <path d="M 167.42225 101.800621 
L 168.963099 107.01405 
L 177.904481 111.193275 
L 182.591198 109.734895 
L 192.816168 86.877462 
L 190.418429 77.551813 
L 176.060497 63.219903 
L 167.174999 92.85703 
z
" clip-path="url(#pd8500dc030)" style="fill: #ff0000; opacity: 0.1; stroke: #ff0000; stroke-linejoin: miter"/>
   </g>
   <g id="patch_20">
    <path d="M 78.029821 77.4441 
L 129.770068 71.603179 
L 143.24403 68.992525 
L 162.48594 55.959717 
L 168.193057 49.521779 
L 169.247463 10.999219 
L 38.482812 10.999219 
L 38.482812 77.026531 
z
" clip-path="url(#pd8500dc030)" style="fill: #ff0000; opacity: 0.1; stroke: #ff0000; stroke-linejoin: miter"/>
   </g>
   <g id="patch_21">
    <path d="M 156.821003 43.942873 
L 161.663932 58.408389 
L 181.215266 87.207698 
L 193.513999 87.598085 
L 207.038097 76.433393 
L 185.867125 10.999219 
L 151.616399 10.999219 
z
" clip-path="url(#pd8500dc030)" style="fill: #ff0000; opacity: 0.1; stroke: #ff0000; stroke-linejoin: miter"/>
   </g>
   <g id="patch_22">
    <path d="M 173.070355 118.611319 
L 176.462073 121.352155 
L 178.199779 121.76938 
L 178.64625 121.72134 
L 186.044742 119.07487 
L 190.700905 113.368743 
L 190.181335 110.465509 
L 179.583898 93.649462 
L 171.704971 103.247916 
L 169.838492 106.625462 
z
" clip-path="url(#pd8500dc030)" style="fill: #ff0000; opacity: 0.1; stroke: #ff0000; stroke-linejoin: miter"/>
   </g>
   <g id="patch_23">
    <path d="M 76.793567 177.319219 
L 101.282726 137.773562 
L 108.435229 121.113704 
L 110.859736 109.723134 
L 110.579443 92.518586 
L 108.768023 82.623418 
L 67.398245 10.999219 
L 38.482812 10.999219 
L 38.482812 177.319219 
z
" clip-path="url(#pd8500dc030)" style="fill: #ff0000; opacity: 0.1; stroke: #ff0000; stroke-linejoin: miter"/>
   </g>
   <g id="patch_24">
    <path d="M 111.058318 92.59574 
L 123.096469 85.761506 
L 124.555483 81.25433 
L 133.022009 10.999219 
L 38.482812 10.999219 
L 38.482812 120.104727 
z
" clip-path="url(#pd8500dc030)" style="fill: #ff0000; opacity: 0.1; stroke: #ff0000; stroke-linejoin: miter"/>
   </g>
   <g id="patch_25">
    <path d="M 136.491371 34.214926 
L 138.428666 77.413112 
L 138.805121 78.189616 
L 149.503625 88.615491 
L 151.869145 89.508574 
L 179.897102 69.899877 
L 165.810497 10.999219 
L 135.780429 10.999219 
z
" clip-path="url(#pd8500dc030)" style="fill: #ff0000; opacity: 0.1; stroke: #ff0000; stroke-linejoin: miter"/>
   </g>
   <g id="patch_26">
    <path d="M 103.04341 91.30442 
L 112.724013 83.289993 
L 136.211757 35.77032 
L 147.989896 10.999219 
L 38.482812 10.999219 
L 38.482812 133.730991 
z
" clip-path="url(#pd8500dc030)" style="fill: #ff0000; opacity: 0.1; stroke: #ff0000; stroke-linejoin: miter"/>
   </g>
   <g id="patch_27">
    <path d="M 94.221166 177.319219 
L 106.979192 134.838797 
L 108.549088 121.056602 
L 107.719278 111.404584 
L 101.889183 91.118457 
L 97.671236 80.753634 
L 49.108829 10.999219 
L 38.482812 10.999219 
L 38.482812 177.319219 
z
" clip-path="url(#pd8500dc030)" style="fill: #ff0000; opacity: 0.1; stroke: #ff0000; stroke-linejoin: miter"/>
   </g>
   <g id="patch_28">
    <path d="M 50.289563 150.274584 
L 68.188731 132.569839 
L 104.673247 91.567011 
L 110.663865 82.942863 
L 127.287283 10.999219 
L 38.482812 10.999219 
L 38.482812 160.700694 
z
" clip-path="url(#pd8500dc030)" style="fill: #ff0000; opacity: 0.1; stroke: #ff0000; stroke-linejoin: miter"/>
   </g>
   <g id="patch_29">
    <path d="M 57.69535 177.319219 
L 79.800638 148.840928 
L 92.286062 129.212741 
L 98.492192 116.344905 
L 106.54716 91.868926 
L 108.297565 82.544147 
L 97.270764 10.999219 
L 38.482812 10.999219 
L 38.482812 177.319219 
z
" clip-path="url(#pd8500dc030)" style="fill: #ff0000; opacity: 0.1; stroke: #ff0000; stroke-linejoin: miter"/>
   </g>
   <g id="patch_30">
    <path d="M 132.251738 57.798519 
L 144.358142 66.936977 
L 157.599222 70.516703 
L 178.283612 67.090604 
L 194.46828 10.999219 
L 74.268709 10.999219 
z
" clip-path="url(#pd8500dc030)" style="fill: #ff0000; opacity: 0.1; stroke: #ff0000; stroke-linejoin: miter"/>
   </g>
   <g id="patch_31">
    <path d="M 55.80834 147.506838 
L 76.264464 128.245969 
L 109.25727 92.305565 
L 115.052427 83.682326 
L 122.489839 10.999219 
L 38.482812 10.999219 
L 38.482812 161.954411 
z
" clip-path="url(#pd8500dc030)" style="fill: #ff0000; opacity: 0.1; stroke: #ff0000; stroke-linejoin: miter"/>
   </g>
   <g id="patch_32">
    <path d="M 138.606175 82.009992 
L 147.992003 89.006027 
L 151.90583 89.857928 
L 177.109118 65.045675 
L 163.677841 10.999219 
L 138.19874 10.999219 
L 137.745253 27.240024 
L 136.918644 78.587181 
z
" clip-path="url(#pd8500dc030)" style="fill: #ff0000; opacity: 0.1; stroke: #ff0000; stroke-linejoin: miter"/>
   </g>
   <g id="matplotlib.axis_1">
    <g id="xtick_1">
     <g id="line2d_1">
      <defs>
       <path id="m630bd231e9" d="M 0 0 
L 0 3.5 
" style="stroke: #000000; stroke-width: 0.8"/>
      </defs>
      <g>
       <use xlink:href="#m630bd231e9" x="38.482812" y="177.319219" style="stroke: #000000; stroke-width: 0.8"/>
      </g>
     </g>
     <g id="text_1">
      <!-- −2 -->
      <g transform="translate(31.111719 191.917656) scale(0.1 -0.1)">
       <defs>
        <path id="DejaVuSans-2212" d="M 678 2272 
L 4684 2272 
L 4684 1741 
L 678 1741 
L 678 2272 
z
" transform="scale(0.015625)"/>
        <path id="DejaVuSans-32" d="M 1228 531 
L 3431 531 
L 3431 0 
L 469 0 
L 469 531 
Q 828 903 1448 1529 
Q 2069 2156 2228 2338 
Q 2531 2678 2651 2914 
Q 2772 3150 2772 3378 
Q 2772 3750 2511 3984 
Q 2250 4219 1831 4219 
Q 1534 4219 1204 4116 
Q 875 4013 500 3803 
L 500 4441 
Q 881 4594 1212 4672 
Q 1544 4750 1819 4750 
Q 2544 4750 2975 4387 
Q 3406 4025 3406 3419 
Q 3406 3131 3298 2873 
Q 3191 2616 2906 2266 
Q 2828 2175 2409 1742 
Q 1991 1309 1228 531 
z
" transform="scale(0.015625)"/>
       </defs>
       <use xlink:href="#DejaVuSans-2212"/>
       <use xlink:href="#DejaVuSans-32" x="83.789062"/>
      </g>
     </g>
    </g>
    <g id="xtick_2">
     <g id="line2d_2">
      <g>
       <use xlink:href="#m630bd231e9" x="86.002812" y="177.319219" style="stroke: #000000; stroke-width: 0.8"/>
      </g>
     </g>
     <g id="text_2">
      <!-- −1 -->
      <g transform="translate(78.631719 191.917656) scale(0.1 -0.1)">
       <defs>
        <path id="DejaVuSans-31" d="M 794 531 
L 1825 531 
L 1825 4091 
L 703 3866 
L 703 4441 
L 1819 4666 
L 2450 4666 
L 2450 531 
L 3481 531 
L 3481 0 
L 794 0 
L 794 531 
z
" transform="scale(0.015625)"/>
       </defs>
       <use xlink:href="#DejaVuSans-2212"/>
       <use xlink:href="#DejaVuSans-31" x="83.789062"/>
      </g>
     </g>
    </g>
    <g id="xtick_3">
     <g id="line2d_3">
      <g>
       <use xlink:href="#m630bd231e9" x="133.522812" y="177.319219" style="stroke: #000000; stroke-width: 0.8"/>
      </g>
     </g>
     <g id="text_3">
      <!-- 0 -->
      <g transform="translate(130.341562 191.917656) scale(0.1 -0.1)">
       <defs>
        <path id="DejaVuSans-30" d="M 2034 4250 
Q 1547 4250 1301 3770 
Q 1056 3291 1056 2328 
Q 1056 1369 1301 889 
Q 1547 409 2034 409 
Q 2525 409 2770 889 
Q 3016 1369 3016 2328 
Q 3016 3291 2770 3770 
Q 2525 4250 2034 4250 
z
M 2034 4750 
Q 2819 4750 3233 4129 
Q 3647 3509 3647 2328 
Q 3647 1150 3233 529 
Q 2819 -91 2034 -91 
Q 1250 -91 836 529 
Q 422 1150 422 2328 
Q 422 3509 836 4129 
Q 1250 4750 2034 4750 
z
" transform="scale(0.015625)"/>
       </defs>
       <use xlink:href="#DejaVuSans-30"/>
      </g>
     </g>
    </g>
    <g id="xtick_4">
     <g id="line2d_4">
      <g>
       <use xlink:href="#m630bd231e9" x="181.042812" y="177.319219" style="stroke: #000000; stroke-width: 0.8"/>
      </g>
     </g>
     <g id="text_4">
      <!-- 1 -->
      <g transform="translate(177.861562 191.917656) scale(0.1 -0.1)">
       <use xlink:href="#DejaVuSans-31"/>
      </g>
     </g>
    </g>
    <g id="xtick_5">
     <g id="line2d_5">
      <g>
       <use xlink:href="#m630bd231e9" x="228.562812" y="177.319219" style="stroke: #000000; stroke-width: 0.8"/>
      </g>
     </g>
     <g id="text_5">
      <!-- 2 -->
      <g transform="translate(225.381562 191.917656) scale(0.1 -0.1)">
       <use xlink:href="#DejaVuSans-32"/>
      </g>
     </g>
    </g>
    <g id="xtick_6">
     <g id="line2d_6">
      <g>
       <use xlink:href="#m630bd231e9" x="276.082812" y="177.319219" style="stroke: #000000; stroke-width: 0.8"/>
      </g>
     </g>
     <g id="text_6">
      <!-- 3 -->
      <g transform="translate(272.901563 191.917656) scale(0.1 -0.1)">
       <defs>
        <path id="DejaVuSans-33" d="M 2597 2516 
Q 3050 2419 3304 2112 
Q 3559 1806 3559 1356 
Q 3559 666 3084 287 
Q 2609 -91 1734 -91 
Q 1441 -91 1130 -33 
Q 819 25 488 141 
L 488 750 
Q 750 597 1062 519 
Q 1375 441 1716 441 
Q 2309 441 2620 675 
Q 2931 909 2931 1356 
Q 2931 1769 2642 2001 
Q 2353 2234 1838 2234 
L 1294 2234 
L 1294 2753 
L 1863 2753 
Q 2328 2753 2575 2939 
Q 2822 3125 2822 3475 
Q 2822 3834 2567 4026 
Q 2313 4219 1838 4219 
Q 1578 4219 1281 4162 
Q 984 4106 628 3988 
L 628 4550 
Q 988 4650 1302 4700 
Q 1616 4750 1894 4750 
Q 2613 4750 3031 4423 
Q 3450 4097 3450 3541 
Q 3450 3153 3228 2886 
Q 3006 2619 2597 2516 
z
" transform="scale(0.015625)"/>
       </defs>
       <use xlink:href="#DejaVuSans-33"/>
      </g>
     </g>
    </g>
   </g>
   <g id="matplotlib.axis_2">
    <g id="ytick_1">
     <g id="line2d_7">
      <defs>
       <path id="m56f3f35f0c" d="M 0 0 
L -3.5 0 
" style="stroke: #000000; stroke-width: 0.8"/>
      </defs>
      <g>
       <use xlink:href="#m56f3f35f0c" x="38.482813" y="177.319219" style="stroke: #000000; stroke-width: 0.8"/>
      </g>
     </g>
     <g id="text_7">
      <!-- −1.5 -->
      <g transform="translate(7.2 181.118438) scale(0.1 -0.1)">
       <defs>
        <path id="DejaVuSans-2e" d="M 684 794 
L 1344 794 
L 1344 0 
L 684 0 
L 684 794 
z
" transform="scale(0.015625)"/>
        <path id="DejaVuSans-35" d="M 691 4666 
L 3169 4666 
L 3169 4134 
L 1269 4134 
L 1269 2991 
Q 1406 3038 1543 3061 
Q 1681 3084 1819 3084 
Q 2600 3084 3056 2656 
Q 3513 2228 3513 1497 
Q 3513 744 3044 326 
Q 2575 -91 1722 -91 
Q 1428 -91 1123 -41 
Q 819 9 494 109 
L 494 744 
Q 775 591 1075 516 
Q 1375 441 1709 441 
Q 2250 441 2565 725 
Q 2881 1009 2881 1497 
Q 2881 1984 2565 2268 
Q 2250 2553 1709 2553 
Q 1456 2553 1204 2497 
Q 953 2441 691 2322 
L 691 4666 
z
" transform="scale(0.015625)"/>
       </defs>
       <use xlink:href="#DejaVuSans-2212"/>
       <use xlink:href="#DejaVuSans-31" x="83.789062"/>
       <use xlink:href="#DejaVuSans-2e" x="147.412109"/>
       <use xlink:href="#DejaVuSans-35" x="179.199219"/>
      </g>
     </g>
    </g>
    <g id="ytick_2">
     <g id="line2d_8">
      <g>
       <use xlink:href="#m56f3f35f0c" x="38.482813" y="153.559219" style="stroke: #000000; stroke-width: 0.8"/>
      </g>
     </g>
     <g id="text_8">
      <!-- −1.0 -->
      <g transform="translate(7.2 157.358438) scale(0.1 -0.1)">
       <use xlink:href="#DejaVuSans-2212"/>
       <use xlink:href="#DejaVuSans-31" x="83.789062"/>
       <use xlink:href="#DejaVuSans-2e" x="147.412109"/>
       <use xlink:href="#DejaVuSans-30" x="179.199219"/>
      </g>
     </g>
    </g>
    <g id="ytick_3">
     <g id="line2d_9">
      <g>
       <use xlink:href="#m56f3f35f0c" x="38.482813" y="129.799219" style="stroke: #000000; stroke-width: 0.8"/>
      </g>
     </g>
     <g id="text_9">
      <!-- −0.5 -->
      <g transform="translate(7.2 133.598438) scale(0.1 -0.1)">
       <use xlink:href="#DejaVuSans-2212"/>
       <use xlink:href="#DejaVuSans-30" x="83.789062"/>
       <use xlink:href="#DejaVuSans-2e" x="147.412109"/>
       <use xlink:href="#DejaVuSans-35" x="179.199219"/>
      </g>
     </g>
    </g>
    <g id="ytick_4">
     <g id="line2d_10">
      <g>
       <use xlink:href="#m56f3f35f0c" x="38.482813" y="106.039219" style="stroke: #000000; stroke-width: 0.8"/>
      </g>
     </g>
     <g id="text_10">
      <!-- 0.0 -->
      <g transform="translate(15.579688 109.838438) scale(0.1 -0.1)">
       <use xlink:href="#DejaVuSans-30"/>
       <use xlink:href="#DejaVuSans-2e" x="63.623047"/>
       <use xlink:href="#DejaVuSans-30" x="95.410156"/>
      </g>
     </g>
    </g>
    <g id="ytick_5">
     <g id="line2d_11">
      <g>
       <use xlink:href="#m56f3f35f0c" x="38.482813" y="82.279219" style="stroke: #000000; stroke-width: 0.8"/>
      </g>
     </g>
     <g id="text_11">
      <!-- 0.5 -->
      <g transform="translate(15.579688 86.078438) scale(0.1 -0.1)">
       <use xlink:href="#DejaVuSans-30"/>
       <use xlink:href="#DejaVuSans-2e" x="63.623047"/>
       <use xlink:href="#DejaVuSans-35" x="95.410156"/>
      </g>
     </g>
    </g>
    <g id="ytick_6">
     <g id="line2d_12">
      <g>
       <use xlink:href="#m56f3f35f0c" x="38.482813" y="58.519219" style="stroke: #000000; stroke-width: 0.8"/>
      </g>
     </g>
     <g id="text_12">
      <!-- 1.0 -->
      <g transform="translate(15.579688 62.318438) scale(0.1 -0.1)">
       <use xlink:href="#DejaVuSans-31"/>
       <use xlink:href="#DejaVuSans-2e" x="63.623047"/>
       <use xlink:href="#DejaVuSans-30" x="95.410156"/>
      </g>
     </g>
    </g>
    <g id="ytick_7">
     <g id="line2d_13">
      <g>
       <use xlink:href="#m56f3f35f0c" x="38.482813" y="34.759219" style="stroke: #000000; stroke-width: 0.8"/>
      </g>
     </g>
     <g id="text_13">
      <!-- 1.5 -->
      <g transform="translate(15.579688 38.558438) scale(0.1 -0.1)">
       <use xlink:href="#DejaVuSans-31"/>
       <use xlink:href="#DejaVuSans-2e" x="63.623047"/>
       <use xlink:href="#DejaVuSans-35" x="95.410156"/>
      </g>
     </g>
    </g>
    <g id="ytick_8">
     <g id="line2d_14">
      <g>
       <use xlink:href="#m56f3f35f0c" x="38.482813" y="10.999219" style="stroke: #000000; stroke-width: 0.8"/>
      </g>
     </g>
     <g id="text_14">
      <!-- 2.0 -->
      <g transform="translate(15.579688 14.798438) scale(0.1 -0.1)">
       <use xlink:href="#DejaVuSans-32"/>
       <use xlink:href="#DejaVuSans-2e" x="63.623047"/>
       <use xlink:href="#DejaVuSans-30" x="95.410156"/>
      </g>
     </g>
    </g>
   </g>
   <g id="patch_33">
    <path d="M 38.482813 177.319219 
L 38.482813 10.999219 
" style="fill: none; stroke: #000000; stroke-width: 0.8; stroke-linejoin: miter; stroke-linecap: square"/>
   </g>
   <g id="patch_34">
    <path d="M 276.082812 177.319219 
L 276.082812 10.999219 
" style="fill: none; stroke: #000000; stroke-width: 0.8; stroke-linejoin: miter; stroke-linecap: square"/>
   </g>
   <g id="patch_35">
    <path d="M 38.482812 177.319219 
L 276.082812 177.319219 
" style="fill: none; stroke: #000000; stroke-width: 0.8; stroke-linejoin: miter; stroke-linecap: square"/>
   </g>
   <g id="patch_36">
    <path d="M 38.482812 10.999219 
L 276.082812 10.999219 
" style="fill: none; stroke: #000000; stroke-width: 0.8; stroke-linejoin: miter; stroke-linecap: square"/>
   </g>
  </g>
 </g>
 <defs>
  <clipPath id="pd8500dc030">
   <rect x="38.482813" y="10.999219" width="237.6" height="166.32"/>
  </clipPath>
 </defs>
</svg>
