<?xml version="1.0" encoding="utf-8" standalone="no"?>
<!DOCTYPE svg PUBLIC "-//W3C//DTD SVG 1.1//EN"
  "http://www.w3.org/Graphics/SVG/1.1/DTD/svg11.dtd">
<svg xmlns:xlink="http://www.w3.org/1999/xlink" width="360pt" height="216pt" viewBox="0 0 360 216" xmlns="http://www.w3.org/2000/svg" version="1.1">
 <metadata>
  <rdf:RDF xmlns:dc="http://purl.org/dc/elements/1.1/" xmlns:cc="http://creativecommons.org/ns#" xmlns:rdf="http://www.w3.org/1999/02/22-rdf-syntax-ns#">
   <cc:Work>
    <dc:type rdf:resource="http://purl.org/dc/dcmitype/StillImage"/>
    <dc:date>2024-12-19T19:00:47.091691</dc:date>
    <dc:format>image/svg+xml</dc:format>
    <dc:creator>
     <cc:Agent>
      <dc:title>Matplotlib v3.7.5, https://matplotlib.org/</dc:title>
     </cc:Agent>
    </dc:creator>
   </cc:Work>
  </rdf:RDF>
 </metadata>
 <defs>
  <style type="text/css">*{stroke-linejoin: round; stroke-linecap: butt}</style>
 </defs>
 <g id="figure_1">
  <g id="patch_1">
   <path d="M 0 216 
L 360 216 
L 360 0 
L 0 0 
z
" style="fill: #ffffff"/>
  </g>
  <g id="axes_1">
   <g id="patch_2">
    <path d="M 48.08 173.32 
L 343.396384 173.32 
L 343.396384 10.8 
L 48.08 10.8 
z
" style="fill: #ffffff"/>
   </g>
   <g id="PathCollection_1">
    <defs>
     <path id="m3d59d601e8" d="M 0 3 
C 0.795609 3 1.55874 2.683901 2.12132 2.12132 
C 2.683901 1.55874 3 0.795609 3 0 
C 3 -0.795609 2.683901 -1.55874 2.12132 -2.12132 
C 1.55874 -2.683901 0.795609 -3 0 -3 
C -0.795609 -3 -1.55874 -2.683901 -2.12132 -2.12132 
C -2.683901 -1.55874 -3 -0.795609 -3 0 
C -3 0.795609 -2.683901 1.55874 -2.12132 2.12132 
C -1.55874 2.683901 -0.795609 3 0 3 
z
" style="stroke: #8b0000"/>
    </defs>
    <g clip-path="url(#pcdfecf4d9e)">
     <use xlink:href="#m3d59d601e8" x="76.757417" y="142.270369" style="fill: #8b0000; stroke: #8b0000"/>
     <use xlink:href="#m3d59d601e8" x="103.19759" y="126.601271" style="fill: #8b0000; stroke: #8b0000"/>
     <use xlink:href="#m3d59d601e8" x="129.637762" y="106.603693" style="fill: #8b0000; stroke: #8b0000"/>
     <use xlink:href="#m3d59d601e8" x="156.077934" y="80.113395" style="fill: #8b0000; stroke: #8b0000"/>
     <use xlink:href="#m3d59d601e8" x="182.518106" y="59.682969" style="fill: #8b0000; stroke: #8b0000"/>
     <use xlink:href="#m3d59d601e8" x="208.958278" y="48.255781" style="fill: #8b0000; stroke: #8b0000"/>
     <use xlink:href="#m3d59d601e8" x="235.39845" y="36.395746" style="fill: #8b0000; stroke: #8b0000"/>
     <use xlink:href="#m3d59d601e8" x="261.838622" y="25.776541" style="fill: #8b0000; stroke: #8b0000"/>
     <use xlink:href="#m3d59d601e8" x="288.278794" y="22.919744" style="fill: #8b0000; stroke: #8b0000"/>
     <use xlink:href="#m3d59d601e8" x="314.718967" y="19.428104" style="fill: #8b0000; stroke: #8b0000"/>
    </g>
   </g>
   <g id="PathCollection_2">
    <defs>
     <path id="m177029824f" d="M 0 3 
C 0.795609 3 1.55874 2.683901 2.12132 2.12132 
C 2.683901 1.55874 3 0.795609 3 0 
C 3 -0.795609 2.683901 -1.55874 2.12132 -2.12132 
C 1.55874 -2.683901 0.795609 -3 0 -3 
C -0.795609 -3 -1.55874 -2.683901 -2.12132 -2.12132 
C -2.683901 -1.55874 -3 -0.795609 -3 0 
C -3 0.795609 -2.683901 1.55874 -2.12132 2.12132 
C -1.55874 2.683901 -0.795609 3 0 3 
z
" style="stroke: #ff0000"/>
    </defs>
    <g clip-path="url(#pcdfecf4d9e)">
     <use xlink:href="#m177029824f" x="76.757417" y="143.338061" style="fill: #ff0000; stroke: #ff0000"/>
     <use xlink:href="#m177029824f" x="103.19759" y="119.040859" style="fill: #ff0000; stroke: #ff0000"/>
     <use xlink:href="#m177029824f" x="129.637762" y="96.561619" style="fill: #ff0000; stroke: #ff0000"/>
     <use xlink:href="#m177029824f" x="156.077934" y="74.948075" style="fill: #ff0000; stroke: #ff0000"/>
     <use xlink:href="#m177029824f" x="182.518106" y="56.249041" style="fill: #ff0000; stroke: #ff0000"/>
     <use xlink:href="#m177029824f" x="208.958278" y="43.638736" style="fill: #ff0000; stroke: #ff0000"/>
     <use xlink:href="#m177029824f" x="235.39845" y="36.049467" style="fill: #ff0000; stroke: #ff0000"/>
     <use xlink:href="#m177029824f" x="261.838622" y="29.210469" style="fill: #ff0000; stroke: #ff0000"/>
     <use xlink:href="#m177029824f" x="288.278794" y="23.929723" style="fill: #ff0000; stroke: #ff0000"/>
     <use xlink:href="#m177029824f" x="314.718967" y="20.668935" style="fill: #ff0000; stroke: #ff0000"/>
    </g>
   </g>
   <g id="PathCollection_3">
    <defs>
     <path id="mb3a2f6e74a" d="M 0 3 
C 0.795609 3 1.55874 2.683901 2.12132 2.12132 
C 2.683901 1.55874 3 0.795609 3 0 
C 3 -0.795609 2.683901 -1.55874 2.12132 -2.12132 
C 1.55874 -2.683901 0.795609 -3 0 -3 
C -0.795609 -3 -1.55874 -2.683901 -2.12132 -2.12132 
C -2.683901 -1.55874 -3 -0.795609 -3 0 
C -3 0.795609 -2.683901 1.55874 -2.12132 2.12132 
C -1.55874 2.683901 -0.795609 3 0 3 
z
" style="stroke: #006400"/>
    </defs>
    <g clip-path="url(#pcdfecf4d9e)">
     <use xlink:href="#mb3a2f6e74a" x="76.757417" y="45.543267" style="fill: #006400; stroke: #006400"/>
     <use xlink:href="#mb3a2f6e74a" x="103.19759" y="21.505774" style="fill: #006400; stroke: #006400"/>
     <use xlink:href="#mb3a2f6e74a" x="129.637762" y="19.45696" style="fill: #006400; stroke: #006400"/>
     <use xlink:href="#mb3a2f6e74a" x="156.077934" y="19.052969" style="fill: #006400; stroke: #006400"/>
     <use xlink:href="#mb3a2f6e74a" x="182.518106" y="18.995256" style="fill: #006400; stroke: #006400"/>
     <use xlink:href="#mb3a2f6e74a" x="208.958278" y="18.216129" style="fill: #006400; stroke: #006400"/>
     <use xlink:href="#mb3a2f6e74a" x="235.39845" y="18.216129" style="fill: #006400; stroke: #006400"/>
     <use xlink:href="#mb3a2f6e74a" x="261.838622" y="18.187273" style="fill: #006400; stroke: #006400"/>
     <use xlink:href="#mb3a2f6e74a" x="288.278794" y="18.187273" style="fill: #006400; stroke: #006400"/>
     <use xlink:href="#mb3a2f6e74a" x="314.718967" y="18.187273" style="fill: #006400; stroke: #006400"/>
    </g>
   </g>
   <g id="PathCollection_4">
    <defs>
     <path id="m5ee0b7a211" d="M 0 3 
C 0.795609 3 1.55874 2.683901 2.12132 2.12132 
C 2.683901 1.55874 3 0.795609 3 0 
C 3 -0.795609 2.683901 -1.55874 2.12132 -2.12132 
C 1.55874 -2.683901 0.795609 -3 0 -3 
C -0.795609 -3 -1.55874 -2.683901 -2.12132 -2.12132 
C -2.683901 -1.55874 -3 -0.795609 -3 0 
C -3 0.795609 -2.683901 1.55874 -2.12132 2.12132 
C -1.55874 2.683901 -0.795609 3 0 3 
z
" style="stroke: #00ff00"/>
    </defs>
    <g clip-path="url(#pcdfecf4d9e)">
     <use xlink:href="#m5ee0b7a211" x="76.757417" y="115.664645" style="fill: #00ff00; stroke: #00ff00"/>
     <use xlink:href="#m5ee0b7a211" x="103.19759" y="79.045703" style="fill: #00ff00; stroke: #00ff00"/>
     <use xlink:href="#m5ee0b7a211" x="129.637762" y="66.117976" style="fill: #00ff00; stroke: #00ff00"/>
     <use xlink:href="#m5ee0b7a211" x="156.077934" y="48.169212" style="fill: #00ff00; stroke: #00ff00"/>
     <use xlink:href="#m5ee0b7a211" x="182.518106" y="37.030589" style="fill: #00ff00; stroke: #00ff00"/>
     <use xlink:href="#m5ee0b7a211" x="208.958278" y="32.413544" style="fill: #00ff00; stroke: #00ff00"/>
     <use xlink:href="#m5ee0b7a211" x="235.39845" y="26.613381" style="fill: #00ff00; stroke: #00ff00"/>
     <use xlink:href="#m5ee0b7a211" x="261.838622" y="23.439162" style="fill: #00ff00; stroke: #00ff00"/>
     <use xlink:href="#m5ee0b7a211" x="288.278794" y="19.832095" style="fill: #00ff00; stroke: #00ff00"/>
     <use xlink:href="#m5ee0b7a211" x="314.718967" y="18.216129" style="fill: #00ff00; stroke: #00ff00"/>
    </g>
   </g>
   <g id="PathCollection_5">
    <defs>
     <path id="m9faead38d8" d="M 0 3 
C 0.795609 3 1.55874 2.683901 2.12132 2.12132 
C 2.683901 1.55874 3 0.795609 3 0 
C 3 -0.795609 2.683901 -1.55874 2.12132 -2.12132 
C 1.55874 -2.683901 0.795609 -3 0 -3 
C -0.795609 -3 -1.55874 -2.683901 -2.12132 -2.12132 
C -2.683901 -1.55874 -3 -0.795609 -3 0 
C -3 0.795609 -2.683901 1.55874 -2.12132 2.12132 
C -1.55874 2.683901 -0.795609 3 0 3 
z
" style="stroke: #8b008b"/>
    </defs>
    <g clip-path="url(#pcdfecf4d9e)">
     <use xlink:href="#m9faead38d8" x="76.757417" y="165.932727" style="fill: #8b008b; stroke: #8b008b"/>
     <use xlink:href="#m9faead38d8" x="103.19759" y="162.585369" style="fill: #8b008b; stroke: #8b008b"/>
     <use xlink:href="#m9faead38d8" x="129.637762" y="145.069453" style="fill: #8b008b; stroke: #8b008b"/>
     <use xlink:href="#m9faead38d8" x="156.077934" y="127.466967" style="fill: #8b008b; stroke: #8b008b"/>
     <use xlink:href="#m9faead38d8" x="182.518106" y="106.055419" style="fill: #8b008b; stroke: #8b008b"/>
     <use xlink:href="#m9faead38d8" x="208.958278" y="88.799212" style="fill: #8b008b; stroke: #8b008b"/>
     <use xlink:href="#m9faead38d8" x="235.39845" y="74.053523" style="fill: #8b008b; stroke: #8b008b"/>
     <use xlink:href="#m9faead38d8" x="261.838622" y="63.66517" style="fill: #8b008b; stroke: #8b008b"/>
     <use xlink:href="#m9faead38d8" x="288.278794" y="49.669751" style="fill: #8b008b; stroke: #8b008b"/>
     <use xlink:href="#m9faead38d8" x="314.718967" y="32.240405" style="fill: #8b008b; stroke: #8b008b"/>
    </g>
   </g>
   <g id="PathCollection_6">
    <defs>
     <path id="ma09b0b7cf0" d="M 0 3 
C 0.795609 3 1.55874 2.683901 2.12132 2.12132 
C 2.683901 1.55874 3 0.795609 3 0 
C 3 -0.795609 2.683901 -1.55874 2.12132 -2.12132 
C 1.55874 -2.683901 0.795609 -3 0 -3 
C -0.795609 -3 -1.55874 -2.683901 -2.12132 -2.12132 
C -2.683901 -1.55874 -3 -0.795609 -3 0 
C -3 0.795609 -2.683901 1.55874 -2.12132 2.12132 
C -1.55874 2.683901 -0.795609 3 0 3 
z
" style="stroke: #ff00ff"/>
    </defs>
    <g clip-path="url(#pcdfecf4d9e)">
     <use xlink:href="#ma09b0b7cf0" x="76.757417" y="165.788445" style="fill: #ff00ff; stroke: #ff00ff"/>
     <use xlink:href="#ma09b0b7cf0" x="103.19759" y="158.603168" style="fill: #ff00ff; stroke: #ff00ff"/>
     <use xlink:href="#ma09b0b7cf0" x="129.637762" y="144.088331" style="fill: #ff00ff; stroke: #ff00ff"/>
     <use xlink:href="#ma09b0b7cf0" x="156.077934" y="121.8688" style="fill: #ff00ff; stroke: #ff00ff"/>
     <use xlink:href="#ma09b0b7cf0" x="182.518106" y="109.114212" style="fill: #ff00ff; stroke: #ff00ff"/>
     <use xlink:href="#ma09b0b7cf0" x="208.958278" y="93.589396" style="fill: #ff00ff; stroke: #ff00ff"/>
     <use xlink:href="#ma09b0b7cf0" x="235.39845" y="83.431896" style="fill: #ff00ff; stroke: #ff00ff"/>
     <use xlink:href="#ma09b0b7cf0" x="261.838622" y="69.782756" style="fill: #ff00ff; stroke: #ff00ff"/>
     <use xlink:href="#ma09b0b7cf0" x="288.278794" y="52.815114" style="fill: #ff00ff; stroke: #ff00ff"/>
     <use xlink:href="#ma09b0b7cf0" x="314.718967" y="35.760902" style="fill: #ff00ff; stroke: #ff00ff"/>
    </g>
   </g>
   <g id="PathCollection_7">
    <defs>
     <path id="mf9ef10c575" d="M 0 3 
C 0.795609 3 1.55874 2.683901 2.12132 2.12132 
C 2.683901 1.55874 3 0.795609 3 0 
C 3 -0.795609 2.683901 -1.55874 2.12132 -2.12132 
C 1.55874 -2.683901 0.795609 -3 0 -3 
C -0.795609 -3 -1.55874 -2.683901 -2.12132 -2.12132 
C -2.683901 -1.55874 -3 -0.795609 -3 0 
C -3 0.795609 -2.683901 1.55874 -2.12132 2.12132 
C -1.55874 2.683901 -0.795609 3 0 3 
z
" style="stroke: #0000ff"/>
    </defs>
    <g clip-path="url(#pcdfecf4d9e)">
     <use xlink:href="#mf9ef10c575" x="61.503472" y="85.451854" style="fill: #0000ff; stroke: #0000ff"/>
     <use xlink:href="#mf9ef10c575" x="72.689699" y="53.045966" style="fill: #0000ff; stroke: #0000ff"/>
     <use xlink:href="#mf9ef10c575" x="83.875925" y="35.818615" style="fill: #0000ff; stroke: #0000ff"/>
     <use xlink:href="#mf9ef10c575" x="95.062152" y="30.133878" style="fill: #0000ff; stroke: #0000ff"/>
     <use xlink:href="#mf9ef10c575" x="106.248379" y="26.324815" style="fill: #0000ff; stroke: #0000ff"/>
     <use xlink:href="#mf9ef10c575" x="117.434605" y="24.247145" style="fill: #0000ff; stroke: #0000ff"/>
     <use xlink:href="#mf9ef10c575" x="128.620832" y="22.45804" style="fill: #0000ff; stroke: #0000ff"/>
     <use xlink:href="#mf9ef10c575" x="139.807059" y="21.794339" style="fill: #0000ff; stroke: #0000ff"/>
     <use xlink:href="#mf9ef10c575" x="150.993285" y="21.390348" style="fill: #0000ff; stroke: #0000ff"/>
     <use xlink:href="#mf9ef10c575" x="162.179512" y="21.04407" style="fill: #0000ff; stroke: #0000ff"/>
     <use xlink:href="#mf9ef10c575" x="173.365739" y="20.611222" style="fill: #0000ff; stroke: #0000ff"/>
     <use xlink:href="#mf9ef10c575" x="184.551965" y="20.236087" style="fill: #0000ff; stroke: #0000ff"/>
     <use xlink:href="#mf9ef10c575" x="195.738192" y="20.178374" style="fill: #0000ff; stroke: #0000ff"/>
     <use xlink:href="#mf9ef10c575" x="206.924419" y="20.091804" style="fill: #0000ff; stroke: #0000ff"/>
     <use xlink:href="#mf9ef10c575" x="218.110645" y="19.976378" style="fill: #0000ff; stroke: #0000ff"/>
     <use xlink:href="#mf9ef10c575" x="229.296872" y="19.774382" style="fill: #0000ff; stroke: #0000ff"/>
     <use xlink:href="#mf9ef10c575" x="240.483099" y="19.716669" style="fill: #0000ff; stroke: #0000ff"/>
     <use xlink:href="#mf9ef10c575" x="251.669325" y="19.572386" style="fill: #0000ff; stroke: #0000ff"/>
     <use xlink:href="#mf9ef10c575" x="262.855552" y="19.54353" style="fill: #0000ff; stroke: #0000ff"/>
     <use xlink:href="#mf9ef10c575" x="274.041779" y="19.54353" style="fill: #0000ff; stroke: #0000ff"/>
     <use xlink:href="#mf9ef10c575" x="285.228005" y="19.54353" style="fill: #0000ff; stroke: #0000ff"/>
     <use xlink:href="#mf9ef10c575" x="296.414232" y="19.514673" style="fill: #0000ff; stroke: #0000ff"/>
     <use xlink:href="#mf9ef10c575" x="307.600459" y="19.45696" style="fill: #0000ff; stroke: #0000ff"/>
     <use xlink:href="#mf9ef10c575" x="318.786685" y="19.399247" style="fill: #0000ff; stroke: #0000ff"/>
     <use xlink:href="#mf9ef10c575" x="329.972912" y="19.370391" style="fill: #0000ff; stroke: #0000ff"/>
    </g>
   </g>
   <g id="PathCollection_8">
    <defs>
     <path id="m7fce624aef" d="M -3.162278 3.162278 
L 3.162278 -3.162278 
M -3.162278 -3.162278 
L 3.162278 3.162278 
" style="stroke: #8b0000; stroke-width: 1.5"/>
    </defs>
    <g clip-path="url(#pcdfecf4d9e)">
     <use xlink:href="#m7fce624aef" x="112.268468" y="52.699688" style="fill: #8b0000; stroke: #8b0000; stroke-width: 1.5"/>
    </g>
   </g>
   <g id="PathCollection_9">
    <defs>
     <path id="md31d6c4fe9" d="M -3.162278 3.162278 
L 3.162278 -3.162278 
M -3.162278 -3.162278 
L 3.162278 3.162278 
" style="stroke: #ff0000; stroke-width: 1.5"/>
    </defs>
    <g clip-path="url(#pcdfecf4d9e)">
     <use xlink:href="#md31d6c4fe9" x="105.237785" y="58.817273" style="fill: #ff0000; stroke: #ff0000; stroke-width: 1.5"/>
    </g>
   </g>
   <g id="PathCollection_10">
    <defs>
     <path id="m97cdb523af" d="M -3.162278 3.162278 
L 3.162278 -3.162278 
M -3.162278 -3.162278 
L 3.162278 3.162278 
" style="stroke: #006400; stroke-width: 1.5"/>
    </defs>
    <g clip-path="url(#pcdfecf4d9e)">
     <use xlink:href="#m97cdb523af" x="141.0522" y="18.187273" style="fill: #006400; stroke: #006400; stroke-width: 1.5"/>
    </g>
   </g>
   <g id="PathCollection_11">
    <defs>
     <path id="m73faf8362d" d="M -3.162278 3.162278 
L 3.162278 -3.162278 
M -3.162278 -3.162278 
L 3.162278 3.162278 
" style="stroke: #00ff00; stroke-width: 1.5"/>
    </defs>
    <g clip-path="url(#pcdfecf4d9e)">
     <use xlink:href="#m73faf8362d" x="324.631123" y="19.485817" style="fill: #00ff00; stroke: #00ff00; stroke-width: 1.5"/>
    </g>
   </g>
   <g id="PathCollection_12">
    <defs>
     <path id="m11c96dfb9e" d="M -3.162278 3.162278 
L 3.162278 -3.162278 
M -3.162278 -3.162278 
L 3.162278 3.162278 
" style="stroke: #8b008b; stroke-width: 1.5"/>
    </defs>
    <g clip-path="url(#pcdfecf4d9e)">
     <use xlink:href="#m11c96dfb9e" x="190.627523" y="62.741761" style="fill: #8b008b; stroke: #8b008b; stroke-width: 1.5"/>
    </g>
   </g>
   <g id="PathCollection_13">
    <defs>
     <path id="m7251b6fce7" d="M -3.162278 3.162278 
L 3.162278 -3.162278 
M -3.162278 -3.162278 
L 3.162278 3.162278 
" style="stroke: #ff00ff; stroke-width: 1.5"/>
    </defs>
    <g clip-path="url(#pcdfecf4d9e)">
     <use xlink:href="#m7251b6fce7" x="256.908227" y="56.075902" style="fill: #ff00ff; stroke: #ff00ff; stroke-width: 1.5"/>
    </g>
   </g>
   <g id="matplotlib.axis_1">
    <g id="xtick_1">
     <g id="line2d_1">
      <path d="M 50.314337 173.32 
L 50.314337 10.8 
" clip-path="url(#pcdfecf4d9e)" style="fill: none; stroke: #b0b0b0; stroke-width: 0.8; stroke-linecap: square"/>
     </g>
     <g id="line2d_2">
      <defs>
       <path id="m9083d53826" d="M 0 0 
L 0 3.5 
" style="stroke: #000000; stroke-width: 0.8"/>
      </defs>
      <g>
       <use xlink:href="#m9083d53826" x="50.314337" y="173.32" style="stroke: #000000; stroke-width: 0.8"/>
      </g>
     </g>
     <g id="text_1">
      <!-- 0.0 -->
      <g transform="translate(42.362774 187.918437) scale(0.1 -0.1)">
       <defs>
        <path id="DejaVuSans-30" d="M 2034 4250 
Q 1547 4250 1301 3770 
Q 1056 3291 1056 2328 
Q 1056 1369 1301 889 
Q 1547 409 2034 409 
Q 2525 409 2770 889 
Q 3016 1369 3016 2328 
Q 3016 3291 2770 3770 
Q 2525 4250 2034 4250 
z
M 2034 4750 
Q 2819 4750 3233 4129 
Q 3647 3509 3647 2328 
Q 3647 1150 3233 529 
Q 2819 -91 2034 -91 
Q 1250 -91 836 529 
Q 422 1150 422 2328 
Q 422 3509 836 4129 
Q 1250 4750 2034 4750 
z
" transform="scale(0.015625)"/>
        <path id="DejaVuSans-2e" d="M 684 794 
L 1344 794 
L 1344 0 
L 684 0 
L 684 794 
z
" transform="scale(0.015625)"/>
       </defs>
       <use xlink:href="#DejaVuSans-30"/>
       <use xlink:href="#DejaVuSans-2e" x="63.623047"/>
       <use xlink:href="#DejaVuSans-30" x="95.410156"/>
      </g>
     </g>
    </g>
    <g id="xtick_2">
     <g id="line2d_3">
      <path d="M 108.482716 173.32 
L 108.482716 10.8 
" clip-path="url(#pcdfecf4d9e)" style="fill: none; stroke: #b0b0b0; stroke-width: 0.8; stroke-linecap: square"/>
     </g>
     <g id="line2d_4">
      <g>
       <use xlink:href="#m9083d53826" x="108.482716" y="173.32" style="stroke: #000000; stroke-width: 0.8"/>
      </g>
     </g>
     <g id="text_2">
      <!-- 0.2 -->
      <g transform="translate(100.531153 187.918437) scale(0.1 -0.1)">
       <defs>
        <path id="DejaVuSans-32" d="M 1228 531 
L 3431 531 
L 3431 0 
L 469 0 
L 469 531 
Q 828 903 1448 1529 
Q 2069 2156 2228 2338 
Q 2531 2678 2651 2914 
Q 2772 3150 2772 3378 
Q 2772 3750 2511 3984 
Q 2250 4219 1831 4219 
Q 1534 4219 1204 4116 
Q 875 4013 500 3803 
L 500 4441 
Q 881 4594 1212 4672 
Q 1544 4750 1819 4750 
Q 2544 4750 2975 4387 
Q 3406 4025 3406 3419 
Q 3406 3131 3298 2873 
Q 3191 2616 2906 2266 
Q 2828 2175 2409 1742 
Q 1991 1309 1228 531 
z
" transform="scale(0.015625)"/>
       </defs>
       <use xlink:href="#DejaVuSans-30"/>
       <use xlink:href="#DejaVuSans-2e" x="63.623047"/>
       <use xlink:href="#DejaVuSans-32" x="95.410156"/>
      </g>
     </g>
    </g>
    <g id="xtick_3">
     <g id="line2d_5">
      <path d="M 166.651094 173.32 
L 166.651094 10.8 
" clip-path="url(#pcdfecf4d9e)" style="fill: none; stroke: #b0b0b0; stroke-width: 0.8; stroke-linecap: square"/>
     </g>
     <g id="line2d_6">
      <g>
       <use xlink:href="#m9083d53826" x="166.651094" y="173.32" style="stroke: #000000; stroke-width: 0.8"/>
      </g>
     </g>
     <g id="text_3">
      <!-- 0.4 -->
      <g transform="translate(158.699532 187.918437) scale(0.1 -0.1)">
       <defs>
        <path id="DejaVuSans-34" d="M 2419 4116 
L 825 1625 
L 2419 1625 
L 2419 4116 
z
M 2253 4666 
L 3047 4666 
L 3047 1625 
L 3713 1625 
L 3713 1100 
L 3047 1100 
L 3047 0 
L 2419 0 
L 2419 1100 
L 313 1100 
L 313 1709 
L 2253 4666 
z
" transform="scale(0.015625)"/>
       </defs>
       <use xlink:href="#DejaVuSans-30"/>
       <use xlink:href="#DejaVuSans-2e" x="63.623047"/>
       <use xlink:href="#DejaVuSans-34" x="95.410156"/>
      </g>
     </g>
    </g>
    <g id="xtick_4">
     <g id="line2d_7">
      <path d="M 224.819473 173.32 
L 224.819473 10.8 
" clip-path="url(#pcdfecf4d9e)" style="fill: none; stroke: #b0b0b0; stroke-width: 0.8; stroke-linecap: square"/>
     </g>
     <g id="line2d_8">
      <g>
       <use xlink:href="#m9083d53826" x="224.819473" y="173.32" style="stroke: #000000; stroke-width: 0.8"/>
      </g>
     </g>
     <g id="text_4">
      <!-- 0.6 -->
      <g transform="translate(216.86791 187.918437) scale(0.1 -0.1)">
       <defs>
        <path id="DejaVuSans-36" d="M 2113 2584 
Q 1688 2584 1439 2293 
Q 1191 2003 1191 1497 
Q 1191 994 1439 701 
Q 1688 409 2113 409 
Q 2538 409 2786 701 
Q 3034 994 3034 1497 
Q 3034 2003 2786 2293 
Q 2538 2584 2113 2584 
z
M 3366 4563 
L 3366 3988 
Q 3128 4100 2886 4159 
Q 2644 4219 2406 4219 
Q 1781 4219 1451 3797 
Q 1122 3375 1075 2522 
Q 1259 2794 1537 2939 
Q 1816 3084 2150 3084 
Q 2853 3084 3261 2657 
Q 3669 2231 3669 1497 
Q 3669 778 3244 343 
Q 2819 -91 2113 -91 
Q 1303 -91 875 529 
Q 447 1150 447 2328 
Q 447 3434 972 4092 
Q 1497 4750 2381 4750 
Q 2619 4750 2861 4703 
Q 3103 4656 3366 4563 
z
" transform="scale(0.015625)"/>
       </defs>
       <use xlink:href="#DejaVuSans-30"/>
       <use xlink:href="#DejaVuSans-2e" x="63.623047"/>
       <use xlink:href="#DejaVuSans-36" x="95.410156"/>
      </g>
     </g>
    </g>
    <g id="xtick_5">
     <g id="line2d_9">
      <path d="M 282.987852 173.32 
L 282.987852 10.8 
" clip-path="url(#pcdfecf4d9e)" style="fill: none; stroke: #b0b0b0; stroke-width: 0.8; stroke-linecap: square"/>
     </g>
     <g id="line2d_10">
      <g>
       <use xlink:href="#m9083d53826" x="282.987852" y="173.32" style="stroke: #000000; stroke-width: 0.8"/>
      </g>
     </g>
     <g id="text_5">
      <!-- 0.8 -->
      <g transform="translate(275.036289 187.918437) scale(0.1 -0.1)">
       <defs>
        <path id="DejaVuSans-38" d="M 2034 2216 
Q 1584 2216 1326 1975 
Q 1069 1734 1069 1313 
Q 1069 891 1326 650 
Q 1584 409 2034 409 
Q 2484 409 2743 651 
Q 3003 894 3003 1313 
Q 3003 1734 2745 1975 
Q 2488 2216 2034 2216 
z
M 1403 2484 
Q 997 2584 770 2862 
Q 544 3141 544 3541 
Q 544 4100 942 4425 
Q 1341 4750 2034 4750 
Q 2731 4750 3128 4425 
Q 3525 4100 3525 3541 
Q 3525 3141 3298 2862 
Q 3072 2584 2669 2484 
Q 3125 2378 3379 2068 
Q 3634 1759 3634 1313 
Q 3634 634 3220 271 
Q 2806 -91 2034 -91 
Q 1263 -91 848 271 
Q 434 634 434 1313 
Q 434 1759 690 2068 
Q 947 2378 1403 2484 
z
M 1172 3481 
Q 1172 3119 1398 2916 
Q 1625 2713 2034 2713 
Q 2441 2713 2670 2916 
Q 2900 3119 2900 3481 
Q 2900 3844 2670 4047 
Q 2441 4250 2034 4250 
Q 1625 4250 1398 4047 
Q 1172 3844 1172 3481 
z
" transform="scale(0.015625)"/>
       </defs>
       <use xlink:href="#DejaVuSans-30"/>
       <use xlink:href="#DejaVuSans-2e" x="63.623047"/>
       <use xlink:href="#DejaVuSans-38" x="95.410156"/>
      </g>
     </g>
    </g>
    <g id="xtick_6">
     <g id="line2d_11">
      <path d="M 341.15623 173.32 
L 341.15623 10.8 
" clip-path="url(#pcdfecf4d9e)" style="fill: none; stroke: #b0b0b0; stroke-width: 0.8; stroke-linecap: square"/>
     </g>
     <g id="line2d_12">
      <g>
       <use xlink:href="#m9083d53826" x="341.15623" y="173.32" style="stroke: #000000; stroke-width: 0.8"/>
      </g>
     </g>
     <g id="text_6">
      <!-- 1.0 -->
      <g transform="translate(333.204668 187.918437) scale(0.1 -0.1)">
       <defs>
        <path id="DejaVuSans-31" d="M 794 531 
L 1825 531 
L 1825 4091 
L 703 3866 
L 703 4441 
L 1819 4666 
L 2450 4666 
L 2450 531 
L 3481 531 
L 3481 0 
L 794 0 
L 794 531 
z
" transform="scale(0.015625)"/>
       </defs>
       <use xlink:href="#DejaVuSans-31"/>
       <use xlink:href="#DejaVuSans-2e" x="63.623047"/>
       <use xlink:href="#DejaVuSans-30" x="95.410156"/>
      </g>
     </g>
    </g>
    <g id="text_7">
     <!-- Miss Rate $\epsilon$ -->
     <g transform="translate(167.338192 201.596562) scale(0.1 -0.1)">
      <defs>
       <path id="DejaVuSans-4d" d="M 628 4666 
L 1569 4666 
L 2759 1491 
L 3956 4666 
L 4897 4666 
L 4897 0 
L 4281 0 
L 4281 4097 
L 3078 897 
L 2444 897 
L 1241 4097 
L 1241 0 
L 628 0 
L 628 4666 
z
" transform="scale(0.015625)"/>
       <path id="DejaVuSans-69" d="M 603 3500 
L 1178 3500 
L 1178 0 
L 603 0 
L 603 3500 
z
M 603 4863 
L 1178 4863 
L 1178 4134 
L 603 4134 
L 603 4863 
z
" transform="scale(0.015625)"/>
       <path id="DejaVuSans-73" d="M 2834 3397 
L 2834 2853 
Q 2591 2978 2328 3040 
Q 2066 3103 1784 3103 
Q 1356 3103 1142 2972 
Q 928 2841 928 2578 
Q 928 2378 1081 2264 
Q 1234 2150 1697 2047 
L 1894 2003 
Q 2506 1872 2764 1633 
Q 3022 1394 3022 966 
Q 3022 478 2636 193 
Q 2250 -91 1575 -91 
Q 1294 -91 989 -36 
Q 684 19 347 128 
L 347 722 
Q 666 556 975 473 
Q 1284 391 1588 391 
Q 1994 391 2212 530 
Q 2431 669 2431 922 
Q 2431 1156 2273 1281 
Q 2116 1406 1581 1522 
L 1381 1569 
Q 847 1681 609 1914 
Q 372 2147 372 2553 
Q 372 3047 722 3315 
Q 1072 3584 1716 3584 
Q 2034 3584 2315 3537 
Q 2597 3491 2834 3397 
z
" transform="scale(0.015625)"/>
       <path id="DejaVuSans-20" transform="scale(0.015625)"/>
       <path id="DejaVuSans-52" d="M 2841 2188 
Q 3044 2119 3236 1894 
Q 3428 1669 3622 1275 
L 4263 0 
L 3584 0 
L 2988 1197 
Q 2756 1666 2539 1819 
Q 2322 1972 1947 1972 
L 1259 1972 
L 1259 0 
L 628 0 
L 628 4666 
L 2053 4666 
Q 2853 4666 3247 4331 
Q 3641 3997 3641 3322 
Q 3641 2881 3436 2590 
Q 3231 2300 2841 2188 
z
M 1259 4147 
L 1259 2491 
L 2053 2491 
Q 2509 2491 2742 2702 
Q 2975 2913 2975 3322 
Q 2975 3731 2742 3939 
Q 2509 4147 2053 4147 
L 1259 4147 
z
" transform="scale(0.015625)"/>
       <path id="DejaVuSans-61" d="M 2194 1759 
Q 1497 1759 1228 1600 
Q 959 1441 959 1056 
Q 959 750 1161 570 
Q 1363 391 1709 391 
Q 2188 391 2477 730 
Q 2766 1069 2766 1631 
L 2766 1759 
L 2194 1759 
z
M 3341 1997 
L 3341 0 
L 2766 0 
L 2766 531 
Q 2569 213 2275 61 
Q 1981 -91 1556 -91 
Q 1019 -91 701 211 
Q 384 513 384 1019 
Q 384 1609 779 1909 
Q 1175 2209 1959 2209 
L 2766 2209 
L 2766 2266 
Q 2766 2663 2505 2880 
Q 2244 3097 1772 3097 
Q 1472 3097 1187 3025 
Q 903 2953 641 2809 
L 641 3341 
Q 956 3463 1253 3523 
Q 1550 3584 1831 3584 
Q 2591 3584 2966 3190 
Q 3341 2797 3341 1997 
z
" transform="scale(0.015625)"/>
       <path id="DejaVuSans-74" d="M 1172 4494 
L 1172 3500 
L 2356 3500 
L 2356 3053 
L 1172 3053 
L 1172 1153 
Q 1172 725 1289 603 
Q 1406 481 1766 481 
L 2356 481 
L 2356 0 
L 1766 0 
Q 1100 0 847 248 
Q 594 497 594 1153 
L 594 3053 
L 172 3053 
L 172 3500 
L 594 3500 
L 594 4494 
L 1172 4494 
z
" transform="scale(0.015625)"/>
       <path id="DejaVuSans-65" d="M 3597 1894 
L 3597 1613 
L 953 1613 
Q 991 1019 1311 708 
Q 1631 397 2203 397 
Q 2534 397 2845 478 
Q 3156 559 3463 722 
L 3463 178 
Q 3153 47 2828 -22 
Q 2503 -91 2169 -91 
Q 1331 -91 842 396 
Q 353 884 353 1716 
Q 353 2575 817 3079 
Q 1281 3584 2069 3584 
Q 2775 3584 3186 3129 
Q 3597 2675 3597 1894 
z
M 3022 2063 
Q 3016 2534 2758 2815 
Q 2500 3097 2075 3097 
Q 1594 3097 1305 2825 
Q 1016 2553 972 2059 
L 3022 2063 
z
" transform="scale(0.015625)"/>
       <path id="DejaVuSans-Oblique-3b5" d="M 1263 1888 
Q 925 1963 778 2166 
Q 669 2309 669 2503 
Q 669 3034 1175 3344 
Q 1575 3588 2188 3588 
Q 2425 3588 2684 3550 
Q 2944 3513 3234 3438 
L 3134 2916 
Q 2847 3006 2606 3047 
Q 2359 3088 2138 3088 
Q 1766 3088 1522 2944 
Q 1228 2772 1228 2522 
Q 1228 2356 1381 2241 
Q 1563 2103 1925 2103 
L 2409 2103 
L 2319 1628 
L 1856 1628 
Q 1425 1628 1172 1469 
Q 828 1253 828 916 
Q 828 703 1013 563 
Q 1244 388 1716 388 
Q 2006 388 2284 444 
Q 2563 503 2806 619 
L 2700 84 
Q 2403 -3 2131 -47 
Q 1859 -91 1609 -91 
Q 866 -91 516 194 
Q 250 413 250 781 
Q 250 1278 600 1584 
Q 859 1813 1263 1888 
z
" transform="scale(0.015625)"/>
      </defs>
      <use xlink:href="#DejaVuSans-4d" transform="translate(0 0.015625)"/>
      <use xlink:href="#DejaVuSans-69" transform="translate(86.279297 0.015625)"/>
      <use xlink:href="#DejaVuSans-73" transform="translate(114.0625 0.015625)"/>
      <use xlink:href="#DejaVuSans-73" transform="translate(166.162109 0.015625)"/>
      <use xlink:href="#DejaVuSans-20" transform="translate(218.261719 0.015625)"/>
      <use xlink:href="#DejaVuSans-52" transform="translate(250.048828 0.015625)"/>
      <use xlink:href="#DejaVuSans-61" transform="translate(319.53125 0.015625)"/>
      <use xlink:href="#DejaVuSans-74" transform="translate(380.810547 0.015625)"/>
      <use xlink:href="#DejaVuSans-65" transform="translate(420.019531 0.015625)"/>
      <use xlink:href="#DejaVuSans-20" transform="translate(481.542969 0.015625)"/>
      <use xlink:href="#DejaVuSans-Oblique-3b5" transform="translate(513.330078 0.015625)"/>
     </g>
    </g>
   </g>
   <g id="matplotlib.axis_2">
    <g id="ytick_1">
     <g id="line2d_13">
      <path d="M 48.08 167.086989 
L 343.396384 167.086989 
" clip-path="url(#pcdfecf4d9e)" style="fill: none; stroke: #b0b0b0; stroke-width: 0.8; stroke-linecap: square"/>
     </g>
     <g id="line2d_14">
      <defs>
       <path id="mcf3de55cda" d="M 0 0 
L -3.5 0 
" style="stroke: #000000; stroke-width: 0.8"/>
      </defs>
      <g>
       <use xlink:href="#mcf3de55cda" x="48.08" y="167.086989" style="stroke: #000000; stroke-width: 0.8"/>
      </g>
     </g>
     <g id="text_8">
      <!-- 0.0 -->
      <g transform="translate(25.176875 170.886207) scale(0.1 -0.1)">
       <use xlink:href="#DejaVuSans-30"/>
       <use xlink:href="#DejaVuSans-2e" x="63.623047"/>
       <use xlink:href="#DejaVuSans-30" x="95.410156"/>
      </g>
     </g>
    </g>
    <g id="ytick_2">
     <g id="line2d_15">
      <path d="M 48.08 137.307045 
L 343.396384 137.307045 
" clip-path="url(#pcdfecf4d9e)" style="fill: none; stroke: #b0b0b0; stroke-width: 0.8; stroke-linecap: square"/>
     </g>
     <g id="line2d_16">
      <g>
       <use xlink:href="#mcf3de55cda" x="48.08" y="137.307045" style="stroke: #000000; stroke-width: 0.8"/>
      </g>
     </g>
     <g id="text_9">
      <!-- 0.2 -->
      <g transform="translate(25.176875 141.106264) scale(0.1 -0.1)">
       <use xlink:href="#DejaVuSans-30"/>
       <use xlink:href="#DejaVuSans-2e" x="63.623047"/>
       <use xlink:href="#DejaVuSans-32" x="95.410156"/>
      </g>
     </g>
    </g>
    <g id="ytick_3">
     <g id="line2d_17">
      <path d="M 48.08 107.527102 
L 343.396384 107.527102 
" clip-path="url(#pcdfecf4d9e)" style="fill: none; stroke: #b0b0b0; stroke-width: 0.8; stroke-linecap: square"/>
     </g>
     <g id="line2d_18">
      <g>
       <use xlink:href="#mcf3de55cda" x="48.08" y="107.527102" style="stroke: #000000; stroke-width: 0.8"/>
      </g>
     </g>
     <g id="text_10">
      <!-- 0.4 -->
      <g transform="translate(25.176875 111.326321) scale(0.1 -0.1)">
       <use xlink:href="#DejaVuSans-30"/>
       <use xlink:href="#DejaVuSans-2e" x="63.623047"/>
       <use xlink:href="#DejaVuSans-34" x="95.410156"/>
      </g>
     </g>
    </g>
    <g id="ytick_4">
     <g id="line2d_19">
      <path d="M 48.08 77.747159 
L 343.396384 77.747159 
" clip-path="url(#pcdfecf4d9e)" style="fill: none; stroke: #b0b0b0; stroke-width: 0.8; stroke-linecap: square"/>
     </g>
     <g id="line2d_20">
      <g>
       <use xlink:href="#mcf3de55cda" x="48.08" y="77.747159" style="stroke: #000000; stroke-width: 0.8"/>
      </g>
     </g>
     <g id="text_11">
      <!-- 0.6 -->
      <g transform="translate(25.176875 81.546378) scale(0.1 -0.1)">
       <use xlink:href="#DejaVuSans-30"/>
       <use xlink:href="#DejaVuSans-2e" x="63.623047"/>
       <use xlink:href="#DejaVuSans-36" x="95.410156"/>
      </g>
     </g>
    </g>
    <g id="ytick_5">
     <g id="line2d_21">
      <path d="M 48.08 47.967216 
L 343.396384 47.967216 
" clip-path="url(#pcdfecf4d9e)" style="fill: none; stroke: #b0b0b0; stroke-width: 0.8; stroke-linecap: square"/>
     </g>
     <g id="line2d_22">
      <g>
       <use xlink:href="#mcf3de55cda" x="48.08" y="47.967216" style="stroke: #000000; stroke-width: 0.8"/>
      </g>
     </g>
     <g id="text_12">
      <!-- 0.8 -->
      <g transform="translate(25.176875 51.766435) scale(0.1 -0.1)">
       <use xlink:href="#DejaVuSans-30"/>
       <use xlink:href="#DejaVuSans-2e" x="63.623047"/>
       <use xlink:href="#DejaVuSans-38" x="95.410156"/>
      </g>
     </g>
    </g>
    <g id="ytick_6">
     <g id="line2d_23">
      <path d="M 48.08 18.187273 
L 343.396384 18.187273 
" clip-path="url(#pcdfecf4d9e)" style="fill: none; stroke: #b0b0b0; stroke-width: 0.8; stroke-linecap: square"/>
     </g>
     <g id="line2d_24">
      <g>
       <use xlink:href="#mcf3de55cda" x="48.08" y="18.187273" style="stroke: #000000; stroke-width: 0.8"/>
      </g>
     </g>
     <g id="text_13">
      <!-- 1.0 -->
      <g transform="translate(25.176875 21.986491) scale(0.1 -0.1)">
       <use xlink:href="#DejaVuSans-31"/>
       <use xlink:href="#DejaVuSans-2e" x="63.623047"/>
       <use xlink:href="#DejaVuSans-30" x="95.410156"/>
      </g>
     </g>
    </g>
    <g id="text_14">
     <!-- Pr(no warning | safe) -->
     <g transform="translate(18.819063 144.151406) rotate(-90) scale(0.1 -0.1)">
      <defs>
       <path id="DejaVuSans-50" d="M 1259 4147 
L 1259 2394 
L 2053 2394 
Q 2494 2394 2734 2622 
Q 2975 2850 2975 3272 
Q 2975 3691 2734 3919 
Q 2494 4147 2053 4147 
L 1259 4147 
z
M 628 4666 
L 2053 4666 
Q 2838 4666 3239 4311 
Q 3641 3956 3641 3272 
Q 3641 2581 3239 2228 
Q 2838 1875 2053 1875 
L 1259 1875 
L 1259 0 
L 628 0 
L 628 4666 
z
" transform="scale(0.015625)"/>
       <path id="DejaVuSans-72" d="M 2631 2963 
Q 2534 3019 2420 3045 
Q 2306 3072 2169 3072 
Q 1681 3072 1420 2755 
Q 1159 2438 1159 1844 
L 1159 0 
L 581 0 
L 581 3500 
L 1159 3500 
L 1159 2956 
Q 1341 3275 1631 3429 
Q 1922 3584 2338 3584 
Q 2397 3584 2469 3576 
Q 2541 3569 2628 3553 
L 2631 2963 
z
" transform="scale(0.015625)"/>
       <path id="DejaVuSans-28" d="M 1984 4856 
Q 1566 4138 1362 3434 
Q 1159 2731 1159 2009 
Q 1159 1288 1364 580 
Q 1569 -128 1984 -844 
L 1484 -844 
Q 1016 -109 783 600 
Q 550 1309 550 2009 
Q 550 2706 781 3412 
Q 1013 4119 1484 4856 
L 1984 4856 
z
" transform="scale(0.015625)"/>
       <path id="DejaVuSans-6e" d="M 3513 2113 
L 3513 0 
L 2938 0 
L 2938 2094 
Q 2938 2591 2744 2837 
Q 2550 3084 2163 3084 
Q 1697 3084 1428 2787 
Q 1159 2491 1159 1978 
L 1159 0 
L 581 0 
L 581 3500 
L 1159 3500 
L 1159 2956 
Q 1366 3272 1645 3428 
Q 1925 3584 2291 3584 
Q 2894 3584 3203 3211 
Q 3513 2838 3513 2113 
z
" transform="scale(0.015625)"/>
       <path id="DejaVuSans-6f" d="M 1959 3097 
Q 1497 3097 1228 2736 
Q 959 2375 959 1747 
Q 959 1119 1226 758 
Q 1494 397 1959 397 
Q 2419 397 2687 759 
Q 2956 1122 2956 1747 
Q 2956 2369 2687 2733 
Q 2419 3097 1959 3097 
z
M 1959 3584 
Q 2709 3584 3137 3096 
Q 3566 2609 3566 1747 
Q 3566 888 3137 398 
Q 2709 -91 1959 -91 
Q 1206 -91 779 398 
Q 353 888 353 1747 
Q 353 2609 779 3096 
Q 1206 3584 1959 3584 
z
" transform="scale(0.015625)"/>
       <path id="DejaVuSans-77" d="M 269 3500 
L 844 3500 
L 1563 769 
L 2278 3500 
L 2956 3500 
L 3675 769 
L 4391 3500 
L 4966 3500 
L 4050 0 
L 3372 0 
L 2619 2869 
L 1863 0 
L 1184 0 
L 269 3500 
z
" transform="scale(0.015625)"/>
       <path id="DejaVuSans-67" d="M 2906 1791 
Q 2906 2416 2648 2759 
Q 2391 3103 1925 3103 
Q 1463 3103 1205 2759 
Q 947 2416 947 1791 
Q 947 1169 1205 825 
Q 1463 481 1925 481 
Q 2391 481 2648 825 
Q 2906 1169 2906 1791 
z
M 3481 434 
Q 3481 -459 3084 -895 
Q 2688 -1331 1869 -1331 
Q 1566 -1331 1297 -1286 
Q 1028 -1241 775 -1147 
L 775 -588 
Q 1028 -725 1275 -790 
Q 1522 -856 1778 -856 
Q 2344 -856 2625 -561 
Q 2906 -266 2906 331 
L 2906 616 
Q 2728 306 2450 153 
Q 2172 0 1784 0 
Q 1141 0 747 490 
Q 353 981 353 1791 
Q 353 2603 747 3093 
Q 1141 3584 1784 3584 
Q 2172 3584 2450 3431 
Q 2728 3278 2906 2969 
L 2906 3500 
L 3481 3500 
L 3481 434 
z
" transform="scale(0.015625)"/>
       <path id="DejaVuSans-7c" d="M 1344 4891 
L 1344 -1509 
L 813 -1509 
L 813 4891 
L 1344 4891 
z
" transform="scale(0.015625)"/>
       <path id="DejaVuSans-66" d="M 2375 4863 
L 2375 4384 
L 1825 4384 
Q 1516 4384 1395 4259 
Q 1275 4134 1275 3809 
L 1275 3500 
L 2222 3500 
L 2222 3053 
L 1275 3053 
L 1275 0 
L 697 0 
L 697 3053 
L 147 3053 
L 147 3500 
L 697 3500 
L 697 3744 
Q 697 4328 969 4595 
Q 1241 4863 1831 4863 
L 2375 4863 
z
" transform="scale(0.015625)"/>
       <path id="DejaVuSans-29" d="M 513 4856 
L 1013 4856 
Q 1481 4119 1714 3412 
Q 1947 2706 1947 2009 
Q 1947 1309 1714 600 
Q 1481 -109 1013 -844 
L 513 -844 
Q 928 -128 1133 580 
Q 1338 1288 1338 2009 
Q 1338 2731 1133 3434 
Q 928 4138 513 4856 
z
" transform="scale(0.015625)"/>
      </defs>
      <use xlink:href="#DejaVuSans-50"/>
      <use xlink:href="#DejaVuSans-72" x="58.552734"/>
      <use xlink:href="#DejaVuSans-28" x="99.666016"/>
      <use xlink:href="#DejaVuSans-6e" x="138.679688"/>
      <use xlink:href="#DejaVuSans-6f" x="202.058594"/>
      <use xlink:href="#DejaVuSans-20" x="263.240234"/>
      <use xlink:href="#DejaVuSans-77" x="295.027344"/>
      <use xlink:href="#DejaVuSans-61" x="376.814453"/>
      <use xlink:href="#DejaVuSans-72" x="438.09375"/>
      <use xlink:href="#DejaVuSans-6e" x="477.457031"/>
      <use xlink:href="#DejaVuSans-69" x="540.835938"/>
      <use xlink:href="#DejaVuSans-6e" x="568.619141"/>
      <use xlink:href="#DejaVuSans-67" x="631.998047"/>
      <use xlink:href="#DejaVuSans-20" x="695.474609"/>
      <use xlink:href="#DejaVuSans-7c" x="727.261719"/>
      <use xlink:href="#DejaVuSans-20" x="760.953125"/>
      <use xlink:href="#DejaVuSans-73" x="792.740234"/>
      <use xlink:href="#DejaVuSans-61" x="844.839844"/>
      <use xlink:href="#DejaVuSans-66" x="906.119141"/>
      <use xlink:href="#DejaVuSans-65" x="941.324219"/>
      <use xlink:href="#DejaVuSans-29" x="1002.847656"/>
     </g>
    </g>
   </g>
   <g id="line2d_25">
    <path d="M 76.757417 142.270369 
L 103.19759 126.601271 
L 129.637762 106.603693 
L 156.077934 80.113395 
L 182.518106 59.682969 
L 208.958278 48.255781 
L 235.39845 36.395746 
L 261.838622 25.776541 
L 288.278794 22.919744 
L 314.718967 19.428104 
" clip-path="url(#pcdfecf4d9e)" style="fill: none; stroke: #8b0000; stroke-width: 2; stroke-linecap: square"/>
   </g>
   <g id="line2d_26">
    <path d="M 76.757417 143.338061 
L 103.19759 119.040859 
L 129.637762 96.561619 
L 156.077934 74.948075 
L 182.518106 56.249041 
L 208.958278 43.638736 
L 235.39845 36.049467 
L 261.838622 29.210469 
L 288.278794 23.929723 
L 314.718967 20.668935 
" clip-path="url(#pcdfecf4d9e)" style="fill: none; stroke: #ff0000; stroke-width: 2; stroke-linecap: square"/>
   </g>
   <g id="line2d_27">
    <path d="M 76.757417 45.543267 
L 103.19759 21.505774 
L 129.637762 19.45696 
L 156.077934 19.052969 
L 182.518106 18.995256 
L 208.958278 18.216129 
L 235.39845 18.216129 
L 261.838622 18.187273 
L 288.278794 18.187273 
L 314.718967 18.187273 
" clip-path="url(#pcdfecf4d9e)" style="fill: none; stroke: #006400; stroke-width: 2; stroke-linecap: square"/>
   </g>
   <g id="line2d_28">
    <path d="M 76.757417 115.664645 
L 103.19759 79.045703 
L 129.637762 66.117976 
L 156.077934 48.169212 
L 182.518106 37.030589 
L 208.958278 32.413544 
L 235.39845 26.613381 
L 261.838622 23.439162 
L 288.278794 19.832095 
L 314.718967 18.216129 
" clip-path="url(#pcdfecf4d9e)" style="fill: none; stroke: #00ff00; stroke-width: 2; stroke-linecap: square"/>
   </g>
   <g id="line2d_29">
    <path d="M 76.757417 165.932727 
L 103.19759 162.585369 
L 129.637762 145.069453 
L 156.077934 127.466967 
L 182.518106 106.055419 
L 208.958278 88.799212 
L 235.39845 74.053523 
L 261.838622 63.66517 
L 288.278794 49.669751 
L 314.718967 32.240405 
" clip-path="url(#pcdfecf4d9e)" style="fill: none; stroke: #8b008b; stroke-width: 2; stroke-linecap: square"/>
   </g>
   <g id="line2d_30">
    <path d="M 76.757417 165.788445 
L 103.19759 158.603168 
L 129.637762 144.088331 
L 156.077934 121.8688 
L 182.518106 109.114212 
L 208.958278 93.589396 
L 235.39845 83.431896 
L 261.838622 69.782756 
L 288.278794 52.815114 
L 314.718967 35.760902 
" clip-path="url(#pcdfecf4d9e)" style="fill: none; stroke: #ff00ff; stroke-width: 2; stroke-linecap: square"/>
   </g>
   <g id="line2d_31">
    <path d="M 61.503472 85.451854 
L 72.689699 53.045966 
L 83.875925 35.818615 
L 95.062152 30.133878 
L 106.248379 26.324815 
L 117.434605 24.247145 
L 128.620832 22.45804 
L 139.807059 21.794339 
L 150.993285 21.390348 
L 162.179512 21.04407 
L 173.365739 20.611222 
L 184.551965 20.236087 
L 195.738192 20.178374 
L 206.924419 20.091804 
L 218.110645 19.976378 
L 229.296872 19.774382 
L 240.483099 19.716669 
L 251.669325 19.572386 
L 262.855552 19.54353 
L 274.041779 19.54353 
L 285.228005 19.54353 
L 296.414232 19.514673 
L 307.600459 19.45696 
L 318.786685 19.399247 
L 329.972912 19.370391 
" clip-path="url(#pcdfecf4d9e)" style="fill: none; stroke: #0000ff; stroke-width: 2; stroke-linecap: square"/>
   </g>
   <g id="patch_3">
    <path d="M 48.08 173.32 
L 48.08 10.8 
" style="fill: none; stroke: #000000; stroke-width: 0.8; stroke-linejoin: miter; stroke-linecap: square"/>
   </g>
   <g id="patch_4">
    <path d="M 343.396384 173.32 
L 343.396384 10.8 
" style="fill: none; stroke: #000000; stroke-width: 0.8; stroke-linejoin: miter; stroke-linecap: square"/>
   </g>
   <g id="patch_5">
    <path d="M 48.08 173.32 
L 343.396384 173.32 
" style="fill: none; stroke: #000000; stroke-width: 0.8; stroke-linejoin: miter; stroke-linecap: square"/>
   </g>
   <g id="patch_6">
    <path d="M 48.08 10.8 
L 343.396384 10.8 
" style="fill: none; stroke: #000000; stroke-width: 0.8; stroke-linejoin: miter; stroke-linecap: square"/>
   </g>
   <g id="legend_1">
    <g id="patch_7">
     <path d="M 263.204197 168.32 
L 336.396384 168.32 
Q 338.396384 168.32 338.396384 166.32 
L 338.396384 64.573125 
Q 338.396384 62.573125 336.396384 62.573125 
L 263.204197 62.573125 
Q 261.204197 62.573125 261.204197 64.573125 
L 261.204197 166.32 
Q 261.204197 168.32 263.204197 168.32 
z
" style="fill: #ffffff; opacity: 0.8; stroke: #cccccc; stroke-linejoin: miter"/>
    </g>
    <g id="line2d_32">
     <path d="M 265.204197 70.671562 
L 285.204197 70.671562 
" style="fill: none; stroke: #8b0000; stroke-width: 2; stroke-linecap: square"/>
    </g>
    <g id="line2d_33"/>
    <g id="text_15">
     <!-- Bal-NN -->
     <g transform="translate(293.204197 74.171562) scale(0.1 -0.1)">
      <defs>
       <path id="DejaVuSans-42" d="M 1259 2228 
L 1259 519 
L 2272 519 
Q 2781 519 3026 730 
Q 3272 941 3272 1375 
Q 3272 1813 3026 2020 
Q 2781 2228 2272 2228 
L 1259 2228 
z
M 1259 4147 
L 1259 2741 
L 2194 2741 
Q 2656 2741 2882 2914 
Q 3109 3088 3109 3444 
Q 3109 3797 2882 3972 
Q 2656 4147 2194 4147 
L 1259 4147 
z
M 628 4666 
L 2241 4666 
Q 2963 4666 3353 4366 
Q 3744 4066 3744 3513 
Q 3744 3084 3544 2831 
Q 3344 2578 2956 2516 
Q 3422 2416 3680 2098 
Q 3938 1781 3938 1306 
Q 3938 681 3513 340 
Q 3088 0 2303 0 
L 628 0 
L 628 4666 
z
" transform="scale(0.015625)"/>
       <path id="DejaVuSans-6c" d="M 603 4863 
L 1178 4863 
L 1178 0 
L 603 0 
L 603 4863 
z
" transform="scale(0.015625)"/>
       <path id="DejaVuSans-2d" d="M 313 2009 
L 1997 2009 
L 1997 1497 
L 313 1497 
L 313 2009 
z
" transform="scale(0.015625)"/>
       <path id="DejaVuSans-4e" d="M 628 4666 
L 1478 4666 
L 3547 763 
L 3547 4666 
L 4159 4666 
L 4159 0 
L 3309 0 
L 1241 3903 
L 1241 0 
L 628 0 
L 628 4666 
z
" transform="scale(0.015625)"/>
      </defs>
      <use xlink:href="#DejaVuSans-42"/>
      <use xlink:href="#DejaVuSans-61" x="68.603516"/>
      <use xlink:href="#DejaVuSans-6c" x="129.882812"/>
      <use xlink:href="#DejaVuSans-2d" x="157.666016"/>
      <use xlink:href="#DejaVuSans-4e" x="193.75"/>
      <use xlink:href="#DejaVuSans-4e" x="268.554688"/>
     </g>
    </g>
    <g id="line2d_34">
     <path d="M 265.204197 85.349688 
L 285.204197 85.349688 
" style="fill: none; stroke: #ff0000; stroke-width: 2; stroke-linecap: square"/>
    </g>
    <g id="line2d_35"/>
    <g id="text_16">
     <!-- NN -->
     <g transform="translate(293.204197 88.849688) scale(0.1 -0.1)">
      <use xlink:href="#DejaVuSans-4e"/>
      <use xlink:href="#DejaVuSans-4e" x="74.804688"/>
     </g>
    </g>
    <g id="line2d_36">
     <path d="M 265.204197 100.027812 
L 285.204197 100.027812 
" style="fill: none; stroke: #006400; stroke-width: 2; stroke-linecap: square"/>
    </g>
    <g id="line2d_37"/>
    <g id="text_17">
     <!-- Bal-RF -->
     <g transform="translate(293.204197 103.527812) scale(0.1 -0.1)">
      <defs>
       <path id="DejaVuSans-46" d="M 628 4666 
L 3309 4666 
L 3309 4134 
L 1259 4134 
L 1259 2759 
L 3109 2759 
L 3109 2228 
L 1259 2228 
L 1259 0 
L 628 0 
L 628 4666 
z
" transform="scale(0.015625)"/>
      </defs>
      <use xlink:href="#DejaVuSans-42"/>
      <use xlink:href="#DejaVuSans-61" x="68.603516"/>
      <use xlink:href="#DejaVuSans-6c" x="129.882812"/>
      <use xlink:href="#DejaVuSans-2d" x="157.666016"/>
      <use xlink:href="#DejaVuSans-52" x="193.75"/>
      <use xlink:href="#DejaVuSans-46" x="263.232422"/>
     </g>
    </g>
    <g id="line2d_38">
     <path d="M 265.204197 114.705938 
L 285.204197 114.705938 
" style="fill: none; stroke: #00ff00; stroke-width: 2; stroke-linecap: square"/>
    </g>
    <g id="line2d_39"/>
    <g id="text_18">
     <!-- RF -->
     <g transform="translate(293.204197 118.205938) scale(0.1 -0.1)">
      <use xlink:href="#DejaVuSans-52"/>
      <use xlink:href="#DejaVuSans-46" x="69.482422"/>
     </g>
    </g>
    <g id="line2d_40">
     <path d="M 265.204197 129.384062 
L 285.204197 129.384062 
" style="fill: none; stroke: #8b008b; stroke-width: 2; stroke-linecap: square"/>
    </g>
    <g id="line2d_41"/>
    <g id="text_19">
     <!-- Bal-SVM -->
     <g transform="translate(293.204197 132.884062) scale(0.1 -0.1)">
      <defs>
       <path id="DejaVuSans-53" d="M 3425 4513 
L 3425 3897 
Q 3066 4069 2747 4153 
Q 2428 4238 2131 4238 
Q 1616 4238 1336 4038 
Q 1056 3838 1056 3469 
Q 1056 3159 1242 3001 
Q 1428 2844 1947 2747 
L 2328 2669 
Q 3034 2534 3370 2195 
Q 3706 1856 3706 1288 
Q 3706 609 3251 259 
Q 2797 -91 1919 -91 
Q 1588 -91 1214 -16 
Q 841 59 441 206 
L 441 856 
Q 825 641 1194 531 
Q 1563 422 1919 422 
Q 2459 422 2753 634 
Q 3047 847 3047 1241 
Q 3047 1584 2836 1778 
Q 2625 1972 2144 2069 
L 1759 2144 
Q 1053 2284 737 2584 
Q 422 2884 422 3419 
Q 422 4038 858 4394 
Q 1294 4750 2059 4750 
Q 2388 4750 2728 4690 
Q 3069 4631 3425 4513 
z
" transform="scale(0.015625)"/>
       <path id="DejaVuSans-56" d="M 1831 0 
L 50 4666 
L 709 4666 
L 2188 738 
L 3669 4666 
L 4325 4666 
L 2547 0 
L 1831 0 
z
" transform="scale(0.015625)"/>
      </defs>
      <use xlink:href="#DejaVuSans-42"/>
      <use xlink:href="#DejaVuSans-61" x="68.603516"/>
      <use xlink:href="#DejaVuSans-6c" x="129.882812"/>
      <use xlink:href="#DejaVuSans-2d" x="157.666016"/>
      <use xlink:href="#DejaVuSans-53" x="193.75"/>
      <use xlink:href="#DejaVuSans-56" x="257.226562"/>
      <use xlink:href="#DejaVuSans-4d" x="325.634766"/>
     </g>
    </g>
    <g id="line2d_42">
     <path d="M 265.204197 144.062187 
L 285.204197 144.062187 
" style="fill: none; stroke: #ff00ff; stroke-width: 2; stroke-linecap: square"/>
    </g>
    <g id="line2d_43"/>
    <g id="text_20">
     <!-- SVM -->
     <g transform="translate(293.204197 147.562187) scale(0.1 -0.1)">
      <use xlink:href="#DejaVuSans-53"/>
      <use xlink:href="#DejaVuSans-56" x="63.476562"/>
      <use xlink:href="#DejaVuSans-4d" x="131.884766"/>
     </g>
    </g>
    <g id="line2d_44">
     <path d="M 265.204197 158.740312 
L 285.204197 158.740312 
" style="fill: none; stroke: #0000ff; stroke-width: 2; stroke-linecap: square"/>
    </g>
    <g id="line2d_45"/>
    <g id="text_21">
     <!-- Ours -->
     <g transform="translate(293.204197 162.240312) scale(0.1 -0.1)">
      <defs>
       <path id="DejaVuSans-4f" d="M 2522 4238 
Q 1834 4238 1429 3725 
Q 1025 3213 1025 2328 
Q 1025 1447 1429 934 
Q 1834 422 2522 422 
Q 3209 422 3611 934 
Q 4013 1447 4013 2328 
Q 4013 3213 3611 3725 
Q 3209 4238 2522 4238 
z
M 2522 4750 
Q 3503 4750 4090 4092 
Q 4678 3434 4678 2328 
Q 4678 1225 4090 567 
Q 3503 -91 2522 -91 
Q 1538 -91 948 565 
Q 359 1222 359 2328 
Q 359 3434 948 4092 
Q 1538 4750 2522 4750 
z
" transform="scale(0.015625)"/>
       <path id="DejaVuSans-75" d="M 544 1381 
L 544 3500 
L 1119 3500 
L 1119 1403 
Q 1119 906 1312 657 
Q 1506 409 1894 409 
Q 2359 409 2629 706 
Q 2900 1003 2900 1516 
L 2900 3500 
L 3475 3500 
L 3475 0 
L 2900 0 
L 2900 538 
Q 2691 219 2414 64 
Q 2138 -91 1772 -91 
Q 1169 -91 856 284 
Q 544 659 544 1381 
z
M 1991 3584 
L 1991 3584 
z
" transform="scale(0.015625)"/>
      </defs>
      <use xlink:href="#DejaVuSans-4f"/>
      <use xlink:href="#DejaVuSans-75" x="78.710938"/>
      <use xlink:href="#DejaVuSans-72" x="142.089844"/>
      <use xlink:href="#DejaVuSans-73" x="183.203125"/>
     </g>
    </g>
   </g>
  </g>
 </g>
 <defs>
  <clipPath id="pcdfecf4d9e">
   <rect x="48.08" y="10.8" width="295.316384" height="162.52"/>
  </clipPath>
 </defs>
</svg>
