<?xml version="1.0" encoding="utf-8" standalone="no"?>
<!DOCTYPE svg PUBLIC "-//W3C//DTD SVG 1.1//EN"
  "http://www.w3.org/Graphics/SVG/1.1/DTD/svg11.dtd">
<svg xmlns:xlink="http://www.w3.org/1999/xlink" width="360pt" height="216pt" viewBox="0 0 360 216" xmlns="http://www.w3.org/2000/svg" version="1.1">
 <metadata>
  <rdf:RDF xmlns:dc="http://purl.org/dc/elements/1.1/" xmlns:cc="http://creativecommons.org/ns#" xmlns:rdf="http://www.w3.org/1999/02/22-rdf-syntax-ns#">
   <cc:Work>
    <dc:type rdf:resource="http://purl.org/dc/dcmitype/StillImage"/>
    <dc:date>2024-10-14T16:23:18.668771</dc:date>
    <dc:format>image/svg+xml</dc:format>
    <dc:creator>
     <cc:Agent>
      <dc:title>Matplotlib v3.8.4, https://matplotlib.org/</dc:title>
     </cc:Agent>
    </dc:creator>
   </cc:Work>
  </rdf:RDF>
 </metadata>
 <defs>
  <style type="text/css">*{stroke-linejoin: round; stroke-linecap: butt}</style>
 </defs>
 <g id="figure_1">
  <g id="patch_1">
   <path d="M 0 216 
L 360 216 
L 360 0 
L 0 0 
z
" style="fill: #ffffff"/>
  </g>
  <g id="axes_1">
   <g id="patch_2">
    <path d="M 48.17 173.32 
L 343.351384 173.32 
L 343.351384 10.8 
L 48.17 10.8 
z
" style="fill: #ffffff"/>
   </g>
   <g id="PathCollection_1">
    <defs>
     <path id="m55346beed0" d="M 0 3 
C 0.795609 3 1.55874 2.683901 2.12132 2.12132 
C 2.683901 1.55874 3 0.795609 3 0 
C 3 -0.795609 2.683901 -1.55874 2.12132 -2.12132 
C 1.55874 -2.683901 0.795609 -3 0 -3 
C -0.795609 -3 -1.55874 -2.683901 -2.12132 -2.12132 
C -2.683901 -1.55874 -3 -0.795609 -3 0 
C -3 0.795609 -2.683901 1.55874 -2.12132 2.12132 
C -1.55874 2.683901 -0.795609 3 0 3 
z
" style="stroke: #0000ff"/>
    </defs>
    <g clip-path="url(#p6bc988bc5e)">
     <use xlink:href="#m55346beed0" x="61.587336" y="87.02626" style="fill: #0000ff; stroke: #0000ff"/>
     <use xlink:href="#m55346beed0" x="72.768449" y="53.675879" style="fill: #0000ff; stroke: #0000ff"/>
     <use xlink:href="#m55346beed0" x="83.949562" y="35.946425" style="fill: #0000ff; stroke: #0000ff"/>
     <use xlink:href="#m55346beed0" x="95.130675" y="30.096002" style="fill: #0000ff; stroke: #0000ff"/>
     <use xlink:href="#m55346beed0" x="106.311788" y="26.175921" style="fill: #0000ff; stroke: #0000ff"/>
     <use xlink:href="#m55346beed0" x="117.492901" y="24.037696" style="fill: #0000ff; stroke: #0000ff"/>
     <use xlink:href="#m55346beed0" x="128.674014" y="22.196446" style="fill: #0000ff; stroke: #0000ff"/>
     <use xlink:href="#m55346beed0" x="139.855127" y="21.513402" style="fill: #0000ff; stroke: #0000ff"/>
     <use xlink:href="#m55346beed0" x="151.03624" y="21.097635" style="fill: #0000ff; stroke: #0000ff"/>
     <use xlink:href="#m55346beed0" x="162.217353" y="20.741265" style="fill: #0000ff; stroke: #0000ff"/>
     <use xlink:href="#m55346beed0" x="173.398466" y="20.295801" style="fill: #0000ff; stroke: #0000ff"/>
     <use xlink:href="#m55346beed0" x="184.579579" y="19.909732" style="fill: #0000ff; stroke: #0000ff"/>
     <use xlink:href="#m55346beed0" x="195.760692" y="19.850337" style="fill: #0000ff; stroke: #0000ff"/>
     <use xlink:href="#m55346beed0" x="206.941805" y="19.761244" style="fill: #0000ff; stroke: #0000ff"/>
     <use xlink:href="#m55346beed0" x="218.122918" y="19.642454" style="fill: #0000ff; stroke: #0000ff"/>
     <use xlink:href="#m55346beed0" x="229.304031" y="19.434571" style="fill: #0000ff; stroke: #0000ff"/>
     <use xlink:href="#m55346beed0" x="240.485144" y="19.375176" style="fill: #0000ff; stroke: #0000ff"/>
     <use xlink:href="#m55346beed0" x="251.666257" y="19.226688" style="fill: #0000ff; stroke: #0000ff"/>
     <use xlink:href="#m55346beed0" x="262.84737" y="19.19699" style="fill: #0000ff; stroke: #0000ff"/>
     <use xlink:href="#m55346beed0" x="274.028483" y="19.19699" style="fill: #0000ff; stroke: #0000ff"/>
     <use xlink:href="#m55346beed0" x="285.209596" y="19.19699" style="fill: #0000ff; stroke: #0000ff"/>
     <use xlink:href="#m55346beed0" x="296.390709" y="19.167293" style="fill: #0000ff; stroke: #0000ff"/>
     <use xlink:href="#m55346beed0" x="307.571822" y="19.107898" style="fill: #0000ff; stroke: #0000ff"/>
     <use xlink:href="#m55346beed0" x="318.752935" y="19.048503" style="fill: #0000ff; stroke: #0000ff"/>
     <use xlink:href="#m55346beed0" x="329.934048" y="19.018805" style="fill: #0000ff; stroke: #0000ff"/>
    </g>
   </g>
   <g id="PathCollection_2">
    <defs>
     <path id="mc60d6a6913" d="M 0 3 
C 0.795609 3 1.55874 2.683901 2.12132 2.12132 
C 2.683901 1.55874 3 0.795609 3 0 
C 3 -0.795609 2.683901 -1.55874 2.12132 -2.12132 
C 1.55874 -2.683901 0.795609 -3 0 -3 
C -0.795609 -3 -1.55874 -2.683901 -2.12132 -2.12132 
C -2.683901 -1.55874 -3 -0.795609 -3 0 
C -3 0.795609 -2.683901 1.55874 -2.12132 2.12132 
C -1.55874 2.683901 -0.795609 3 0 3 
z
" style="stroke: #ff0000"/>
    </defs>
    <g clip-path="url(#p6bc988bc5e)">
     <use xlink:href="#mc60d6a6913" x="61.587336" y="100.449566" style="fill: #ff0000; stroke: #ff0000"/>
     <use xlink:href="#mc60d6a6913" x="72.768449" y="78.027894" style="fill: #ff0000; stroke: #ff0000"/>
     <use xlink:href="#mc60d6a6913" x="83.949562" y="64.485798" style="fill: #ff0000; stroke: #ff0000"/>
     <use xlink:href="#mc60d6a6913" x="95.130675" y="57.150496" style="fill: #ff0000; stroke: #ff0000"/>
     <use xlink:href="#mc60d6a6913" x="106.311788" y="48.746081" style="fill: #ff0000; stroke: #ff0000"/>
     <use xlink:href="#mc60d6a6913" x="117.492901" y="45.895114" style="fill: #ff0000; stroke: #ff0000"/>
     <use xlink:href="#mc60d6a6913" x="128.674014" y="39.183461" style="fill: #ff0000; stroke: #ff0000"/>
     <use xlink:href="#mc60d6a6913" x="139.855127" y="36.065215" style="fill: #ff0000; stroke: #ff0000"/>
     <use xlink:href="#mc60d6a6913" x="151.03624" y="34.431848" style="fill: #ff0000; stroke: #ff0000"/>
     <use xlink:href="#mc60d6a6913" x="162.217353" y="30.36328" style="fill: #ff0000; stroke: #ff0000"/>
     <use xlink:href="#mc60d6a6913" x="173.398466" y="28.432937" style="fill: #ff0000; stroke: #ff0000"/>
     <use xlink:href="#mc60d6a6913" x="184.579579" y="26.769873" style="fill: #ff0000; stroke: #ff0000"/>
     <use xlink:href="#mc60d6a6913" x="195.760692" y="25.938341" style="fill: #ff0000; stroke: #ff0000"/>
     <use xlink:href="#mc60d6a6913" x="206.941805" y="25.225599" style="fill: #ff0000; stroke: #ff0000"/>
     <use xlink:href="#mc60d6a6913" x="218.122918" y="24.156486" style="fill: #ff0000; stroke: #ff0000"/>
     <use xlink:href="#mc60d6a6913" x="229.304031" y="22.909188" style="fill: #ff0000; stroke: #ff0000"/>
     <use xlink:href="#mc60d6a6913" x="240.485144" y="22.434026" style="fill: #ff0000; stroke: #ff0000"/>
     <use xlink:href="#mc60d6a6913" x="251.666257" y="21.216426" style="fill: #ff0000; stroke: #ff0000"/>
     <use xlink:href="#mc60d6a6913" x="262.84737" y="20.949148" style="fill: #ff0000; stroke: #ff0000"/>
     <use xlink:href="#mc60d6a6913" x="274.028483" y="20.147313" style="fill: #ff0000; stroke: #ff0000"/>
     <use xlink:href="#mc60d6a6913" x="285.209596" y="20.147313" style="fill: #ff0000; stroke: #ff0000"/>
     <use xlink:href="#mc60d6a6913" x="296.390709" y="19.107898" style="fill: #ff0000; stroke: #ff0000"/>
     <use xlink:href="#mc60d6a6913" x="307.571822" y="19.107898" style="fill: #ff0000; stroke: #ff0000"/>
     <use xlink:href="#mc60d6a6913" x="318.752935" y="18.187273" style="fill: #ff0000; stroke: #ff0000"/>
     <use xlink:href="#mc60d6a6913" x="329.934048" y="18.187273" style="fill: #ff0000; stroke: #ff0000"/>
    </g>
   </g>
   <g id="PathCollection_3">
    <defs>
     <path id="mf418428ecd" d="M 0 3 
C 0.795609 3 1.55874 2.683901 2.12132 2.12132 
C 2.683901 1.55874 3 0.795609 3 0 
C 3 -0.795609 2.683901 -1.55874 2.12132 -2.12132 
C 1.55874 -2.683901 0.795609 -3 0 -3 
C -0.795609 -3 -1.55874 -2.683901 -2.12132 -2.12132 
C -2.683901 -1.55874 -3 -0.795609 -3 0 
C -3 0.795609 -2.683901 1.55874 -2.12132 2.12132 
C -1.55874 2.683901 -0.795609 3 0 3 
z
" style="stroke: #008000"/>
    </defs>
    <g clip-path="url(#p6bc988bc5e)">
     <use xlink:href="#mf418428ecd" x="61.587336" y="165.932727" style="fill: #008000; stroke: #008000"/>
     <use xlink:href="#mf418428ecd" x="72.768449" y="160.616861" style="fill: #008000; stroke: #008000"/>
     <use xlink:href="#mf418428ecd" x="83.949562" y="147.490531" style="fill: #008000; stroke: #008000"/>
     <use xlink:href="#mf418428ecd" x="95.130675" y="138.937628" style="fill: #008000; stroke: #008000"/>
     <use xlink:href="#mf418428ecd" x="106.311788" y="130.711399" style="fill: #008000; stroke: #008000"/>
     <use xlink:href="#mf418428ecd" x="117.492901" y="120.911198" style="fill: #008000; stroke: #008000"/>
     <use xlink:href="#mf418428ecd" x="128.674014" y="112.595876" style="fill: #008000; stroke: #008000"/>
     <use xlink:href="#mf418428ecd" x="139.855127" y="104.577529" style="fill: #008000; stroke: #008000"/>
     <use xlink:href="#mf418428ecd" x="151.03624" y="96.23251" style="fill: #008000; stroke: #008000"/>
     <use xlink:href="#mf418428ecd" x="162.217353" y="86.937168" style="fill: #008000; stroke: #008000"/>
     <use xlink:href="#mf418428ecd" x="173.398466" y="81.26493" style="fill: #008000; stroke: #008000"/>
     <use xlink:href="#mf418428ecd" x="184.579579" y="74.64237" style="fill: #008000; stroke: #008000"/>
     <use xlink:href="#mf418428ecd" x="195.760692" y="68.940435" style="fill: #008000; stroke: #008000"/>
     <use xlink:href="#mf418428ecd" x="206.941805" y="59.971766" style="fill: #008000; stroke: #008000"/>
     <use xlink:href="#mf418428ecd" x="218.122918" y="52.577069" style="fill: #008000; stroke: #008000"/>
     <use xlink:href="#mf418428ecd" x="229.304031" y="45.954509" style="fill: #008000; stroke: #008000"/>
     <use xlink:href="#mf418428ecd" x="240.485144" y="43.073844" style="fill: #008000; stroke: #008000"/>
     <use xlink:href="#mf418428ecd" x="251.666257" y="38.025255" style="fill: #008000; stroke: #008000"/>
     <use xlink:href="#mf418428ecd" x="262.84737" y="34.639731" style="fill: #008000; stroke: #008000"/>
     <use xlink:href="#mf418428ecd" x="274.028483" y="31.818461" style="fill: #008000; stroke: #008000"/>
     <use xlink:href="#mf418428ecd" x="285.209596" y="29.650538" style="fill: #008000; stroke: #008000"/>
     <use xlink:href="#mf418428ecd" x="296.390709" y="28.670518" style="fill: #008000; stroke: #008000"/>
     <use xlink:href="#mf418428ecd" x="307.571822" y="26.888663" style="fill: #008000; stroke: #008000"/>
     <use xlink:href="#mf418428ecd" x="318.752935" y="25.671063" style="fill: #008000; stroke: #008000"/>
     <use xlink:href="#mf418428ecd" x="329.934048" y="24.304974" style="fill: #008000; stroke: #008000"/>
    </g>
   </g>
   <g id="matplotlib.axis_1">
    <g id="xtick_1">
     <g id="line2d_1">
      <path d="M 50.403316 173.32 
L 50.403316 10.8 
" clip-path="url(#p6bc988bc5e)" style="fill: none; stroke: #b0b0b0; stroke-width: 0.8; stroke-linecap: square"/>
     </g>
     <g id="line2d_2">
      <defs>
       <path id="mcc4fdeb743" d="M 0 0 
L 0 3.5 
" style="stroke: #000000; stroke-width: 0.8"/>
      </defs>
      <g>
       <use xlink:href="#mcc4fdeb743" x="50.403316" y="173.32" style="stroke: #000000; stroke-width: 0.8"/>
      </g>
     </g>
     <g id="text_1">
      <!-- 0.0 -->
      <g transform="translate(42.451753 187.918437) scale(0.1 -0.1)">
       <defs>
        <path id="DejaVuSans-30" d="M 2034 4250 
Q 1547 4250 1301 3770 
Q 1056 3291 1056 2328 
Q 1056 1369 1301 889 
Q 1547 409 2034 409 
Q 2525 409 2770 889 
Q 3016 1369 3016 2328 
Q 3016 3291 2770 3770 
Q 2525 4250 2034 4250 
z
M 2034 4750 
Q 2819 4750 3233 4129 
Q 3647 3509 3647 2328 
Q 3647 1150 3233 529 
Q 2819 -91 2034 -91 
Q 1250 -91 836 529 
Q 422 1150 422 2328 
Q 422 3509 836 4129 
Q 1250 4750 2034 4750 
z
" transform="scale(0.015625)"/>
        <path id="DejaVuSans-2e" d="M 684 794 
L 1344 794 
L 1344 0 
L 684 0 
L 684 794 
z
" transform="scale(0.015625)"/>
       </defs>
       <use xlink:href="#DejaVuSans-30"/>
       <use xlink:href="#DejaVuSans-2e" x="63.623047"/>
       <use xlink:href="#DejaVuSans-30" x="95.410156"/>
      </g>
     </g>
    </g>
    <g id="xtick_2">
     <g id="line2d_3">
      <path d="M 108.545103 173.32 
L 108.545103 10.8 
" clip-path="url(#p6bc988bc5e)" style="fill: none; stroke: #b0b0b0; stroke-width: 0.8; stroke-linecap: square"/>
     </g>
     <g id="line2d_4">
      <g>
       <use xlink:href="#mcc4fdeb743" x="108.545103" y="173.32" style="stroke: #000000; stroke-width: 0.8"/>
      </g>
     </g>
     <g id="text_2">
      <!-- 0.2 -->
      <g transform="translate(100.593541 187.918437) scale(0.1 -0.1)">
       <defs>
        <path id="DejaVuSans-32" d="M 1228 531 
L 3431 531 
L 3431 0 
L 469 0 
L 469 531 
Q 828 903 1448 1529 
Q 2069 2156 2228 2338 
Q 2531 2678 2651 2914 
Q 2772 3150 2772 3378 
Q 2772 3750 2511 3984 
Q 2250 4219 1831 4219 
Q 1534 4219 1204 4116 
Q 875 4013 500 3803 
L 500 4441 
Q 881 4594 1212 4672 
Q 1544 4750 1819 4750 
Q 2544 4750 2975 4387 
Q 3406 4025 3406 3419 
Q 3406 3131 3298 2873 
Q 3191 2616 2906 2266 
Q 2828 2175 2409 1742 
Q 1991 1309 1228 531 
z
" transform="scale(0.015625)"/>
       </defs>
       <use xlink:href="#DejaVuSans-30"/>
       <use xlink:href="#DejaVuSans-2e" x="63.623047"/>
       <use xlink:href="#DejaVuSans-32" x="95.410156"/>
      </g>
     </g>
    </g>
    <g id="xtick_3">
     <g id="line2d_5">
      <path d="M 166.686891 173.32 
L 166.686891 10.8 
" clip-path="url(#p6bc988bc5e)" style="fill: none; stroke: #b0b0b0; stroke-width: 0.8; stroke-linecap: square"/>
     </g>
     <g id="line2d_6">
      <g>
       <use xlink:href="#mcc4fdeb743" x="166.686891" y="173.32" style="stroke: #000000; stroke-width: 0.8"/>
      </g>
     </g>
     <g id="text_3">
      <!-- 0.4 -->
      <g transform="translate(158.735329 187.918437) scale(0.1 -0.1)">
       <defs>
        <path id="DejaVuSans-34" d="M 2419 4116 
L 825 1625 
L 2419 1625 
L 2419 4116 
z
M 2253 4666 
L 3047 4666 
L 3047 1625 
L 3713 1625 
L 3713 1100 
L 3047 1100 
L 3047 0 
L 2419 0 
L 2419 1100 
L 313 1100 
L 313 1709 
L 2253 4666 
z
" transform="scale(0.015625)"/>
       </defs>
       <use xlink:href="#DejaVuSans-30"/>
       <use xlink:href="#DejaVuSans-2e" x="63.623047"/>
       <use xlink:href="#DejaVuSans-34" x="95.410156"/>
      </g>
     </g>
    </g>
    <g id="xtick_4">
     <g id="line2d_7">
      <path d="M 224.828679 173.32 
L 224.828679 10.8 
" clip-path="url(#p6bc988bc5e)" style="fill: none; stroke: #b0b0b0; stroke-width: 0.8; stroke-linecap: square"/>
     </g>
     <g id="line2d_8">
      <g>
       <use xlink:href="#mcc4fdeb743" x="224.828679" y="173.32" style="stroke: #000000; stroke-width: 0.8"/>
      </g>
     </g>
     <g id="text_4">
      <!-- 0.6 -->
      <g transform="translate(216.877116 187.918437) scale(0.1 -0.1)">
       <defs>
        <path id="DejaVuSans-36" d="M 2113 2584 
Q 1688 2584 1439 2293 
Q 1191 2003 1191 1497 
Q 1191 994 1439 701 
Q 1688 409 2113 409 
Q 2538 409 2786 701 
Q 3034 994 3034 1497 
Q 3034 2003 2786 2293 
Q 2538 2584 2113 2584 
z
M 3366 4563 
L 3366 3988 
Q 3128 4100 2886 4159 
Q 2644 4219 2406 4219 
Q 1781 4219 1451 3797 
Q 1122 3375 1075 2522 
Q 1259 2794 1537 2939 
Q 1816 3084 2150 3084 
Q 2853 3084 3261 2657 
Q 3669 2231 3669 1497 
Q 3669 778 3244 343 
Q 2819 -91 2113 -91 
Q 1303 -91 875 529 
Q 447 1150 447 2328 
Q 447 3434 972 4092 
Q 1497 4750 2381 4750 
Q 2619 4750 2861 4703 
Q 3103 4656 3366 4563 
z
" transform="scale(0.015625)"/>
       </defs>
       <use xlink:href="#DejaVuSans-30"/>
       <use xlink:href="#DejaVuSans-2e" x="63.623047"/>
       <use xlink:href="#DejaVuSans-36" x="95.410156"/>
      </g>
     </g>
    </g>
    <g id="xtick_5">
     <g id="line2d_9">
      <path d="M 282.970467 173.32 
L 282.970467 10.8 
" clip-path="url(#p6bc988bc5e)" style="fill: none; stroke: #b0b0b0; stroke-width: 0.8; stroke-linecap: square"/>
     </g>
     <g id="line2d_10">
      <g>
       <use xlink:href="#mcc4fdeb743" x="282.970467" y="173.32" style="stroke: #000000; stroke-width: 0.8"/>
      </g>
     </g>
     <g id="text_5">
      <!-- 0.8 -->
      <g transform="translate(275.018904 187.918437) scale(0.1 -0.1)">
       <defs>
        <path id="DejaVuSans-38" d="M 2034 2216 
Q 1584 2216 1326 1975 
Q 1069 1734 1069 1313 
Q 1069 891 1326 650 
Q 1584 409 2034 409 
Q 2484 409 2743 651 
Q 3003 894 3003 1313 
Q 3003 1734 2745 1975 
Q 2488 2216 2034 2216 
z
M 1403 2484 
Q 997 2584 770 2862 
Q 544 3141 544 3541 
Q 544 4100 942 4425 
Q 1341 4750 2034 4750 
Q 2731 4750 3128 4425 
Q 3525 4100 3525 3541 
Q 3525 3141 3298 2862 
Q 3072 2584 2669 2484 
Q 3125 2378 3379 2068 
Q 3634 1759 3634 1313 
Q 3634 634 3220 271 
Q 2806 -91 2034 -91 
Q 1263 -91 848 271 
Q 434 634 434 1313 
Q 434 1759 690 2068 
Q 947 2378 1403 2484 
z
M 1172 3481 
Q 1172 3119 1398 2916 
Q 1625 2713 2034 2713 
Q 2441 2713 2670 2916 
Q 2900 3119 2900 3481 
Q 2900 3844 2670 4047 
Q 2441 4250 2034 4250 
Q 1625 4250 1398 4047 
Q 1172 3844 1172 3481 
z
" transform="scale(0.015625)"/>
       </defs>
       <use xlink:href="#DejaVuSans-30"/>
       <use xlink:href="#DejaVuSans-2e" x="63.623047"/>
       <use xlink:href="#DejaVuSans-38" x="95.410156"/>
      </g>
     </g>
    </g>
    <g id="xtick_6">
     <g id="line2d_11">
      <path d="M 341.112254 173.32 
L 341.112254 10.8 
" clip-path="url(#p6bc988bc5e)" style="fill: none; stroke: #b0b0b0; stroke-width: 0.8; stroke-linecap: square"/>
     </g>
     <g id="line2d_12">
      <g>
       <use xlink:href="#mcc4fdeb743" x="341.112254" y="173.32" style="stroke: #000000; stroke-width: 0.8"/>
      </g>
     </g>
     <g id="text_6">
      <!-- 1.0 -->
      <g transform="translate(333.160692 187.918437) scale(0.1 -0.1)">
       <defs>
        <path id="DejaVuSans-31" d="M 794 531 
L 1825 531 
L 1825 4091 
L 703 3866 
L 703 4441 
L 1819 4666 
L 2450 4666 
L 2450 531 
L 3481 531 
L 3481 0 
L 794 0 
L 794 531 
z
" transform="scale(0.015625)"/>
       </defs>
       <use xlink:href="#DejaVuSans-31"/>
       <use xlink:href="#DejaVuSans-2e" x="63.623047"/>
       <use xlink:href="#DejaVuSans-30" x="95.410156"/>
      </g>
     </g>
    </g>
    <g id="text_7">
     <!-- Miss Rate $\epsilon$ -->
     <g transform="translate(167.360692 201.596562) scale(0.1 -0.1)">
      <defs>
       <path id="DejaVuSans-4d" d="M 628 4666 
L 1569 4666 
L 2759 1491 
L 3956 4666 
L 4897 4666 
L 4897 0 
L 4281 0 
L 4281 4097 
L 3078 897 
L 2444 897 
L 1241 4097 
L 1241 0 
L 628 0 
L 628 4666 
z
" transform="scale(0.015625)"/>
       <path id="DejaVuSans-69" d="M 603 3500 
L 1178 3500 
L 1178 0 
L 603 0 
L 603 3500 
z
M 603 4863 
L 1178 4863 
L 1178 4134 
L 603 4134 
L 603 4863 
z
" transform="scale(0.015625)"/>
       <path id="DejaVuSans-73" d="M 2834 3397 
L 2834 2853 
Q 2591 2978 2328 3040 
Q 2066 3103 1784 3103 
Q 1356 3103 1142 2972 
Q 928 2841 928 2578 
Q 928 2378 1081 2264 
Q 1234 2150 1697 2047 
L 1894 2003 
Q 2506 1872 2764 1633 
Q 3022 1394 3022 966 
Q 3022 478 2636 193 
Q 2250 -91 1575 -91 
Q 1294 -91 989 -36 
Q 684 19 347 128 
L 347 722 
Q 666 556 975 473 
Q 1284 391 1588 391 
Q 1994 391 2212 530 
Q 2431 669 2431 922 
Q 2431 1156 2273 1281 
Q 2116 1406 1581 1522 
L 1381 1569 
Q 847 1681 609 1914 
Q 372 2147 372 2553 
Q 372 3047 722 3315 
Q 1072 3584 1716 3584 
Q 2034 3584 2315 3537 
Q 2597 3491 2834 3397 
z
" transform="scale(0.015625)"/>
       <path id="DejaVuSans-20" transform="scale(0.015625)"/>
       <path id="DejaVuSans-52" d="M 2841 2188 
Q 3044 2119 3236 1894 
Q 3428 1669 3622 1275 
L 4263 0 
L 3584 0 
L 2988 1197 
Q 2756 1666 2539 1819 
Q 2322 1972 1947 1972 
L 1259 1972 
L 1259 0 
L 628 0 
L 628 4666 
L 2053 4666 
Q 2853 4666 3247 4331 
Q 3641 3997 3641 3322 
Q 3641 2881 3436 2590 
Q 3231 2300 2841 2188 
z
M 1259 4147 
L 1259 2491 
L 2053 2491 
Q 2509 2491 2742 2702 
Q 2975 2913 2975 3322 
Q 2975 3731 2742 3939 
Q 2509 4147 2053 4147 
L 1259 4147 
z
" transform="scale(0.015625)"/>
       <path id="DejaVuSans-61" d="M 2194 1759 
Q 1497 1759 1228 1600 
Q 959 1441 959 1056 
Q 959 750 1161 570 
Q 1363 391 1709 391 
Q 2188 391 2477 730 
Q 2766 1069 2766 1631 
L 2766 1759 
L 2194 1759 
z
M 3341 1997 
L 3341 0 
L 2766 0 
L 2766 531 
Q 2569 213 2275 61 
Q 1981 -91 1556 -91 
Q 1019 -91 701 211 
Q 384 513 384 1019 
Q 384 1609 779 1909 
Q 1175 2209 1959 2209 
L 2766 2209 
L 2766 2266 
Q 2766 2663 2505 2880 
Q 2244 3097 1772 3097 
Q 1472 3097 1187 3025 
Q 903 2953 641 2809 
L 641 3341 
Q 956 3463 1253 3523 
Q 1550 3584 1831 3584 
Q 2591 3584 2966 3190 
Q 3341 2797 3341 1997 
z
" transform="scale(0.015625)"/>
       <path id="DejaVuSans-74" d="M 1172 4494 
L 1172 3500 
L 2356 3500 
L 2356 3053 
L 1172 3053 
L 1172 1153 
Q 1172 725 1289 603 
Q 1406 481 1766 481 
L 2356 481 
L 2356 0 
L 1766 0 
Q 1100 0 847 248 
Q 594 497 594 1153 
L 594 3053 
L 172 3053 
L 172 3500 
L 594 3500 
L 594 4494 
L 1172 4494 
z
" transform="scale(0.015625)"/>
       <path id="DejaVuSans-65" d="M 3597 1894 
L 3597 1613 
L 953 1613 
Q 991 1019 1311 708 
Q 1631 397 2203 397 
Q 2534 397 2845 478 
Q 3156 559 3463 722 
L 3463 178 
Q 3153 47 2828 -22 
Q 2503 -91 2169 -91 
Q 1331 -91 842 396 
Q 353 884 353 1716 
Q 353 2575 817 3079 
Q 1281 3584 2069 3584 
Q 2775 3584 3186 3129 
Q 3597 2675 3597 1894 
z
M 3022 2063 
Q 3016 2534 2758 2815 
Q 2500 3097 2075 3097 
Q 1594 3097 1305 2825 
Q 1016 2553 972 2059 
L 3022 2063 
z
" transform="scale(0.015625)"/>
       <path id="DejaVuSans-Oblique-3b5" d="M 1263 1888 
Q 925 1963 778 2166 
Q 669 2309 669 2503 
Q 669 3034 1175 3344 
Q 1575 3588 2188 3588 
Q 2425 3588 2684 3550 
Q 2944 3513 3234 3438 
L 3134 2916 
Q 2847 3006 2606 3047 
Q 2359 3088 2138 3088 
Q 1766 3088 1522 2944 
Q 1228 2772 1228 2522 
Q 1228 2356 1381 2241 
Q 1563 2103 1925 2103 
L 2409 2103 
L 2319 1628 
L 1856 1628 
Q 1425 1628 1172 1469 
Q 828 1253 828 916 
Q 828 703 1013 563 
Q 1244 388 1716 388 
Q 2006 388 2284 444 
Q 2563 503 2806 619 
L 2700 84 
Q 2403 -3 2131 -47 
Q 1859 -91 1609 -91 
Q 866 -91 516 194 
Q 250 413 250 781 
Q 250 1278 600 1584 
Q 859 1813 1263 1888 
z
" transform="scale(0.015625)"/>
      </defs>
      <use xlink:href="#DejaVuSans-4d" transform="translate(0 0.015625)"/>
      <use xlink:href="#DejaVuSans-69" transform="translate(86.279297 0.015625)"/>
      <use xlink:href="#DejaVuSans-73" transform="translate(114.0625 0.015625)"/>
      <use xlink:href="#DejaVuSans-73" transform="translate(166.162109 0.015625)"/>
      <use xlink:href="#DejaVuSans-20" transform="translate(218.261719 0.015625)"/>
      <use xlink:href="#DejaVuSans-52" transform="translate(250.048828 0.015625)"/>
      <use xlink:href="#DejaVuSans-61" transform="translate(319.53125 0.015625)"/>
      <use xlink:href="#DejaVuSans-74" transform="translate(380.810547 0.015625)"/>
      <use xlink:href="#DejaVuSans-65" transform="translate(420.019531 0.015625)"/>
      <use xlink:href="#DejaVuSans-20" transform="translate(481.542969 0.015625)"/>
      <use xlink:href="#DejaVuSans-Oblique-3b5" transform="translate(513.330078 0.015625)"/>
     </g>
    </g>
   </g>
   <g id="matplotlib.axis_2">
    <g id="ytick_1">
     <g id="line2d_13">
      <path d="M 48.17 171.040711 
L 343.351384 171.040711 
" clip-path="url(#p6bc988bc5e)" style="fill: none; stroke: #b0b0b0; stroke-width: 0.8; stroke-linecap: square"/>
     </g>
     <g id="line2d_14">
      <defs>
       <path id="me52d8b047b" d="M 0 0 
L -3.5 0 
" style="stroke: #000000; stroke-width: 0.8"/>
      </defs>
      <g>
       <use xlink:href="#me52d8b047b" x="48.17" y="171.040711" style="stroke: #000000; stroke-width: 0.8"/>
      </g>
     </g>
     <g id="text_8">
      <!-- 0.0 -->
      <g transform="translate(25.266875 174.83993) scale(0.1 -0.1)">
       <use xlink:href="#DejaVuSans-30"/>
       <use xlink:href="#DejaVuSans-2e" x="63.623047"/>
       <use xlink:href="#DejaVuSans-30" x="95.410156"/>
      </g>
     </g>
    </g>
    <g id="ytick_2">
     <g id="line2d_15">
      <path d="M 48.17 140.39281 
L 343.351384 140.39281 
" clip-path="url(#p6bc988bc5e)" style="fill: none; stroke: #b0b0b0; stroke-width: 0.8; stroke-linecap: square"/>
     </g>
     <g id="line2d_16">
      <g>
       <use xlink:href="#me52d8b047b" x="48.17" y="140.39281" style="stroke: #000000; stroke-width: 0.8"/>
      </g>
     </g>
     <g id="text_9">
      <!-- 0.2 -->
      <g transform="translate(25.266875 144.192028) scale(0.1 -0.1)">
       <use xlink:href="#DejaVuSans-30"/>
       <use xlink:href="#DejaVuSans-2e" x="63.623047"/>
       <use xlink:href="#DejaVuSans-32" x="95.410156"/>
      </g>
     </g>
    </g>
    <g id="ytick_3">
     <g id="line2d_17">
      <path d="M 48.17 109.744908 
L 343.351384 109.744908 
" clip-path="url(#p6bc988bc5e)" style="fill: none; stroke: #b0b0b0; stroke-width: 0.8; stroke-linecap: square"/>
     </g>
     <g id="line2d_18">
      <g>
       <use xlink:href="#me52d8b047b" x="48.17" y="109.744908" style="stroke: #000000; stroke-width: 0.8"/>
      </g>
     </g>
     <g id="text_10">
      <!-- 0.4 -->
      <g transform="translate(25.266875 113.544127) scale(0.1 -0.1)">
       <use xlink:href="#DejaVuSans-30"/>
       <use xlink:href="#DejaVuSans-2e" x="63.623047"/>
       <use xlink:href="#DejaVuSans-34" x="95.410156"/>
      </g>
     </g>
    </g>
    <g id="ytick_4">
     <g id="line2d_19">
      <path d="M 48.17 79.097007 
L 343.351384 79.097007 
" clip-path="url(#p6bc988bc5e)" style="fill: none; stroke: #b0b0b0; stroke-width: 0.8; stroke-linecap: square"/>
     </g>
     <g id="line2d_20">
      <g>
       <use xlink:href="#me52d8b047b" x="48.17" y="79.097007" style="stroke: #000000; stroke-width: 0.8"/>
      </g>
     </g>
     <g id="text_11">
      <!-- 0.6 -->
      <g transform="translate(25.266875 82.896226) scale(0.1 -0.1)">
       <use xlink:href="#DejaVuSans-30"/>
       <use xlink:href="#DejaVuSans-2e" x="63.623047"/>
       <use xlink:href="#DejaVuSans-36" x="95.410156"/>
      </g>
     </g>
    </g>
    <g id="ytick_5">
     <g id="line2d_21">
      <path d="M 48.17 48.449106 
L 343.351384 48.449106 
" clip-path="url(#p6bc988bc5e)" style="fill: none; stroke: #b0b0b0; stroke-width: 0.8; stroke-linecap: square"/>
     </g>
     <g id="line2d_22">
      <g>
       <use xlink:href="#me52d8b047b" x="48.17" y="48.449106" style="stroke: #000000; stroke-width: 0.8"/>
      </g>
     </g>
     <g id="text_12">
      <!-- 0.8 -->
      <g transform="translate(25.266875 52.248324) scale(0.1 -0.1)">
       <use xlink:href="#DejaVuSans-30"/>
       <use xlink:href="#DejaVuSans-2e" x="63.623047"/>
       <use xlink:href="#DejaVuSans-38" x="95.410156"/>
      </g>
     </g>
    </g>
    <g id="ytick_6">
     <g id="line2d_23">
      <path d="M 48.17 17.801204 
L 343.351384 17.801204 
" clip-path="url(#p6bc988bc5e)" style="fill: none; stroke: #b0b0b0; stroke-width: 0.8; stroke-linecap: square"/>
     </g>
     <g id="line2d_24">
      <g>
       <use xlink:href="#me52d8b047b" x="48.17" y="17.801204" style="stroke: #000000; stroke-width: 0.8"/>
      </g>
     </g>
     <g id="text_13">
      <!-- 1.0 -->
      <g transform="translate(25.266875 21.600423) scale(0.1 -0.1)">
       <use xlink:href="#DejaVuSans-31"/>
       <use xlink:href="#DejaVuSans-2e" x="63.623047"/>
       <use xlink:href="#DejaVuSans-30" x="95.410156"/>
      </g>
     </g>
    </g>
    <g id="text_14">
     <!-- Pr(no warning | safe) -->
     <g transform="translate(18.909062 144.151406) rotate(-90) scale(0.1 -0.1)">
      <defs>
       <path id="DejaVuSans-50" d="M 1259 4147 
L 1259 2394 
L 2053 2394 
Q 2494 2394 2734 2622 
Q 2975 2850 2975 3272 
Q 2975 3691 2734 3919 
Q 2494 4147 2053 4147 
L 1259 4147 
z
M 628 4666 
L 2053 4666 
Q 2838 4666 3239 4311 
Q 3641 3956 3641 3272 
Q 3641 2581 3239 2228 
Q 2838 1875 2053 1875 
L 1259 1875 
L 1259 0 
L 628 0 
L 628 4666 
z
" transform="scale(0.015625)"/>
       <path id="DejaVuSans-72" d="M 2631 2963 
Q 2534 3019 2420 3045 
Q 2306 3072 2169 3072 
Q 1681 3072 1420 2755 
Q 1159 2438 1159 1844 
L 1159 0 
L 581 0 
L 581 3500 
L 1159 3500 
L 1159 2956 
Q 1341 3275 1631 3429 
Q 1922 3584 2338 3584 
Q 2397 3584 2469 3576 
Q 2541 3569 2628 3553 
L 2631 2963 
z
" transform="scale(0.015625)"/>
       <path id="DejaVuSans-28" d="M 1984 4856 
Q 1566 4138 1362 3434 
Q 1159 2731 1159 2009 
Q 1159 1288 1364 580 
Q 1569 -128 1984 -844 
L 1484 -844 
Q 1016 -109 783 600 
Q 550 1309 550 2009 
Q 550 2706 781 3412 
Q 1013 4119 1484 4856 
L 1984 4856 
z
" transform="scale(0.015625)"/>
       <path id="DejaVuSans-6e" d="M 3513 2113 
L 3513 0 
L 2938 0 
L 2938 2094 
Q 2938 2591 2744 2837 
Q 2550 3084 2163 3084 
Q 1697 3084 1428 2787 
Q 1159 2491 1159 1978 
L 1159 0 
L 581 0 
L 581 3500 
L 1159 3500 
L 1159 2956 
Q 1366 3272 1645 3428 
Q 1925 3584 2291 3584 
Q 2894 3584 3203 3211 
Q 3513 2838 3513 2113 
z
" transform="scale(0.015625)"/>
       <path id="DejaVuSans-6f" d="M 1959 3097 
Q 1497 3097 1228 2736 
Q 959 2375 959 1747 
Q 959 1119 1226 758 
Q 1494 397 1959 397 
Q 2419 397 2687 759 
Q 2956 1122 2956 1747 
Q 2956 2369 2687 2733 
Q 2419 3097 1959 3097 
z
M 1959 3584 
Q 2709 3584 3137 3096 
Q 3566 2609 3566 1747 
Q 3566 888 3137 398 
Q 2709 -91 1959 -91 
Q 1206 -91 779 398 
Q 353 888 353 1747 
Q 353 2609 779 3096 
Q 1206 3584 1959 3584 
z
" transform="scale(0.015625)"/>
       <path id="DejaVuSans-77" d="M 269 3500 
L 844 3500 
L 1563 769 
L 2278 3500 
L 2956 3500 
L 3675 769 
L 4391 3500 
L 4966 3500 
L 4050 0 
L 3372 0 
L 2619 2869 
L 1863 0 
L 1184 0 
L 269 3500 
z
" transform="scale(0.015625)"/>
       <path id="DejaVuSans-67" d="M 2906 1791 
Q 2906 2416 2648 2759 
Q 2391 3103 1925 3103 
Q 1463 3103 1205 2759 
Q 947 2416 947 1791 
Q 947 1169 1205 825 
Q 1463 481 1925 481 
Q 2391 481 2648 825 
Q 2906 1169 2906 1791 
z
M 3481 434 
Q 3481 -459 3084 -895 
Q 2688 -1331 1869 -1331 
Q 1566 -1331 1297 -1286 
Q 1028 -1241 775 -1147 
L 775 -588 
Q 1028 -725 1275 -790 
Q 1522 -856 1778 -856 
Q 2344 -856 2625 -561 
Q 2906 -266 2906 331 
L 2906 616 
Q 2728 306 2450 153 
Q 2172 0 1784 0 
Q 1141 0 747 490 
Q 353 981 353 1791 
Q 353 2603 747 3093 
Q 1141 3584 1784 3584 
Q 2172 3584 2450 3431 
Q 2728 3278 2906 2969 
L 2906 3500 
L 3481 3500 
L 3481 434 
z
" transform="scale(0.015625)"/>
       <path id="DejaVuSans-7c" d="M 1344 4891 
L 1344 -1509 
L 813 -1509 
L 813 4891 
L 1344 4891 
z
" transform="scale(0.015625)"/>
       <path id="DejaVuSans-66" d="M 2375 4863 
L 2375 4384 
L 1825 4384 
Q 1516 4384 1395 4259 
Q 1275 4134 1275 3809 
L 1275 3500 
L 2222 3500 
L 2222 3053 
L 1275 3053 
L 1275 0 
L 697 0 
L 697 3053 
L 147 3053 
L 147 3500 
L 697 3500 
L 697 3744 
Q 697 4328 969 4595 
Q 1241 4863 1831 4863 
L 2375 4863 
z
" transform="scale(0.015625)"/>
       <path id="DejaVuSans-29" d="M 513 4856 
L 1013 4856 
Q 1481 4119 1714 3412 
Q 1947 2706 1947 2009 
Q 1947 1309 1714 600 
Q 1481 -109 1013 -844 
L 513 -844 
Q 928 -128 1133 580 
Q 1338 1288 1338 2009 
Q 1338 2731 1133 3434 
Q 928 4138 513 4856 
z
" transform="scale(0.015625)"/>
      </defs>
      <use xlink:href="#DejaVuSans-50"/>
      <use xlink:href="#DejaVuSans-72" x="58.552734"/>
      <use xlink:href="#DejaVuSans-28" x="99.666016"/>
      <use xlink:href="#DejaVuSans-6e" x="138.679688"/>
      <use xlink:href="#DejaVuSans-6f" x="202.058594"/>
      <use xlink:href="#DejaVuSans-20" x="263.240234"/>
      <use xlink:href="#DejaVuSans-77" x="295.027344"/>
      <use xlink:href="#DejaVuSans-61" x="376.814453"/>
      <use xlink:href="#DejaVuSans-72" x="438.09375"/>
      <use xlink:href="#DejaVuSans-6e" x="477.457031"/>
      <use xlink:href="#DejaVuSans-69" x="540.835938"/>
      <use xlink:href="#DejaVuSans-6e" x="568.619141"/>
      <use xlink:href="#DejaVuSans-67" x="631.998047"/>
      <use xlink:href="#DejaVuSans-20" x="695.474609"/>
      <use xlink:href="#DejaVuSans-7c" x="727.261719"/>
      <use xlink:href="#DejaVuSans-20" x="760.953125"/>
      <use xlink:href="#DejaVuSans-73" x="792.740234"/>
      <use xlink:href="#DejaVuSans-61" x="844.839844"/>
      <use xlink:href="#DejaVuSans-66" x="906.119141"/>
      <use xlink:href="#DejaVuSans-65" x="941.324219"/>
      <use xlink:href="#DejaVuSans-29" x="1002.847656"/>
     </g>
    </g>
   </g>
   <g id="line2d_25">
    <path d="M 61.587336 87.02626 
L 72.768449 53.675879 
L 83.949562 35.946425 
L 95.130675 30.096002 
L 106.311788 26.175921 
L 117.492901 24.037696 
L 128.674014 22.196446 
L 139.855127 21.513402 
L 151.03624 21.097635 
L 162.217353 20.741265 
L 173.398466 20.295801 
L 184.579579 19.909732 
L 195.760692 19.850337 
L 206.941805 19.761244 
L 218.122918 19.642454 
L 229.304031 19.434571 
L 240.485144 19.375176 
L 251.666257 19.226688 
L 262.84737 19.19699 
L 274.028483 19.19699 
L 285.209596 19.19699 
L 296.390709 19.167293 
L 307.571822 19.107898 
L 318.752935 19.048503 
L 329.934048 19.018805 
" clip-path="url(#p6bc988bc5e)" style="fill: none; stroke: #0000ff; stroke-width: 2; stroke-linecap: square"/>
   </g>
   <g id="line2d_26">
    <path d="M 61.587336 100.449566 
L 72.768449 78.027894 
L 83.949562 64.485798 
L 95.130675 57.150496 
L 106.311788 48.746081 
L 117.492901 45.895114 
L 128.674014 39.183461 
L 139.855127 36.065215 
L 151.03624 34.431848 
L 162.217353 30.36328 
L 173.398466 28.432937 
L 184.579579 26.769873 
L 195.760692 25.938341 
L 206.941805 25.225599 
L 218.122918 24.156486 
L 229.304031 22.909188 
L 240.485144 22.434026 
L 251.666257 21.216426 
L 262.84737 20.949148 
L 274.028483 20.147313 
L 285.209596 20.147313 
L 296.390709 19.107898 
L 307.571822 19.107898 
L 318.752935 18.187273 
L 329.934048 18.187273 
" clip-path="url(#p6bc988bc5e)" style="fill: none; stroke: #ff0000; stroke-width: 2; stroke-linecap: square"/>
   </g>
   <g id="line2d_27">
    <path d="M 61.587336 165.932727 
L 72.768449 160.616861 
L 83.949562 147.490531 
L 95.130675 138.937628 
L 106.311788 130.711399 
L 117.492901 120.911198 
L 128.674014 112.595876 
L 139.855127 104.577529 
L 151.03624 96.23251 
L 162.217353 86.937168 
L 173.398466 81.26493 
L 184.579579 74.64237 
L 195.760692 68.940435 
L 206.941805 59.971766 
L 218.122918 52.577069 
L 229.304031 45.954509 
L 240.485144 43.073844 
L 251.666257 38.025255 
L 262.84737 34.639731 
L 274.028483 31.818461 
L 285.209596 29.650538 
L 296.390709 28.670518 
L 307.571822 26.888663 
L 318.752935 25.671063 
L 329.934048 24.304974 
" clip-path="url(#p6bc988bc5e)" style="fill: none; stroke: #008000; stroke-width: 2; stroke-linecap: square"/>
   </g>
   <g id="patch_3">
    <path d="M 48.17 173.32 
L 48.17 10.8 
" style="fill: none; stroke: #000000; stroke-width: 0.8; stroke-linejoin: miter; stroke-linecap: square"/>
   </g>
   <g id="patch_4">
    <path d="M 343.351384 173.32 
L 343.351384 10.8 
" style="fill: none; stroke: #000000; stroke-width: 0.8; stroke-linejoin: miter; stroke-linecap: square"/>
   </g>
   <g id="patch_5">
    <path d="M 48.17 173.32 
L 343.351384 173.32 
" style="fill: none; stroke: #000000; stroke-width: 0.8; stroke-linejoin: miter; stroke-linecap: square"/>
   </g>
   <g id="patch_6">
    <path d="M 48.17 10.8 
L 343.351384 10.8 
" style="fill: none; stroke: #000000; stroke-width: 0.8; stroke-linejoin: miter; stroke-linecap: square"/>
   </g>
   <g id="legend_1">
    <g id="patch_7">
     <path d="M 243.926384 168.32 
L 336.351384 168.32 
Q 338.351384 168.32 338.351384 166.32 
L 338.351384 123.285625 
Q 338.351384 121.285625 336.351384 121.285625 
L 243.926384 121.285625 
Q 241.926384 121.285625 241.926384 123.285625 
L 241.926384 166.32 
Q 241.926384 168.32 243.926384 168.32 
z
" style="fill: #ffffff; opacity: 0.8; stroke: #cccccc; stroke-linejoin: miter"/>
    </g>
    <g id="line2d_28">
     <path d="M 245.926384 129.384062 
L 265.926384 129.384062 
" style="fill: none; stroke: #0000ff; stroke-width: 2; stroke-linecap: square"/>
    </g>
    <g id="line2d_29"/>
    <g id="text_15">
     <!-- Unsafe-Safe -->
     <g transform="translate(273.926384 132.884062) scale(0.1 -0.1)">
      <defs>
       <path id="DejaVuSans-55" d="M 556 4666 
L 1191 4666 
L 1191 1831 
Q 1191 1081 1462 751 
Q 1734 422 2344 422 
Q 2950 422 3222 751 
Q 3494 1081 3494 1831 
L 3494 4666 
L 4128 4666 
L 4128 1753 
Q 4128 841 3676 375 
Q 3225 -91 2344 -91 
Q 1459 -91 1007 375 
Q 556 841 556 1753 
L 556 4666 
z
" transform="scale(0.015625)"/>
       <path id="DejaVuSans-2d" d="M 313 2009 
L 1997 2009 
L 1997 1497 
L 313 1497 
L 313 2009 
z
" transform="scale(0.015625)"/>
       <path id="DejaVuSans-53" d="M 3425 4513 
L 3425 3897 
Q 3066 4069 2747 4153 
Q 2428 4238 2131 4238 
Q 1616 4238 1336 4038 
Q 1056 3838 1056 3469 
Q 1056 3159 1242 3001 
Q 1428 2844 1947 2747 
L 2328 2669 
Q 3034 2534 3370 2195 
Q 3706 1856 3706 1288 
Q 3706 609 3251 259 
Q 2797 -91 1919 -91 
Q 1588 -91 1214 -16 
Q 841 59 441 206 
L 441 856 
Q 825 641 1194 531 
Q 1563 422 1919 422 
Q 2459 422 2753 634 
Q 3047 847 3047 1241 
Q 3047 1584 2836 1778 
Q 2625 1972 2144 2069 
L 1759 2144 
Q 1053 2284 737 2584 
Q 422 2884 422 3419 
Q 422 4038 858 4394 
Q 1294 4750 2059 4750 
Q 2388 4750 2728 4690 
Q 3069 4631 3425 4513 
z
" transform="scale(0.015625)"/>
      </defs>
      <use xlink:href="#DejaVuSans-55"/>
      <use xlink:href="#DejaVuSans-6e" x="73.193359"/>
      <use xlink:href="#DejaVuSans-73" x="136.572266"/>
      <use xlink:href="#DejaVuSans-61" x="188.671875"/>
      <use xlink:href="#DejaVuSans-66" x="249.951172"/>
      <use xlink:href="#DejaVuSans-65" x="285.15625"/>
      <use xlink:href="#DejaVuSans-2d" x="346.679688"/>
      <use xlink:href="#DejaVuSans-53" x="382.763672"/>
      <use xlink:href="#DejaVuSans-61" x="446.240234"/>
      <use xlink:href="#DejaVuSans-66" x="507.519531"/>
      <use xlink:href="#DejaVuSans-65" x="542.724609"/>
     </g>
    </g>
    <g id="line2d_30">
     <path d="M 245.926384 144.062187 
L 265.926384 144.062187 
" style="fill: none; stroke: #ff0000; stroke-width: 2; stroke-linecap: square"/>
    </g>
    <g id="line2d_31"/>
    <g id="text_16">
     <!-- Unsafe -->
     <g transform="translate(273.926384 147.562187) scale(0.1 -0.1)">
      <use xlink:href="#DejaVuSans-55"/>
      <use xlink:href="#DejaVuSans-6e" x="73.193359"/>
      <use xlink:href="#DejaVuSans-73" x="136.572266"/>
      <use xlink:href="#DejaVuSans-61" x="188.671875"/>
      <use xlink:href="#DejaVuSans-66" x="249.951172"/>
      <use xlink:href="#DejaVuSans-65" x="285.15625"/>
     </g>
    </g>
    <g id="line2d_32">
     <path d="M 245.926384 158.740312 
L 265.926384 158.740312 
" style="fill: none; stroke: #008000; stroke-width: 2; stroke-linecap: square"/>
    </g>
    <g id="line2d_33"/>
    <g id="text_17">
     <!-- -Safe -->
     <g transform="translate(273.926384 162.240312) scale(0.1 -0.1)">
      <use xlink:href="#DejaVuSans-2d"/>
      <use xlink:href="#DejaVuSans-53" x="36.083984"/>
      <use xlink:href="#DejaVuSans-61" x="99.560547"/>
      <use xlink:href="#DejaVuSans-66" x="160.839844"/>
      <use xlink:href="#DejaVuSans-65" x="196.044922"/>
     </g>
    </g>
   </g>
  </g>
 </g>
 <defs>
  <clipPath id="p6bc988bc5e">
   <rect x="48.17" y="10.8" width="295.181384" height="162.52"/>
  </clipPath>
 </defs>
</svg>
