<?xml version="1.0" encoding="utf-8" standalone="no"?>
<!DOCTYPE svg PUBLIC "-//W3C//DTD SVG 1.1//EN"
  "http://www.w3.org/Graphics/SVG/1.1/DTD/svg11.dtd">
<svg xmlns:xlink="http://www.w3.org/1999/xlink" width="360pt" height="216pt" viewBox="0 0 360 216" xmlns="http://www.w3.org/2000/svg" version="1.1">
 <metadata>
  <rdf:RDF xmlns:dc="http://purl.org/dc/elements/1.1/" xmlns:cc="http://creativecommons.org/ns#" xmlns:rdf="http://www.w3.org/1999/02/22-rdf-syntax-ns#">
   <cc:Work>
    <dc:type rdf:resource="http://purl.org/dc/dcmitype/StillImage"/>
    <dc:date>2024-10-14T16:23:18.549494</dc:date>
    <dc:format>image/svg+xml</dc:format>
    <dc:creator>
     <cc:Agent>
      <dc:title>Matplotlib v3.8.4, https://matplotlib.org/</dc:title>
     </cc:Agent>
    </dc:creator>
   </cc:Work>
  </rdf:RDF>
 </metadata>
 <defs>
  <style type="text/css">*{stroke-linejoin: round; stroke-linecap: butt}</style>
 </defs>
 <g id="figure_1">
  <g id="patch_1">
   <path d="M 0 216 
L 360 216 
L 360 0 
L 0 0 
z
" style="fill: #ffffff"/>
  </g>
  <g id="axes_1">
   <g id="patch_2">
    <path d="M 47.81 173.32 
L 343.351384 173.32 
L 343.351384 10.8 
L 47.81 10.8 
z
" style="fill: #ffffff"/>
   </g>
   <g id="PathCollection_1">
    <defs>
     <path id="m13b4a36491" d="M 0 3 
C 0.795609 3 1.55874 2.683901 2.12132 2.12132 
C 2.683901 1.55874 3 0.795609 3 0 
C 3 -0.795609 2.683901 -1.55874 2.12132 -2.12132 
C 1.55874 -2.683901 0.795609 -3 0 -3 
C -0.795609 -3 -1.55874 -2.683901 -2.12132 -2.12132 
C -2.683901 -1.55874 -3 -0.795609 -3 0 
C -3 0.795609 -2.683901 1.55874 -2.12132 2.12132 
C -1.55874 2.683901 -0.795609 3 0 3 
z
" style="stroke: #0000ff"/>
    </defs>
    <g clip-path="url(#pbf9983a8bd)">
     <use xlink:href="#m13b4a36491" x="61.243699" y="161.547924" style="fill: #0000ff; stroke: #0000ff"/>
     <use xlink:href="#m13b4a36491" x="72.438449" y="158.116339" style="fill: #0000ff; stroke: #0000ff"/>
     <use xlink:href="#m13b4a36491" x="83.633198" y="153.731536" style="fill: #0000ff; stroke: #0000ff"/>
     <use xlink:href="#m13b4a36491" x="94.827947" y="148.234645" style="fill: #0000ff; stroke: #0000ff"/>
     <use xlink:href="#m13b4a36491" x="106.022697" y="142.356466" style="fill: #0000ff; stroke: #0000ff"/>
     <use xlink:href="#m13b4a36491" x="117.217446" y="136.891349" style="fill: #0000ff; stroke: #0000ff"/>
     <use xlink:href="#m13b4a36491" x="128.412196" y="128.884317" style="fill: #0000ff; stroke: #0000ff"/>
     <use xlink:href="#m13b4a36491" x="139.606945" y="122.783721" style="fill: #0000ff; stroke: #0000ff"/>
     <use xlink:href="#m13b4a36491" x="150.801694" y="119.352136" style="fill: #0000ff; stroke: #0000ff"/>
     <use xlink:href="#m13b4a36491" x="161.996444" y="113.473958" style="fill: #0000ff; stroke: #0000ff"/>
     <use xlink:href="#m13b4a36491" x="173.191193" y="106.928527" style="fill: #0000ff; stroke: #0000ff"/>
     <use xlink:href="#m13b4a36491" x="184.385943" y="101.46341" style="fill: #0000ff; stroke: #0000ff"/>
     <use xlink:href="#m13b4a36491" x="195.580692" y="98.222468" style="fill: #0000ff; stroke: #0000ff"/>
     <use xlink:href="#m13b4a36491" x="206.775441" y="90.628498" style="fill: #0000ff; stroke: #0000ff"/>
     <use xlink:href="#m13b4a36491" x="217.970191" y="84.718545" style="fill: #0000ff; stroke: #0000ff"/>
     <use xlink:href="#m13b4a36491" x="229.16494" y="77.56941" style="fill: #0000ff; stroke: #0000ff"/>
     <use xlink:href="#m13b4a36491" x="240.35969" y="72.549128" style="fill: #0000ff; stroke: #0000ff"/>
     <use xlink:href="#m13b4a36491" x="251.554439" y="65.62241" style="fill: #0000ff; stroke: #0000ff"/>
     <use xlink:href="#m13b4a36491" x="262.749188" y="59.648909" style="fill: #0000ff; stroke: #0000ff"/>
     <use xlink:href="#m13b4a36491" x="273.943938" y="52.436226" style="fill: #0000ff; stroke: #0000ff"/>
     <use xlink:href="#m13b4a36491" x="285.138687" y="49.576572" style="fill: #0000ff; stroke: #0000ff"/>
     <use xlink:href="#m13b4a36491" x="296.333437" y="45.541282" style="fill: #0000ff; stroke: #0000ff"/>
     <use xlink:href="#m13b4a36491" x="307.528186" y="39.694877" style="fill: #0000ff; stroke: #0000ff"/>
     <use xlink:href="#m13b4a36491" x="318.722935" y="35.882005" style="fill: #0000ff; stroke: #0000ff"/>
     <use xlink:href="#m13b4a36491" x="329.917685" y="31.052367" style="fill: #0000ff; stroke: #0000ff"/>
    </g>
   </g>
   <g id="PathCollection_2">
    <defs>
     <path id="me4b724ca30" d="M 0 3 
C 0.795609 3 1.55874 2.683901 2.12132 2.12132 
C 2.683901 1.55874 3 0.795609 3 0 
C 3 -0.795609 2.683901 -1.55874 2.12132 -2.12132 
C 1.55874 -2.683901 0.795609 -3 0 -3 
C -0.795609 -3 -1.55874 -2.683901 -2.12132 -2.12132 
C -2.683901 -1.55874 -3 -0.795609 -3 0 
C -3 0.795609 -2.683901 1.55874 -2.12132 2.12132 
C -1.55874 2.683901 -0.795609 3 0 3 
z
" style="stroke: #ff0000"/>
    </defs>
    <g clip-path="url(#pbf9983a8bd)">
     <use xlink:href="#me4b724ca30" x="61.243699" y="159.164879" style="fill: #ff0000; stroke: #ff0000"/>
     <use xlink:href="#me4b724ca30" x="72.438449" y="155.923937" style="fill: #ff0000; stroke: #ff0000"/>
     <use xlink:href="#me4b724ca30" x="83.633198" y="153.477344" style="fill: #ff0000; stroke: #ff0000"/>
     <use xlink:href="#me4b724ca30" x="94.827947" y="150.935429" style="fill: #ff0000; stroke: #ff0000"/>
     <use xlink:href="#me4b724ca30" x="106.022697" y="146.677722" style="fill: #ff0000; stroke: #ff0000"/>
     <use xlink:href="#me4b724ca30" x="117.217446" y="143.214363" style="fill: #ff0000; stroke: #ff0000"/>
     <use xlink:href="#me4b724ca30" x="128.412196" y="136.033453" style="fill: #ff0000; stroke: #ff0000"/>
     <use xlink:href="#me4b724ca30" x="139.606945" y="130.059953" style="fill: #ff0000; stroke: #ff0000"/>
     <use xlink:href="#me4b724ca30" x="150.801694" y="124.531288" style="fill: #ff0000; stroke: #ff0000"/>
     <use xlink:href="#me4b724ca30" x="161.996444" y="114.141211" style="fill: #ff0000; stroke: #ff0000"/>
     <use xlink:href="#me4b724ca30" x="173.191193" y="108.676094" style="fill: #ff0000; stroke: #ff0000"/>
     <use xlink:href="#me4b724ca30" x="184.385943" y="102.51195" style="fill: #ff0000; stroke: #ff0000"/>
     <use xlink:href="#me4b724ca30" x="195.580692" y="98.127147" style="fill: #ff0000; stroke: #ff0000"/>
     <use xlink:href="#me4b724ca30" x="206.775441" y="93.647022" style="fill: #ff0000; stroke: #ff0000"/>
     <use xlink:href="#me4b724ca30" x="217.970191" y="88.118357" style="fill: #ff0000; stroke: #ff0000"/>
     <use xlink:href="#me4b724ca30" x="229.16494" y="80.842125" style="fill: #ff0000; stroke: #ff0000"/>
     <use xlink:href="#me4b724ca30" x="240.35969" y="76.806835" style="fill: #ff0000; stroke: #ff0000"/>
     <use xlink:href="#me4b724ca30" x="251.554439" y="65.908375" style="fill: #ff0000; stroke: #ff0000"/>
     <use xlink:href="#me4b724ca30" x="262.749188" y="63.20759" style="fill: #ff0000; stroke: #ff0000"/>
     <use xlink:href="#me4b724ca30" x="273.943938" y="52.976383" style="fill: #ff0000; stroke: #ff0000"/>
     <use xlink:href="#me4b724ca30" x="285.138687" y="52.62687" style="fill: #ff0000; stroke: #ff0000"/>
     <use xlink:href="#me4b724ca30" x="296.333437" y="41.950827" style="fill: #ff0000; stroke: #ff0000"/>
     <use xlink:href="#me4b724ca30" x="307.528186" y="41.760183" style="fill: #ff0000; stroke: #ff0000"/>
     <use xlink:href="#me4b724ca30" x="318.722935" y="25.904989" style="fill: #ff0000; stroke: #ff0000"/>
     <use xlink:href="#me4b724ca30" x="329.917685" y="25.904989" style="fill: #ff0000; stroke: #ff0000"/>
    </g>
   </g>
   <g id="PathCollection_3">
    <defs>
     <path id="mfcfc3313ec" d="M 0 3 
C 0.795609 3 1.55874 2.683901 2.12132 2.12132 
C 2.683901 1.55874 3 0.795609 3 0 
C 3 -0.795609 2.683901 -1.55874 2.12132 -2.12132 
C 1.55874 -2.683901 0.795609 -3 0 -3 
C -0.795609 -3 -1.55874 -2.683901 -2.12132 -2.12132 
C -2.683901 -1.55874 -3 -0.795609 -3 0 
C -3 0.795609 -2.683901 1.55874 -2.12132 2.12132 
C -1.55874 2.683901 -0.795609 3 0 3 
z
" style="stroke: #008000"/>
    </defs>
    <g clip-path="url(#pbf9983a8bd)">
     <use xlink:href="#mfcfc3313ec" x="61.243699" y="165.932727" style="fill: #008000; stroke: #008000"/>
     <use xlink:href="#mfcfc3313ec" x="72.438449" y="165.646762" style="fill: #008000; stroke: #008000"/>
     <use xlink:href="#mfcfc3313ec" x="83.633198" y="165.106605" style="fill: #008000; stroke: #008000"/>
     <use xlink:href="#mfcfc3313ec" x="94.827947" y="164.725318" style="fill: #008000; stroke: #008000"/>
     <use xlink:href="#mfcfc3313ec" x="106.022697" y="163.994517" style="fill: #008000; stroke: #008000"/>
     <use xlink:href="#mfcfc3313ec" x="117.217446" y="163.041299" style="fill: #008000; stroke: #008000"/>
     <use xlink:href="#mfcfc3313ec" x="128.412196" y="162.278725" style="fill: #008000; stroke: #008000"/>
     <use xlink:href="#mfcfc3313ec" x="139.606945" y="161.325506" style="fill: #008000; stroke: #008000"/>
     <use xlink:href="#mfcfc3313ec" x="150.801694" y="160.340514" style="fill: #008000; stroke: #008000"/>
     <use xlink:href="#mfcfc3313ec" x="161.996444" y="159.133105" style="fill: #008000; stroke: #008000"/>
     <use xlink:href="#mfcfc3313ec" x="173.191193" y="158.211661" style="fill: #008000; stroke: #008000"/>
     <use xlink:href="#mfcfc3313ec" x="184.385943" y="156.781834" style="fill: #008000; stroke: #008000"/>
     <use xlink:href="#mfcfc3313ec" x="195.580692" y="155.38378" style="fill: #008000; stroke: #008000"/>
     <use xlink:href="#mfcfc3313ec" x="206.775441" y="152.111065" style="fill: #008000; stroke: #008000"/>
     <use xlink:href="#mfcfc3313ec" x="217.970191" y="149.060767" style="fill: #008000; stroke: #008000"/>
     <use xlink:href="#mfcfc3313ec" x="229.16494" y="146.264661" style="fill: #008000; stroke: #008000"/>
     <use xlink:href="#mfcfc3313ec" x="240.35969" y="144.104033" style="fill: #008000; stroke: #008000"/>
     <use xlink:href="#mfcfc3313ec" x="251.554439" y="139.306168" style="fill: #008000; stroke: #008000"/>
     <use xlink:href="#mfcfc3313ec" x="262.749188" y="134.857817" style="fill: #008000; stroke: #008000"/>
     <use xlink:href="#mfcfc3313ec" x="273.943938" y="130.790753" style="fill: #008000; stroke: #008000"/>
     <use xlink:href="#mfcfc3313ec" x="285.138687" y="127.486264" style="fill: #008000; stroke: #008000"/>
     <use xlink:href="#mfcfc3313ec" x="296.333437" y="124.213549" style="fill: #008000; stroke: #008000"/>
     <use xlink:href="#mfcfc3313ec" x="307.528186" y="119.669876" style="fill: #008000; stroke: #008000"/>
     <use xlink:href="#mfcfc3313ec" x="318.722935" y="114.967333" style="fill: #008000; stroke: #008000"/>
     <use xlink:href="#mfcfc3313ec" x="329.917685" y="107.977067" style="fill: #008000; stroke: #008000"/>
    </g>
   </g>
   <g id="matplotlib.axis_1">
    <g id="xtick_1">
     <g id="line2d_1">
      <path d="M 50.046039 173.32 
L 50.046039 10.8 
" clip-path="url(#pbf9983a8bd)" style="fill: none; stroke: #b0b0b0; stroke-width: 0.8; stroke-linecap: square"/>
     </g>
     <g id="line2d_2">
      <defs>
       <path id="m3bcd170e97" d="M 0 0 
L 0 3.5 
" style="stroke: #000000; stroke-width: 0.8"/>
      </defs>
      <g>
       <use xlink:href="#m3bcd170e97" x="50.046039" y="173.32" style="stroke: #000000; stroke-width: 0.8"/>
      </g>
     </g>
     <g id="text_1">
      <!-- 0.0 -->
      <g transform="translate(42.094477 187.918437) scale(0.1 -0.1)">
       <defs>
        <path id="DejaVuSans-30" d="M 2034 4250 
Q 1547 4250 1301 3770 
Q 1056 3291 1056 2328 
Q 1056 1369 1301 889 
Q 1547 409 2034 409 
Q 2525 409 2770 889 
Q 3016 1369 3016 2328 
Q 3016 3291 2770 3770 
Q 2525 4250 2034 4250 
z
M 2034 4750 
Q 2819 4750 3233 4129 
Q 3647 3509 3647 2328 
Q 3647 1150 3233 529 
Q 2819 -91 2034 -91 
Q 1250 -91 836 529 
Q 422 1150 422 2328 
Q 422 3509 836 4129 
Q 1250 4750 2034 4750 
z
" transform="scale(0.015625)"/>
        <path id="DejaVuSans-2e" d="M 684 794 
L 1344 794 
L 1344 0 
L 684 0 
L 684 794 
z
" transform="scale(0.015625)"/>
       </defs>
       <use xlink:href="#DejaVuSans-30"/>
       <use xlink:href="#DejaVuSans-2e" x="63.623047"/>
       <use xlink:href="#DejaVuSans-30" x="95.410156"/>
      </g>
     </g>
    </g>
    <g id="xtick_2">
     <g id="line2d_3">
      <path d="M 108.258736 173.32 
L 108.258736 10.8 
" clip-path="url(#pbf9983a8bd)" style="fill: none; stroke: #b0b0b0; stroke-width: 0.8; stroke-linecap: square"/>
     </g>
     <g id="line2d_4">
      <g>
       <use xlink:href="#m3bcd170e97" x="108.258736" y="173.32" style="stroke: #000000; stroke-width: 0.8"/>
      </g>
     </g>
     <g id="text_2">
      <!-- 0.2 -->
      <g transform="translate(100.307174 187.918437) scale(0.1 -0.1)">
       <defs>
        <path id="DejaVuSans-32" d="M 1228 531 
L 3431 531 
L 3431 0 
L 469 0 
L 469 531 
Q 828 903 1448 1529 
Q 2069 2156 2228 2338 
Q 2531 2678 2651 2914 
Q 2772 3150 2772 3378 
Q 2772 3750 2511 3984 
Q 2250 4219 1831 4219 
Q 1534 4219 1204 4116 
Q 875 4013 500 3803 
L 500 4441 
Q 881 4594 1212 4672 
Q 1544 4750 1819 4750 
Q 2544 4750 2975 4387 
Q 3406 4025 3406 3419 
Q 3406 3131 3298 2873 
Q 3191 2616 2906 2266 
Q 2828 2175 2409 1742 
Q 1991 1309 1228 531 
z
" transform="scale(0.015625)"/>
       </defs>
       <use xlink:href="#DejaVuSans-30"/>
       <use xlink:href="#DejaVuSans-2e" x="63.623047"/>
       <use xlink:href="#DejaVuSans-32" x="95.410156"/>
      </g>
     </g>
    </g>
    <g id="xtick_3">
     <g id="line2d_5">
      <path d="M 166.471433 173.32 
L 166.471433 10.8 
" clip-path="url(#pbf9983a8bd)" style="fill: none; stroke: #b0b0b0; stroke-width: 0.8; stroke-linecap: square"/>
     </g>
     <g id="line2d_6">
      <g>
       <use xlink:href="#m3bcd170e97" x="166.471433" y="173.32" style="stroke: #000000; stroke-width: 0.8"/>
      </g>
     </g>
     <g id="text_3">
      <!-- 0.4 -->
      <g transform="translate(158.51987 187.918437) scale(0.1 -0.1)">
       <defs>
        <path id="DejaVuSans-34" d="M 2419 4116 
L 825 1625 
L 2419 1625 
L 2419 4116 
z
M 2253 4666 
L 3047 4666 
L 3047 1625 
L 3713 1625 
L 3713 1100 
L 3047 1100 
L 3047 0 
L 2419 0 
L 2419 1100 
L 313 1100 
L 313 1709 
L 2253 4666 
z
" transform="scale(0.015625)"/>
       </defs>
       <use xlink:href="#DejaVuSans-30"/>
       <use xlink:href="#DejaVuSans-2e" x="63.623047"/>
       <use xlink:href="#DejaVuSans-34" x="95.410156"/>
      </g>
     </g>
    </g>
    <g id="xtick_4">
     <g id="line2d_7">
      <path d="M 224.68413 173.32 
L 224.68413 10.8 
" clip-path="url(#pbf9983a8bd)" style="fill: none; stroke: #b0b0b0; stroke-width: 0.8; stroke-linecap: square"/>
     </g>
     <g id="line2d_8">
      <g>
       <use xlink:href="#m3bcd170e97" x="224.68413" y="173.32" style="stroke: #000000; stroke-width: 0.8"/>
      </g>
     </g>
     <g id="text_4">
      <!-- 0.6 -->
      <g transform="translate(216.732567 187.918437) scale(0.1 -0.1)">
       <defs>
        <path id="DejaVuSans-36" d="M 2113 2584 
Q 1688 2584 1439 2293 
Q 1191 2003 1191 1497 
Q 1191 994 1439 701 
Q 1688 409 2113 409 
Q 2538 409 2786 701 
Q 3034 994 3034 1497 
Q 3034 2003 2786 2293 
Q 2538 2584 2113 2584 
z
M 3366 4563 
L 3366 3988 
Q 3128 4100 2886 4159 
Q 2644 4219 2406 4219 
Q 1781 4219 1451 3797 
Q 1122 3375 1075 2522 
Q 1259 2794 1537 2939 
Q 1816 3084 2150 3084 
Q 2853 3084 3261 2657 
Q 3669 2231 3669 1497 
Q 3669 778 3244 343 
Q 2819 -91 2113 -91 
Q 1303 -91 875 529 
Q 447 1150 447 2328 
Q 447 3434 972 4092 
Q 1497 4750 2381 4750 
Q 2619 4750 2861 4703 
Q 3103 4656 3366 4563 
z
" transform="scale(0.015625)"/>
       </defs>
       <use xlink:href="#DejaVuSans-30"/>
       <use xlink:href="#DejaVuSans-2e" x="63.623047"/>
       <use xlink:href="#DejaVuSans-36" x="95.410156"/>
      </g>
     </g>
    </g>
    <g id="xtick_5">
     <g id="line2d_9">
      <path d="M 282.896827 173.32 
L 282.896827 10.8 
" clip-path="url(#pbf9983a8bd)" style="fill: none; stroke: #b0b0b0; stroke-width: 0.8; stroke-linecap: square"/>
     </g>
     <g id="line2d_10">
      <g>
       <use xlink:href="#m3bcd170e97" x="282.896827" y="173.32" style="stroke: #000000; stroke-width: 0.8"/>
      </g>
     </g>
     <g id="text_5">
      <!-- 0.8 -->
      <g transform="translate(274.945264 187.918437) scale(0.1 -0.1)">
       <defs>
        <path id="DejaVuSans-38" d="M 2034 2216 
Q 1584 2216 1326 1975 
Q 1069 1734 1069 1313 
Q 1069 891 1326 650 
Q 1584 409 2034 409 
Q 2484 409 2743 651 
Q 3003 894 3003 1313 
Q 3003 1734 2745 1975 
Q 2488 2216 2034 2216 
z
M 1403 2484 
Q 997 2584 770 2862 
Q 544 3141 544 3541 
Q 544 4100 942 4425 
Q 1341 4750 2034 4750 
Q 2731 4750 3128 4425 
Q 3525 4100 3525 3541 
Q 3525 3141 3298 2862 
Q 3072 2584 2669 2484 
Q 3125 2378 3379 2068 
Q 3634 1759 3634 1313 
Q 3634 634 3220 271 
Q 2806 -91 2034 -91 
Q 1263 -91 848 271 
Q 434 634 434 1313 
Q 434 1759 690 2068 
Q 947 2378 1403 2484 
z
M 1172 3481 
Q 1172 3119 1398 2916 
Q 1625 2713 2034 2713 
Q 2441 2713 2670 2916 
Q 2900 3119 2900 3481 
Q 2900 3844 2670 4047 
Q 2441 4250 2034 4250 
Q 1625 4250 1398 4047 
Q 1172 3844 1172 3481 
z
" transform="scale(0.015625)"/>
       </defs>
       <use xlink:href="#DejaVuSans-30"/>
       <use xlink:href="#DejaVuSans-2e" x="63.623047"/>
       <use xlink:href="#DejaVuSans-38" x="95.410156"/>
      </g>
     </g>
    </g>
    <g id="xtick_6">
     <g id="line2d_11">
      <path d="M 341.109524 173.32 
L 341.109524 10.8 
" clip-path="url(#pbf9983a8bd)" style="fill: none; stroke: #b0b0b0; stroke-width: 0.8; stroke-linecap: square"/>
     </g>
     <g id="line2d_12">
      <g>
       <use xlink:href="#m3bcd170e97" x="341.109524" y="173.32" style="stroke: #000000; stroke-width: 0.8"/>
      </g>
     </g>
     <g id="text_6">
      <!-- 1.0 -->
      <g transform="translate(333.157961 187.918437) scale(0.1 -0.1)">
       <defs>
        <path id="DejaVuSans-31" d="M 794 531 
L 1825 531 
L 1825 4091 
L 703 3866 
L 703 4441 
L 1819 4666 
L 2450 4666 
L 2450 531 
L 3481 531 
L 3481 0 
L 794 0 
L 794 531 
z
" transform="scale(0.015625)"/>
       </defs>
       <use xlink:href="#DejaVuSans-31"/>
       <use xlink:href="#DejaVuSans-2e" x="63.623047"/>
       <use xlink:href="#DejaVuSans-30" x="95.410156"/>
      </g>
     </g>
    </g>
    <g id="text_7">
     <!-- Miss Rate $\epsilon$ -->
     <g transform="translate(167.180692 201.596562) scale(0.1 -0.1)">
      <defs>
       <path id="DejaVuSans-4d" d="M 628 4666 
L 1569 4666 
L 2759 1491 
L 3956 4666 
L 4897 4666 
L 4897 0 
L 4281 0 
L 4281 4097 
L 3078 897 
L 2444 897 
L 1241 4097 
L 1241 0 
L 628 0 
L 628 4666 
z
" transform="scale(0.015625)"/>
       <path id="DejaVuSans-69" d="M 603 3500 
L 1178 3500 
L 1178 0 
L 603 0 
L 603 3500 
z
M 603 4863 
L 1178 4863 
L 1178 4134 
L 603 4134 
L 603 4863 
z
" transform="scale(0.015625)"/>
       <path id="DejaVuSans-73" d="M 2834 3397 
L 2834 2853 
Q 2591 2978 2328 3040 
Q 2066 3103 1784 3103 
Q 1356 3103 1142 2972 
Q 928 2841 928 2578 
Q 928 2378 1081 2264 
Q 1234 2150 1697 2047 
L 1894 2003 
Q 2506 1872 2764 1633 
Q 3022 1394 3022 966 
Q 3022 478 2636 193 
Q 2250 -91 1575 -91 
Q 1294 -91 989 -36 
Q 684 19 347 128 
L 347 722 
Q 666 556 975 473 
Q 1284 391 1588 391 
Q 1994 391 2212 530 
Q 2431 669 2431 922 
Q 2431 1156 2273 1281 
Q 2116 1406 1581 1522 
L 1381 1569 
Q 847 1681 609 1914 
Q 372 2147 372 2553 
Q 372 3047 722 3315 
Q 1072 3584 1716 3584 
Q 2034 3584 2315 3537 
Q 2597 3491 2834 3397 
z
" transform="scale(0.015625)"/>
       <path id="DejaVuSans-20" transform="scale(0.015625)"/>
       <path id="DejaVuSans-52" d="M 2841 2188 
Q 3044 2119 3236 1894 
Q 3428 1669 3622 1275 
L 4263 0 
L 3584 0 
L 2988 1197 
Q 2756 1666 2539 1819 
Q 2322 1972 1947 1972 
L 1259 1972 
L 1259 0 
L 628 0 
L 628 4666 
L 2053 4666 
Q 2853 4666 3247 4331 
Q 3641 3997 3641 3322 
Q 3641 2881 3436 2590 
Q 3231 2300 2841 2188 
z
M 1259 4147 
L 1259 2491 
L 2053 2491 
Q 2509 2491 2742 2702 
Q 2975 2913 2975 3322 
Q 2975 3731 2742 3939 
Q 2509 4147 2053 4147 
L 1259 4147 
z
" transform="scale(0.015625)"/>
       <path id="DejaVuSans-61" d="M 2194 1759 
Q 1497 1759 1228 1600 
Q 959 1441 959 1056 
Q 959 750 1161 570 
Q 1363 391 1709 391 
Q 2188 391 2477 730 
Q 2766 1069 2766 1631 
L 2766 1759 
L 2194 1759 
z
M 3341 1997 
L 3341 0 
L 2766 0 
L 2766 531 
Q 2569 213 2275 61 
Q 1981 -91 1556 -91 
Q 1019 -91 701 211 
Q 384 513 384 1019 
Q 384 1609 779 1909 
Q 1175 2209 1959 2209 
L 2766 2209 
L 2766 2266 
Q 2766 2663 2505 2880 
Q 2244 3097 1772 3097 
Q 1472 3097 1187 3025 
Q 903 2953 641 2809 
L 641 3341 
Q 956 3463 1253 3523 
Q 1550 3584 1831 3584 
Q 2591 3584 2966 3190 
Q 3341 2797 3341 1997 
z
" transform="scale(0.015625)"/>
       <path id="DejaVuSans-74" d="M 1172 4494 
L 1172 3500 
L 2356 3500 
L 2356 3053 
L 1172 3053 
L 1172 1153 
Q 1172 725 1289 603 
Q 1406 481 1766 481 
L 2356 481 
L 2356 0 
L 1766 0 
Q 1100 0 847 248 
Q 594 497 594 1153 
L 594 3053 
L 172 3053 
L 172 3500 
L 594 3500 
L 594 4494 
L 1172 4494 
z
" transform="scale(0.015625)"/>
       <path id="DejaVuSans-65" d="M 3597 1894 
L 3597 1613 
L 953 1613 
Q 991 1019 1311 708 
Q 1631 397 2203 397 
Q 2534 397 2845 478 
Q 3156 559 3463 722 
L 3463 178 
Q 3153 47 2828 -22 
Q 2503 -91 2169 -91 
Q 1331 -91 842 396 
Q 353 884 353 1716 
Q 353 2575 817 3079 
Q 1281 3584 2069 3584 
Q 2775 3584 3186 3129 
Q 3597 2675 3597 1894 
z
M 3022 2063 
Q 3016 2534 2758 2815 
Q 2500 3097 2075 3097 
Q 1594 3097 1305 2825 
Q 1016 2553 972 2059 
L 3022 2063 
z
" transform="scale(0.015625)"/>
       <path id="DejaVuSans-Oblique-3b5" d="M 1263 1888 
Q 925 1963 778 2166 
Q 669 2309 669 2503 
Q 669 3034 1175 3344 
Q 1575 3588 2188 3588 
Q 2425 3588 2684 3550 
Q 2944 3513 3234 3438 
L 3134 2916 
Q 2847 3006 2606 3047 
Q 2359 3088 2138 3088 
Q 1766 3088 1522 2944 
Q 1228 2772 1228 2522 
Q 1228 2356 1381 2241 
Q 1563 2103 1925 2103 
L 2409 2103 
L 2319 1628 
L 1856 1628 
Q 1425 1628 1172 1469 
Q 828 1253 828 916 
Q 828 703 1013 563 
Q 1244 388 1716 388 
Q 2006 388 2284 444 
Q 2563 503 2806 619 
L 2700 84 
Q 2403 -3 2131 -47 
Q 1859 -91 1609 -91 
Q 866 -91 516 194 
Q 250 413 250 781 
Q 250 1278 600 1584 
Q 859 1813 1263 1888 
z
" transform="scale(0.015625)"/>
      </defs>
      <use xlink:href="#DejaVuSans-4d" transform="translate(0 0.015625)"/>
      <use xlink:href="#DejaVuSans-69" transform="translate(86.279297 0.015625)"/>
      <use xlink:href="#DejaVuSans-73" transform="translate(114.0625 0.015625)"/>
      <use xlink:href="#DejaVuSans-73" transform="translate(166.162109 0.015625)"/>
      <use xlink:href="#DejaVuSans-20" transform="translate(218.261719 0.015625)"/>
      <use xlink:href="#DejaVuSans-52" transform="translate(250.048828 0.015625)"/>
      <use xlink:href="#DejaVuSans-61" transform="translate(319.53125 0.015625)"/>
      <use xlink:href="#DejaVuSans-74" transform="translate(380.810547 0.015625)"/>
      <use xlink:href="#DejaVuSans-65" transform="translate(420.019531 0.015625)"/>
      <use xlink:href="#DejaVuSans-20" transform="translate(481.542969 0.015625)"/>
      <use xlink:href="#DejaVuSans-Oblique-3b5" transform="translate(513.330078 0.015625)"/>
     </g>
    </g>
   </g>
   <g id="matplotlib.axis_2">
    <g id="ytick_1">
     <g id="line2d_13">
      <path d="M 47.81 166.059823 
L 343.351384 166.059823 
" clip-path="url(#pbf9983a8bd)" style="fill: none; stroke: #b0b0b0; stroke-width: 0.8; stroke-linecap: square"/>
     </g>
     <g id="line2d_14">
      <defs>
       <path id="mef89e1d66d" d="M 0 0 
L -3.5 0 
" style="stroke: #000000; stroke-width: 0.8"/>
      </defs>
      <g>
       <use xlink:href="#mef89e1d66d" x="47.81" y="166.059823" style="stroke: #000000; stroke-width: 0.8"/>
      </g>
     </g>
     <g id="text_8">
      <!-- 0.0 -->
      <g transform="translate(24.906875 169.859042) scale(0.1 -0.1)">
       <use xlink:href="#DejaVuSans-30"/>
       <use xlink:href="#DejaVuSans-2e" x="63.623047"/>
       <use xlink:href="#DejaVuSans-30" x="95.410156"/>
      </g>
     </g>
    </g>
    <g id="ytick_2">
     <g id="line2d_15">
      <path d="M 47.81 134.285886 
L 343.351384 134.285886 
" clip-path="url(#pbf9983a8bd)" style="fill: none; stroke: #b0b0b0; stroke-width: 0.8; stroke-linecap: square"/>
     </g>
     <g id="line2d_16">
      <g>
       <use xlink:href="#mef89e1d66d" x="47.81" y="134.285886" style="stroke: #000000; stroke-width: 0.8"/>
      </g>
     </g>
     <g id="text_9">
      <!-- 0.1 -->
      <g transform="translate(24.906875 138.085105) scale(0.1 -0.1)">
       <use xlink:href="#DejaVuSans-30"/>
       <use xlink:href="#DejaVuSans-2e" x="63.623047"/>
       <use xlink:href="#DejaVuSans-31" x="95.410156"/>
      </g>
     </g>
    </g>
    <g id="ytick_3">
     <g id="line2d_17">
      <path d="M 47.81 102.51195 
L 343.351384 102.51195 
" clip-path="url(#pbf9983a8bd)" style="fill: none; stroke: #b0b0b0; stroke-width: 0.8; stroke-linecap: square"/>
     </g>
     <g id="line2d_18">
      <g>
       <use xlink:href="#mef89e1d66d" x="47.81" y="102.51195" style="stroke: #000000; stroke-width: 0.8"/>
      </g>
     </g>
     <g id="text_10">
      <!-- 0.2 -->
      <g transform="translate(24.906875 106.311169) scale(0.1 -0.1)">
       <use xlink:href="#DejaVuSans-30"/>
       <use xlink:href="#DejaVuSans-2e" x="63.623047"/>
       <use xlink:href="#DejaVuSans-32" x="95.410156"/>
      </g>
     </g>
    </g>
    <g id="ytick_4">
     <g id="line2d_19">
      <path d="M 47.81 70.738013 
L 343.351384 70.738013 
" clip-path="url(#pbf9983a8bd)" style="fill: none; stroke: #b0b0b0; stroke-width: 0.8; stroke-linecap: square"/>
     </g>
     <g id="line2d_20">
      <g>
       <use xlink:href="#mef89e1d66d" x="47.81" y="70.738013" style="stroke: #000000; stroke-width: 0.8"/>
      </g>
     </g>
     <g id="text_11">
      <!-- 0.3 -->
      <g transform="translate(24.906875 74.537232) scale(0.1 -0.1)">
       <defs>
        <path id="DejaVuSans-33" d="M 2597 2516 
Q 3050 2419 3304 2112 
Q 3559 1806 3559 1356 
Q 3559 666 3084 287 
Q 2609 -91 1734 -91 
Q 1441 -91 1130 -33 
Q 819 25 488 141 
L 488 750 
Q 750 597 1062 519 
Q 1375 441 1716 441 
Q 2309 441 2620 675 
Q 2931 909 2931 1356 
Q 2931 1769 2642 2001 
Q 2353 2234 1838 2234 
L 1294 2234 
L 1294 2753 
L 1863 2753 
Q 2328 2753 2575 2939 
Q 2822 3125 2822 3475 
Q 2822 3834 2567 4026 
Q 2313 4219 1838 4219 
Q 1578 4219 1281 4162 
Q 984 4106 628 3988 
L 628 4550 
Q 988 4650 1302 4700 
Q 1616 4750 1894 4750 
Q 2613 4750 3031 4423 
Q 3450 4097 3450 3541 
Q 3450 3153 3228 2886 
Q 3006 2619 2597 2516 
z
" transform="scale(0.015625)"/>
       </defs>
       <use xlink:href="#DejaVuSans-30"/>
       <use xlink:href="#DejaVuSans-2e" x="63.623047"/>
       <use xlink:href="#DejaVuSans-33" x="95.410156"/>
      </g>
     </g>
    </g>
    <g id="ytick_5">
     <g id="line2d_21">
      <path d="M 47.81 38.964077 
L 343.351384 38.964077 
" clip-path="url(#pbf9983a8bd)" style="fill: none; stroke: #b0b0b0; stroke-width: 0.8; stroke-linecap: square"/>
     </g>
     <g id="line2d_22">
      <g>
       <use xlink:href="#mef89e1d66d" x="47.81" y="38.964077" style="stroke: #000000; stroke-width: 0.8"/>
      </g>
     </g>
     <g id="text_12">
      <!-- 0.4 -->
      <g transform="translate(24.906875 42.763296) scale(0.1 -0.1)">
       <use xlink:href="#DejaVuSans-30"/>
       <use xlink:href="#DejaVuSans-2e" x="63.623047"/>
       <use xlink:href="#DejaVuSans-34" x="95.410156"/>
      </g>
     </g>
    </g>
    <g id="text_13">
     <!-- Pr(no warning and usafe) -->
     <g transform="translate(18.827187 155.042812) rotate(-90) scale(0.1 -0.1)">
      <defs>
       <path id="DejaVuSans-50" d="M 1259 4147 
L 1259 2394 
L 2053 2394 
Q 2494 2394 2734 2622 
Q 2975 2850 2975 3272 
Q 2975 3691 2734 3919 
Q 2494 4147 2053 4147 
L 1259 4147 
z
M 628 4666 
L 2053 4666 
Q 2838 4666 3239 4311 
Q 3641 3956 3641 3272 
Q 3641 2581 3239 2228 
Q 2838 1875 2053 1875 
L 1259 1875 
L 1259 0 
L 628 0 
L 628 4666 
z
" transform="scale(0.015625)"/>
       <path id="DejaVuSans-72" d="M 2631 2963 
Q 2534 3019 2420 3045 
Q 2306 3072 2169 3072 
Q 1681 3072 1420 2755 
Q 1159 2438 1159 1844 
L 1159 0 
L 581 0 
L 581 3500 
L 1159 3500 
L 1159 2956 
Q 1341 3275 1631 3429 
Q 1922 3584 2338 3584 
Q 2397 3584 2469 3576 
Q 2541 3569 2628 3553 
L 2631 2963 
z
" transform="scale(0.015625)"/>
       <path id="DejaVuSans-28" d="M 1984 4856 
Q 1566 4138 1362 3434 
Q 1159 2731 1159 2009 
Q 1159 1288 1364 580 
Q 1569 -128 1984 -844 
L 1484 -844 
Q 1016 -109 783 600 
Q 550 1309 550 2009 
Q 550 2706 781 3412 
Q 1013 4119 1484 4856 
L 1984 4856 
z
" transform="scale(0.015625)"/>
       <path id="DejaVuSans-6e" d="M 3513 2113 
L 3513 0 
L 2938 0 
L 2938 2094 
Q 2938 2591 2744 2837 
Q 2550 3084 2163 3084 
Q 1697 3084 1428 2787 
Q 1159 2491 1159 1978 
L 1159 0 
L 581 0 
L 581 3500 
L 1159 3500 
L 1159 2956 
Q 1366 3272 1645 3428 
Q 1925 3584 2291 3584 
Q 2894 3584 3203 3211 
Q 3513 2838 3513 2113 
z
" transform="scale(0.015625)"/>
       <path id="DejaVuSans-6f" d="M 1959 3097 
Q 1497 3097 1228 2736 
Q 959 2375 959 1747 
Q 959 1119 1226 758 
Q 1494 397 1959 397 
Q 2419 397 2687 759 
Q 2956 1122 2956 1747 
Q 2956 2369 2687 2733 
Q 2419 3097 1959 3097 
z
M 1959 3584 
Q 2709 3584 3137 3096 
Q 3566 2609 3566 1747 
Q 3566 888 3137 398 
Q 2709 -91 1959 -91 
Q 1206 -91 779 398 
Q 353 888 353 1747 
Q 353 2609 779 3096 
Q 1206 3584 1959 3584 
z
" transform="scale(0.015625)"/>
       <path id="DejaVuSans-77" d="M 269 3500 
L 844 3500 
L 1563 769 
L 2278 3500 
L 2956 3500 
L 3675 769 
L 4391 3500 
L 4966 3500 
L 4050 0 
L 3372 0 
L 2619 2869 
L 1863 0 
L 1184 0 
L 269 3500 
z
" transform="scale(0.015625)"/>
       <path id="DejaVuSans-67" d="M 2906 1791 
Q 2906 2416 2648 2759 
Q 2391 3103 1925 3103 
Q 1463 3103 1205 2759 
Q 947 2416 947 1791 
Q 947 1169 1205 825 
Q 1463 481 1925 481 
Q 2391 481 2648 825 
Q 2906 1169 2906 1791 
z
M 3481 434 
Q 3481 -459 3084 -895 
Q 2688 -1331 1869 -1331 
Q 1566 -1331 1297 -1286 
Q 1028 -1241 775 -1147 
L 775 -588 
Q 1028 -725 1275 -790 
Q 1522 -856 1778 -856 
Q 2344 -856 2625 -561 
Q 2906 -266 2906 331 
L 2906 616 
Q 2728 306 2450 153 
Q 2172 0 1784 0 
Q 1141 0 747 490 
Q 353 981 353 1791 
Q 353 2603 747 3093 
Q 1141 3584 1784 3584 
Q 2172 3584 2450 3431 
Q 2728 3278 2906 2969 
L 2906 3500 
L 3481 3500 
L 3481 434 
z
" transform="scale(0.015625)"/>
       <path id="DejaVuSans-64" d="M 2906 2969 
L 2906 4863 
L 3481 4863 
L 3481 0 
L 2906 0 
L 2906 525 
Q 2725 213 2448 61 
Q 2172 -91 1784 -91 
Q 1150 -91 751 415 
Q 353 922 353 1747 
Q 353 2572 751 3078 
Q 1150 3584 1784 3584 
Q 2172 3584 2448 3432 
Q 2725 3281 2906 2969 
z
M 947 1747 
Q 947 1113 1208 752 
Q 1469 391 1925 391 
Q 2381 391 2643 752 
Q 2906 1113 2906 1747 
Q 2906 2381 2643 2742 
Q 2381 3103 1925 3103 
Q 1469 3103 1208 2742 
Q 947 2381 947 1747 
z
" transform="scale(0.015625)"/>
       <path id="DejaVuSans-75" d="M 544 1381 
L 544 3500 
L 1119 3500 
L 1119 1403 
Q 1119 906 1312 657 
Q 1506 409 1894 409 
Q 2359 409 2629 706 
Q 2900 1003 2900 1516 
L 2900 3500 
L 3475 3500 
L 3475 0 
L 2900 0 
L 2900 538 
Q 2691 219 2414 64 
Q 2138 -91 1772 -91 
Q 1169 -91 856 284 
Q 544 659 544 1381 
z
M 1991 3584 
L 1991 3584 
z
" transform="scale(0.015625)"/>
       <path id="DejaVuSans-66" d="M 2375 4863 
L 2375 4384 
L 1825 4384 
Q 1516 4384 1395 4259 
Q 1275 4134 1275 3809 
L 1275 3500 
L 2222 3500 
L 2222 3053 
L 1275 3053 
L 1275 0 
L 697 0 
L 697 3053 
L 147 3053 
L 147 3500 
L 697 3500 
L 697 3744 
Q 697 4328 969 4595 
Q 1241 4863 1831 4863 
L 2375 4863 
z
" transform="scale(0.015625)"/>
       <path id="DejaVuSans-29" d="M 513 4856 
L 1013 4856 
Q 1481 4119 1714 3412 
Q 1947 2706 1947 2009 
Q 1947 1309 1714 600 
Q 1481 -109 1013 -844 
L 513 -844 
Q 928 -128 1133 580 
Q 1338 1288 1338 2009 
Q 1338 2731 1133 3434 
Q 928 4138 513 4856 
z
" transform="scale(0.015625)"/>
      </defs>
      <use xlink:href="#DejaVuSans-50"/>
      <use xlink:href="#DejaVuSans-72" x="58.552734"/>
      <use xlink:href="#DejaVuSans-28" x="99.666016"/>
      <use xlink:href="#DejaVuSans-6e" x="138.679688"/>
      <use xlink:href="#DejaVuSans-6f" x="202.058594"/>
      <use xlink:href="#DejaVuSans-20" x="263.240234"/>
      <use xlink:href="#DejaVuSans-77" x="295.027344"/>
      <use xlink:href="#DejaVuSans-61" x="376.814453"/>
      <use xlink:href="#DejaVuSans-72" x="438.09375"/>
      <use xlink:href="#DejaVuSans-6e" x="477.457031"/>
      <use xlink:href="#DejaVuSans-69" x="540.835938"/>
      <use xlink:href="#DejaVuSans-6e" x="568.619141"/>
      <use xlink:href="#DejaVuSans-67" x="631.998047"/>
      <use xlink:href="#DejaVuSans-20" x="695.474609"/>
      <use xlink:href="#DejaVuSans-61" x="727.261719"/>
      <use xlink:href="#DejaVuSans-6e" x="788.541016"/>
      <use xlink:href="#DejaVuSans-64" x="851.919922"/>
      <use xlink:href="#DejaVuSans-20" x="915.396484"/>
      <use xlink:href="#DejaVuSans-75" x="947.183594"/>
      <use xlink:href="#DejaVuSans-73" x="1010.5625"/>
      <use xlink:href="#DejaVuSans-61" x="1062.662109"/>
      <use xlink:href="#DejaVuSans-66" x="1123.941406"/>
      <use xlink:href="#DejaVuSans-65" x="1159.146484"/>
      <use xlink:href="#DejaVuSans-29" x="1220.669922"/>
     </g>
    </g>
   </g>
   <g id="line2d_23">
    <path d="M 61.243699 160.143445 
L 72.438449 154.228604 
L 83.633198 148.313764 
L 94.827947 142.398923 
L 106.022697 136.484083 
L 117.217446 130.569242 
L 128.412196 124.654402 
L 139.606945 118.739561 
L 150.801694 112.824721 
L 161.996444 106.90988 
L 173.191193 100.99504 
L 184.385943 95.080199 
L 195.580692 89.165359 
L 206.775441 83.250518 
L 217.970191 77.335678 
L 229.16494 71.420837 
L 240.35969 65.505997 
L 251.554439 59.591156 
L 262.749188 53.676316 
L 273.943938 47.761475 
L 285.138687 41.846635 
L 296.333437 35.931794 
L 307.528186 30.016954 
L 318.722935 24.102113 
L 329.917685 18.187273 
" clip-path="url(#pbf9983a8bd)" style="fill: none; stroke: #000000; stroke-width: 2; stroke-linecap: square"/>
   </g>
   <g id="line2d_24">
    <path d="M 61.243699 161.547924 
L 72.438449 158.116339 
L 83.633198 153.731536 
L 94.827947 148.234645 
L 106.022697 142.356466 
L 117.217446 136.891349 
L 128.412196 128.884317 
L 139.606945 122.783721 
L 150.801694 119.352136 
L 161.996444 113.473958 
L 173.191193 106.928527 
L 184.385943 101.46341 
L 195.580692 98.222468 
L 206.775441 90.628498 
L 217.970191 84.718545 
L 229.16494 77.56941 
L 240.35969 72.549128 
L 251.554439 65.62241 
L 262.749188 59.648909 
L 273.943938 52.436226 
L 285.138687 49.576572 
L 296.333437 45.541282 
L 307.528186 39.694877 
L 318.722935 35.882005 
L 329.917685 31.052367 
" clip-path="url(#pbf9983a8bd)" style="fill: none; stroke: #0000ff; stroke-width: 2; stroke-linecap: square"/>
   </g>
   <g id="line2d_25">
    <path d="M 61.243699 159.164879 
L 72.438449 155.923937 
L 83.633198 153.477344 
L 94.827947 150.935429 
L 106.022697 146.677722 
L 117.217446 143.214363 
L 128.412196 136.033453 
L 139.606945 130.059953 
L 150.801694 124.531288 
L 161.996444 114.141211 
L 173.191193 108.676094 
L 184.385943 102.51195 
L 195.580692 98.127147 
L 206.775441 93.647022 
L 217.970191 88.118357 
L 229.16494 80.842125 
L 240.35969 76.806835 
L 251.554439 65.908375 
L 262.749188 63.20759 
L 273.943938 52.976383 
L 285.138687 52.62687 
L 296.333437 41.950827 
L 307.528186 41.760183 
L 318.722935 25.904989 
L 329.917685 25.904989 
" clip-path="url(#pbf9983a8bd)" style="fill: none; stroke: #ff0000; stroke-width: 2; stroke-linecap: square"/>
   </g>
   <g id="line2d_26">
    <path d="M 61.243699 165.932727 
L 72.438449 165.646762 
L 83.633198 165.106605 
L 94.827947 164.725318 
L 106.022697 163.994517 
L 117.217446 163.041299 
L 128.412196 162.278725 
L 139.606945 161.325506 
L 150.801694 160.340514 
L 161.996444 159.133105 
L 173.191193 158.211661 
L 184.385943 156.781834 
L 195.580692 155.38378 
L 206.775441 152.111065 
L 217.970191 149.060767 
L 229.16494 146.264661 
L 240.35969 144.104033 
L 251.554439 139.306168 
L 262.749188 134.857817 
L 273.943938 130.790753 
L 285.138687 127.486264 
L 296.333437 124.213549 
L 307.528186 119.669876 
L 318.722935 114.967333 
L 329.917685 107.977067 
" clip-path="url(#pbf9983a8bd)" style="fill: none; stroke: #008000; stroke-width: 2; stroke-linecap: square"/>
   </g>
   <g id="patch_3">
    <path d="M 47.81 173.32 
L 47.81 10.8 
" style="fill: none; stroke: #000000; stroke-width: 0.8; stroke-linejoin: miter; stroke-linecap: square"/>
   </g>
   <g id="patch_4">
    <path d="M 343.351384 173.32 
L 343.351384 10.8 
" style="fill: none; stroke: #000000; stroke-width: 0.8; stroke-linejoin: miter; stroke-linecap: square"/>
   </g>
   <g id="patch_5">
    <path d="M 47.81 173.32 
L 343.351384 173.32 
" style="fill: none; stroke: #000000; stroke-width: 0.8; stroke-linejoin: miter; stroke-linecap: square"/>
   </g>
   <g id="patch_6">
    <path d="M 47.81 10.8 
L 343.351384 10.8 
" style="fill: none; stroke: #000000; stroke-width: 0.8; stroke-linejoin: miter; stroke-linecap: square"/>
   </g>
   <g id="legend_1">
    <g id="patch_7">
     <path d="M 54.81 77.634375 
L 147.235 77.634375 
Q 149.235 77.634375 149.235 75.634375 
L 149.235 17.8 
Q 149.235 15.8 147.235 15.8 
L 54.81 15.8 
Q 52.81 15.8 52.81 17.8 
L 52.81 75.634375 
Q 52.81 77.634375 54.81 77.634375 
z
" style="fill: #ffffff; opacity: 0.8; stroke: #cccccc; stroke-linejoin: miter"/>
    </g>
    <g id="line2d_27">
     <path d="M 56.81 24 
L 66.81 24 
L 76.81 24 
" style="fill: none; stroke: #000000; stroke-width: 2; stroke-linecap: square"/>
    </g>
    <g id="text_14">
     <!-- Bound: $\epsilon \beta$ -->
     <g transform="translate(84.81 27.5) scale(0.1 -0.1)">
      <defs>
       <path id="DejaVuSans-42" d="M 1259 2228 
L 1259 519 
L 2272 519 
Q 2781 519 3026 730 
Q 3272 941 3272 1375 
Q 3272 1813 3026 2020 
Q 2781 2228 2272 2228 
L 1259 2228 
z
M 1259 4147 
L 1259 2741 
L 2194 2741 
Q 2656 2741 2882 2914 
Q 3109 3088 3109 3444 
Q 3109 3797 2882 3972 
Q 2656 4147 2194 4147 
L 1259 4147 
z
M 628 4666 
L 2241 4666 
Q 2963 4666 3353 4366 
Q 3744 4066 3744 3513 
Q 3744 3084 3544 2831 
Q 3344 2578 2956 2516 
Q 3422 2416 3680 2098 
Q 3938 1781 3938 1306 
Q 3938 681 3513 340 
Q 3088 0 2303 0 
L 628 0 
L 628 4666 
z
" transform="scale(0.015625)"/>
       <path id="DejaVuSans-3a" d="M 750 794 
L 1409 794 
L 1409 0 
L 750 0 
L 750 794 
z
M 750 3309 
L 1409 3309 
L 1409 2516 
L 750 2516 
L 750 3309 
z
" transform="scale(0.015625)"/>
       <path id="DejaVuSans-Oblique-3b2" d="M 872 216 
L 572 -1331 
L -6 -1331 
L 928 3478 
Q 1206 4903 2538 4903 
Q 3888 4903 3659 3700 
Q 3503 2844 2894 2531 
Q 3713 2250 3553 1416 
Q 3272 -69 1759 -66 
Q 1097 -63 872 216 
z
M 1019 966 
Q 1259 422 1875 425 
Q 2775 425 2966 1406 
Q 3138 2288 1675 2219 
L 1778 2750 
Q 2909 2731 3106 3750 
Q 3241 4438 2509 4434 
Q 1691 4434 1503 3459 
L 1019 966 
z
" transform="scale(0.015625)"/>
      </defs>
      <use xlink:href="#DejaVuSans-42" transform="translate(0 0.390625)"/>
      <use xlink:href="#DejaVuSans-6f" transform="translate(68.603516 0.390625)"/>
      <use xlink:href="#DejaVuSans-75" transform="translate(129.785156 0.390625)"/>
      <use xlink:href="#DejaVuSans-6e" transform="translate(193.164062 0.390625)"/>
      <use xlink:href="#DejaVuSans-64" transform="translate(256.542969 0.390625)"/>
      <use xlink:href="#DejaVuSans-3a" transform="translate(320.019531 0.390625)"/>
      <use xlink:href="#DejaVuSans-20" transform="translate(353.710938 0.390625)"/>
      <use xlink:href="#DejaVuSans-Oblique-3b5" transform="translate(385.498047 0.390625)"/>
      <use xlink:href="#DejaVuSans-Oblique-3b2" transform="translate(439.550781 0.390625)"/>
     </g>
    </g>
    <g id="line2d_28">
     <path d="M 56.81 38.698438 
L 76.81 38.698438 
" style="fill: none; stroke: #0000ff; stroke-width: 2; stroke-linecap: square"/>
    </g>
    <g id="line2d_29"/>
    <g id="text_15">
     <!-- Unsafe-Safe -->
     <g transform="translate(84.81 42.198438) scale(0.1 -0.1)">
      <defs>
       <path id="DejaVuSans-55" d="M 556 4666 
L 1191 4666 
L 1191 1831 
Q 1191 1081 1462 751 
Q 1734 422 2344 422 
Q 2950 422 3222 751 
Q 3494 1081 3494 1831 
L 3494 4666 
L 4128 4666 
L 4128 1753 
Q 4128 841 3676 375 
Q 3225 -91 2344 -91 
Q 1459 -91 1007 375 
Q 556 841 556 1753 
L 556 4666 
z
" transform="scale(0.015625)"/>
       <path id="DejaVuSans-2d" d="M 313 2009 
L 1997 2009 
L 1997 1497 
L 313 1497 
L 313 2009 
z
" transform="scale(0.015625)"/>
       <path id="DejaVuSans-53" d="M 3425 4513 
L 3425 3897 
Q 3066 4069 2747 4153 
Q 2428 4238 2131 4238 
Q 1616 4238 1336 4038 
Q 1056 3838 1056 3469 
Q 1056 3159 1242 3001 
Q 1428 2844 1947 2747 
L 2328 2669 
Q 3034 2534 3370 2195 
Q 3706 1856 3706 1288 
Q 3706 609 3251 259 
Q 2797 -91 1919 -91 
Q 1588 -91 1214 -16 
Q 841 59 441 206 
L 441 856 
Q 825 641 1194 531 
Q 1563 422 1919 422 
Q 2459 422 2753 634 
Q 3047 847 3047 1241 
Q 3047 1584 2836 1778 
Q 2625 1972 2144 2069 
L 1759 2144 
Q 1053 2284 737 2584 
Q 422 2884 422 3419 
Q 422 4038 858 4394 
Q 1294 4750 2059 4750 
Q 2388 4750 2728 4690 
Q 3069 4631 3425 4513 
z
" transform="scale(0.015625)"/>
      </defs>
      <use xlink:href="#DejaVuSans-55"/>
      <use xlink:href="#DejaVuSans-6e" x="73.193359"/>
      <use xlink:href="#DejaVuSans-73" x="136.572266"/>
      <use xlink:href="#DejaVuSans-61" x="188.671875"/>
      <use xlink:href="#DejaVuSans-66" x="249.951172"/>
      <use xlink:href="#DejaVuSans-65" x="285.15625"/>
      <use xlink:href="#DejaVuSans-2d" x="346.679688"/>
      <use xlink:href="#DejaVuSans-53" x="382.763672"/>
      <use xlink:href="#DejaVuSans-61" x="446.240234"/>
      <use xlink:href="#DejaVuSans-66" x="507.519531"/>
      <use xlink:href="#DejaVuSans-65" x="542.724609"/>
     </g>
    </g>
    <g id="line2d_30">
     <path d="M 56.81 53.376563 
L 76.81 53.376563 
" style="fill: none; stroke: #ff0000; stroke-width: 2; stroke-linecap: square"/>
    </g>
    <g id="line2d_31"/>
    <g id="text_16">
     <!-- Unsafe -->
     <g transform="translate(84.81 56.876563) scale(0.1 -0.1)">
      <use xlink:href="#DejaVuSans-55"/>
      <use xlink:href="#DejaVuSans-6e" x="73.193359"/>
      <use xlink:href="#DejaVuSans-73" x="136.572266"/>
      <use xlink:href="#DejaVuSans-61" x="188.671875"/>
      <use xlink:href="#DejaVuSans-66" x="249.951172"/>
      <use xlink:href="#DejaVuSans-65" x="285.15625"/>
     </g>
    </g>
    <g id="line2d_32">
     <path d="M 56.81 68.054688 
L 76.81 68.054688 
" style="fill: none; stroke: #008000; stroke-width: 2; stroke-linecap: square"/>
    </g>
    <g id="line2d_33"/>
    <g id="text_17">
     <!-- -Safe -->
     <g transform="translate(84.81 71.554688) scale(0.1 -0.1)">
      <use xlink:href="#DejaVuSans-2d"/>
      <use xlink:href="#DejaVuSans-53" x="36.083984"/>
      <use xlink:href="#DejaVuSans-61" x="99.560547"/>
      <use xlink:href="#DejaVuSans-66" x="160.839844"/>
      <use xlink:href="#DejaVuSans-65" x="196.044922"/>
     </g>
    </g>
   </g>
  </g>
 </g>
 <defs>
  <clipPath id="pbf9983a8bd">
   <rect x="47.81" y="10.8" width="295.541384" height="162.52"/>
  </clipPath>
 </defs>
</svg>
