<?xml version="1.0" encoding="utf-8" standalone="no"?>
<!DOCTYPE svg PUBLIC "-//W3C//DTD SVG 1.1//EN"
  "http://www.w3.org/Graphics/SVG/1.1/DTD/svg11.dtd">
<svg xmlns:xlink="http://www.w3.org/1999/xlink" width="334.31624pt" height="212.353854pt" viewBox="0 0 334.31624 212.353854" xmlns="http://www.w3.org/2000/svg" version="1.1">
 <metadata>
  <rdf:RDF xmlns:dc="http://purl.org/dc/elements/1.1/" xmlns:cc="http://creativecommons.org/ns#" xmlns:rdf="http://www.w3.org/1999/02/22-rdf-syntax-ns#">
   <cc:Work>
    <dc:type rdf:resource="http://purl.org/dc/dcmitype/StillImage"/>
    <dc:date>2024-10-23T06:16:09.673494</dc:date>
    <dc:format>image/svg+xml</dc:format>
    <dc:creator>
     <cc:Agent>
      <dc:title>Matplotlib v3.8.4, https://matplotlib.org/</dc:title>
     </cc:Agent>
    </dc:creator>
   </cc:Work>
  </rdf:RDF>
 </metadata>
 <defs>
  <style type="text/css">*{stroke-linejoin: round; stroke-linecap: butt}</style>
 </defs>
 <g id="figure_1">
  <g id="patch_1">
   <path d="M 0 212.353854 
L 334.31624 212.353854 
L 334.31624 0 
L 0 0 
z
" style="fill: #ffffff"/>
  </g>
  <g id="axes_1">
   <g id="patch_2">
    <path d="M 44.103125 174.797604 
L 323.103125 174.797604 
L 323.103125 8.477604 
L 44.103125 8.477604 
z
" style="fill: #ffffff"/>
   </g>
   <g id="PathCollection_1">
    <defs>
     <path id="mfc1a283778" d="M 0 3 
C 0.795609 3 1.55874 2.683901 2.12132 2.12132 
C 2.683901 1.55874 3 0.795609 3 0 
C 3 -0.795609 2.683901 -1.55874 2.12132 -2.12132 
C 1.55874 -2.683901 0.795609 -3 0 -3 
C -0.795609 -3 -1.55874 -2.683901 -2.12132 -2.12132 
C -2.683901 -1.55874 -3 -0.795609 -3 0 
C -3 0.795609 -2.683901 1.55874 -2.12132 2.12132 
C -1.55874 2.683901 -0.795609 3 0 3 
z
" style="stroke: #0000ff"/>
    </defs>
    <g clip-path="url(#pd247e8575e)">
     <use xlink:href="#mfc1a283778" x="56.784943" y="167.237604" style="fill: #0000ff; stroke: #0000ff"/>
     <use xlink:href="#mfc1a283778" x="65.531025" y="166.196015" style="fill: #0000ff; stroke: #0000ff"/>
     <use xlink:href="#mfc1a283778" x="74.277106" y="164.633631" style="fill: #0000ff; stroke: #0000ff"/>
     <use xlink:href="#mfc1a283778" x="83.023188" y="162.029658" style="fill: #0000ff; stroke: #0000ff"/>
     <use xlink:href="#mfc1a283778" x="91.769269" y="159.425685" style="fill: #0000ff; stroke: #0000ff"/>
     <use xlink:href="#mfc1a283778" x="100.515351" y="157.342507" style="fill: #0000ff; stroke: #0000ff"/>
     <use xlink:href="#mfc1a283778" x="109.261432" y="154.217739" style="fill: #0000ff; stroke: #0000ff"/>
     <use xlink:href="#mfc1a283778" x="118.007514" y="146.926614" style="fill: #0000ff; stroke: #0000ff"/>
     <use xlink:href="#mfc1a283778" x="126.753595" y="144.843436" style="fill: #0000ff; stroke: #0000ff"/>
     <use xlink:href="#mfc1a283778" x="135.499677" y="141.718668" style="fill: #0000ff; stroke: #0000ff"/>
     <use xlink:href="#mfc1a283778" x="144.245758" y="139.63549" style="fill: #0000ff; stroke: #0000ff"/>
     <use xlink:href="#mfc1a283778" x="152.99184" y="136.510722" style="fill: #0000ff; stroke: #0000ff"/>
     <use xlink:href="#mfc1a283778" x="161.737921" y="132.344365" style="fill: #0000ff; stroke: #0000ff"/>
     <use xlink:href="#mfc1a283778" x="170.484003" y="125.574035" style="fill: #0000ff; stroke: #0000ff"/>
     <use xlink:href="#mfc1a283778" x="179.230084" y="117.241321" style="fill: #0000ff; stroke: #0000ff"/>
     <use xlink:href="#mfc1a283778" x="187.976166" y="108.908607" style="fill: #0000ff; stroke: #0000ff"/>
     <use xlink:href="#mfc1a283778" x="196.722247" y="101.096688" style="fill: #0000ff; stroke: #0000ff"/>
     <use xlink:href="#mfc1a283778" x="205.468329" y="96.409536" style="fill: #0000ff; stroke: #0000ff"/>
     <use xlink:href="#mfc1a283778" x="214.21441" y="92.243179" style="fill: #0000ff; stroke: #0000ff"/>
     <use xlink:href="#mfc1a283778" x="222.960492" y="81.827287" style="fill: #0000ff; stroke: #0000ff"/>
     <use xlink:href="#mfc1a283778" x="231.706573" y="78.181725" style="fill: #0000ff; stroke: #0000ff"/>
     <use xlink:href="#mfc1a283778" x="240.452655" y="75.056957" style="fill: #0000ff; stroke: #0000ff"/>
     <use xlink:href="#mfc1a283778" x="249.198736" y="72.452984" style="fill: #0000ff; stroke: #0000ff"/>
     <use xlink:href="#mfc1a283778" x="257.944818" y="68.807421" style="fill: #0000ff; stroke: #0000ff"/>
     <use xlink:href="#mfc1a283778" x="266.690899" y="54.745967" style="fill: #0000ff; stroke: #0000ff"/>
     <use xlink:href="#mfc1a283778" x="275.436981" y="50.57961" style="fill: #0000ff; stroke: #0000ff"/>
     <use xlink:href="#mfc1a283778" x="284.183062" y="43.80928" style="fill: #0000ff; stroke: #0000ff"/>
     <use xlink:href="#mfc1a283778" x="292.929144" y="37.559744" style="fill: #0000ff; stroke: #0000ff"/>
     <use xlink:href="#mfc1a283778" x="301.675225" y="25.581468" style="fill: #0000ff; stroke: #0000ff"/>
     <use xlink:href="#mfc1a283778" x="310.421307" y="25.060673" style="fill: #0000ff; stroke: #0000ff"/>
    </g>
   </g>
   <g id="PathCollection_2">
    <defs>
     <path id="m04d969c7e3" d="M 0 3 
C 0.795609 3 1.55874 2.683901 2.12132 2.12132 
C 2.683901 1.55874 3 0.795609 3 0 
C 3 -0.795609 2.683901 -1.55874 2.12132 -2.12132 
C 1.55874 -2.683901 0.795609 -3 0 -3 
C -0.795609 -3 -1.55874 -2.683901 -2.12132 -2.12132 
C -2.683901 -1.55874 -3 -0.795609 -3 0 
C -3 0.795609 -2.683901 1.55874 -2.12132 2.12132 
C -1.55874 2.683901 -0.795609 3 0 3 
z
" style="stroke: #ff0000"/>
    </defs>
    <g clip-path="url(#pd247e8575e)">
     <use xlink:href="#m04d969c7e3" x="56.784943" y="167.237604" style="fill: #ff0000; stroke: #ff0000"/>
     <use xlink:href="#m04d969c7e3" x="65.531025" y="166.196015" style="fill: #ff0000; stroke: #ff0000"/>
     <use xlink:href="#m04d969c7e3" x="74.277106" y="164.633631" style="fill: #ff0000; stroke: #ff0000"/>
     <use xlink:href="#m04d969c7e3" x="83.023188" y="161.508863" style="fill: #ff0000; stroke: #ff0000"/>
     <use xlink:href="#m04d969c7e3" x="91.769269" y="157.863301" style="fill: #ff0000; stroke: #ff0000"/>
     <use xlink:href="#m04d969c7e3" x="100.515351" y="156.300917" style="fill: #ff0000; stroke: #ff0000"/>
     <use xlink:href="#m04d969c7e3" x="109.261432" y="155.780123" style="fill: #ff0000; stroke: #ff0000"/>
     <use xlink:href="#m04d969c7e3" x="118.007514" y="154.217739" style="fill: #ff0000; stroke: #ff0000"/>
     <use xlink:href="#m04d969c7e3" x="126.753595" y="148.488998" style="fill: #ff0000; stroke: #ff0000"/>
     <use xlink:href="#m04d969c7e3" x="135.499677" y="143.801846" style="fill: #ff0000; stroke: #ff0000"/>
     <use xlink:href="#m04d969c7e3" x="144.245758" y="141.197873" style="fill: #ff0000; stroke: #ff0000"/>
     <use xlink:href="#m04d969c7e3" x="152.99184" y="135.469133" style="fill: #ff0000; stroke: #ff0000"/>
     <use xlink:href="#m04d969c7e3" x="161.737921" y="127.136419" style="fill: #ff0000; stroke: #ff0000"/>
     <use xlink:href="#m04d969c7e3" x="170.484003" y="126.094829" style="fill: #ff0000; stroke: #ff0000"/>
     <use xlink:href="#m04d969c7e3" x="179.230084" y="119.324499" style="fill: #ff0000; stroke: #ff0000"/>
     <use xlink:href="#m04d969c7e3" x="187.976166" y="111.51258" style="fill: #ff0000; stroke: #ff0000"/>
     <use xlink:href="#m04d969c7e3" x="196.722247" y="105.783839" style="fill: #ff0000; stroke: #ff0000"/>
     <use xlink:href="#m04d969c7e3" x="205.468329" y="98.492715" style="fill: #ff0000; stroke: #ff0000"/>
     <use xlink:href="#m04d969c7e3" x="214.21441" y="88.597617" style="fill: #ff0000; stroke: #ff0000"/>
     <use xlink:href="#m04d969c7e3" x="222.960492" y="81.827287" style="fill: #ff0000; stroke: #ff0000"/>
     <use xlink:href="#m04d969c7e3" x="231.706573" y="76.619341" style="fill: #ff0000; stroke: #ff0000"/>
     <use xlink:href="#m04d969c7e3" x="240.452655" y="72.452984" style="fill: #ff0000; stroke: #ff0000"/>
     <use xlink:href="#m04d969c7e3" x="249.198736" y="69.328216" style="fill: #ff0000; stroke: #ff0000"/>
     <use xlink:href="#m04d969c7e3" x="257.944818" y="65.682654" style="fill: #ff0000; stroke: #ff0000"/>
     <use xlink:href="#m04d969c7e3" x="266.690899" y="56.829145" style="fill: #ff0000; stroke: #ff0000"/>
     <use xlink:href="#m04d969c7e3" x="275.436981" y="47.975637" style="fill: #ff0000; stroke: #ff0000"/>
     <use xlink:href="#m04d969c7e3" x="284.183062" y="42.76769" style="fill: #ff0000; stroke: #ff0000"/>
     <use xlink:href="#m04d969c7e3" x="292.929144" y="34.955771" style="fill: #ff0000; stroke: #ff0000"/>
     <use xlink:href="#m04d969c7e3" x="301.675225" y="25.060673" style="fill: #ff0000; stroke: #ff0000"/>
     <use xlink:href="#m04d969c7e3" x="310.421307" y="24.539879" style="fill: #ff0000; stroke: #ff0000"/>
    </g>
   </g>
   <g id="PathCollection_3">
    <defs>
     <path id="mb2cf5e5aef" d="M 0 3 
C 0.795609 3 1.55874 2.683901 2.12132 2.12132 
C 2.683901 1.55874 3 0.795609 3 0 
C 3 -0.795609 2.683901 -1.55874 2.12132 -2.12132 
C 1.55874 -2.683901 0.795609 -3 0 -3 
C -0.795609 -3 -1.55874 -2.683901 -2.12132 -2.12132 
C -2.683901 -1.55874 -3 -0.795609 -3 0 
C -3 0.795609 -2.683901 1.55874 -2.12132 2.12132 
C -1.55874 2.683901 -0.795609 3 0 3 
z
" style="stroke: #008000"/>
    </defs>
    <g clip-path="url(#pd247e8575e)">
     <use xlink:href="#mb2cf5e5aef" x="56.784943" y="167.237604" style="fill: #008000; stroke: #008000"/>
     <use xlink:href="#mb2cf5e5aef" x="65.531025" y="167.237604" style="fill: #008000; stroke: #008000"/>
     <use xlink:href="#mb2cf5e5aef" x="74.277106" y="167.237604" style="fill: #008000; stroke: #008000"/>
     <use xlink:href="#mb2cf5e5aef" x="83.023188" y="167.237604" style="fill: #008000; stroke: #008000"/>
     <use xlink:href="#mb2cf5e5aef" x="91.769269" y="167.237604" style="fill: #008000; stroke: #008000"/>
     <use xlink:href="#mb2cf5e5aef" x="100.515351" y="167.237604" style="fill: #008000; stroke: #008000"/>
     <use xlink:href="#mb2cf5e5aef" x="109.261432" y="167.237604" style="fill: #008000; stroke: #008000"/>
     <use xlink:href="#mb2cf5e5aef" x="118.007514" y="167.237604" style="fill: #008000; stroke: #008000"/>
     <use xlink:href="#mb2cf5e5aef" x="126.753595" y="166.71681" style="fill: #008000; stroke: #008000"/>
     <use xlink:href="#mb2cf5e5aef" x="135.499677" y="166.71681" style="fill: #008000; stroke: #008000"/>
     <use xlink:href="#mb2cf5e5aef" x="144.245758" y="165.67522" style="fill: #008000; stroke: #008000"/>
     <use xlink:href="#mb2cf5e5aef" x="152.99184" y="165.67522" style="fill: #008000; stroke: #008000"/>
     <use xlink:href="#mb2cf5e5aef" x="161.737921" y="164.112837" style="fill: #008000; stroke: #008000"/>
     <use xlink:href="#mb2cf5e5aef" x="170.484003" y="160.467274" style="fill: #008000; stroke: #008000"/>
     <use xlink:href="#mb2cf5e5aef" x="179.230084" y="158.90489" style="fill: #008000; stroke: #008000"/>
     <use xlink:href="#mb2cf5e5aef" x="187.976166" y="151.613766" style="fill: #008000; stroke: #008000"/>
     <use xlink:href="#mb2cf5e5aef" x="196.722247" y="148.488998" style="fill: #008000; stroke: #008000"/>
     <use xlink:href="#mb2cf5e5aef" x="205.468329" y="144.322641" style="fill: #008000; stroke: #008000"/>
     <use xlink:href="#mb2cf5e5aef" x="214.21441" y="141.197873" style="fill: #008000; stroke: #008000"/>
     <use xlink:href="#mb2cf5e5aef" x="222.960492" y="138.5939" style="fill: #008000; stroke: #008000"/>
     <use xlink:href="#mb2cf5e5aef" x="231.706573" y="134.427543" style="fill: #008000; stroke: #008000"/>
     <use xlink:href="#mb2cf5e5aef" x="240.452655" y="129.219597" style="fill: #008000; stroke: #008000"/>
     <use xlink:href="#mb2cf5e5aef" x="249.198736" y="119.845294" style="fill: #008000; stroke: #008000"/>
     <use xlink:href="#mb2cf5e5aef" x="257.944818" y="115.678937" style="fill: #008000; stroke: #008000"/>
     <use xlink:href="#mb2cf5e5aef" x="266.690899" y="103.700661" style="fill: #008000; stroke: #008000"/>
     <use xlink:href="#mb2cf5e5aef" x="275.436981" y="95.367947" style="fill: #008000; stroke: #008000"/>
     <use xlink:href="#mb2cf5e5aef" x="284.183062" y="88.076822" style="fill: #008000; stroke: #008000"/>
     <use xlink:href="#mb2cf5e5aef" x="292.929144" y="67.765832" style="fill: #008000; stroke: #008000"/>
     <use xlink:href="#mb2cf5e5aef" x="301.675225" y="55.787556" style="fill: #008000; stroke: #008000"/>
     <use xlink:href="#mb2cf5e5aef" x="310.421307" y="43.288485" style="fill: #008000; stroke: #008000"/>
    </g>
   </g>
   <g id="PathCollection_4">
    <defs>
     <path id="m513bc3822e" d="M 0 3 
C 0.795609 3 1.55874 2.683901 2.12132 2.12132 
C 2.683901 1.55874 3 0.795609 3 0 
C 3 -0.795609 2.683901 -1.55874 2.12132 -2.12132 
C 1.55874 -2.683901 0.795609 -3 0 -3 
C -0.795609 -3 -1.55874 -2.683901 -2.12132 -2.12132 
C -2.683901 -1.55874 -3 -0.795609 -3 0 
C -3 0.795609 -2.683901 1.55874 -2.12132 2.12132 
C -1.55874 2.683901 -0.795609 3 0 3 
z
" style="stroke: #ffa500"/>
    </defs>
    <g clip-path="url(#pd247e8575e)">
     <use xlink:href="#m513bc3822e" x="56.784943" y="167.237604" style="fill: #ffa500; stroke: #ffa500"/>
     <use xlink:href="#m513bc3822e" x="65.531025" y="166.71681" style="fill: #ffa500; stroke: #ffa500"/>
     <use xlink:href="#m513bc3822e" x="74.277106" y="166.71681" style="fill: #ffa500; stroke: #ffa500"/>
     <use xlink:href="#m513bc3822e" x="83.023188" y="166.71681" style="fill: #ffa500; stroke: #ffa500"/>
     <use xlink:href="#m513bc3822e" x="91.769269" y="166.71681" style="fill: #ffa500; stroke: #ffa500"/>
     <use xlink:href="#m513bc3822e" x="100.515351" y="166.71681" style="fill: #ffa500; stroke: #ffa500"/>
     <use xlink:href="#m513bc3822e" x="109.261432" y="159.94648" style="fill: #ffa500; stroke: #ffa500"/>
     <use xlink:href="#m513bc3822e" x="118.007514" y="156.821712" style="fill: #ffa500; stroke: #ffa500"/>
     <use xlink:href="#m513bc3822e" x="126.753595" y="152.13456" style="fill: #ffa500; stroke: #ffa500"/>
     <use xlink:href="#m513bc3822e" x="135.499677" y="148.488998" style="fill: #ffa500; stroke: #ffa500"/>
     <use xlink:href="#m513bc3822e" x="144.245758" y="146.926614" style="fill: #ffa500; stroke: #ffa500"/>
     <use xlink:href="#m513bc3822e" x="152.99184" y="142.760257" style="fill: #ffa500; stroke: #ffa500"/>
     <use xlink:href="#m513bc3822e" x="161.737921" y="137.552311" style="fill: #ffa500; stroke: #ffa500"/>
     <use xlink:href="#m513bc3822e" x="170.484003" y="129.740392" style="fill: #ffa500; stroke: #ffa500"/>
     <use xlink:href="#m513bc3822e" x="179.230084" y="120.886883" style="fill: #ffa500; stroke: #ffa500"/>
     <use xlink:href="#m513bc3822e" x="187.976166" y="116.720526" style="fill: #ffa500; stroke: #ffa500"/>
     <use xlink:href="#m513bc3822e" x="196.722247" y="113.074964" style="fill: #ffa500; stroke: #ffa500"/>
     <use xlink:href="#m513bc3822e" x="205.468329" y="108.387812" style="fill: #ffa500; stroke: #ffa500"/>
     <use xlink:href="#m513bc3822e" x="214.21441" y="102.659072" style="fill: #ffa500; stroke: #ffa500"/>
     <use xlink:href="#m513bc3822e" x="222.960492" y="99.013509" style="fill: #ffa500; stroke: #ffa500"/>
     <use xlink:href="#m513bc3822e" x="231.706573" y="94.847152" style="fill: #ffa500; stroke: #ffa500"/>
     <use xlink:href="#m513bc3822e" x="240.452655" y="89.639206" style="fill: #ffa500; stroke: #ffa500"/>
     <use xlink:href="#m513bc3822e" x="249.198736" y="85.993644" style="fill: #ffa500; stroke: #ffa500"/>
     <use xlink:href="#m513bc3822e" x="257.944818" y="80.264903" style="fill: #ffa500; stroke: #ffa500"/>
     <use xlink:href="#m513bc3822e" x="266.690899" y="72.973778" style="fill: #ffa500; stroke: #ffa500"/>
     <use xlink:href="#m513bc3822e" x="275.436981" y="66.203448" style="fill: #ffa500; stroke: #ffa500"/>
     <use xlink:href="#m513bc3822e" x="284.183062" y="64.12027" style="fill: #ffa500; stroke: #ffa500"/>
     <use xlink:href="#m513bc3822e" x="292.929144" y="58.391529" style="fill: #ffa500; stroke: #ffa500"/>
     <use xlink:href="#m513bc3822e" x="301.675225" y="50.058815" style="fill: #ffa500; stroke: #ffa500"/>
     <use xlink:href="#m513bc3822e" x="310.421307" y="37.03895" style="fill: #ffa500; stroke: #ffa500"/>
    </g>
   </g>
   <g id="matplotlib.axis_1">
    <g id="xtick_1">
     <g id="line2d_1">
      <path d="M 48.03615 174.797604 
L 48.03615 8.477604 
" clip-path="url(#pd247e8575e)" style="fill: none; stroke: #b0b0b0; stroke-width: 0.8; stroke-linecap: square"/>
     </g>
     <g id="line2d_2">
      <defs>
       <path id="m0ab96ccaaf" d="M 0 0 
L 0 3.5 
" style="stroke: #000000; stroke-width: 0.8"/>
      </defs>
      <g>
       <use xlink:href="#m0ab96ccaaf" x="48.03615" y="174.797604" style="stroke: #000000; stroke-width: 0.8"/>
      </g>
     </g>
     <g id="text_1">
      <!-- 0.0 -->
      <g transform="translate(40.084588 189.396042) scale(0.1 -0.1)">
       <defs>
        <path id="DejaVuSans-30" d="M 2034 4250 
Q 1547 4250 1301 3770 
Q 1056 3291 1056 2328 
Q 1056 1369 1301 889 
Q 1547 409 2034 409 
Q 2525 409 2770 889 
Q 3016 1369 3016 2328 
Q 3016 3291 2770 3770 
Q 2525 4250 2034 4250 
z
M 2034 4750 
Q 2819 4750 3233 4129 
Q 3647 3509 3647 2328 
Q 3647 1150 3233 529 
Q 2819 -91 2034 -91 
Q 1250 -91 836 529 
Q 422 1150 422 2328 
Q 422 3509 836 4129 
Q 1250 4750 2034 4750 
z
" transform="scale(0.015625)"/>
        <path id="DejaVuSans-2e" d="M 684 794 
L 1344 794 
L 1344 0 
L 684 0 
L 684 794 
z
" transform="scale(0.015625)"/>
       </defs>
       <use xlink:href="#DejaVuSans-30"/>
       <use xlink:href="#DejaVuSans-2e" x="63.623047"/>
       <use xlink:href="#DejaVuSans-30" x="95.410156"/>
      </g>
     </g>
    </g>
    <g id="xtick_2">
     <g id="line2d_3">
      <path d="M 102.261856 174.797604 
L 102.261856 8.477604 
" clip-path="url(#pd247e8575e)" style="fill: none; stroke: #b0b0b0; stroke-width: 0.8; stroke-linecap: square"/>
     </g>
     <g id="line2d_4">
      <g>
       <use xlink:href="#m0ab96ccaaf" x="102.261856" y="174.797604" style="stroke: #000000; stroke-width: 0.8"/>
      </g>
     </g>
     <g id="text_2">
      <!-- 0.2 -->
      <g transform="translate(94.310293 189.396042) scale(0.1 -0.1)">
       <defs>
        <path id="DejaVuSans-32" d="M 1228 531 
L 3431 531 
L 3431 0 
L 469 0 
L 469 531 
Q 828 903 1448 1529 
Q 2069 2156 2228 2338 
Q 2531 2678 2651 2914 
Q 2772 3150 2772 3378 
Q 2772 3750 2511 3984 
Q 2250 4219 1831 4219 
Q 1534 4219 1204 4116 
Q 875 4013 500 3803 
L 500 4441 
Q 881 4594 1212 4672 
Q 1544 4750 1819 4750 
Q 2544 4750 2975 4387 
Q 3406 4025 3406 3419 
Q 3406 3131 3298 2873 
Q 3191 2616 2906 2266 
Q 2828 2175 2409 1742 
Q 1991 1309 1228 531 
z
" transform="scale(0.015625)"/>
       </defs>
       <use xlink:href="#DejaVuSans-30"/>
       <use xlink:href="#DejaVuSans-2e" x="63.623047"/>
       <use xlink:href="#DejaVuSans-32" x="95.410156"/>
      </g>
     </g>
    </g>
    <g id="xtick_3">
     <g id="line2d_5">
      <path d="M 156.487561 174.797604 
L 156.487561 8.477604 
" clip-path="url(#pd247e8575e)" style="fill: none; stroke: #b0b0b0; stroke-width: 0.8; stroke-linecap: square"/>
     </g>
     <g id="line2d_6">
      <g>
       <use xlink:href="#m0ab96ccaaf" x="156.487561" y="174.797604" style="stroke: #000000; stroke-width: 0.8"/>
      </g>
     </g>
     <g id="text_3">
      <!-- 0.4 -->
      <g transform="translate(148.535999 189.396042) scale(0.1 -0.1)">
       <defs>
        <path id="DejaVuSans-34" d="M 2419 4116 
L 825 1625 
L 2419 1625 
L 2419 4116 
z
M 2253 4666 
L 3047 4666 
L 3047 1625 
L 3713 1625 
L 3713 1100 
L 3047 1100 
L 3047 0 
L 2419 0 
L 2419 1100 
L 313 1100 
L 313 1709 
L 2253 4666 
z
" transform="scale(0.015625)"/>
       </defs>
       <use xlink:href="#DejaVuSans-30"/>
       <use xlink:href="#DejaVuSans-2e" x="63.623047"/>
       <use xlink:href="#DejaVuSans-34" x="95.410156"/>
      </g>
     </g>
    </g>
    <g id="xtick_4">
     <g id="line2d_7">
      <path d="M 210.713266 174.797604 
L 210.713266 8.477604 
" clip-path="url(#pd247e8575e)" style="fill: none; stroke: #b0b0b0; stroke-width: 0.8; stroke-linecap: square"/>
     </g>
     <g id="line2d_8">
      <g>
       <use xlink:href="#m0ab96ccaaf" x="210.713266" y="174.797604" style="stroke: #000000; stroke-width: 0.8"/>
      </g>
     </g>
     <g id="text_4">
      <!-- 0.6 -->
      <g transform="translate(202.761704 189.396042) scale(0.1 -0.1)">
       <defs>
        <path id="DejaVuSans-36" d="M 2113 2584 
Q 1688 2584 1439 2293 
Q 1191 2003 1191 1497 
Q 1191 994 1439 701 
Q 1688 409 2113 409 
Q 2538 409 2786 701 
Q 3034 994 3034 1497 
Q 3034 2003 2786 2293 
Q 2538 2584 2113 2584 
z
M 3366 4563 
L 3366 3988 
Q 3128 4100 2886 4159 
Q 2644 4219 2406 4219 
Q 1781 4219 1451 3797 
Q 1122 3375 1075 2522 
Q 1259 2794 1537 2939 
Q 1816 3084 2150 3084 
Q 2853 3084 3261 2657 
Q 3669 2231 3669 1497 
Q 3669 778 3244 343 
Q 2819 -91 2113 -91 
Q 1303 -91 875 529 
Q 447 1150 447 2328 
Q 447 3434 972 4092 
Q 1497 4750 2381 4750 
Q 2619 4750 2861 4703 
Q 3103 4656 3366 4563 
z
" transform="scale(0.015625)"/>
       </defs>
       <use xlink:href="#DejaVuSans-30"/>
       <use xlink:href="#DejaVuSans-2e" x="63.623047"/>
       <use xlink:href="#DejaVuSans-36" x="95.410156"/>
      </g>
     </g>
    </g>
    <g id="xtick_5">
     <g id="line2d_9">
      <path d="M 264.938972 174.797604 
L 264.938972 8.477604 
" clip-path="url(#pd247e8575e)" style="fill: none; stroke: #b0b0b0; stroke-width: 0.8; stroke-linecap: square"/>
     </g>
     <g id="line2d_10">
      <g>
       <use xlink:href="#m0ab96ccaaf" x="264.938972" y="174.797604" style="stroke: #000000; stroke-width: 0.8"/>
      </g>
     </g>
     <g id="text_5">
      <!-- 0.8 -->
      <g transform="translate(256.987409 189.396042) scale(0.1 -0.1)">
       <defs>
        <path id="DejaVuSans-38" d="M 2034 2216 
Q 1584 2216 1326 1975 
Q 1069 1734 1069 1313 
Q 1069 891 1326 650 
Q 1584 409 2034 409 
Q 2484 409 2743 651 
Q 3003 894 3003 1313 
Q 3003 1734 2745 1975 
Q 2488 2216 2034 2216 
z
M 1403 2484 
Q 997 2584 770 2862 
Q 544 3141 544 3541 
Q 544 4100 942 4425 
Q 1341 4750 2034 4750 
Q 2731 4750 3128 4425 
Q 3525 4100 3525 3541 
Q 3525 3141 3298 2862 
Q 3072 2584 2669 2484 
Q 3125 2378 3379 2068 
Q 3634 1759 3634 1313 
Q 3634 634 3220 271 
Q 2806 -91 2034 -91 
Q 1263 -91 848 271 
Q 434 634 434 1313 
Q 434 1759 690 2068 
Q 947 2378 1403 2484 
z
M 1172 3481 
Q 1172 3119 1398 2916 
Q 1625 2713 2034 2713 
Q 2441 2713 2670 2916 
Q 2900 3119 2900 3481 
Q 2900 3844 2670 4047 
Q 2441 4250 2034 4250 
Q 1625 4250 1398 4047 
Q 1172 3844 1172 3481 
z
" transform="scale(0.015625)"/>
       </defs>
       <use xlink:href="#DejaVuSans-30"/>
       <use xlink:href="#DejaVuSans-2e" x="63.623047"/>
       <use xlink:href="#DejaVuSans-38" x="95.410156"/>
      </g>
     </g>
    </g>
    <g id="xtick_6">
     <g id="line2d_11">
      <path d="M 319.164677 174.797604 
L 319.164677 8.477604 
" clip-path="url(#pd247e8575e)" style="fill: none; stroke: #b0b0b0; stroke-width: 0.8; stroke-linecap: square"/>
     </g>
     <g id="line2d_12">
      <g>
       <use xlink:href="#m0ab96ccaaf" x="319.164677" y="174.797604" style="stroke: #000000; stroke-width: 0.8"/>
      </g>
     </g>
     <g id="text_6">
      <!-- 1.0 -->
      <g transform="translate(311.213115 189.396042) scale(0.1 -0.1)">
       <defs>
        <path id="DejaVuSans-31" d="M 794 531 
L 1825 531 
L 1825 4091 
L 703 3866 
L 703 4441 
L 1819 4666 
L 2450 4666 
L 2450 531 
L 3481 531 
L 3481 0 
L 794 0 
L 794 531 
z
" transform="scale(0.015625)"/>
       </defs>
       <use xlink:href="#DejaVuSans-31"/>
       <use xlink:href="#DejaVuSans-2e" x="63.623047"/>
       <use xlink:href="#DejaVuSans-30" x="95.410156"/>
      </g>
     </g>
    </g>
    <g id="text_7">
     <!-- Miss Rate $\epsilon$ -->
     <g transform="translate(155.203125 203.074167) scale(0.1 -0.1)">
      <defs>
       <path id="DejaVuSans-4d" d="M 628 4666 
L 1569 4666 
L 2759 1491 
L 3956 4666 
L 4897 4666 
L 4897 0 
L 4281 0 
L 4281 4097 
L 3078 897 
L 2444 897 
L 1241 4097 
L 1241 0 
L 628 0 
L 628 4666 
z
" transform="scale(0.015625)"/>
       <path id="DejaVuSans-69" d="M 603 3500 
L 1178 3500 
L 1178 0 
L 603 0 
L 603 3500 
z
M 603 4863 
L 1178 4863 
L 1178 4134 
L 603 4134 
L 603 4863 
z
" transform="scale(0.015625)"/>
       <path id="DejaVuSans-73" d="M 2834 3397 
L 2834 2853 
Q 2591 2978 2328 3040 
Q 2066 3103 1784 3103 
Q 1356 3103 1142 2972 
Q 928 2841 928 2578 
Q 928 2378 1081 2264 
Q 1234 2150 1697 2047 
L 1894 2003 
Q 2506 1872 2764 1633 
Q 3022 1394 3022 966 
Q 3022 478 2636 193 
Q 2250 -91 1575 -91 
Q 1294 -91 989 -36 
Q 684 19 347 128 
L 347 722 
Q 666 556 975 473 
Q 1284 391 1588 391 
Q 1994 391 2212 530 
Q 2431 669 2431 922 
Q 2431 1156 2273 1281 
Q 2116 1406 1581 1522 
L 1381 1569 
Q 847 1681 609 1914 
Q 372 2147 372 2553 
Q 372 3047 722 3315 
Q 1072 3584 1716 3584 
Q 2034 3584 2315 3537 
Q 2597 3491 2834 3397 
z
" transform="scale(0.015625)"/>
       <path id="DejaVuSans-20" transform="scale(0.015625)"/>
       <path id="DejaVuSans-52" d="M 2841 2188 
Q 3044 2119 3236 1894 
Q 3428 1669 3622 1275 
L 4263 0 
L 3584 0 
L 2988 1197 
Q 2756 1666 2539 1819 
Q 2322 1972 1947 1972 
L 1259 1972 
L 1259 0 
L 628 0 
L 628 4666 
L 2053 4666 
Q 2853 4666 3247 4331 
Q 3641 3997 3641 3322 
Q 3641 2881 3436 2590 
Q 3231 2300 2841 2188 
z
M 1259 4147 
L 1259 2491 
L 2053 2491 
Q 2509 2491 2742 2702 
Q 2975 2913 2975 3322 
Q 2975 3731 2742 3939 
Q 2509 4147 2053 4147 
L 1259 4147 
z
" transform="scale(0.015625)"/>
       <path id="DejaVuSans-61" d="M 2194 1759 
Q 1497 1759 1228 1600 
Q 959 1441 959 1056 
Q 959 750 1161 570 
Q 1363 391 1709 391 
Q 2188 391 2477 730 
Q 2766 1069 2766 1631 
L 2766 1759 
L 2194 1759 
z
M 3341 1997 
L 3341 0 
L 2766 0 
L 2766 531 
Q 2569 213 2275 61 
Q 1981 -91 1556 -91 
Q 1019 -91 701 211 
Q 384 513 384 1019 
Q 384 1609 779 1909 
Q 1175 2209 1959 2209 
L 2766 2209 
L 2766 2266 
Q 2766 2663 2505 2880 
Q 2244 3097 1772 3097 
Q 1472 3097 1187 3025 
Q 903 2953 641 2809 
L 641 3341 
Q 956 3463 1253 3523 
Q 1550 3584 1831 3584 
Q 2591 3584 2966 3190 
Q 3341 2797 3341 1997 
z
" transform="scale(0.015625)"/>
       <path id="DejaVuSans-74" d="M 1172 4494 
L 1172 3500 
L 2356 3500 
L 2356 3053 
L 1172 3053 
L 1172 1153 
Q 1172 725 1289 603 
Q 1406 481 1766 481 
L 2356 481 
L 2356 0 
L 1766 0 
Q 1100 0 847 248 
Q 594 497 594 1153 
L 594 3053 
L 172 3053 
L 172 3500 
L 594 3500 
L 594 4494 
L 1172 4494 
z
" transform="scale(0.015625)"/>
       <path id="DejaVuSans-65" d="M 3597 1894 
L 3597 1613 
L 953 1613 
Q 991 1019 1311 708 
Q 1631 397 2203 397 
Q 2534 397 2845 478 
Q 3156 559 3463 722 
L 3463 178 
Q 3153 47 2828 -22 
Q 2503 -91 2169 -91 
Q 1331 -91 842 396 
Q 353 884 353 1716 
Q 353 2575 817 3079 
Q 1281 3584 2069 3584 
Q 2775 3584 3186 3129 
Q 3597 2675 3597 1894 
z
M 3022 2063 
Q 3016 2534 2758 2815 
Q 2500 3097 2075 3097 
Q 1594 3097 1305 2825 
Q 1016 2553 972 2059 
L 3022 2063 
z
" transform="scale(0.015625)"/>
       <path id="DejaVuSans-Oblique-3b5" d="M 1263 1888 
Q 925 1963 778 2166 
Q 669 2309 669 2503 
Q 669 3034 1175 3344 
Q 1575 3588 2188 3588 
Q 2425 3588 2684 3550 
Q 2944 3513 3234 3438 
L 3134 2916 
Q 2847 3006 2606 3047 
Q 2359 3088 2138 3088 
Q 1766 3088 1522 2944 
Q 1228 2772 1228 2522 
Q 1228 2356 1381 2241 
Q 1563 2103 1925 2103 
L 2409 2103 
L 2319 1628 
L 1856 1628 
Q 1425 1628 1172 1469 
Q 828 1253 828 916 
Q 828 703 1013 563 
Q 1244 388 1716 388 
Q 2006 388 2284 444 
Q 2563 503 2806 619 
L 2700 84 
Q 2403 -3 2131 -47 
Q 1859 -91 1609 -91 
Q 866 -91 516 194 
Q 250 413 250 781 
Q 250 1278 600 1584 
Q 859 1813 1263 1888 
z
" transform="scale(0.015625)"/>
      </defs>
      <use xlink:href="#DejaVuSans-4d" transform="translate(0 0.015625)"/>
      <use xlink:href="#DejaVuSans-69" transform="translate(86.279297 0.015625)"/>
      <use xlink:href="#DejaVuSans-73" transform="translate(114.0625 0.015625)"/>
      <use xlink:href="#DejaVuSans-73" transform="translate(166.162109 0.015625)"/>
      <use xlink:href="#DejaVuSans-20" transform="translate(218.261719 0.015625)"/>
      <use xlink:href="#DejaVuSans-52" transform="translate(250.048828 0.015625)"/>
      <use xlink:href="#DejaVuSans-61" transform="translate(319.53125 0.015625)"/>
      <use xlink:href="#DejaVuSans-74" transform="translate(380.810547 0.015625)"/>
      <use xlink:href="#DejaVuSans-65" transform="translate(420.019531 0.015625)"/>
      <use xlink:href="#DejaVuSans-20" transform="translate(481.542969 0.015625)"/>
      <use xlink:href="#DejaVuSans-Oblique-3b5" transform="translate(513.330078 0.015625)"/>
     </g>
    </g>
   </g>
   <g id="matplotlib.axis_2">
    <g id="ytick_1">
     <g id="line2d_13">
      <path d="M 44.103125 167.237604 
L 323.103125 167.237604 
" clip-path="url(#pd247e8575e)" style="fill: none; stroke: #b0b0b0; stroke-width: 0.8; stroke-linecap: square"/>
     </g>
     <g id="line2d_14">
      <defs>
       <path id="m2bf9ada37a" d="M 0 0 
L -3.5 0 
" style="stroke: #000000; stroke-width: 0.8"/>
      </defs>
      <g>
       <use xlink:href="#m2bf9ada37a" x="44.103125" y="167.237604" style="stroke: #000000; stroke-width: 0.8"/>
      </g>
     </g>
     <g id="text_8">
      <!-- 0.0 -->
      <g transform="translate(21.2 171.036823) scale(0.1 -0.1)">
       <use xlink:href="#DejaVuSans-30"/>
       <use xlink:href="#DejaVuSans-2e" x="63.623047"/>
       <use xlink:href="#DejaVuSans-30" x="95.410156"/>
      </g>
     </g>
    </g>
    <g id="ytick_2">
     <g id="line2d_15">
      <path d="M 44.103125 135.989927 
L 323.103125 135.989927 
" clip-path="url(#pd247e8575e)" style="fill: none; stroke: #b0b0b0; stroke-width: 0.8; stroke-linecap: square"/>
     </g>
     <g id="line2d_16">
      <g>
       <use xlink:href="#m2bf9ada37a" x="44.103125" y="135.989927" style="stroke: #000000; stroke-width: 0.8"/>
      </g>
     </g>
     <g id="text_9">
      <!-- 0.2 -->
      <g transform="translate(21.2 139.789146) scale(0.1 -0.1)">
       <use xlink:href="#DejaVuSans-30"/>
       <use xlink:href="#DejaVuSans-2e" x="63.623047"/>
       <use xlink:href="#DejaVuSans-32" x="95.410156"/>
      </g>
     </g>
    </g>
    <g id="ytick_3">
     <g id="line2d_17">
      <path d="M 44.103125 104.74225 
L 323.103125 104.74225 
" clip-path="url(#pd247e8575e)" style="fill: none; stroke: #b0b0b0; stroke-width: 0.8; stroke-linecap: square"/>
     </g>
     <g id="line2d_18">
      <g>
       <use xlink:href="#m2bf9ada37a" x="44.103125" y="104.74225" style="stroke: #000000; stroke-width: 0.8"/>
      </g>
     </g>
     <g id="text_10">
      <!-- 0.4 -->
      <g transform="translate(21.2 108.541469) scale(0.1 -0.1)">
       <use xlink:href="#DejaVuSans-30"/>
       <use xlink:href="#DejaVuSans-2e" x="63.623047"/>
       <use xlink:href="#DejaVuSans-34" x="95.410156"/>
      </g>
     </g>
    </g>
    <g id="ytick_4">
     <g id="line2d_19">
      <path d="M 44.103125 73.494573 
L 323.103125 73.494573 
" clip-path="url(#pd247e8575e)" style="fill: none; stroke: #b0b0b0; stroke-width: 0.8; stroke-linecap: square"/>
     </g>
     <g id="line2d_20">
      <g>
       <use xlink:href="#m2bf9ada37a" x="44.103125" y="73.494573" style="stroke: #000000; stroke-width: 0.8"/>
      </g>
     </g>
     <g id="text_11">
      <!-- 0.6 -->
      <g transform="translate(21.2 77.293792) scale(0.1 -0.1)">
       <use xlink:href="#DejaVuSans-30"/>
       <use xlink:href="#DejaVuSans-2e" x="63.623047"/>
       <use xlink:href="#DejaVuSans-36" x="95.410156"/>
      </g>
     </g>
    </g>
    <g id="ytick_5">
     <g id="line2d_21">
      <path d="M 44.103125 42.246896 
L 323.103125 42.246896 
" clip-path="url(#pd247e8575e)" style="fill: none; stroke: #b0b0b0; stroke-width: 0.8; stroke-linecap: square"/>
     </g>
     <g id="line2d_22">
      <g>
       <use xlink:href="#m2bf9ada37a" x="44.103125" y="42.246896" style="stroke: #000000; stroke-width: 0.8"/>
      </g>
     </g>
     <g id="text_12">
      <!-- 0.8 -->
      <g transform="translate(21.2 46.046115) scale(0.1 -0.1)">
       <use xlink:href="#DejaVuSans-30"/>
       <use xlink:href="#DejaVuSans-2e" x="63.623047"/>
       <use xlink:href="#DejaVuSans-38" x="95.410156"/>
      </g>
     </g>
    </g>
    <g id="ytick_6">
     <g id="line2d_23">
      <path d="M 44.103125 10.999219 
L 323.103125 10.999219 
" clip-path="url(#pd247e8575e)" style="fill: none; stroke: #b0b0b0; stroke-width: 0.8; stroke-linecap: square"/>
     </g>
     <g id="line2d_24">
      <g>
       <use xlink:href="#m2bf9ada37a" x="44.103125" y="10.999219" style="stroke: #000000; stroke-width: 0.8"/>
      </g>
     </g>
     <g id="text_13">
      <!-- 1.0 -->
      <g transform="translate(21.2 14.798437) scale(0.1 -0.1)">
       <use xlink:href="#DejaVuSans-31"/>
       <use xlink:href="#DejaVuSans-2e" x="63.623047"/>
       <use xlink:href="#DejaVuSans-30" x="95.410156"/>
      </g>
     </g>
    </g>
    <g id="text_14">
     <!-- Pr(no warning | unsafe) -->
     <g transform="translate(14.842187 150.066511) rotate(-90) scale(0.1 -0.1)">
      <defs>
       <path id="DejaVuSans-50" d="M 1259 4147 
L 1259 2394 
L 2053 2394 
Q 2494 2394 2734 2622 
Q 2975 2850 2975 3272 
Q 2975 3691 2734 3919 
Q 2494 4147 2053 4147 
L 1259 4147 
z
M 628 4666 
L 2053 4666 
Q 2838 4666 3239 4311 
Q 3641 3956 3641 3272 
Q 3641 2581 3239 2228 
Q 2838 1875 2053 1875 
L 1259 1875 
L 1259 0 
L 628 0 
L 628 4666 
z
" transform="scale(0.015625)"/>
       <path id="DejaVuSans-72" d="M 2631 2963 
Q 2534 3019 2420 3045 
Q 2306 3072 2169 3072 
Q 1681 3072 1420 2755 
Q 1159 2438 1159 1844 
L 1159 0 
L 581 0 
L 581 3500 
L 1159 3500 
L 1159 2956 
Q 1341 3275 1631 3429 
Q 1922 3584 2338 3584 
Q 2397 3584 2469 3576 
Q 2541 3569 2628 3553 
L 2631 2963 
z
" transform="scale(0.015625)"/>
       <path id="DejaVuSans-28" d="M 1984 4856 
Q 1566 4138 1362 3434 
Q 1159 2731 1159 2009 
Q 1159 1288 1364 580 
Q 1569 -128 1984 -844 
L 1484 -844 
Q 1016 -109 783 600 
Q 550 1309 550 2009 
Q 550 2706 781 3412 
Q 1013 4119 1484 4856 
L 1984 4856 
z
" transform="scale(0.015625)"/>
       <path id="DejaVuSans-6e" d="M 3513 2113 
L 3513 0 
L 2938 0 
L 2938 2094 
Q 2938 2591 2744 2837 
Q 2550 3084 2163 3084 
Q 1697 3084 1428 2787 
Q 1159 2491 1159 1978 
L 1159 0 
L 581 0 
L 581 3500 
L 1159 3500 
L 1159 2956 
Q 1366 3272 1645 3428 
Q 1925 3584 2291 3584 
Q 2894 3584 3203 3211 
Q 3513 2838 3513 2113 
z
" transform="scale(0.015625)"/>
       <path id="DejaVuSans-6f" d="M 1959 3097 
Q 1497 3097 1228 2736 
Q 959 2375 959 1747 
Q 959 1119 1226 758 
Q 1494 397 1959 397 
Q 2419 397 2687 759 
Q 2956 1122 2956 1747 
Q 2956 2369 2687 2733 
Q 2419 3097 1959 3097 
z
M 1959 3584 
Q 2709 3584 3137 3096 
Q 3566 2609 3566 1747 
Q 3566 888 3137 398 
Q 2709 -91 1959 -91 
Q 1206 -91 779 398 
Q 353 888 353 1747 
Q 353 2609 779 3096 
Q 1206 3584 1959 3584 
z
" transform="scale(0.015625)"/>
       <path id="DejaVuSans-77" d="M 269 3500 
L 844 3500 
L 1563 769 
L 2278 3500 
L 2956 3500 
L 3675 769 
L 4391 3500 
L 4966 3500 
L 4050 0 
L 3372 0 
L 2619 2869 
L 1863 0 
L 1184 0 
L 269 3500 
z
" transform="scale(0.015625)"/>
       <path id="DejaVuSans-67" d="M 2906 1791 
Q 2906 2416 2648 2759 
Q 2391 3103 1925 3103 
Q 1463 3103 1205 2759 
Q 947 2416 947 1791 
Q 947 1169 1205 825 
Q 1463 481 1925 481 
Q 2391 481 2648 825 
Q 2906 1169 2906 1791 
z
M 3481 434 
Q 3481 -459 3084 -895 
Q 2688 -1331 1869 -1331 
Q 1566 -1331 1297 -1286 
Q 1028 -1241 775 -1147 
L 775 -588 
Q 1028 -725 1275 -790 
Q 1522 -856 1778 -856 
Q 2344 -856 2625 -561 
Q 2906 -266 2906 331 
L 2906 616 
Q 2728 306 2450 153 
Q 2172 0 1784 0 
Q 1141 0 747 490 
Q 353 981 353 1791 
Q 353 2603 747 3093 
Q 1141 3584 1784 3584 
Q 2172 3584 2450 3431 
Q 2728 3278 2906 2969 
L 2906 3500 
L 3481 3500 
L 3481 434 
z
" transform="scale(0.015625)"/>
       <path id="DejaVuSans-7c" d="M 1344 4891 
L 1344 -1509 
L 813 -1509 
L 813 4891 
L 1344 4891 
z
" transform="scale(0.015625)"/>
       <path id="DejaVuSans-75" d="M 544 1381 
L 544 3500 
L 1119 3500 
L 1119 1403 
Q 1119 906 1312 657 
Q 1506 409 1894 409 
Q 2359 409 2629 706 
Q 2900 1003 2900 1516 
L 2900 3500 
L 3475 3500 
L 3475 0 
L 2900 0 
L 2900 538 
Q 2691 219 2414 64 
Q 2138 -91 1772 -91 
Q 1169 -91 856 284 
Q 544 659 544 1381 
z
M 1991 3584 
L 1991 3584 
z
" transform="scale(0.015625)"/>
       <path id="DejaVuSans-66" d="M 2375 4863 
L 2375 4384 
L 1825 4384 
Q 1516 4384 1395 4259 
Q 1275 4134 1275 3809 
L 1275 3500 
L 2222 3500 
L 2222 3053 
L 1275 3053 
L 1275 0 
L 697 0 
L 697 3053 
L 147 3053 
L 147 3500 
L 697 3500 
L 697 3744 
Q 697 4328 969 4595 
Q 1241 4863 1831 4863 
L 2375 4863 
z
" transform="scale(0.015625)"/>
       <path id="DejaVuSans-29" d="M 513 4856 
L 1013 4856 
Q 1481 4119 1714 3412 
Q 1947 2706 1947 2009 
Q 1947 1309 1714 600 
Q 1481 -109 1013 -844 
L 513 -844 
Q 928 -128 1133 580 
Q 1338 1288 1338 2009 
Q 1338 2731 1133 3434 
Q 928 4138 513 4856 
z
" transform="scale(0.015625)"/>
      </defs>
      <use xlink:href="#DejaVuSans-50"/>
      <use xlink:href="#DejaVuSans-72" x="58.552734"/>
      <use xlink:href="#DejaVuSans-28" x="99.666016"/>
      <use xlink:href="#DejaVuSans-6e" x="138.679688"/>
      <use xlink:href="#DejaVuSans-6f" x="202.058594"/>
      <use xlink:href="#DejaVuSans-20" x="263.240234"/>
      <use xlink:href="#DejaVuSans-77" x="295.027344"/>
      <use xlink:href="#DejaVuSans-61" x="376.814453"/>
      <use xlink:href="#DejaVuSans-72" x="438.09375"/>
      <use xlink:href="#DejaVuSans-6e" x="477.457031"/>
      <use xlink:href="#DejaVuSans-69" x="540.835938"/>
      <use xlink:href="#DejaVuSans-6e" x="568.619141"/>
      <use xlink:href="#DejaVuSans-67" x="631.998047"/>
      <use xlink:href="#DejaVuSans-20" x="695.474609"/>
      <use xlink:href="#DejaVuSans-7c" x="727.261719"/>
      <use xlink:href="#DejaVuSans-20" x="760.953125"/>
      <use xlink:href="#DejaVuSans-75" x="792.740234"/>
      <use xlink:href="#DejaVuSans-6e" x="856.119141"/>
      <use xlink:href="#DejaVuSans-73" x="919.498047"/>
      <use xlink:href="#DejaVuSans-61" x="971.597656"/>
      <use xlink:href="#DejaVuSans-66" x="1032.876953"/>
      <use xlink:href="#DejaVuSans-65" x="1068.082031"/>
      <use xlink:href="#DejaVuSans-29" x="1129.605469"/>
     </g>
    </g>
   </g>
   <g id="line2d_25">
    <path d="M 56.784943 162.196094 
L 65.531025 157.156146 
L 74.277106 152.116198 
L 83.023188 147.07625 
L 91.769269 142.036302 
L 100.515351 136.996354 
L 109.261432 131.956406 
L 118.007514 126.916459 
L 126.753595 121.876511 
L 135.499677 116.836563 
L 144.245758 111.796615 
L 152.99184 106.756667 
L 161.737921 101.716719 
L 170.484003 96.676771 
L 179.230084 91.636823 
L 187.976166 86.596875 
L 196.722247 81.556927 
L 205.468329 76.516979 
L 214.21441 71.477031 
L 222.960492 66.437083 
L 231.706573 61.397136 
L 240.452655 56.357188 
L 249.198736 51.31724 
L 257.944818 46.277292 
L 266.690899 41.237344 
L 275.436981 36.197396 
L 284.183062 31.157448 
L 292.929144 26.1175 
L 301.675225 21.077552 
L 310.421307 16.037604 
" clip-path="url(#pd247e8575e)" style="fill: none; stroke: #000000; stroke-width: 2; stroke-linecap: square"/>
   </g>
   <g id="line2d_26">
    <path d="M 56.784943 167.237604 
L 65.531025 166.196015 
L 74.277106 164.633631 
L 83.023188 162.029658 
L 91.769269 159.425685 
L 100.515351 157.342507 
L 109.261432 154.217739 
L 118.007514 146.926614 
L 126.753595 144.843436 
L 135.499677 141.718668 
L 144.245758 139.63549 
L 152.99184 136.510722 
L 161.737921 132.344365 
L 170.484003 125.574035 
L 179.230084 117.241321 
L 187.976166 108.908607 
L 196.722247 101.096688 
L 205.468329 96.409536 
L 214.21441 92.243179 
L 222.960492 81.827287 
L 231.706573 78.181725 
L 240.452655 75.056957 
L 249.198736 72.452984 
L 257.944818 68.807421 
L 266.690899 54.745967 
L 275.436981 50.57961 
L 284.183062 43.80928 
L 292.929144 37.559744 
L 301.675225 25.581468 
L 310.421307 25.060673 
" clip-path="url(#pd247e8575e)" style="fill: none; stroke: #0000ff; stroke-width: 2; stroke-linecap: square"/>
   </g>
   <g id="line2d_27">
    <path d="M 56.784943 167.237604 
L 65.531025 166.196015 
L 74.277106 164.633631 
L 83.023188 161.508863 
L 91.769269 157.863301 
L 100.515351 156.300917 
L 109.261432 155.780123 
L 118.007514 154.217739 
L 126.753595 148.488998 
L 135.499677 143.801846 
L 144.245758 141.197873 
L 152.99184 135.469133 
L 161.737921 127.136419 
L 170.484003 126.094829 
L 179.230084 119.324499 
L 187.976166 111.51258 
L 196.722247 105.783839 
L 205.468329 98.492715 
L 214.21441 88.597617 
L 222.960492 81.827287 
L 231.706573 76.619341 
L 240.452655 72.452984 
L 249.198736 69.328216 
L 257.944818 65.682654 
L 266.690899 56.829145 
L 275.436981 47.975637 
L 284.183062 42.76769 
L 292.929144 34.955771 
L 301.675225 25.060673 
L 310.421307 24.539879 
" clip-path="url(#pd247e8575e)" style="fill: none; stroke: #ff0000; stroke-width: 2; stroke-linecap: square"/>
   </g>
   <g id="line2d_28">
    <path d="M 56.784943 167.237604 
L 65.531025 167.237604 
L 74.277106 167.237604 
L 83.023188 167.237604 
L 91.769269 167.237604 
L 100.515351 167.237604 
L 109.261432 167.237604 
L 118.007514 167.237604 
L 126.753595 166.71681 
L 135.499677 166.71681 
L 144.245758 165.67522 
L 152.99184 165.67522 
L 161.737921 164.112837 
L 170.484003 160.467274 
L 179.230084 158.90489 
L 187.976166 151.613766 
L 196.722247 148.488998 
L 205.468329 144.322641 
L 214.21441 141.197873 
L 222.960492 138.5939 
L 231.706573 134.427543 
L 240.452655 129.219597 
L 249.198736 119.845294 
L 257.944818 115.678937 
L 266.690899 103.700661 
L 275.436981 95.367947 
L 284.183062 88.076822 
L 292.929144 67.765832 
L 301.675225 55.787556 
L 310.421307 43.288485 
" clip-path="url(#pd247e8575e)" style="fill: none; stroke: #008000; stroke-width: 2; stroke-linecap: square"/>
   </g>
   <g id="line2d_29">
    <path d="M 56.784943 167.237604 
L 65.531025 166.71681 
L 74.277106 166.71681 
L 83.023188 166.71681 
L 91.769269 166.71681 
L 100.515351 166.71681 
L 109.261432 159.94648 
L 118.007514 156.821712 
L 126.753595 152.13456 
L 135.499677 148.488998 
L 144.245758 146.926614 
L 152.99184 142.760257 
L 161.737921 137.552311 
L 170.484003 129.740392 
L 179.230084 120.886883 
L 187.976166 116.720526 
L 196.722247 113.074964 
L 205.468329 108.387812 
L 214.21441 102.659072 
L 222.960492 99.013509 
L 231.706573 94.847152 
L 240.452655 89.639206 
L 249.198736 85.993644 
L 257.944818 80.264903 
L 266.690899 72.973778 
L 275.436981 66.203448 
L 284.183062 64.12027 
L 292.929144 58.391529 
L 301.675225 50.058815 
L 310.421307 37.03895 
" clip-path="url(#pd247e8575e)" style="fill: none; stroke: #ffa500; stroke-width: 2; stroke-linecap: square"/>
   </g>
   <g id="patch_3">
    <path d="M 44.103125 174.797604 
L 44.103125 8.477604 
" style="fill: none; stroke: #000000; stroke-width: 0.8; stroke-linejoin: miter; stroke-linecap: square"/>
   </g>
   <g id="patch_4">
    <path d="M 323.103125 174.797604 
L 323.103125 8.477604 
" style="fill: none; stroke: #000000; stroke-width: 0.8; stroke-linejoin: miter; stroke-linecap: square"/>
   </g>
   <g id="patch_5">
    <path d="M 44.103125 174.797604 
L 323.103125 174.797604 
" style="fill: none; stroke: #000000; stroke-width: 0.8; stroke-linejoin: miter; stroke-linecap: square"/>
   </g>
   <g id="patch_6">
    <path d="M 44.103125 8.477604 
L 323.103125 8.477604 
" style="fill: none; stroke: #000000; stroke-width: 0.8; stroke-linejoin: miter; stroke-linecap: square"/>
   </g>
   <g id="legend_1">
    <g id="patch_7">
     <path d="M 51.103125 89.868229 
L 127.103125 89.868229 
Q 129.103125 89.868229 129.103125 87.868229 
L 129.103125 15.477604 
Q 129.103125 13.477604 127.103125 13.477604 
L 51.103125 13.477604 
Q 49.103125 13.477604 49.103125 15.477604 
L 49.103125 87.868229 
Q 49.103125 89.868229 51.103125 89.868229 
z
" style="fill: #ffffff; opacity: 0.8; stroke: #cccccc; stroke-linejoin: miter"/>
    </g>
    <g id="line2d_30">
     <path d="M 53.103125 21.576042 
L 63.103125 21.576042 
L 73.103125 21.576042 
" style="fill: none; stroke: #000000; stroke-width: 2; stroke-linecap: square"/>
    </g>
    <g id="text_15">
     <!-- Bound: $\epsilon$ -->
     <g transform="translate(81.103125 25.076042) scale(0.1 -0.1)">
      <defs>
       <path id="DejaVuSans-42" d="M 1259 2228 
L 1259 519 
L 2272 519 
Q 2781 519 3026 730 
Q 3272 941 3272 1375 
Q 3272 1813 3026 2020 
Q 2781 2228 2272 2228 
L 1259 2228 
z
M 1259 4147 
L 1259 2741 
L 2194 2741 
Q 2656 2741 2882 2914 
Q 3109 3088 3109 3444 
Q 3109 3797 2882 3972 
Q 2656 4147 2194 4147 
L 1259 4147 
z
M 628 4666 
L 2241 4666 
Q 2963 4666 3353 4366 
Q 3744 4066 3744 3513 
Q 3744 3084 3544 2831 
Q 3344 2578 2956 2516 
Q 3422 2416 3680 2098 
Q 3938 1781 3938 1306 
Q 3938 681 3513 340 
Q 3088 0 2303 0 
L 628 0 
L 628 4666 
z
" transform="scale(0.015625)"/>
       <path id="DejaVuSans-64" d="M 2906 2969 
L 2906 4863 
L 3481 4863 
L 3481 0 
L 2906 0 
L 2906 525 
Q 2725 213 2448 61 
Q 2172 -91 1784 -91 
Q 1150 -91 751 415 
Q 353 922 353 1747 
Q 353 2572 751 3078 
Q 1150 3584 1784 3584 
Q 2172 3584 2448 3432 
Q 2725 3281 2906 2969 
z
M 947 1747 
Q 947 1113 1208 752 
Q 1469 391 1925 391 
Q 2381 391 2643 752 
Q 2906 1113 2906 1747 
Q 2906 2381 2643 2742 
Q 2381 3103 1925 3103 
Q 1469 3103 1208 2742 
Q 947 2381 947 1747 
z
" transform="scale(0.015625)"/>
       <path id="DejaVuSans-3a" d="M 750 794 
L 1409 794 
L 1409 0 
L 750 0 
L 750 794 
z
M 750 3309 
L 1409 3309 
L 1409 2516 
L 750 2516 
L 750 3309 
z
" transform="scale(0.015625)"/>
      </defs>
      <use xlink:href="#DejaVuSans-42" transform="translate(0 0.015625)"/>
      <use xlink:href="#DejaVuSans-6f" transform="translate(68.603516 0.015625)"/>
      <use xlink:href="#DejaVuSans-75" transform="translate(129.785156 0.015625)"/>
      <use xlink:href="#DejaVuSans-6e" transform="translate(193.164062 0.015625)"/>
      <use xlink:href="#DejaVuSans-64" transform="translate(256.542969 0.015625)"/>
      <use xlink:href="#DejaVuSans-3a" transform="translate(320.019531 0.015625)"/>
      <use xlink:href="#DejaVuSans-20" transform="translate(353.710938 0.015625)"/>
      <use xlink:href="#DejaVuSans-Oblique-3b5" transform="translate(385.498047 0.015625)"/>
     </g>
    </g>
    <g id="line2d_31">
     <path d="M 53.103125 36.254167 
L 73.103125 36.254167 
" style="fill: none; stroke: #0000ff; stroke-width: 2; stroke-linecap: square"/>
    </g>
    <g id="line2d_32"/>
    <g id="text_16">
     <!-- PCA -->
     <g transform="translate(81.103125 39.754167) scale(0.1 -0.1)">
      <defs>
       <path id="DejaVuSans-43" d="M 4122 4306 
L 4122 3641 
Q 3803 3938 3442 4084 
Q 3081 4231 2675 4231 
Q 1875 4231 1450 3742 
Q 1025 3253 1025 2328 
Q 1025 1406 1450 917 
Q 1875 428 2675 428 
Q 3081 428 3442 575 
Q 3803 722 4122 1019 
L 4122 359 
Q 3791 134 3420 21 
Q 3050 -91 2638 -91 
Q 1578 -91 968 557 
Q 359 1206 359 2328 
Q 359 3453 968 4101 
Q 1578 4750 2638 4750 
Q 3056 4750 3426 4639 
Q 3797 4528 4122 4306 
z
" transform="scale(0.015625)"/>
       <path id="DejaVuSans-41" d="M 2188 4044 
L 1331 1722 
L 3047 1722 
L 2188 4044 
z
M 1831 4666 
L 2547 4666 
L 4325 0 
L 3669 0 
L 3244 1197 
L 1141 1197 
L 716 0 
L 50 0 
L 1831 4666 
z
" transform="scale(0.015625)"/>
      </defs>
      <use xlink:href="#DejaVuSans-50"/>
      <use xlink:href="#DejaVuSans-43" x="60.302734"/>
      <use xlink:href="#DejaVuSans-41" x="130.126953"/>
     </g>
    </g>
    <g id="line2d_33">
     <path d="M 53.103125 50.932292 
L 73.103125 50.932292 
" style="fill: none; stroke: #ff0000; stroke-width: 2; stroke-linecap: square"/>
    </g>
    <g id="line2d_34"/>
    <g id="text_17">
     <!-- KPCA -->
     <g transform="translate(81.103125 54.432292) scale(0.1 -0.1)">
      <defs>
       <path id="DejaVuSans-4b" d="M 628 4666 
L 1259 4666 
L 1259 2694 
L 3353 4666 
L 4166 4666 
L 1850 2491 
L 4331 0 
L 3500 0 
L 1259 2247 
L 1259 0 
L 628 0 
L 628 4666 
z
" transform="scale(0.015625)"/>
      </defs>
      <use xlink:href="#DejaVuSans-4b"/>
      <use xlink:href="#DejaVuSans-50" x="65.576172"/>
      <use xlink:href="#DejaVuSans-43" x="125.878906"/>
      <use xlink:href="#DejaVuSans-41" x="195.703125"/>
     </g>
    </g>
    <g id="line2d_35">
     <path d="M 53.103125 65.610417 
L 73.103125 65.610417 
" style="fill: none; stroke: #008000; stroke-width: 2; stroke-linecap: square"/>
    </g>
    <g id="line2d_36"/>
    <g id="text_18">
     <!-- AE -->
     <g transform="translate(81.103125 69.110417) scale(0.1 -0.1)">
      <defs>
       <path id="DejaVuSans-45" d="M 628 4666 
L 3578 4666 
L 3578 4134 
L 1259 4134 
L 1259 2753 
L 3481 2753 
L 3481 2222 
L 1259 2222 
L 1259 531 
L 3634 531 
L 3634 0 
L 628 0 
L 628 4666 
z
" transform="scale(0.015625)"/>
      </defs>
      <use xlink:href="#DejaVuSans-41"/>
      <use xlink:href="#DejaVuSans-45" x="68.408203"/>
     </g>
    </g>
    <g id="line2d_37">
     <path d="M 53.103125 80.288542 
L 73.103125 80.288542 
" style="fill: none; stroke: #ffa500; stroke-width: 2; stroke-linecap: square"/>
    </g>
    <g id="line2d_38"/>
    <g id="text_19">
     <!-- CLIP -->
     <g transform="translate(81.103125 83.788542) scale(0.1 -0.1)">
      <defs>
       <path id="DejaVuSans-4c" d="M 628 4666 
L 1259 4666 
L 1259 531 
L 3531 531 
L 3531 0 
L 628 0 
L 628 4666 
z
" transform="scale(0.015625)"/>
       <path id="DejaVuSans-49" d="M 628 4666 
L 1259 4666 
L 1259 0 
L 628 0 
L 628 4666 
z
" transform="scale(0.015625)"/>
      </defs>
      <use xlink:href="#DejaVuSans-43"/>
      <use xlink:href="#DejaVuSans-4c" x="69.824219"/>
      <use xlink:href="#DejaVuSans-49" x="125.537109"/>
      <use xlink:href="#DejaVuSans-50" x="155.029297"/>
     </g>
    </g>
   </g>
  </g>
 </g>
 <defs>
  <clipPath id="pd247e8575e">
   <rect x="44.103125" y="8.477604" width="279" height="166.32"/>
  </clipPath>
 </defs>
</svg>
