<?xml version="1.0" encoding="utf-8" standalone="no"?>
<!DOCTYPE svg PUBLIC "-//W3C//DTD SVG 1.1//EN"
  "http://www.w3.org/Graphics/SVG/1.1/DTD/svg11.dtd">
<svg xmlns:xlink="http://www.w3.org/1999/xlink" width="334.31624pt" height="232.67625pt" viewBox="0 0 334.31624 232.67625" xmlns="http://www.w3.org/2000/svg" version="1.1">
 <metadata>
  <rdf:RDF xmlns:dc="http://purl.org/dc/elements/1.1/" xmlns:cc="http://creativecommons.org/ns#" xmlns:rdf="http://www.w3.org/1999/02/22-rdf-syntax-ns#">
   <cc:Work>
    <dc:type rdf:resource="http://purl.org/dc/dcmitype/StillImage"/>
    <dc:date>2024-12-19T19:15:31.410942</dc:date>
    <dc:format>image/svg+xml</dc:format>
    <dc:creator>
     <cc:Agent>
      <dc:title>Matplotlib v3.7.5, https://matplotlib.org/</dc:title>
     </cc:Agent>
    </dc:creator>
   </cc:Work>
  </rdf:RDF>
 </metadata>
 <defs>
  <style type="text/css">*{stroke-linejoin: round; stroke-linecap: butt}</style>
 </defs>
 <g id="figure_1">
  <g id="patch_1">
   <path d="M 0 232.67625 
L 334.31624 232.67625 
L 334.31624 0 
L 0 0 
z
" style="fill: #ffffff"/>
  </g>
  <g id="axes_1">
   <g id="patch_2">
    <path d="M 44.103125 195.12 
L 323.103125 195.12 
L 323.103125 28.8 
L 44.103125 28.8 
z
" style="fill: #ffffff"/>
   </g>
   <g id="PathCollection_1">
    <defs>
     <path id="me8fa8e0b64" d="M 0 3 
C 0.795609 3 1.55874 2.683901 2.12132 2.12132 
C 2.683901 1.55874 3 0.795609 3 0 
C 3 -0.795609 2.683901 -1.55874 2.12132 -2.12132 
C 1.55874 -2.683901 0.795609 -3 0 -3 
C -0.795609 -3 -1.55874 -2.683901 -2.12132 -2.12132 
C -2.683901 -1.55874 -3 -0.795609 -3 0 
C -3 0.795609 -2.683901 1.55874 -2.12132 2.12132 
C -1.55874 2.683901 -0.795609 3 0 3 
z
" style="stroke: #0000ff"/>
    </defs>
    <g clip-path="url(#pd98e6c9844)">
     <use xlink:href="#me8fa8e0b64" x="56.784943" y="187.56" style="fill: #0000ff; stroke: #0000ff"/>
     <use xlink:href="#me8fa8e0b64" x="65.531025" y="186.518411" style="fill: #0000ff; stroke: #0000ff"/>
     <use xlink:href="#me8fa8e0b64" x="74.277106" y="184.956027" style="fill: #0000ff; stroke: #0000ff"/>
     <use xlink:href="#me8fa8e0b64" x="83.023188" y="182.352054" style="fill: #0000ff; stroke: #0000ff"/>
     <use xlink:href="#me8fa8e0b64" x="91.769269" y="179.748081" style="fill: #0000ff; stroke: #0000ff"/>
     <use xlink:href="#me8fa8e0b64" x="100.515351" y="177.664902" style="fill: #0000ff; stroke: #0000ff"/>
     <use xlink:href="#me8fa8e0b64" x="109.261432" y="174.540135" style="fill: #0000ff; stroke: #0000ff"/>
     <use xlink:href="#me8fa8e0b64" x="118.007514" y="167.24901" style="fill: #0000ff; stroke: #0000ff"/>
     <use xlink:href="#me8fa8e0b64" x="126.753595" y="165.165831" style="fill: #0000ff; stroke: #0000ff"/>
     <use xlink:href="#me8fa8e0b64" x="135.499677" y="162.041064" style="fill: #0000ff; stroke: #0000ff"/>
     <use xlink:href="#me8fa8e0b64" x="144.245758" y="159.957885" style="fill: #0000ff; stroke: #0000ff"/>
     <use xlink:href="#me8fa8e0b64" x="152.99184" y="156.833118" style="fill: #0000ff; stroke: #0000ff"/>
     <use xlink:href="#me8fa8e0b64" x="161.737921" y="152.666761" style="fill: #0000ff; stroke: #0000ff"/>
     <use xlink:href="#me8fa8e0b64" x="170.484003" y="145.896431" style="fill: #0000ff; stroke: #0000ff"/>
     <use xlink:href="#me8fa8e0b64" x="179.230084" y="137.563717" style="fill: #0000ff; stroke: #0000ff"/>
     <use xlink:href="#me8fa8e0b64" x="187.976166" y="129.231003" style="fill: #0000ff; stroke: #0000ff"/>
     <use xlink:href="#me8fa8e0b64" x="196.722247" y="121.419083" style="fill: #0000ff; stroke: #0000ff"/>
     <use xlink:href="#me8fa8e0b64" x="205.468329" y="116.731932" style="fill: #0000ff; stroke: #0000ff"/>
     <use xlink:href="#me8fa8e0b64" x="214.21441" y="112.565575" style="fill: #0000ff; stroke: #0000ff"/>
     <use xlink:href="#me8fa8e0b64" x="222.960492" y="102.149683" style="fill: #0000ff; stroke: #0000ff"/>
     <use xlink:href="#me8fa8e0b64" x="231.706573" y="98.50412" style="fill: #0000ff; stroke: #0000ff"/>
     <use xlink:href="#me8fa8e0b64" x="240.452655" y="95.379353" style="fill: #0000ff; stroke: #0000ff"/>
     <use xlink:href="#me8fa8e0b64" x="249.198736" y="92.775379" style="fill: #0000ff; stroke: #0000ff"/>
     <use xlink:href="#me8fa8e0b64" x="257.944818" y="89.129817" style="fill: #0000ff; stroke: #0000ff"/>
     <use xlink:href="#me8fa8e0b64" x="266.690899" y="75.068362" style="fill: #0000ff; stroke: #0000ff"/>
     <use xlink:href="#me8fa8e0b64" x="275.436981" y="70.902005" style="fill: #0000ff; stroke: #0000ff"/>
     <use xlink:href="#me8fa8e0b64" x="284.183062" y="64.131675" style="fill: #0000ff; stroke: #0000ff"/>
     <use xlink:href="#me8fa8e0b64" x="292.929144" y="57.88214" style="fill: #0000ff; stroke: #0000ff"/>
     <use xlink:href="#me8fa8e0b64" x="301.675225" y="45.903864" style="fill: #0000ff; stroke: #0000ff"/>
     <use xlink:href="#me8fa8e0b64" x="310.421307" y="45.383069" style="fill: #0000ff; stroke: #0000ff"/>
    </g>
   </g>
   <g id="PathCollection_2">
    <defs>
     <path id="mc135578f0c" d="M 0 3 
C 0.795609 3 1.55874 2.683901 2.12132 2.12132 
C 2.683901 1.55874 3 0.795609 3 0 
C 3 -0.795609 2.683901 -1.55874 2.12132 -2.12132 
C 1.55874 -2.683901 0.795609 -3 0 -3 
C -0.795609 -3 -1.55874 -2.683901 -2.12132 -2.12132 
C -2.683901 -1.55874 -3 -0.795609 -3 0 
C -3 0.795609 -2.683901 1.55874 -2.12132 2.12132 
C -1.55874 2.683901 -0.795609 3 0 3 
z
" style="stroke: #ff0000"/>
    </defs>
    <g clip-path="url(#pd98e6c9844)">
     <use xlink:href="#mc135578f0c" x="56.784943" y="187.56" style="fill: #ff0000; stroke: #ff0000"/>
     <use xlink:href="#mc135578f0c" x="65.531025" y="186.518411" style="fill: #ff0000; stroke: #ff0000"/>
     <use xlink:href="#mc135578f0c" x="74.277106" y="184.956027" style="fill: #ff0000; stroke: #ff0000"/>
     <use xlink:href="#mc135578f0c" x="83.023188" y="181.831259" style="fill: #ff0000; stroke: #ff0000"/>
     <use xlink:href="#mc135578f0c" x="91.769269" y="178.185697" style="fill: #ff0000; stroke: #ff0000"/>
     <use xlink:href="#mc135578f0c" x="100.515351" y="176.623313" style="fill: #ff0000; stroke: #ff0000"/>
     <use xlink:href="#mc135578f0c" x="109.261432" y="176.102518" style="fill: #ff0000; stroke: #ff0000"/>
     <use xlink:href="#mc135578f0c" x="118.007514" y="174.540135" style="fill: #ff0000; stroke: #ff0000"/>
     <use xlink:href="#mc135578f0c" x="126.753595" y="168.811394" style="fill: #ff0000; stroke: #ff0000"/>
     <use xlink:href="#mc135578f0c" x="135.499677" y="164.124242" style="fill: #ff0000; stroke: #ff0000"/>
     <use xlink:href="#mc135578f0c" x="144.245758" y="161.520269" style="fill: #ff0000; stroke: #ff0000"/>
     <use xlink:href="#mc135578f0c" x="152.99184" y="155.791528" style="fill: #ff0000; stroke: #ff0000"/>
     <use xlink:href="#mc135578f0c" x="161.737921" y="147.458814" style="fill: #ff0000; stroke: #ff0000"/>
     <use xlink:href="#mc135578f0c" x="170.484003" y="146.417225" style="fill: #ff0000; stroke: #ff0000"/>
     <use xlink:href="#mc135578f0c" x="179.230084" y="139.646895" style="fill: #ff0000; stroke: #ff0000"/>
     <use xlink:href="#mc135578f0c" x="187.976166" y="131.834976" style="fill: #ff0000; stroke: #ff0000"/>
     <use xlink:href="#mc135578f0c" x="196.722247" y="126.106235" style="fill: #ff0000; stroke: #ff0000"/>
     <use xlink:href="#mc135578f0c" x="205.468329" y="118.81511" style="fill: #ff0000; stroke: #ff0000"/>
     <use xlink:href="#mc135578f0c" x="214.21441" y="108.920013" style="fill: #ff0000; stroke: #ff0000"/>
     <use xlink:href="#mc135578f0c" x="222.960492" y="102.149683" style="fill: #ff0000; stroke: #ff0000"/>
     <use xlink:href="#mc135578f0c" x="231.706573" y="96.941736" style="fill: #ff0000; stroke: #ff0000"/>
     <use xlink:href="#mc135578f0c" x="240.452655" y="92.775379" style="fill: #ff0000; stroke: #ff0000"/>
     <use xlink:href="#mc135578f0c" x="249.198736" y="89.650612" style="fill: #ff0000; stroke: #ff0000"/>
     <use xlink:href="#mc135578f0c" x="257.944818" y="86.005049" style="fill: #ff0000; stroke: #ff0000"/>
     <use xlink:href="#mc135578f0c" x="266.690899" y="77.151541" style="fill: #ff0000; stroke: #ff0000"/>
     <use xlink:href="#mc135578f0c" x="275.436981" y="68.298032" style="fill: #ff0000; stroke: #ff0000"/>
     <use xlink:href="#mc135578f0c" x="284.183062" y="63.090086" style="fill: #ff0000; stroke: #ff0000"/>
     <use xlink:href="#mc135578f0c" x="292.929144" y="55.278167" style="fill: #ff0000; stroke: #ff0000"/>
     <use xlink:href="#mc135578f0c" x="301.675225" y="45.383069" style="fill: #ff0000; stroke: #ff0000"/>
     <use xlink:href="#mc135578f0c" x="310.421307" y="44.862275" style="fill: #ff0000; stroke: #ff0000"/>
    </g>
   </g>
   <g id="PathCollection_3">
    <defs>
     <path id="me330b3b45f" d="M 0 3 
C 0.795609 3 1.55874 2.683901 2.12132 2.12132 
C 2.683901 1.55874 3 0.795609 3 0 
C 3 -0.795609 2.683901 -1.55874 2.12132 -2.12132 
C 1.55874 -2.683901 0.795609 -3 0 -3 
C -0.795609 -3 -1.55874 -2.683901 -2.12132 -2.12132 
C -2.683901 -1.55874 -3 -0.795609 -3 0 
C -3 0.795609 -2.683901 1.55874 -2.12132 2.12132 
C -1.55874 2.683901 -0.795609 3 0 3 
z
" style="stroke: #008000"/>
    </defs>
    <g clip-path="url(#pd98e6c9844)">
     <use xlink:href="#me330b3b45f" x="56.784943" y="187.56" style="fill: #008000; stroke: #008000"/>
     <use xlink:href="#me330b3b45f" x="65.531025" y="187.56" style="fill: #008000; stroke: #008000"/>
     <use xlink:href="#me330b3b45f" x="74.277106" y="187.56" style="fill: #008000; stroke: #008000"/>
     <use xlink:href="#me330b3b45f" x="83.023188" y="187.56" style="fill: #008000; stroke: #008000"/>
     <use xlink:href="#me330b3b45f" x="91.769269" y="187.56" style="fill: #008000; stroke: #008000"/>
     <use xlink:href="#me330b3b45f" x="100.515351" y="187.56" style="fill: #008000; stroke: #008000"/>
     <use xlink:href="#me330b3b45f" x="109.261432" y="187.56" style="fill: #008000; stroke: #008000"/>
     <use xlink:href="#me330b3b45f" x="118.007514" y="187.56" style="fill: #008000; stroke: #008000"/>
     <use xlink:href="#me330b3b45f" x="126.753595" y="187.039205" style="fill: #008000; stroke: #008000"/>
     <use xlink:href="#me330b3b45f" x="135.499677" y="187.039205" style="fill: #008000; stroke: #008000"/>
     <use xlink:href="#me330b3b45f" x="144.245758" y="185.997616" style="fill: #008000; stroke: #008000"/>
     <use xlink:href="#me330b3b45f" x="152.99184" y="185.997616" style="fill: #008000; stroke: #008000"/>
     <use xlink:href="#me330b3b45f" x="161.737921" y="184.435232" style="fill: #008000; stroke: #008000"/>
     <use xlink:href="#me330b3b45f" x="170.484003" y="180.78967" style="fill: #008000; stroke: #008000"/>
     <use xlink:href="#me330b3b45f" x="179.230084" y="179.227286" style="fill: #008000; stroke: #008000"/>
     <use xlink:href="#me330b3b45f" x="187.976166" y="171.936161" style="fill: #008000; stroke: #008000"/>
     <use xlink:href="#me330b3b45f" x="196.722247" y="168.811394" style="fill: #008000; stroke: #008000"/>
     <use xlink:href="#me330b3b45f" x="205.468329" y="164.645037" style="fill: #008000; stroke: #008000"/>
     <use xlink:href="#me330b3b45f" x="214.21441" y="161.520269" style="fill: #008000; stroke: #008000"/>
     <use xlink:href="#me330b3b45f" x="222.960492" y="158.916296" style="fill: #008000; stroke: #008000"/>
     <use xlink:href="#me330b3b45f" x="231.706573" y="154.749939" style="fill: #008000; stroke: #008000"/>
     <use xlink:href="#me330b3b45f" x="240.452655" y="149.541993" style="fill: #008000; stroke: #008000"/>
     <use xlink:href="#me330b3b45f" x="249.198736" y="140.16769" style="fill: #008000; stroke: #008000"/>
     <use xlink:href="#me330b3b45f" x="257.944818" y="136.001333" style="fill: #008000; stroke: #008000"/>
     <use xlink:href="#me330b3b45f" x="266.690899" y="124.023057" style="fill: #008000; stroke: #008000"/>
     <use xlink:href="#me330b3b45f" x="275.436981" y="115.690343" style="fill: #008000; stroke: #008000"/>
     <use xlink:href="#me330b3b45f" x="284.183062" y="108.399218" style="fill: #008000; stroke: #008000"/>
     <use xlink:href="#me330b3b45f" x="292.929144" y="88.088228" style="fill: #008000; stroke: #008000"/>
     <use xlink:href="#me330b3b45f" x="301.675225" y="76.109952" style="fill: #008000; stroke: #008000"/>
     <use xlink:href="#me330b3b45f" x="310.421307" y="63.610881" style="fill: #008000; stroke: #008000"/>
    </g>
   </g>
   <g id="PathCollection_4">
    <defs>
     <path id="m6cf8dce379" d="M 0 3 
C 0.795609 3 1.55874 2.683901 2.12132 2.12132 
C 2.683901 1.55874 3 0.795609 3 0 
C 3 -0.795609 2.683901 -1.55874 2.12132 -2.12132 
C 1.55874 -2.683901 0.795609 -3 0 -3 
C -0.795609 -3 -1.55874 -2.683901 -2.12132 -2.12132 
C -2.683901 -1.55874 -3 -0.795609 -3 0 
C -3 0.795609 -2.683901 1.55874 -2.12132 2.12132 
C -1.55874 2.683901 -0.795609 3 0 3 
z
" style="stroke: #ffa500"/>
    </defs>
    <g clip-path="url(#pd98e6c9844)">
     <use xlink:href="#m6cf8dce379" x="56.784943" y="187.56" style="fill: #ffa500; stroke: #ffa500"/>
     <use xlink:href="#m6cf8dce379" x="65.531025" y="187.039205" style="fill: #ffa500; stroke: #ffa500"/>
     <use xlink:href="#m6cf8dce379" x="74.277106" y="187.039205" style="fill: #ffa500; stroke: #ffa500"/>
     <use xlink:href="#m6cf8dce379" x="83.023188" y="187.039205" style="fill: #ffa500; stroke: #ffa500"/>
     <use xlink:href="#m6cf8dce379" x="91.769269" y="187.039205" style="fill: #ffa500; stroke: #ffa500"/>
     <use xlink:href="#m6cf8dce379" x="100.515351" y="187.039205" style="fill: #ffa500; stroke: #ffa500"/>
     <use xlink:href="#m6cf8dce379" x="109.261432" y="180.268875" style="fill: #ffa500; stroke: #ffa500"/>
     <use xlink:href="#m6cf8dce379" x="118.007514" y="177.144108" style="fill: #ffa500; stroke: #ffa500"/>
     <use xlink:href="#m6cf8dce379" x="126.753595" y="172.456956" style="fill: #ffa500; stroke: #ffa500"/>
     <use xlink:href="#m6cf8dce379" x="135.499677" y="168.811394" style="fill: #ffa500; stroke: #ffa500"/>
     <use xlink:href="#m6cf8dce379" x="144.245758" y="167.24901" style="fill: #ffa500; stroke: #ffa500"/>
     <use xlink:href="#m6cf8dce379" x="152.99184" y="163.082653" style="fill: #ffa500; stroke: #ffa500"/>
     <use xlink:href="#m6cf8dce379" x="161.737921" y="157.874707" style="fill: #ffa500; stroke: #ffa500"/>
     <use xlink:href="#m6cf8dce379" x="170.484003" y="150.062787" style="fill: #ffa500; stroke: #ffa500"/>
     <use xlink:href="#m6cf8dce379" x="179.230084" y="141.209279" style="fill: #ffa500; stroke: #ffa500"/>
     <use xlink:href="#m6cf8dce379" x="187.976166" y="137.042922" style="fill: #ffa500; stroke: #ffa500"/>
     <use xlink:href="#m6cf8dce379" x="196.722247" y="133.39736" style="fill: #ffa500; stroke: #ffa500"/>
     <use xlink:href="#m6cf8dce379" x="205.468329" y="128.710208" style="fill: #ffa500; stroke: #ffa500"/>
     <use xlink:href="#m6cf8dce379" x="214.21441" y="122.981467" style="fill: #ffa500; stroke: #ffa500"/>
     <use xlink:href="#m6cf8dce379" x="222.960492" y="119.335905" style="fill: #ffa500; stroke: #ffa500"/>
     <use xlink:href="#m6cf8dce379" x="231.706573" y="115.169548" style="fill: #ffa500; stroke: #ffa500"/>
     <use xlink:href="#m6cf8dce379" x="240.452655" y="109.961602" style="fill: #ffa500; stroke: #ffa500"/>
     <use xlink:href="#m6cf8dce379" x="249.198736" y="106.31604" style="fill: #ffa500; stroke: #ffa500"/>
     <use xlink:href="#m6cf8dce379" x="257.944818" y="100.587299" style="fill: #ffa500; stroke: #ffa500"/>
     <use xlink:href="#m6cf8dce379" x="266.690899" y="93.296174" style="fill: #ffa500; stroke: #ffa500"/>
     <use xlink:href="#m6cf8dce379" x="275.436981" y="86.525844" style="fill: #ffa500; stroke: #ffa500"/>
     <use xlink:href="#m6cf8dce379" x="284.183062" y="84.442666" style="fill: #ffa500; stroke: #ffa500"/>
     <use xlink:href="#m6cf8dce379" x="292.929144" y="78.713925" style="fill: #ffa500; stroke: #ffa500"/>
     <use xlink:href="#m6cf8dce379" x="301.675225" y="70.381211" style="fill: #ffa500; stroke: #ffa500"/>
     <use xlink:href="#m6cf8dce379" x="310.421307" y="57.361345" style="fill: #ffa500; stroke: #ffa500"/>
    </g>
   </g>
   <g id="matplotlib.axis_1">
    <g id="xtick_1">
     <g id="line2d_1">
      <path d="M 48.03615 195.12 
L 48.03615 28.8 
" clip-path="url(#pd98e6c9844)" style="fill: none; stroke: #b0b0b0; stroke-width: 0.8; stroke-linecap: square"/>
     </g>
     <g id="line2d_2">
      <defs>
       <path id="mbfed6df4b4" d="M 0 0 
L 0 3.5 
" style="stroke: #000000; stroke-width: 0.8"/>
      </defs>
      <g>
       <use xlink:href="#mbfed6df4b4" x="48.03615" y="195.12" style="stroke: #000000; stroke-width: 0.8"/>
      </g>
     </g>
     <g id="text_1">
      <!-- 0.0 -->
      <g transform="translate(40.084588 209.718437) scale(0.1 -0.1)">
       <defs>
        <path id="DejaVuSans-30" d="M 2034 4250 
Q 1547 4250 1301 3770 
Q 1056 3291 1056 2328 
Q 1056 1369 1301 889 
Q 1547 409 2034 409 
Q 2525 409 2770 889 
Q 3016 1369 3016 2328 
Q 3016 3291 2770 3770 
Q 2525 4250 2034 4250 
z
M 2034 4750 
Q 2819 4750 3233 4129 
Q 3647 3509 3647 2328 
Q 3647 1150 3233 529 
Q 2819 -91 2034 -91 
Q 1250 -91 836 529 
Q 422 1150 422 2328 
Q 422 3509 836 4129 
Q 1250 4750 2034 4750 
z
" transform="scale(0.015625)"/>
        <path id="DejaVuSans-2e" d="M 684 794 
L 1344 794 
L 1344 0 
L 684 0 
L 684 794 
z
" transform="scale(0.015625)"/>
       </defs>
       <use xlink:href="#DejaVuSans-30"/>
       <use xlink:href="#DejaVuSans-2e" x="63.623047"/>
       <use xlink:href="#DejaVuSans-30" x="95.410156"/>
      </g>
     </g>
    </g>
    <g id="xtick_2">
     <g id="line2d_3">
      <path d="M 102.261856 195.12 
L 102.261856 28.8 
" clip-path="url(#pd98e6c9844)" style="fill: none; stroke: #b0b0b0; stroke-width: 0.8; stroke-linecap: square"/>
     </g>
     <g id="line2d_4">
      <g>
       <use xlink:href="#mbfed6df4b4" x="102.261856" y="195.12" style="stroke: #000000; stroke-width: 0.8"/>
      </g>
     </g>
     <g id="text_2">
      <!-- 0.2 -->
      <g transform="translate(94.310293 209.718437) scale(0.1 -0.1)">
       <defs>
        <path id="DejaVuSans-32" d="M 1228 531 
L 3431 531 
L 3431 0 
L 469 0 
L 469 531 
Q 828 903 1448 1529 
Q 2069 2156 2228 2338 
Q 2531 2678 2651 2914 
Q 2772 3150 2772 3378 
Q 2772 3750 2511 3984 
Q 2250 4219 1831 4219 
Q 1534 4219 1204 4116 
Q 875 4013 500 3803 
L 500 4441 
Q 881 4594 1212 4672 
Q 1544 4750 1819 4750 
Q 2544 4750 2975 4387 
Q 3406 4025 3406 3419 
Q 3406 3131 3298 2873 
Q 3191 2616 2906 2266 
Q 2828 2175 2409 1742 
Q 1991 1309 1228 531 
z
" transform="scale(0.015625)"/>
       </defs>
       <use xlink:href="#DejaVuSans-30"/>
       <use xlink:href="#DejaVuSans-2e" x="63.623047"/>
       <use xlink:href="#DejaVuSans-32" x="95.410156"/>
      </g>
     </g>
    </g>
    <g id="xtick_3">
     <g id="line2d_5">
      <path d="M 156.487561 195.12 
L 156.487561 28.8 
" clip-path="url(#pd98e6c9844)" style="fill: none; stroke: #b0b0b0; stroke-width: 0.8; stroke-linecap: square"/>
     </g>
     <g id="line2d_6">
      <g>
       <use xlink:href="#mbfed6df4b4" x="156.487561" y="195.12" style="stroke: #000000; stroke-width: 0.8"/>
      </g>
     </g>
     <g id="text_3">
      <!-- 0.4 -->
      <g transform="translate(148.535999 209.718437) scale(0.1 -0.1)">
       <defs>
        <path id="DejaVuSans-34" d="M 2419 4116 
L 825 1625 
L 2419 1625 
L 2419 4116 
z
M 2253 4666 
L 3047 4666 
L 3047 1625 
L 3713 1625 
L 3713 1100 
L 3047 1100 
L 3047 0 
L 2419 0 
L 2419 1100 
L 313 1100 
L 313 1709 
L 2253 4666 
z
" transform="scale(0.015625)"/>
       </defs>
       <use xlink:href="#DejaVuSans-30"/>
       <use xlink:href="#DejaVuSans-2e" x="63.623047"/>
       <use xlink:href="#DejaVuSans-34" x="95.410156"/>
      </g>
     </g>
    </g>
    <g id="xtick_4">
     <g id="line2d_7">
      <path d="M 210.713266 195.12 
L 210.713266 28.8 
" clip-path="url(#pd98e6c9844)" style="fill: none; stroke: #b0b0b0; stroke-width: 0.8; stroke-linecap: square"/>
     </g>
     <g id="line2d_8">
      <g>
       <use xlink:href="#mbfed6df4b4" x="210.713266" y="195.12" style="stroke: #000000; stroke-width: 0.8"/>
      </g>
     </g>
     <g id="text_4">
      <!-- 0.6 -->
      <g transform="translate(202.761704 209.718437) scale(0.1 -0.1)">
       <defs>
        <path id="DejaVuSans-36" d="M 2113 2584 
Q 1688 2584 1439 2293 
Q 1191 2003 1191 1497 
Q 1191 994 1439 701 
Q 1688 409 2113 409 
Q 2538 409 2786 701 
Q 3034 994 3034 1497 
Q 3034 2003 2786 2293 
Q 2538 2584 2113 2584 
z
M 3366 4563 
L 3366 3988 
Q 3128 4100 2886 4159 
Q 2644 4219 2406 4219 
Q 1781 4219 1451 3797 
Q 1122 3375 1075 2522 
Q 1259 2794 1537 2939 
Q 1816 3084 2150 3084 
Q 2853 3084 3261 2657 
Q 3669 2231 3669 1497 
Q 3669 778 3244 343 
Q 2819 -91 2113 -91 
Q 1303 -91 875 529 
Q 447 1150 447 2328 
Q 447 3434 972 4092 
Q 1497 4750 2381 4750 
Q 2619 4750 2861 4703 
Q 3103 4656 3366 4563 
z
" transform="scale(0.015625)"/>
       </defs>
       <use xlink:href="#DejaVuSans-30"/>
       <use xlink:href="#DejaVuSans-2e" x="63.623047"/>
       <use xlink:href="#DejaVuSans-36" x="95.410156"/>
      </g>
     </g>
    </g>
    <g id="xtick_5">
     <g id="line2d_9">
      <path d="M 264.938972 195.12 
L 264.938972 28.8 
" clip-path="url(#pd98e6c9844)" style="fill: none; stroke: #b0b0b0; stroke-width: 0.8; stroke-linecap: square"/>
     </g>
     <g id="line2d_10">
      <g>
       <use xlink:href="#mbfed6df4b4" x="264.938972" y="195.12" style="stroke: #000000; stroke-width: 0.8"/>
      </g>
     </g>
     <g id="text_5">
      <!-- 0.8 -->
      <g transform="translate(256.987409 209.718437) scale(0.1 -0.1)">
       <defs>
        <path id="DejaVuSans-38" d="M 2034 2216 
Q 1584 2216 1326 1975 
Q 1069 1734 1069 1313 
Q 1069 891 1326 650 
Q 1584 409 2034 409 
Q 2484 409 2743 651 
Q 3003 894 3003 1313 
Q 3003 1734 2745 1975 
Q 2488 2216 2034 2216 
z
M 1403 2484 
Q 997 2584 770 2862 
Q 544 3141 544 3541 
Q 544 4100 942 4425 
Q 1341 4750 2034 4750 
Q 2731 4750 3128 4425 
Q 3525 4100 3525 3541 
Q 3525 3141 3298 2862 
Q 3072 2584 2669 2484 
Q 3125 2378 3379 2068 
Q 3634 1759 3634 1313 
Q 3634 634 3220 271 
Q 2806 -91 2034 -91 
Q 1263 -91 848 271 
Q 434 634 434 1313 
Q 434 1759 690 2068 
Q 947 2378 1403 2484 
z
M 1172 3481 
Q 1172 3119 1398 2916 
Q 1625 2713 2034 2713 
Q 2441 2713 2670 2916 
Q 2900 3119 2900 3481 
Q 2900 3844 2670 4047 
Q 2441 4250 2034 4250 
Q 1625 4250 1398 4047 
Q 1172 3844 1172 3481 
z
" transform="scale(0.015625)"/>
       </defs>
       <use xlink:href="#DejaVuSans-30"/>
       <use xlink:href="#DejaVuSans-2e" x="63.623047"/>
       <use xlink:href="#DejaVuSans-38" x="95.410156"/>
      </g>
     </g>
    </g>
    <g id="xtick_6">
     <g id="line2d_11">
      <path d="M 319.164677 195.12 
L 319.164677 28.8 
" clip-path="url(#pd98e6c9844)" style="fill: none; stroke: #b0b0b0; stroke-width: 0.8; stroke-linecap: square"/>
     </g>
     <g id="line2d_12">
      <g>
       <use xlink:href="#mbfed6df4b4" x="319.164677" y="195.12" style="stroke: #000000; stroke-width: 0.8"/>
      </g>
     </g>
     <g id="text_6">
      <!-- 1.0 -->
      <g transform="translate(311.213115 209.718437) scale(0.1 -0.1)">
       <defs>
        <path id="DejaVuSans-31" d="M 794 531 
L 1825 531 
L 1825 4091 
L 703 3866 
L 703 4441 
L 1819 4666 
L 2450 4666 
L 2450 531 
L 3481 531 
L 3481 0 
L 794 0 
L 794 531 
z
" transform="scale(0.015625)"/>
       </defs>
       <use xlink:href="#DejaVuSans-31"/>
       <use xlink:href="#DejaVuSans-2e" x="63.623047"/>
       <use xlink:href="#DejaVuSans-30" x="95.410156"/>
      </g>
     </g>
    </g>
    <g id="text_7">
     <!-- Miss Rate $\epsilon$ -->
     <g transform="translate(155.203125 223.396563) scale(0.1 -0.1)">
      <defs>
       <path id="DejaVuSans-4d" d="M 628 4666 
L 1569 4666 
L 2759 1491 
L 3956 4666 
L 4897 4666 
L 4897 0 
L 4281 0 
L 4281 4097 
L 3078 897 
L 2444 897 
L 1241 4097 
L 1241 0 
L 628 0 
L 628 4666 
z
" transform="scale(0.015625)"/>
       <path id="DejaVuSans-69" d="M 603 3500 
L 1178 3500 
L 1178 0 
L 603 0 
L 603 3500 
z
M 603 4863 
L 1178 4863 
L 1178 4134 
L 603 4134 
L 603 4863 
z
" transform="scale(0.015625)"/>
       <path id="DejaVuSans-73" d="M 2834 3397 
L 2834 2853 
Q 2591 2978 2328 3040 
Q 2066 3103 1784 3103 
Q 1356 3103 1142 2972 
Q 928 2841 928 2578 
Q 928 2378 1081 2264 
Q 1234 2150 1697 2047 
L 1894 2003 
Q 2506 1872 2764 1633 
Q 3022 1394 3022 966 
Q 3022 478 2636 193 
Q 2250 -91 1575 -91 
Q 1294 -91 989 -36 
Q 684 19 347 128 
L 347 722 
Q 666 556 975 473 
Q 1284 391 1588 391 
Q 1994 391 2212 530 
Q 2431 669 2431 922 
Q 2431 1156 2273 1281 
Q 2116 1406 1581 1522 
L 1381 1569 
Q 847 1681 609 1914 
Q 372 2147 372 2553 
Q 372 3047 722 3315 
Q 1072 3584 1716 3584 
Q 2034 3584 2315 3537 
Q 2597 3491 2834 3397 
z
" transform="scale(0.015625)"/>
       <path id="DejaVuSans-20" transform="scale(0.015625)"/>
       <path id="DejaVuSans-52" d="M 2841 2188 
Q 3044 2119 3236 1894 
Q 3428 1669 3622 1275 
L 4263 0 
L 3584 0 
L 2988 1197 
Q 2756 1666 2539 1819 
Q 2322 1972 1947 1972 
L 1259 1972 
L 1259 0 
L 628 0 
L 628 4666 
L 2053 4666 
Q 2853 4666 3247 4331 
Q 3641 3997 3641 3322 
Q 3641 2881 3436 2590 
Q 3231 2300 2841 2188 
z
M 1259 4147 
L 1259 2491 
L 2053 2491 
Q 2509 2491 2742 2702 
Q 2975 2913 2975 3322 
Q 2975 3731 2742 3939 
Q 2509 4147 2053 4147 
L 1259 4147 
z
" transform="scale(0.015625)"/>
       <path id="DejaVuSans-61" d="M 2194 1759 
Q 1497 1759 1228 1600 
Q 959 1441 959 1056 
Q 959 750 1161 570 
Q 1363 391 1709 391 
Q 2188 391 2477 730 
Q 2766 1069 2766 1631 
L 2766 1759 
L 2194 1759 
z
M 3341 1997 
L 3341 0 
L 2766 0 
L 2766 531 
Q 2569 213 2275 61 
Q 1981 -91 1556 -91 
Q 1019 -91 701 211 
Q 384 513 384 1019 
Q 384 1609 779 1909 
Q 1175 2209 1959 2209 
L 2766 2209 
L 2766 2266 
Q 2766 2663 2505 2880 
Q 2244 3097 1772 3097 
Q 1472 3097 1187 3025 
Q 903 2953 641 2809 
L 641 3341 
Q 956 3463 1253 3523 
Q 1550 3584 1831 3584 
Q 2591 3584 2966 3190 
Q 3341 2797 3341 1997 
z
" transform="scale(0.015625)"/>
       <path id="DejaVuSans-74" d="M 1172 4494 
L 1172 3500 
L 2356 3500 
L 2356 3053 
L 1172 3053 
L 1172 1153 
Q 1172 725 1289 603 
Q 1406 481 1766 481 
L 2356 481 
L 2356 0 
L 1766 0 
Q 1100 0 847 248 
Q 594 497 594 1153 
L 594 3053 
L 172 3053 
L 172 3500 
L 594 3500 
L 594 4494 
L 1172 4494 
z
" transform="scale(0.015625)"/>
       <path id="DejaVuSans-65" d="M 3597 1894 
L 3597 1613 
L 953 1613 
Q 991 1019 1311 708 
Q 1631 397 2203 397 
Q 2534 397 2845 478 
Q 3156 559 3463 722 
L 3463 178 
Q 3153 47 2828 -22 
Q 2503 -91 2169 -91 
Q 1331 -91 842 396 
Q 353 884 353 1716 
Q 353 2575 817 3079 
Q 1281 3584 2069 3584 
Q 2775 3584 3186 3129 
Q 3597 2675 3597 1894 
z
M 3022 2063 
Q 3016 2534 2758 2815 
Q 2500 3097 2075 3097 
Q 1594 3097 1305 2825 
Q 1016 2553 972 2059 
L 3022 2063 
z
" transform="scale(0.015625)"/>
       <path id="DejaVuSans-Oblique-3b5" d="M 1263 1888 
Q 925 1963 778 2166 
Q 669 2309 669 2503 
Q 669 3034 1175 3344 
Q 1575 3588 2188 3588 
Q 2425 3588 2684 3550 
Q 2944 3513 3234 3438 
L 3134 2916 
Q 2847 3006 2606 3047 
Q 2359 3088 2138 3088 
Q 1766 3088 1522 2944 
Q 1228 2772 1228 2522 
Q 1228 2356 1381 2241 
Q 1563 2103 1925 2103 
L 2409 2103 
L 2319 1628 
L 1856 1628 
Q 1425 1628 1172 1469 
Q 828 1253 828 916 
Q 828 703 1013 563 
Q 1244 388 1716 388 
Q 2006 388 2284 444 
Q 2563 503 2806 619 
L 2700 84 
Q 2403 -3 2131 -47 
Q 1859 -91 1609 -91 
Q 866 -91 516 194 
Q 250 413 250 781 
Q 250 1278 600 1584 
Q 859 1813 1263 1888 
z
" transform="scale(0.015625)"/>
      </defs>
      <use xlink:href="#DejaVuSans-4d" transform="translate(0 0.015625)"/>
      <use xlink:href="#DejaVuSans-69" transform="translate(86.279297 0.015625)"/>
      <use xlink:href="#DejaVuSans-73" transform="translate(114.0625 0.015625)"/>
      <use xlink:href="#DejaVuSans-73" transform="translate(166.162109 0.015625)"/>
      <use xlink:href="#DejaVuSans-20" transform="translate(218.261719 0.015625)"/>
      <use xlink:href="#DejaVuSans-52" transform="translate(250.048828 0.015625)"/>
      <use xlink:href="#DejaVuSans-61" transform="translate(319.53125 0.015625)"/>
      <use xlink:href="#DejaVuSans-74" transform="translate(380.810547 0.015625)"/>
      <use xlink:href="#DejaVuSans-65" transform="translate(420.019531 0.015625)"/>
      <use xlink:href="#DejaVuSans-20" transform="translate(481.542969 0.015625)"/>
      <use xlink:href="#DejaVuSans-Oblique-3b5" transform="translate(513.330078 0.015625)"/>
     </g>
    </g>
   </g>
   <g id="matplotlib.axis_2">
    <g id="ytick_1">
     <g id="line2d_13">
      <path d="M 44.103125 187.56 
L 323.103125 187.56 
" clip-path="url(#pd98e6c9844)" style="fill: none; stroke: #b0b0b0; stroke-width: 0.8; stroke-linecap: square"/>
     </g>
     <g id="line2d_14">
      <defs>
       <path id="md27dc1eca2" d="M 0 0 
L -3.5 0 
" style="stroke: #000000; stroke-width: 0.8"/>
      </defs>
      <g>
       <use xlink:href="#md27dc1eca2" x="44.103125" y="187.56" style="stroke: #000000; stroke-width: 0.8"/>
      </g>
     </g>
     <g id="text_8">
      <!-- 0.0 -->
      <g transform="translate(21.2 191.359219) scale(0.1 -0.1)">
       <use xlink:href="#DejaVuSans-30"/>
       <use xlink:href="#DejaVuSans-2e" x="63.623047"/>
       <use xlink:href="#DejaVuSans-30" x="95.410156"/>
      </g>
     </g>
    </g>
    <g id="ytick_2">
     <g id="line2d_15">
      <path d="M 44.103125 156.312323 
L 323.103125 156.312323 
" clip-path="url(#pd98e6c9844)" style="fill: none; stroke: #b0b0b0; stroke-width: 0.8; stroke-linecap: square"/>
     </g>
     <g id="line2d_16">
      <g>
       <use xlink:href="#md27dc1eca2" x="44.103125" y="156.312323" style="stroke: #000000; stroke-width: 0.8"/>
      </g>
     </g>
     <g id="text_9">
      <!-- 0.2 -->
      <g transform="translate(21.2 160.111542) scale(0.1 -0.1)">
       <use xlink:href="#DejaVuSans-30"/>
       <use xlink:href="#DejaVuSans-2e" x="63.623047"/>
       <use xlink:href="#DejaVuSans-32" x="95.410156"/>
      </g>
     </g>
    </g>
    <g id="ytick_3">
     <g id="line2d_17">
      <path d="M 44.103125 125.064646 
L 323.103125 125.064646 
" clip-path="url(#pd98e6c9844)" style="fill: none; stroke: #b0b0b0; stroke-width: 0.8; stroke-linecap: square"/>
     </g>
     <g id="line2d_18">
      <g>
       <use xlink:href="#md27dc1eca2" x="44.103125" y="125.064646" style="stroke: #000000; stroke-width: 0.8"/>
      </g>
     </g>
     <g id="text_10">
      <!-- 0.4 -->
      <g transform="translate(21.2 128.863865) scale(0.1 -0.1)">
       <use xlink:href="#DejaVuSans-30"/>
       <use xlink:href="#DejaVuSans-2e" x="63.623047"/>
       <use xlink:href="#DejaVuSans-34" x="95.410156"/>
      </g>
     </g>
    </g>
    <g id="ytick_4">
     <g id="line2d_19">
      <path d="M 44.103125 93.816969 
L 323.103125 93.816969 
" clip-path="url(#pd98e6c9844)" style="fill: none; stroke: #b0b0b0; stroke-width: 0.8; stroke-linecap: square"/>
     </g>
     <g id="line2d_20">
      <g>
       <use xlink:href="#md27dc1eca2" x="44.103125" y="93.816969" style="stroke: #000000; stroke-width: 0.8"/>
      </g>
     </g>
     <g id="text_11">
      <!-- 0.6 -->
      <g transform="translate(21.2 97.616187) scale(0.1 -0.1)">
       <use xlink:href="#DejaVuSans-30"/>
       <use xlink:href="#DejaVuSans-2e" x="63.623047"/>
       <use xlink:href="#DejaVuSans-36" x="95.410156"/>
      </g>
     </g>
    </g>
    <g id="ytick_5">
     <g id="line2d_21">
      <path d="M 44.103125 62.569292 
L 323.103125 62.569292 
" clip-path="url(#pd98e6c9844)" style="fill: none; stroke: #b0b0b0; stroke-width: 0.8; stroke-linecap: square"/>
     </g>
     <g id="line2d_22">
      <g>
       <use xlink:href="#md27dc1eca2" x="44.103125" y="62.569292" style="stroke: #000000; stroke-width: 0.8"/>
      </g>
     </g>
     <g id="text_12">
      <!-- 0.8 -->
      <g transform="translate(21.2 66.36851) scale(0.1 -0.1)">
       <use xlink:href="#DejaVuSans-30"/>
       <use xlink:href="#DejaVuSans-2e" x="63.623047"/>
       <use xlink:href="#DejaVuSans-38" x="95.410156"/>
      </g>
     </g>
    </g>
    <g id="ytick_6">
     <g id="line2d_23">
      <path d="M 44.103125 31.321614 
L 323.103125 31.321614 
" clip-path="url(#pd98e6c9844)" style="fill: none; stroke: #b0b0b0; stroke-width: 0.8; stroke-linecap: square"/>
     </g>
     <g id="line2d_24">
      <g>
       <use xlink:href="#md27dc1eca2" x="44.103125" y="31.321614" style="stroke: #000000; stroke-width: 0.8"/>
      </g>
     </g>
     <g id="text_13">
      <!-- 1.0 -->
      <g transform="translate(21.2 35.120833) scale(0.1 -0.1)">
       <use xlink:href="#DejaVuSans-31"/>
       <use xlink:href="#DejaVuSans-2e" x="63.623047"/>
       <use xlink:href="#DejaVuSans-30" x="95.410156"/>
      </g>
     </g>
    </g>
    <g id="text_14">
     <!-- Pr(no warning | unsafe) -->
     <g transform="translate(14.842187 170.388906) rotate(-90) scale(0.1 -0.1)">
      <defs>
       <path id="DejaVuSans-50" d="M 1259 4147 
L 1259 2394 
L 2053 2394 
Q 2494 2394 2734 2622 
Q 2975 2850 2975 3272 
Q 2975 3691 2734 3919 
Q 2494 4147 2053 4147 
L 1259 4147 
z
M 628 4666 
L 2053 4666 
Q 2838 4666 3239 4311 
Q 3641 3956 3641 3272 
Q 3641 2581 3239 2228 
Q 2838 1875 2053 1875 
L 1259 1875 
L 1259 0 
L 628 0 
L 628 4666 
z
" transform="scale(0.015625)"/>
       <path id="DejaVuSans-72" d="M 2631 2963 
Q 2534 3019 2420 3045 
Q 2306 3072 2169 3072 
Q 1681 3072 1420 2755 
Q 1159 2438 1159 1844 
L 1159 0 
L 581 0 
L 581 3500 
L 1159 3500 
L 1159 2956 
Q 1341 3275 1631 3429 
Q 1922 3584 2338 3584 
Q 2397 3584 2469 3576 
Q 2541 3569 2628 3553 
L 2631 2963 
z
" transform="scale(0.015625)"/>
       <path id="DejaVuSans-28" d="M 1984 4856 
Q 1566 4138 1362 3434 
Q 1159 2731 1159 2009 
Q 1159 1288 1364 580 
Q 1569 -128 1984 -844 
L 1484 -844 
Q 1016 -109 783 600 
Q 550 1309 550 2009 
Q 550 2706 781 3412 
Q 1013 4119 1484 4856 
L 1984 4856 
z
" transform="scale(0.015625)"/>
       <path id="DejaVuSans-6e" d="M 3513 2113 
L 3513 0 
L 2938 0 
L 2938 2094 
Q 2938 2591 2744 2837 
Q 2550 3084 2163 3084 
Q 1697 3084 1428 2787 
Q 1159 2491 1159 1978 
L 1159 0 
L 581 0 
L 581 3500 
L 1159 3500 
L 1159 2956 
Q 1366 3272 1645 3428 
Q 1925 3584 2291 3584 
Q 2894 3584 3203 3211 
Q 3513 2838 3513 2113 
z
" transform="scale(0.015625)"/>
       <path id="DejaVuSans-6f" d="M 1959 3097 
Q 1497 3097 1228 2736 
Q 959 2375 959 1747 
Q 959 1119 1226 758 
Q 1494 397 1959 397 
Q 2419 397 2687 759 
Q 2956 1122 2956 1747 
Q 2956 2369 2687 2733 
Q 2419 3097 1959 3097 
z
M 1959 3584 
Q 2709 3584 3137 3096 
Q 3566 2609 3566 1747 
Q 3566 888 3137 398 
Q 2709 -91 1959 -91 
Q 1206 -91 779 398 
Q 353 888 353 1747 
Q 353 2609 779 3096 
Q 1206 3584 1959 3584 
z
" transform="scale(0.015625)"/>
       <path id="DejaVuSans-77" d="M 269 3500 
L 844 3500 
L 1563 769 
L 2278 3500 
L 2956 3500 
L 3675 769 
L 4391 3500 
L 4966 3500 
L 4050 0 
L 3372 0 
L 2619 2869 
L 1863 0 
L 1184 0 
L 269 3500 
z
" transform="scale(0.015625)"/>
       <path id="DejaVuSans-67" d="M 2906 1791 
Q 2906 2416 2648 2759 
Q 2391 3103 1925 3103 
Q 1463 3103 1205 2759 
Q 947 2416 947 1791 
Q 947 1169 1205 825 
Q 1463 481 1925 481 
Q 2391 481 2648 825 
Q 2906 1169 2906 1791 
z
M 3481 434 
Q 3481 -459 3084 -895 
Q 2688 -1331 1869 -1331 
Q 1566 -1331 1297 -1286 
Q 1028 -1241 775 -1147 
L 775 -588 
Q 1028 -725 1275 -790 
Q 1522 -856 1778 -856 
Q 2344 -856 2625 -561 
Q 2906 -266 2906 331 
L 2906 616 
Q 2728 306 2450 153 
Q 2172 0 1784 0 
Q 1141 0 747 490 
Q 353 981 353 1791 
Q 353 2603 747 3093 
Q 1141 3584 1784 3584 
Q 2172 3584 2450 3431 
Q 2728 3278 2906 2969 
L 2906 3500 
L 3481 3500 
L 3481 434 
z
" transform="scale(0.015625)"/>
       <path id="DejaVuSans-7c" d="M 1344 4891 
L 1344 -1509 
L 813 -1509 
L 813 4891 
L 1344 4891 
z
" transform="scale(0.015625)"/>
       <path id="DejaVuSans-75" d="M 544 1381 
L 544 3500 
L 1119 3500 
L 1119 1403 
Q 1119 906 1312 657 
Q 1506 409 1894 409 
Q 2359 409 2629 706 
Q 2900 1003 2900 1516 
L 2900 3500 
L 3475 3500 
L 3475 0 
L 2900 0 
L 2900 538 
Q 2691 219 2414 64 
Q 2138 -91 1772 -91 
Q 1169 -91 856 284 
Q 544 659 544 1381 
z
M 1991 3584 
L 1991 3584 
z
" transform="scale(0.015625)"/>
       <path id="DejaVuSans-66" d="M 2375 4863 
L 2375 4384 
L 1825 4384 
Q 1516 4384 1395 4259 
Q 1275 4134 1275 3809 
L 1275 3500 
L 2222 3500 
L 2222 3053 
L 1275 3053 
L 1275 0 
L 697 0 
L 697 3053 
L 147 3053 
L 147 3500 
L 697 3500 
L 697 3744 
Q 697 4328 969 4595 
Q 1241 4863 1831 4863 
L 2375 4863 
z
" transform="scale(0.015625)"/>
       <path id="DejaVuSans-29" d="M 513 4856 
L 1013 4856 
Q 1481 4119 1714 3412 
Q 1947 2706 1947 2009 
Q 1947 1309 1714 600 
Q 1481 -109 1013 -844 
L 513 -844 
Q 928 -128 1133 580 
Q 1338 1288 1338 2009 
Q 1338 2731 1133 3434 
Q 928 4138 513 4856 
z
" transform="scale(0.015625)"/>
      </defs>
      <use xlink:href="#DejaVuSans-50"/>
      <use xlink:href="#DejaVuSans-72" x="58.552734"/>
      <use xlink:href="#DejaVuSans-28" x="99.666016"/>
      <use xlink:href="#DejaVuSans-6e" x="138.679688"/>
      <use xlink:href="#DejaVuSans-6f" x="202.058594"/>
      <use xlink:href="#DejaVuSans-20" x="263.240234"/>
      <use xlink:href="#DejaVuSans-77" x="295.027344"/>
      <use xlink:href="#DejaVuSans-61" x="376.814453"/>
      <use xlink:href="#DejaVuSans-72" x="438.09375"/>
      <use xlink:href="#DejaVuSans-6e" x="477.457031"/>
      <use xlink:href="#DejaVuSans-69" x="540.835938"/>
      <use xlink:href="#DejaVuSans-6e" x="568.619141"/>
      <use xlink:href="#DejaVuSans-67" x="631.998047"/>
      <use xlink:href="#DejaVuSans-20" x="695.474609"/>
      <use xlink:href="#DejaVuSans-7c" x="727.261719"/>
      <use xlink:href="#DejaVuSans-20" x="760.953125"/>
      <use xlink:href="#DejaVuSans-75" x="792.740234"/>
      <use xlink:href="#DejaVuSans-6e" x="856.119141"/>
      <use xlink:href="#DejaVuSans-73" x="919.498047"/>
      <use xlink:href="#DejaVuSans-61" x="971.597656"/>
      <use xlink:href="#DejaVuSans-66" x="1032.876953"/>
      <use xlink:href="#DejaVuSans-65" x="1068.082031"/>
      <use xlink:href="#DejaVuSans-29" x="1129.605469"/>
     </g>
    </g>
   </g>
   <g id="line2d_25">
    <path d="M 56.784943 182.51849 
L 65.531025 177.478542 
L 74.277106 172.438594 
L 83.023188 167.398646 
L 91.769269 162.358698 
L 100.515351 157.31875 
L 109.261432 152.278802 
L 118.007514 147.238854 
L 126.753595 142.198906 
L 135.499677 137.158958 
L 144.245758 132.11901 
L 152.99184 127.079063 
L 161.737921 122.039115 
L 170.484003 116.999167 
L 179.230084 111.959219 
L 187.976166 106.919271 
L 196.722247 101.879323 
L 205.468329 96.839375 
L 214.21441 91.799427 
L 222.960492 86.759479 
L 231.706573 81.719531 
L 240.452655 76.679583 
L 249.198736 71.639635 
L 257.944818 66.599688 
L 266.690899 61.55974 
L 275.436981 56.519792 
L 284.183062 51.479844 
L 292.929144 46.439896 
L 301.675225 41.399948 
L 310.421307 36.36 
" clip-path="url(#pd98e6c9844)" style="fill: none; stroke: #000000; stroke-width: 2; stroke-linecap: square"/>
   </g>
   <g id="line2d_26">
    <path d="M 56.784943 187.56 
L 65.531025 186.518411 
L 74.277106 184.956027 
L 83.023188 182.352054 
L 91.769269 179.748081 
L 100.515351 177.664902 
L 109.261432 174.540135 
L 118.007514 167.24901 
L 126.753595 165.165831 
L 135.499677 162.041064 
L 144.245758 159.957885 
L 152.99184 156.833118 
L 161.737921 152.666761 
L 170.484003 145.896431 
L 179.230084 137.563717 
L 187.976166 129.231003 
L 196.722247 121.419083 
L 205.468329 116.731932 
L 214.21441 112.565575 
L 222.960492 102.149683 
L 231.706573 98.50412 
L 240.452655 95.379353 
L 249.198736 92.775379 
L 257.944818 89.129817 
L 266.690899 75.068362 
L 275.436981 70.902005 
L 284.183062 64.131675 
L 292.929144 57.88214 
L 301.675225 45.903864 
L 310.421307 45.383069 
" clip-path="url(#pd98e6c9844)" style="fill: none; stroke: #0000ff; stroke-width: 2; stroke-linecap: square"/>
   </g>
   <g id="line2d_27">
    <path d="M 56.784943 187.56 
L 65.531025 186.518411 
L 74.277106 184.956027 
L 83.023188 181.831259 
L 91.769269 178.185697 
L 100.515351 176.623313 
L 109.261432 176.102518 
L 118.007514 174.540135 
L 126.753595 168.811394 
L 135.499677 164.124242 
L 144.245758 161.520269 
L 152.99184 155.791528 
L 161.737921 147.458814 
L 170.484003 146.417225 
L 179.230084 139.646895 
L 187.976166 131.834976 
L 196.722247 126.106235 
L 205.468329 118.81511 
L 214.21441 108.920013 
L 222.960492 102.149683 
L 231.706573 96.941736 
L 240.452655 92.775379 
L 249.198736 89.650612 
L 257.944818 86.005049 
L 266.690899 77.151541 
L 275.436981 68.298032 
L 284.183062 63.090086 
L 292.929144 55.278167 
L 301.675225 45.383069 
L 310.421307 44.862275 
" clip-path="url(#pd98e6c9844)" style="fill: none; stroke: #ff0000; stroke-width: 2; stroke-linecap: square"/>
   </g>
   <g id="line2d_28">
    <path d="M 56.784943 187.56 
L 65.531025 187.56 
L 74.277106 187.56 
L 83.023188 187.56 
L 91.769269 187.56 
L 100.515351 187.56 
L 109.261432 187.56 
L 118.007514 187.56 
L 126.753595 187.039205 
L 135.499677 187.039205 
L 144.245758 185.997616 
L 152.99184 185.997616 
L 161.737921 184.435232 
L 170.484003 180.78967 
L 179.230084 179.227286 
L 187.976166 171.936161 
L 196.722247 168.811394 
L 205.468329 164.645037 
L 214.21441 161.520269 
L 222.960492 158.916296 
L 231.706573 154.749939 
L 240.452655 149.541993 
L 249.198736 140.16769 
L 257.944818 136.001333 
L 266.690899 124.023057 
L 275.436981 115.690343 
L 284.183062 108.399218 
L 292.929144 88.088228 
L 301.675225 76.109952 
L 310.421307 63.610881 
" clip-path="url(#pd98e6c9844)" style="fill: none; stroke: #008000; stroke-width: 2; stroke-linecap: square"/>
   </g>
   <g id="line2d_29">
    <path d="M 56.784943 187.56 
L 65.531025 187.039205 
L 74.277106 187.039205 
L 83.023188 187.039205 
L 91.769269 187.039205 
L 100.515351 187.039205 
L 109.261432 180.268875 
L 118.007514 177.144108 
L 126.753595 172.456956 
L 135.499677 168.811394 
L 144.245758 167.24901 
L 152.99184 163.082653 
L 161.737921 157.874707 
L 170.484003 150.062787 
L 179.230084 141.209279 
L 187.976166 137.042922 
L 196.722247 133.39736 
L 205.468329 128.710208 
L 214.21441 122.981467 
L 222.960492 119.335905 
L 231.706573 115.169548 
L 240.452655 109.961602 
L 249.198736 106.31604 
L 257.944818 100.587299 
L 266.690899 93.296174 
L 275.436981 86.525844 
L 284.183062 84.442666 
L 292.929144 78.713925 
L 301.675225 70.381211 
L 310.421307 57.361345 
" clip-path="url(#pd98e6c9844)" style="fill: none; stroke: #ffa500; stroke-width: 2; stroke-linecap: square"/>
   </g>
   <g id="patch_3">
    <path d="M 44.103125 195.12 
L 44.103125 28.8 
" style="fill: none; stroke: #000000; stroke-width: 0.8; stroke-linejoin: miter; stroke-linecap: square"/>
   </g>
   <g id="patch_4">
    <path d="M 323.103125 195.12 
L 323.103125 28.8 
" style="fill: none; stroke: #000000; stroke-width: 0.8; stroke-linejoin: miter; stroke-linecap: square"/>
   </g>
   <g id="patch_5">
    <path d="M 44.103125 195.12 
L 323.103125 195.12 
" style="fill: none; stroke: #000000; stroke-width: 0.8; stroke-linejoin: miter; stroke-linecap: square"/>
   </g>
   <g id="patch_6">
    <path d="M 44.103125 28.8 
L 323.103125 28.8 
" style="fill: none; stroke: #000000; stroke-width: 0.8; stroke-linejoin: miter; stroke-linecap: square"/>
   </g>
   <g id="legend_1">
    <g id="patch_7">
     <path d="M 51.103125 110.190625 
L 127.103125 110.190625 
Q 129.103125 110.190625 129.103125 108.190625 
L 129.103125 35.8 
Q 129.103125 33.8 127.103125 33.8 
L 51.103125 33.8 
Q 49.103125 33.8 49.103125 35.8 
L 49.103125 108.190625 
Q 49.103125 110.190625 51.103125 110.190625 
z
" style="fill: #ffffff; opacity: 0.8; stroke: #cccccc; stroke-linejoin: miter"/>
    </g>
    <g id="line2d_30">
     <path d="M 53.103125 41.898437 
L 63.103125 41.898437 
L 73.103125 41.898437 
" style="fill: none; stroke: #000000; stroke-width: 2; stroke-linecap: square"/>
    </g>
    <g id="text_15">
     <!-- Bound: $\epsilon$ -->
     <g transform="translate(81.103125 45.398437) scale(0.1 -0.1)">
      <defs>
       <path id="DejaVuSans-42" d="M 1259 2228 
L 1259 519 
L 2272 519 
Q 2781 519 3026 730 
Q 3272 941 3272 1375 
Q 3272 1813 3026 2020 
Q 2781 2228 2272 2228 
L 1259 2228 
z
M 1259 4147 
L 1259 2741 
L 2194 2741 
Q 2656 2741 2882 2914 
Q 3109 3088 3109 3444 
Q 3109 3797 2882 3972 
Q 2656 4147 2194 4147 
L 1259 4147 
z
M 628 4666 
L 2241 4666 
Q 2963 4666 3353 4366 
Q 3744 4066 3744 3513 
Q 3744 3084 3544 2831 
Q 3344 2578 2956 2516 
Q 3422 2416 3680 2098 
Q 3938 1781 3938 1306 
Q 3938 681 3513 340 
Q 3088 0 2303 0 
L 628 0 
L 628 4666 
z
" transform="scale(0.015625)"/>
       <path id="DejaVuSans-64" d="M 2906 2969 
L 2906 4863 
L 3481 4863 
L 3481 0 
L 2906 0 
L 2906 525 
Q 2725 213 2448 61 
Q 2172 -91 1784 -91 
Q 1150 -91 751 415 
Q 353 922 353 1747 
Q 353 2572 751 3078 
Q 1150 3584 1784 3584 
Q 2172 3584 2448 3432 
Q 2725 3281 2906 2969 
z
M 947 1747 
Q 947 1113 1208 752 
Q 1469 391 1925 391 
Q 2381 391 2643 752 
Q 2906 1113 2906 1747 
Q 2906 2381 2643 2742 
Q 2381 3103 1925 3103 
Q 1469 3103 1208 2742 
Q 947 2381 947 1747 
z
" transform="scale(0.015625)"/>
       <path id="DejaVuSans-3a" d="M 750 794 
L 1409 794 
L 1409 0 
L 750 0 
L 750 794 
z
M 750 3309 
L 1409 3309 
L 1409 2516 
L 750 2516 
L 750 3309 
z
" transform="scale(0.015625)"/>
      </defs>
      <use xlink:href="#DejaVuSans-42" transform="translate(0 0.015625)"/>
      <use xlink:href="#DejaVuSans-6f" transform="translate(68.603516 0.015625)"/>
      <use xlink:href="#DejaVuSans-75" transform="translate(129.785156 0.015625)"/>
      <use xlink:href="#DejaVuSans-6e" transform="translate(193.164062 0.015625)"/>
      <use xlink:href="#DejaVuSans-64" transform="translate(256.542969 0.015625)"/>
      <use xlink:href="#DejaVuSans-3a" transform="translate(320.019531 0.015625)"/>
      <use xlink:href="#DejaVuSans-20" transform="translate(353.710938 0.015625)"/>
      <use xlink:href="#DejaVuSans-Oblique-3b5" transform="translate(385.498047 0.015625)"/>
     </g>
    </g>
    <g id="line2d_31">
     <path d="M 53.103125 56.576562 
L 73.103125 56.576562 
" style="fill: none; stroke: #0000ff; stroke-width: 2; stroke-linecap: square"/>
    </g>
    <g id="line2d_32"/>
    <g id="text_16">
     <!-- PCA -->
     <g transform="translate(81.103125 60.076562) scale(0.1 -0.1)">
      <defs>
       <path id="DejaVuSans-43" d="M 4122 4306 
L 4122 3641 
Q 3803 3938 3442 4084 
Q 3081 4231 2675 4231 
Q 1875 4231 1450 3742 
Q 1025 3253 1025 2328 
Q 1025 1406 1450 917 
Q 1875 428 2675 428 
Q 3081 428 3442 575 
Q 3803 722 4122 1019 
L 4122 359 
Q 3791 134 3420 21 
Q 3050 -91 2638 -91 
Q 1578 -91 968 557 
Q 359 1206 359 2328 
Q 359 3453 968 4101 
Q 1578 4750 2638 4750 
Q 3056 4750 3426 4639 
Q 3797 4528 4122 4306 
z
" transform="scale(0.015625)"/>
       <path id="DejaVuSans-41" d="M 2188 4044 
L 1331 1722 
L 3047 1722 
L 2188 4044 
z
M 1831 4666 
L 2547 4666 
L 4325 0 
L 3669 0 
L 3244 1197 
L 1141 1197 
L 716 0 
L 50 0 
L 1831 4666 
z
" transform="scale(0.015625)"/>
      </defs>
      <use xlink:href="#DejaVuSans-50"/>
      <use xlink:href="#DejaVuSans-43" x="60.302734"/>
      <use xlink:href="#DejaVuSans-41" x="130.126953"/>
     </g>
    </g>
    <g id="line2d_33">
     <path d="M 53.103125 71.254687 
L 73.103125 71.254687 
" style="fill: none; stroke: #ff0000; stroke-width: 2; stroke-linecap: square"/>
    </g>
    <g id="line2d_34"/>
    <g id="text_17">
     <!-- KPCA -->
     <g transform="translate(81.103125 74.754687) scale(0.1 -0.1)">
      <defs>
       <path id="DejaVuSans-4b" d="M 628 4666 
L 1259 4666 
L 1259 2694 
L 3353 4666 
L 4166 4666 
L 1850 2491 
L 4331 0 
L 3500 0 
L 1259 2247 
L 1259 0 
L 628 0 
L 628 4666 
z
" transform="scale(0.015625)"/>
      </defs>
      <use xlink:href="#DejaVuSans-4b"/>
      <use xlink:href="#DejaVuSans-50" x="65.576172"/>
      <use xlink:href="#DejaVuSans-43" x="125.878906"/>
      <use xlink:href="#DejaVuSans-41" x="195.703125"/>
     </g>
    </g>
    <g id="line2d_35">
     <path d="M 53.103125 85.932812 
L 73.103125 85.932812 
" style="fill: none; stroke: #008000; stroke-width: 2; stroke-linecap: square"/>
    </g>
    <g id="line2d_36"/>
    <g id="text_18">
     <!-- AE -->
     <g transform="translate(81.103125 89.432812) scale(0.1 -0.1)">
      <defs>
       <path id="DejaVuSans-45" d="M 628 4666 
L 3578 4666 
L 3578 4134 
L 1259 4134 
L 1259 2753 
L 3481 2753 
L 3481 2222 
L 1259 2222 
L 1259 531 
L 3634 531 
L 3634 0 
L 628 0 
L 628 4666 
z
" transform="scale(0.015625)"/>
      </defs>
      <use xlink:href="#DejaVuSans-41"/>
      <use xlink:href="#DejaVuSans-45" x="68.408203"/>
     </g>
    </g>
    <g id="line2d_37">
     <path d="M 53.103125 100.610937 
L 73.103125 100.610937 
" style="fill: none; stroke: #ffa500; stroke-width: 2; stroke-linecap: square"/>
    </g>
    <g id="line2d_38"/>
    <g id="text_19">
     <!-- CLIP -->
     <g transform="translate(81.103125 104.110937) scale(0.1 -0.1)">
      <defs>
       <path id="DejaVuSans-4c" d="M 628 4666 
L 1259 4666 
L 1259 531 
L 3531 531 
L 3531 0 
L 628 0 
L 628 4666 
z
" transform="scale(0.015625)"/>
       <path id="DejaVuSans-49" d="M 628 4666 
L 1259 4666 
L 1259 0 
L 628 0 
L 628 4666 
z
" transform="scale(0.015625)"/>
      </defs>
      <use xlink:href="#DejaVuSans-43"/>
      <use xlink:href="#DejaVuSans-4c" x="69.824219"/>
      <use xlink:href="#DejaVuSans-49" x="125.537109"/>
      <use xlink:href="#DejaVuSans-50" x="155.029297"/>
     </g>
    </g>
   </g>
  </g>
  <g id="text_20">
   <!-- Empirical Miss Rate -->
   <g transform="translate(120.551563 16.318125) scale(0.12 -0.12)">
    <defs>
     <path id="DejaVuSans-6d" d="M 3328 2828 
Q 3544 3216 3844 3400 
Q 4144 3584 4550 3584 
Q 5097 3584 5394 3201 
Q 5691 2819 5691 2113 
L 5691 0 
L 5113 0 
L 5113 2094 
Q 5113 2597 4934 2840 
Q 4756 3084 4391 3084 
Q 3944 3084 3684 2787 
Q 3425 2491 3425 1978 
L 3425 0 
L 2847 0 
L 2847 2094 
Q 2847 2600 2669 2842 
Q 2491 3084 2119 3084 
Q 1678 3084 1418 2786 
Q 1159 2488 1159 1978 
L 1159 0 
L 581 0 
L 581 3500 
L 1159 3500 
L 1159 2956 
Q 1356 3278 1631 3431 
Q 1906 3584 2284 3584 
Q 2666 3584 2933 3390 
Q 3200 3197 3328 2828 
z
" transform="scale(0.015625)"/>
     <path id="DejaVuSans-70" d="M 1159 525 
L 1159 -1331 
L 581 -1331 
L 581 3500 
L 1159 3500 
L 1159 2969 
Q 1341 3281 1617 3432 
Q 1894 3584 2278 3584 
Q 2916 3584 3314 3078 
Q 3713 2572 3713 1747 
Q 3713 922 3314 415 
Q 2916 -91 2278 -91 
Q 1894 -91 1617 61 
Q 1341 213 1159 525 
z
M 3116 1747 
Q 3116 2381 2855 2742 
Q 2594 3103 2138 3103 
Q 1681 3103 1420 2742 
Q 1159 2381 1159 1747 
Q 1159 1113 1420 752 
Q 1681 391 2138 391 
Q 2594 391 2855 752 
Q 3116 1113 3116 1747 
z
" transform="scale(0.015625)"/>
     <path id="DejaVuSans-63" d="M 3122 3366 
L 3122 2828 
Q 2878 2963 2633 3030 
Q 2388 3097 2138 3097 
Q 1578 3097 1268 2742 
Q 959 2388 959 1747 
Q 959 1106 1268 751 
Q 1578 397 2138 397 
Q 2388 397 2633 464 
Q 2878 531 3122 666 
L 3122 134 
Q 2881 22 2623 -34 
Q 2366 -91 2075 -91 
Q 1284 -91 818 406 
Q 353 903 353 1747 
Q 353 2603 823 3093 
Q 1294 3584 2113 3584 
Q 2378 3584 2631 3529 
Q 2884 3475 3122 3366 
z
" transform="scale(0.015625)"/>
     <path id="DejaVuSans-6c" d="M 603 4863 
L 1178 4863 
L 1178 0 
L 603 0 
L 603 4863 
z
" transform="scale(0.015625)"/>
    </defs>
    <use xlink:href="#DejaVuSans-45"/>
    <use xlink:href="#DejaVuSans-6d" x="63.183594"/>
    <use xlink:href="#DejaVuSans-70" x="160.595703"/>
    <use xlink:href="#DejaVuSans-69" x="224.072266"/>
    <use xlink:href="#DejaVuSans-72" x="251.855469"/>
    <use xlink:href="#DejaVuSans-69" x="292.96875"/>
    <use xlink:href="#DejaVuSans-63" x="320.751953"/>
    <use xlink:href="#DejaVuSans-61" x="375.732422"/>
    <use xlink:href="#DejaVuSans-6c" x="437.011719"/>
    <use xlink:href="#DejaVuSans-20" x="464.794922"/>
    <use xlink:href="#DejaVuSans-4d" x="496.582031"/>
    <use xlink:href="#DejaVuSans-69" x="582.861328"/>
    <use xlink:href="#DejaVuSans-73" x="610.644531"/>
    <use xlink:href="#DejaVuSans-73" x="662.744141"/>
    <use xlink:href="#DejaVuSans-20" x="714.84375"/>
    <use xlink:href="#DejaVuSans-52" x="746.630859"/>
    <use xlink:href="#DejaVuSans-61" x="813.863281"/>
    <use xlink:href="#DejaVuSans-74" x="875.142578"/>
    <use xlink:href="#DejaVuSans-65" x="914.351562"/>
   </g>
  </g>
 </g>
 <defs>
  <clipPath id="pd98e6c9844">
   <rect x="44.103125" y="28.8" width="279" height="166.32"/>
  </clipPath>
 </defs>
</svg>
